%TF.GenerationSoftware,KiCad,Pcbnew,9.0.1*%
%TF.CreationDate,2025-05-15T18:24:47+02:00*%
%TF.ProjectId,Marble_Tiny,4d617262-6c65-45f5-9469-6e792e6b6963,rev?*%
%TF.SameCoordinates,Original*%
%TF.FileFunction,Other,User*%
%FSLAX46Y46*%
G04 Gerber Fmt 4.6, Leading zero omitted, Abs format (unit mm)*
G04 Created by KiCad (PCBNEW 9.0.1) date 2025-05-15 18:24:47*
%MOMM*%
%LPD*%
G01*
G04 APERTURE LIST*
%ADD10C,0.050000*%
%ADD11C,0.100000*%
G04 APERTURE END LIST*
D10*
%TO.C,C103*%
X173890000Y-99140000D02*
X173890000Y-100060000D01*
X173890000Y-99140000D02*
X175710000Y-99140000D01*
X173890000Y-100060000D02*
X175710000Y-100060000D01*
X175710000Y-99140000D02*
X175710000Y-100060000D01*
%TO.C,C32*%
X141690000Y-54940000D02*
X141690000Y-55860000D01*
X141690000Y-54940000D02*
X143510000Y-54940000D01*
X141690000Y-55860000D02*
X143510000Y-55860000D01*
X143510000Y-54940000D02*
X143510000Y-55860000D01*
%TO.C,R180*%
X178590000Y-135190000D02*
X178590000Y-136110000D01*
X178590000Y-135190000D02*
X180410000Y-135190000D01*
X178590000Y-136110000D02*
X180410000Y-136110000D01*
X180410000Y-135190000D02*
X180410000Y-136110000D01*
%TO.C,C95*%
X189450000Y-92850000D02*
X189450000Y-93350000D01*
X189450000Y-92850000D02*
X190750000Y-92850000D01*
X189450000Y-93350000D02*
X190750000Y-93350000D01*
X190750000Y-92850000D02*
X190750000Y-93350000D01*
%TO.C,C122*%
X172750000Y-97100000D02*
X172750000Y-99100000D01*
X172750000Y-97100000D02*
X176250000Y-97100000D01*
X172750000Y-99100000D02*
X176250000Y-99100000D01*
X176250000Y-97100000D02*
X176250000Y-99100000D01*
%TO.C,C240*%
X192050000Y-118650000D02*
X192050000Y-119950000D01*
X192550000Y-118650000D02*
X192050000Y-118650000D01*
X192550000Y-118650000D02*
X192550000Y-119950000D01*
X192550000Y-119950000D02*
X192050000Y-119950000D01*
%TO.C,C108*%
X186040000Y-90890000D02*
X186040000Y-92710000D01*
X186960000Y-90890000D02*
X186040000Y-90890000D01*
X186960000Y-90890000D02*
X186960000Y-92710000D01*
X186960000Y-92710000D02*
X186040000Y-92710000D01*
%TO.C,C126*%
X178650000Y-89697117D02*
X178650000Y-90197117D01*
X178650000Y-89697117D02*
X179950000Y-89697117D01*
X178650000Y-90197117D02*
X179950000Y-90197117D01*
X179950000Y-89697117D02*
X179950000Y-90197117D01*
%TO.C,C38*%
X147650000Y-92500000D02*
X149550000Y-92500000D01*
X147650000Y-95900000D02*
X147650000Y-92500000D01*
X147650000Y-95900000D02*
X149550000Y-95900000D01*
X149550000Y-95900000D02*
X149550000Y-92500000D01*
%TO.C,C245*%
X191150000Y-121850000D02*
X191650000Y-121850000D01*
X191150000Y-123150000D02*
X191150000Y-121850000D01*
X191150000Y-123150000D02*
X191650000Y-123150000D01*
X191650000Y-123150000D02*
X191650000Y-121850000D01*
%TO.C,C63*%
X184390000Y-122760000D02*
X184390000Y-121840000D01*
X186210000Y-121840000D02*
X184390000Y-121840000D01*
X186210000Y-122760000D02*
X184390000Y-122760000D01*
X186210000Y-122760000D02*
X186210000Y-121840000D01*
%TO.C,C34*%
X146790000Y-97260000D02*
X146790000Y-96340000D01*
X148610000Y-96340000D02*
X146790000Y-96340000D01*
X148610000Y-97260000D02*
X146790000Y-97260000D01*
X148610000Y-97260000D02*
X148610000Y-96340000D01*
%TO.C,C66*%
X194440000Y-129290000D02*
X194440000Y-131110000D01*
X195360000Y-129290000D02*
X194440000Y-129290000D01*
X195360000Y-129290000D02*
X195360000Y-131110000D01*
X195360000Y-131110000D02*
X194440000Y-131110000D01*
%TO.C,C168*%
X176690000Y-100340000D02*
X176690000Y-101260000D01*
X176690000Y-100340000D02*
X178510000Y-100340000D01*
X176690000Y-101260000D02*
X178510000Y-101260000D01*
X178510000Y-100340000D02*
X178510000Y-101260000D01*
%TO.C,C94*%
X183850000Y-95250000D02*
X183850000Y-95750000D01*
X183850000Y-95250000D02*
X185150000Y-95250000D01*
X183850000Y-95750000D02*
X185150000Y-95750000D01*
X185150000Y-95250000D02*
X185150000Y-95750000D01*
%TO.C,C244*%
X198050000Y-121050000D02*
X198050000Y-122350000D01*
X198550000Y-121050000D02*
X198050000Y-121050000D01*
X198550000Y-121050000D02*
X198550000Y-122350000D01*
X198550000Y-122350000D02*
X198050000Y-122350000D01*
%TO.C,L16*%
X184190000Y-94240000D02*
X184190000Y-95160000D01*
X184190000Y-94240000D02*
X186010000Y-94240000D01*
X184190000Y-95160000D02*
X186010000Y-95160000D01*
X186010000Y-94240000D02*
X186010000Y-95160000D01*
%TO.C,C5*%
X149030000Y-107110000D02*
X149030000Y-106090000D01*
X150970000Y-106090000D02*
X149030000Y-106090000D01*
X150970000Y-107110000D02*
X149030000Y-107110000D01*
X150970000Y-107110000D02*
X150970000Y-106090000D01*
%TO.C,R55*%
X186890000Y-119760000D02*
X186890000Y-118840000D01*
X188710000Y-118840000D02*
X186890000Y-118840000D01*
X188710000Y-119760000D02*
X186890000Y-119760000D01*
X188710000Y-119760000D02*
X188710000Y-118840000D01*
%TO.C,C165*%
X182850000Y-99250000D02*
X182850000Y-100550000D01*
X183350000Y-99250000D02*
X182850000Y-99250000D01*
X183350000Y-99250000D02*
X183350000Y-100550000D01*
X183350000Y-100550000D02*
X182850000Y-100550000D01*
%TO.C,C121*%
X195050000Y-94550000D02*
X195050000Y-94050000D01*
X196350000Y-94050000D02*
X195050000Y-94050000D01*
X196350000Y-94550000D02*
X195050000Y-94550000D01*
X196350000Y-94550000D02*
X196350000Y-94050000D01*
%TO.C,C139*%
X192750000Y-87750000D02*
X192750000Y-87250000D01*
X194050000Y-87250000D02*
X192750000Y-87250000D01*
X194050000Y-87750000D02*
X192750000Y-87750000D01*
X194050000Y-87750000D02*
X194050000Y-87250000D01*
%TO.C,C249*%
X195350000Y-120250000D02*
X195350000Y-121550000D01*
X195850000Y-120250000D02*
X195350000Y-120250000D01*
X195850000Y-120250000D02*
X195850000Y-121550000D01*
X195850000Y-121550000D02*
X195350000Y-121550000D01*
%TO.C,C230*%
X192350000Y-113350000D02*
X192350000Y-112850000D01*
X193650000Y-112850000D02*
X192350000Y-112850000D01*
X193650000Y-113350000D02*
X192350000Y-113350000D01*
X193650000Y-113350000D02*
X193650000Y-112850000D01*
%TO.C,R90*%
X182940000Y-83090000D02*
X182940000Y-84910000D01*
X183860000Y-83090000D02*
X182940000Y-83090000D01*
X183860000Y-83090000D02*
X183860000Y-84910000D01*
X183860000Y-84910000D02*
X182940000Y-84910000D01*
%TO.C,R58*%
X194040000Y-126190000D02*
X194040000Y-128010000D01*
X194960000Y-126190000D02*
X194040000Y-126190000D01*
X194960000Y-126190000D02*
X194960000Y-128010000D01*
X194960000Y-128010000D02*
X194040000Y-128010000D01*
%TO.C,C92*%
X187850000Y-92850000D02*
X187850000Y-93350000D01*
X187850000Y-92850000D02*
X189150000Y-92850000D01*
X187850000Y-93350000D02*
X189150000Y-93350000D01*
X189150000Y-92850000D02*
X189150000Y-93350000D01*
%TO.C,C68*%
X189440000Y-129290000D02*
X189440000Y-131110000D01*
X190360000Y-129290000D02*
X189440000Y-129290000D01*
X190360000Y-129290000D02*
X190360000Y-131110000D01*
X190360000Y-131110000D02*
X189440000Y-131110000D01*
%TO.C,C153*%
X190150000Y-107650000D02*
X190650000Y-107650000D01*
X190150000Y-108950000D02*
X190150000Y-107650000D01*
X190150000Y-108950000D02*
X190650000Y-108950000D01*
X190650000Y-108950000D02*
X190650000Y-107650000D01*
%TO.C,R11*%
X151890000Y-108460000D02*
X151890000Y-107540000D01*
X153710000Y-107540000D02*
X151890000Y-107540000D01*
X153710000Y-108460000D02*
X151890000Y-108460000D01*
X153710000Y-108460000D02*
X153710000Y-107540000D01*
%TO.C,C123*%
X185240000Y-83890000D02*
X185240000Y-85710000D01*
X186160000Y-83890000D02*
X185240000Y-83890000D01*
X186160000Y-83890000D02*
X186160000Y-85710000D01*
X186160000Y-85710000D02*
X185240000Y-85710000D01*
%TO.C,C14*%
X139590000Y-104940000D02*
X139590000Y-105860000D01*
X139590000Y-104940000D02*
X141410000Y-104940000D01*
X139590000Y-105860000D02*
X141410000Y-105860000D01*
X141410000Y-104940000D02*
X141410000Y-105860000D01*
%TO.C,R171*%
X164940000Y-61090000D02*
X164940000Y-62910000D01*
X165860000Y-61090000D02*
X164940000Y-61090000D01*
X165860000Y-61090000D02*
X165860000Y-62910000D01*
X165860000Y-62910000D02*
X164940000Y-62910000D01*
%TO.C,C100*%
X184650000Y-96050000D02*
X184650000Y-96550000D01*
X184650000Y-96050000D02*
X185950000Y-96050000D01*
X184650000Y-96550000D02*
X185950000Y-96550000D01*
X185950000Y-96050000D02*
X185950000Y-96550000D01*
%TO.C,C120*%
X182250000Y-94450000D02*
X182250000Y-94950000D01*
X182250000Y-94450000D02*
X183550000Y-94450000D01*
X182250000Y-94950000D02*
X183550000Y-94950000D01*
X183550000Y-94450000D02*
X183550000Y-94950000D01*
%TO.C,R54*%
X197040000Y-126190000D02*
X197040000Y-128010000D01*
X197960000Y-126190000D02*
X197040000Y-126190000D01*
X197960000Y-126190000D02*
X197960000Y-128010000D01*
X197960000Y-128010000D02*
X197040000Y-128010000D01*
%TO.C,C119*%
X168500000Y-95000000D02*
X168500000Y-97000000D01*
X168500000Y-95000000D02*
X172000000Y-95000000D01*
X168500000Y-97000000D02*
X172000000Y-97000000D01*
X172000000Y-95000000D02*
X172000000Y-97000000D01*
%TO.C,C128*%
X187850000Y-87950000D02*
X187850000Y-89250000D01*
X188350000Y-87950000D02*
X187850000Y-87950000D01*
X188350000Y-87950000D02*
X188350000Y-89250000D01*
X188350000Y-89250000D02*
X187850000Y-89250000D01*
%TO.C,C131*%
X178190000Y-85440000D02*
X178190000Y-86360000D01*
X178190000Y-85440000D02*
X180010000Y-85440000D01*
X178190000Y-86360000D02*
X180010000Y-86360000D01*
X180010000Y-85440000D02*
X180010000Y-86360000D01*
%TO.C,C236*%
X197150000Y-115350000D02*
X197150000Y-115850000D01*
X197150000Y-115350000D02*
X198450000Y-115350000D01*
X197150000Y-115850000D02*
X198450000Y-115850000D01*
X198450000Y-115350000D02*
X198450000Y-115850000D01*
%TO.C,C110*%
X183800000Y-103150000D02*
X185800000Y-103150000D01*
X183800000Y-106650000D02*
X183800000Y-103150000D01*
X183800000Y-106650000D02*
X185800000Y-106650000D01*
X185800000Y-106650000D02*
X185800000Y-103150000D01*
%TO.C,C90*%
X186250000Y-92850000D02*
X186250000Y-93350000D01*
X186250000Y-92850000D02*
X187550000Y-92850000D01*
X186250000Y-93350000D02*
X187550000Y-93350000D01*
X187550000Y-92850000D02*
X187550000Y-93350000D01*
%TO.C,C40*%
X139840000Y-57690000D02*
X139840000Y-59510000D01*
X140760000Y-57690000D02*
X139840000Y-57690000D01*
X140760000Y-57690000D02*
X140760000Y-59510000D01*
X140760000Y-59510000D02*
X139840000Y-59510000D01*
%TO.C,R72*%
X198640000Y-117590000D02*
X199560000Y-117590000D01*
X198640000Y-119410000D02*
X198640000Y-117590000D01*
X198640000Y-119410000D02*
X199560000Y-119410000D01*
X199560000Y-119410000D02*
X199560000Y-117590000D01*
%TO.C,C239*%
X191350000Y-117750000D02*
X191350000Y-118250000D01*
X191350000Y-117750000D02*
X192650000Y-117750000D01*
X191350000Y-118250000D02*
X192650000Y-118250000D01*
X192650000Y-117750000D02*
X192650000Y-118250000D01*
%TO.C,C118*%
X170090000Y-97040000D02*
X170090000Y-97960000D01*
X170090000Y-97040000D02*
X171910000Y-97040000D01*
X170090000Y-97960000D02*
X171910000Y-97960000D01*
X171910000Y-97040000D02*
X171910000Y-97960000D01*
%TO.C,R1*%
X179200000Y-114450000D02*
X179200000Y-112950000D01*
X182200000Y-112950000D02*
X179200000Y-112950000D01*
X182200000Y-114450000D02*
X179200000Y-114450000D01*
X182200000Y-114450000D02*
X182200000Y-112950000D01*
%TO.C,R146*%
X132140000Y-130690000D02*
X132140000Y-132510000D01*
X133060000Y-130690000D02*
X132140000Y-130690000D01*
X133060000Y-130690000D02*
X133060000Y-132510000D01*
X133060000Y-132510000D02*
X132140000Y-132510000D01*
%TO.C,L8*%
X141950000Y-92350000D02*
X141950000Y-96250000D01*
X141950000Y-96250000D02*
X144650000Y-96250000D01*
X144650000Y-92350000D02*
X141950000Y-92350000D01*
X144650000Y-96250000D02*
X144650000Y-92350000D01*
%TO.C,R15*%
X151890000Y-110540000D02*
X151890000Y-111460000D01*
X151890000Y-110540000D02*
X153710000Y-110540000D01*
X151890000Y-111460000D02*
X153710000Y-111460000D01*
X153710000Y-110540000D02*
X153710000Y-111460000D01*
%TO.C,R178*%
X151690000Y-117240000D02*
X152610000Y-117240000D01*
X151690000Y-119060000D02*
X151690000Y-117240000D01*
X151690000Y-119060000D02*
X152610000Y-119060000D01*
X152610000Y-119060000D02*
X152610000Y-117240000D01*
%TO.C,C105*%
X186040000Y-93590000D02*
X186040000Y-95410000D01*
X186960000Y-93590000D02*
X186040000Y-93590000D01*
X186960000Y-93590000D02*
X186960000Y-95410000D01*
X186960000Y-95410000D02*
X186040000Y-95410000D01*
%TO.C,C144*%
X192250000Y-102150000D02*
X192250000Y-101650000D01*
X193550000Y-101650000D02*
X192250000Y-101650000D01*
X193550000Y-102150000D02*
X192250000Y-102150000D01*
X193550000Y-102150000D02*
X193550000Y-101650000D01*
%TO.C,C137*%
X180650000Y-94150000D02*
X180650000Y-93650000D01*
X181950000Y-93650000D02*
X180650000Y-93650000D01*
X181950000Y-94150000D02*
X180650000Y-94150000D01*
X181950000Y-94150000D02*
X181950000Y-93650000D01*
%TO.C,C154*%
X187040000Y-93650000D02*
X187040000Y-94150000D01*
X187040000Y-93650000D02*
X188340000Y-93650000D01*
X187040000Y-94150000D02*
X188340000Y-94150000D01*
X188340000Y-93650000D02*
X188340000Y-94150000D01*
%TO.C,C72*%
X123440000Y-109940000D02*
X123440000Y-110860000D01*
X123440000Y-109940000D02*
X125260000Y-109940000D01*
X123440000Y-110860000D02*
X125260000Y-110860000D01*
X125260000Y-109940000D02*
X125260000Y-110860000D01*
%TO.C,C167*%
X176690000Y-101340000D02*
X176690000Y-102260000D01*
X176690000Y-101340000D02*
X178510000Y-101340000D01*
X176690000Y-102260000D02*
X178510000Y-102260000D01*
X178510000Y-101340000D02*
X178510000Y-102260000D01*
%TO.C,L15*%
X185367500Y-107400000D02*
X185367500Y-109400000D01*
X185367500Y-107400000D02*
X188867500Y-107400000D01*
X185367500Y-109400000D02*
X188867500Y-109400000D01*
X188867500Y-107400000D02*
X188867500Y-109400000D01*
%TO.C,U22*%
X113350000Y-115480000D02*
X113350000Y-109980000D01*
X120850000Y-109980000D02*
X113350000Y-109980000D01*
X120850000Y-115480000D02*
X113350000Y-115480000D01*
X120850000Y-115480000D02*
X120850000Y-109980000D01*
%TO.C,L9*%
X144850000Y-92350000D02*
X144850000Y-96250000D01*
X144850000Y-96250000D02*
X147550000Y-96250000D01*
X147550000Y-92350000D02*
X144850000Y-92350000D01*
X147550000Y-96250000D02*
X147550000Y-92350000D01*
%TO.C,R169*%
X180390000Y-129440000D02*
X180390000Y-130360000D01*
X180390000Y-129440000D02*
X182210000Y-129440000D01*
X180390000Y-130360000D02*
X182210000Y-130360000D01*
X182210000Y-129440000D02*
X182210000Y-130360000D01*
%TO.C,C235*%
X197850000Y-116950000D02*
X197850000Y-118250000D01*
X198350000Y-116950000D02*
X197850000Y-116950000D01*
X198350000Y-116950000D02*
X198350000Y-118250000D01*
X198350000Y-118250000D02*
X197850000Y-118250000D01*
%TO.C,R145*%
X178590000Y-135110000D02*
X178590000Y-134190000D01*
X180410000Y-134190000D02*
X178590000Y-134190000D01*
X180410000Y-135110000D02*
X178590000Y-135110000D01*
X180410000Y-135110000D02*
X180410000Y-134190000D01*
%TO.C,C250*%
X189850000Y-116750000D02*
X189850000Y-118050000D01*
X190350000Y-116750000D02*
X189850000Y-116750000D01*
X190350000Y-116750000D02*
X190350000Y-118050000D01*
X190350000Y-118050000D02*
X189850000Y-118050000D01*
%TO.C,C134*%
X181250000Y-87250000D02*
X181250000Y-88550000D01*
X181750000Y-87250000D02*
X181250000Y-87250000D01*
X181750000Y-87250000D02*
X181750000Y-88550000D01*
X181750000Y-88550000D02*
X181250000Y-88550000D01*
%TO.C,C166*%
X184150000Y-101050000D02*
X184650000Y-101050000D01*
X184150000Y-102350000D02*
X184150000Y-101050000D01*
X184150000Y-102350000D02*
X184650000Y-102350000D01*
X184650000Y-102350000D02*
X184650000Y-101050000D01*
%TO.C,R53*%
X186890000Y-123760000D02*
X186890000Y-122840000D01*
X188710000Y-122840000D02*
X186890000Y-122840000D01*
X188710000Y-123760000D02*
X186890000Y-123760000D01*
X188710000Y-123760000D02*
X188710000Y-122840000D01*
%TO.C,C124*%
X192550000Y-96650000D02*
X193050000Y-96650000D01*
X192550000Y-97950000D02*
X192550000Y-96650000D01*
X192550000Y-97950000D02*
X193050000Y-97950000D01*
X193050000Y-97950000D02*
X193050000Y-96650000D01*
%TO.C,C130*%
X193650000Y-90550000D02*
X193650000Y-90050000D01*
X194950000Y-90050000D02*
X193650000Y-90050000D01*
X194950000Y-90550000D02*
X193650000Y-90550000D01*
X194950000Y-90550000D02*
X194950000Y-90050000D01*
%TO.C,L6*%
X145750000Y-55950000D02*
X145750000Y-59850000D01*
X145750000Y-59850000D02*
X148450000Y-59850000D01*
X148450000Y-55950000D02*
X145750000Y-55950000D01*
X148450000Y-59850000D02*
X148450000Y-55950000D01*
%TO.C,C164*%
X180850000Y-101000000D02*
X180850000Y-102300000D01*
X181350000Y-101000000D02*
X180850000Y-101000000D01*
X181350000Y-101000000D02*
X181350000Y-102300000D01*
X181350000Y-102300000D02*
X180850000Y-102300000D01*
%TO.C,C138*%
X178657324Y-90701217D02*
X178657324Y-91201217D01*
X178657324Y-90701217D02*
X179957324Y-90701217D01*
X178657324Y-91201217D02*
X179957324Y-91201217D01*
X179957324Y-90701217D02*
X179957324Y-91201217D01*
%TO.C,C159*%
X182250000Y-97650000D02*
X182250000Y-98950000D01*
X182750000Y-97650000D02*
X182250000Y-97650000D01*
X182750000Y-97650000D02*
X182750000Y-98950000D01*
X182750000Y-98950000D02*
X182250000Y-98950000D01*
%TO.C,C145*%
X193850000Y-98550000D02*
X193850000Y-98050000D01*
X195150000Y-98050000D02*
X193850000Y-98050000D01*
X195150000Y-98550000D02*
X193850000Y-98550000D01*
X195150000Y-98550000D02*
X195150000Y-98050000D01*
%TO.C,C232*%
X191450000Y-113850000D02*
X191950000Y-113850000D01*
X191450000Y-115150000D02*
X191450000Y-113850000D01*
X191450000Y-115150000D02*
X191950000Y-115150000D01*
X191950000Y-115150000D02*
X191950000Y-113850000D01*
%TO.C,C161*%
X176690000Y-98140000D02*
X176690000Y-99060000D01*
X176690000Y-98140000D02*
X178510000Y-98140000D01*
X176690000Y-99060000D02*
X178510000Y-99060000D01*
X178510000Y-98140000D02*
X178510000Y-99060000D01*
%TO.C,R144*%
X147840000Y-130390000D02*
X147840000Y-132210000D01*
X148760000Y-130390000D02*
X147840000Y-130390000D01*
X148760000Y-130390000D02*
X148760000Y-132210000D01*
X148760000Y-132210000D02*
X147840000Y-132210000D01*
%TO.C,C42*%
X149740000Y-92690000D02*
X150660000Y-92690000D01*
X149740000Y-94510000D02*
X149740000Y-92690000D01*
X149740000Y-94510000D02*
X150660000Y-94510000D01*
X150660000Y-94510000D02*
X150660000Y-92690000D01*
%TO.C,C115*%
X183850000Y-91250000D02*
X183850000Y-92550000D01*
X184350000Y-91250000D02*
X183850000Y-91250000D01*
X184350000Y-91250000D02*
X184350000Y-92550000D01*
X184350000Y-92550000D02*
X183850000Y-92550000D01*
%TO.C,C148*%
X187850000Y-96850000D02*
X187850000Y-98150000D01*
X188350000Y-96850000D02*
X187850000Y-96850000D01*
X188350000Y-96850000D02*
X188350000Y-98150000D01*
X188350000Y-98150000D02*
X187850000Y-98150000D01*
%TO.C,C242*%
X198050000Y-122650000D02*
X198050000Y-123950000D01*
X198550000Y-122650000D02*
X198050000Y-122650000D01*
X198550000Y-122650000D02*
X198550000Y-123950000D01*
X198550000Y-123950000D02*
X198050000Y-123950000D01*
%TO.C,C143*%
X188650000Y-100250000D02*
X189150000Y-100250000D01*
X188650000Y-101550000D02*
X188650000Y-100250000D01*
X188650000Y-101550000D02*
X189150000Y-101550000D01*
X189150000Y-101550000D02*
X189150000Y-100250000D01*
%TO.C,C238*%
X197950000Y-112950000D02*
X197950000Y-114250000D01*
X198450000Y-112950000D02*
X197950000Y-112950000D01*
X198450000Y-112950000D02*
X198450000Y-114250000D01*
X198450000Y-114250000D02*
X197950000Y-114250000D01*
%TO.C,C186*%
X163800000Y-112450000D02*
X163800000Y-112950000D01*
X163800000Y-112450000D02*
X165100000Y-112450000D01*
X163800000Y-112950000D02*
X165100000Y-112950000D01*
X165100000Y-112450000D02*
X165100000Y-112950000D01*
%TO.C,U9*%
X188680000Y-104000000D02*
X192520000Y-104000000D01*
X188680000Y-107400000D02*
X188680000Y-104000000D01*
X192520000Y-104000000D02*
X192520000Y-107400000D01*
X192520000Y-107400000D02*
X188680000Y-107400000D01*
%TO.C,C107*%
X187690000Y-95260000D02*
X187690000Y-94340000D01*
X189510000Y-94340000D02*
X187690000Y-94340000D01*
X189510000Y-95260000D02*
X187690000Y-95260000D01*
X189510000Y-95260000D02*
X189510000Y-94340000D01*
%TO.C,C147*%
X190150000Y-96050000D02*
X190150000Y-97350000D01*
X190650000Y-96050000D02*
X190150000Y-96050000D01*
X190650000Y-96050000D02*
X190650000Y-97350000D01*
X190650000Y-97350000D02*
X190150000Y-97350000D01*
%TO.C,C142*%
X194690000Y-96840000D02*
X194690000Y-97760000D01*
X194690000Y-96840000D02*
X196510000Y-96840000D01*
X194690000Y-97760000D02*
X196510000Y-97760000D01*
X196510000Y-96840000D02*
X196510000Y-97760000D01*
%TO.C,R16*%
X151890000Y-107460000D02*
X151890000Y-106540000D01*
X153710000Y-106540000D02*
X151890000Y-106540000D01*
X153710000Y-107460000D02*
X151890000Y-107460000D01*
X153710000Y-107460000D02*
X153710000Y-106540000D01*
%TO.C,C179*%
X131340000Y-127990000D02*
X131340000Y-129810000D01*
X132260000Y-127990000D02*
X131340000Y-127990000D01*
X132260000Y-127990000D02*
X132260000Y-129810000D01*
X132260000Y-129810000D02*
X131340000Y-129810000D01*
%TO.C,R112*%
X157940000Y-125190000D02*
X158860000Y-125190000D01*
X157940000Y-127010000D02*
X157940000Y-125190000D01*
X157940000Y-127010000D02*
X158860000Y-127010000D01*
X158860000Y-127010000D02*
X158860000Y-125190000D01*
%TO.C,C104*%
X194690000Y-96760000D02*
X194690000Y-95840000D01*
X196510000Y-95840000D02*
X194690000Y-95840000D01*
X196510000Y-96760000D02*
X194690000Y-96760000D01*
X196510000Y-96760000D02*
X196510000Y-95840000D01*
%TO.C,C33*%
X140990000Y-96340000D02*
X140990000Y-97260000D01*
X140990000Y-96340000D02*
X142810000Y-96340000D01*
X140990000Y-97260000D02*
X142810000Y-97260000D01*
X142810000Y-96340000D02*
X142810000Y-97260000D01*
%TO.C,R165*%
X176740000Y-61290000D02*
X176740000Y-63110000D01*
X177660000Y-61290000D02*
X176740000Y-61290000D01*
X177660000Y-61290000D02*
X177660000Y-63110000D01*
X177660000Y-63110000D02*
X176740000Y-63110000D01*
%TO.C,C89*%
X185450000Y-91250000D02*
X185450000Y-92550000D01*
X185950000Y-91250000D02*
X185450000Y-91250000D01*
X185950000Y-91250000D02*
X185950000Y-92550000D01*
X185950000Y-92550000D02*
X185450000Y-92550000D01*
%TO.C,C96*%
X188650000Y-97350000D02*
X188650000Y-96850000D01*
X189950000Y-96850000D02*
X188650000Y-96850000D01*
X189950000Y-97350000D02*
X188650000Y-97350000D01*
X189950000Y-97350000D02*
X189950000Y-96850000D01*
%TO.C,TP4*%
X146250000Y-98750000D02*
G75*
G02*
X143750000Y-98750000I-1250000J0D01*
G01*
X143750000Y-98750000D02*
G75*
G02*
X146250000Y-98750000I1250000J0D01*
G01*
%TO.C,R70*%
X186890000Y-121760000D02*
X186890000Y-120840000D01*
X188710000Y-120840000D02*
X186890000Y-120840000D01*
X188710000Y-121760000D02*
X186890000Y-121760000D01*
X188710000Y-121760000D02*
X188710000Y-120840000D01*
%TO.C,C136*%
X183850000Y-86450000D02*
X183850000Y-87750000D01*
X184350000Y-86450000D02*
X183850000Y-86450000D01*
X184350000Y-86450000D02*
X184350000Y-87750000D01*
X184350000Y-87750000D02*
X183850000Y-87750000D01*
%TO.C,R95*%
X150140000Y-116552500D02*
X151060000Y-116552500D01*
X150140000Y-118372500D02*
X150140000Y-116552500D01*
X150140000Y-118372500D02*
X151060000Y-118372500D01*
X151060000Y-118372500D02*
X151060000Y-116552500D01*
%TO.C,C146*%
X191050000Y-94050000D02*
X191550000Y-94050000D01*
X191050000Y-95350000D02*
X191050000Y-94050000D01*
X191050000Y-95350000D02*
X191550000Y-95350000D01*
X191550000Y-95350000D02*
X191550000Y-94050000D01*
%TO.C,R69*%
X186890000Y-120760000D02*
X186890000Y-119840000D01*
X188710000Y-119840000D02*
X186890000Y-119840000D01*
X188710000Y-120760000D02*
X186890000Y-120760000D01*
X188710000Y-120760000D02*
X188710000Y-119840000D01*
%TO.C,C169*%
X179050000Y-100850000D02*
X179550000Y-100850000D01*
X179050000Y-102150000D02*
X179050000Y-100850000D01*
X179050000Y-102150000D02*
X179550000Y-102150000D01*
X179550000Y-102150000D02*
X179550000Y-100850000D01*
%TO.C,R97*%
X148040000Y-118552500D02*
X148960000Y-118552500D01*
X148040000Y-120372500D02*
X148040000Y-118552500D01*
X148040000Y-120372500D02*
X148960000Y-120372500D01*
X148960000Y-120372500D02*
X148960000Y-118552500D01*
%TO.C,C15*%
X139590000Y-107140000D02*
X139590000Y-108060000D01*
X139590000Y-107140000D02*
X141410000Y-107140000D01*
X139590000Y-108060000D02*
X141410000Y-108060000D01*
X141410000Y-107140000D02*
X141410000Y-108060000D01*
%TO.C,C149*%
X192550000Y-98750000D02*
X193050000Y-98750000D01*
X192550000Y-100050000D02*
X192550000Y-98750000D01*
X192550000Y-100050000D02*
X193050000Y-100050000D01*
X193050000Y-100050000D02*
X193050000Y-98750000D01*
%TO.C,R168*%
X194690000Y-117690000D02*
X195610000Y-117690000D01*
X194690000Y-119510000D02*
X194690000Y-117690000D01*
X194690000Y-119510000D02*
X195610000Y-119510000D01*
X195610000Y-119510000D02*
X195610000Y-117690000D01*
%TO.C,C31*%
X147490000Y-55860000D02*
X147490000Y-54940000D01*
X149310000Y-54940000D02*
X147490000Y-54940000D01*
X149310000Y-55860000D02*
X147490000Y-55860000D01*
X149310000Y-55860000D02*
X149310000Y-54940000D01*
%TO.C,R71*%
X186890000Y-118760000D02*
X186890000Y-117840000D01*
X188710000Y-117840000D02*
X186890000Y-117840000D01*
X188710000Y-118760000D02*
X186890000Y-118760000D01*
X188710000Y-118760000D02*
X188710000Y-117840000D01*
%TO.C,R91*%
X128250000Y-126750000D02*
X128250000Y-130250000D01*
X130150000Y-126750000D02*
X128250000Y-126750000D01*
X130150000Y-126750000D02*
X130150000Y-130250000D01*
X130150000Y-130250000D02*
X128250000Y-130250000D01*
%TO.C,R170*%
X163940000Y-61090000D02*
X163940000Y-62910000D01*
X164860000Y-61090000D02*
X163940000Y-61090000D01*
X164860000Y-61090000D02*
X164860000Y-62910000D01*
X164860000Y-62910000D02*
X163940000Y-62910000D01*
%TO.C,C91*%
X189550000Y-95100000D02*
X189550000Y-95600000D01*
X189550000Y-95100000D02*
X190850000Y-95100000D01*
X189550000Y-95600000D02*
X190850000Y-95600000D01*
X190850000Y-95100000D02*
X190850000Y-95600000D01*
%TO.C,C233*%
X192250000Y-114650000D02*
X192750000Y-114650000D01*
X192250000Y-115950000D02*
X192250000Y-114650000D01*
X192250000Y-115950000D02*
X192750000Y-115950000D01*
X192750000Y-115950000D02*
X192750000Y-114650000D01*
%TO.C,R52*%
X198040000Y-126190000D02*
X198040000Y-128010000D01*
X198960000Y-126190000D02*
X198040000Y-126190000D01*
X198960000Y-126190000D02*
X198960000Y-128010000D01*
X198960000Y-128010000D02*
X198040000Y-128010000D01*
%TO.C,C36*%
X140850000Y-56300000D02*
X140850000Y-59700000D01*
X142750000Y-56300000D02*
X140850000Y-56300000D01*
X142750000Y-56300000D02*
X142750000Y-59700000D01*
X142750000Y-59700000D02*
X140850000Y-59700000D01*
%TO.C,Y5*%
X122050000Y-111350000D02*
X125750000Y-111350000D01*
X122050000Y-117250000D02*
X122050000Y-111350000D01*
X122050000Y-117250000D02*
X125750000Y-117250000D01*
X125750000Y-117250000D02*
X125750000Y-111350000D01*
%TO.C,L11*%
X192550000Y-104450000D02*
X194050000Y-104450000D01*
X192550000Y-107550000D02*
X192550000Y-104450000D01*
X192550000Y-107550000D02*
X194050000Y-107550000D01*
X194050000Y-107550000D02*
X194050000Y-104450000D01*
%TO.C,C8*%
X149090000Y-105960000D02*
X149090000Y-105040000D01*
X150910000Y-105040000D02*
X149090000Y-105040000D01*
X150910000Y-105960000D02*
X149090000Y-105960000D01*
X150910000Y-105960000D02*
X150910000Y-105040000D01*
%TO.C,C106*%
X194690000Y-95760000D02*
X194690000Y-94840000D01*
X196510000Y-94840000D02*
X194690000Y-94840000D01*
X196510000Y-95760000D02*
X194690000Y-95760000D01*
X196510000Y-95760000D02*
X196510000Y-94840000D01*
%TO.C,C70*%
X112290000Y-110440000D02*
X113210000Y-110440000D01*
X112290000Y-112260000D02*
X112290000Y-110440000D01*
X112290000Y-112260000D02*
X113210000Y-112260000D01*
X113210000Y-112260000D02*
X113210000Y-110440000D01*
%TO.C,R108*%
X158940000Y-125190000D02*
X159860000Y-125190000D01*
X158940000Y-127010000D02*
X158940000Y-125190000D01*
X158940000Y-127010000D02*
X159860000Y-127010000D01*
X159860000Y-127010000D02*
X159860000Y-125190000D01*
%TO.C,R13*%
X151890000Y-110460000D02*
X151890000Y-109540000D01*
X153710000Y-109540000D02*
X151890000Y-109540000D01*
X153710000Y-110460000D02*
X151890000Y-110460000D01*
X153710000Y-110460000D02*
X153710000Y-109540000D01*
%TO.C,R10*%
X151890000Y-109460000D02*
X151890000Y-108540000D01*
X153710000Y-108540000D02*
X151890000Y-108540000D01*
X153710000Y-109460000D02*
X151890000Y-109460000D01*
X153710000Y-109460000D02*
X153710000Y-108540000D01*
%TO.C,C246*%
X191150000Y-123550000D02*
X191650000Y-123550000D01*
X191150000Y-124850000D02*
X191150000Y-123550000D01*
X191150000Y-124850000D02*
X191650000Y-124850000D01*
X191650000Y-124850000D02*
X191650000Y-123550000D01*
%TO.C,C71*%
X121040000Y-115390000D02*
X121960000Y-115390000D01*
X121040000Y-117210000D02*
X121040000Y-115390000D01*
X121040000Y-117210000D02*
X121960000Y-117210000D01*
X121960000Y-117210000D02*
X121960000Y-115390000D01*
%TO.C,C129*%
X191950000Y-93450000D02*
X191950000Y-92950000D01*
X193250000Y-92950000D02*
X191950000Y-92950000D01*
X193250000Y-93450000D02*
X191950000Y-93450000D01*
X193250000Y-93450000D02*
X193250000Y-92950000D01*
%TO.C,C99*%
X187850000Y-91250000D02*
X187850000Y-92550000D01*
X188350000Y-91250000D02*
X187850000Y-91250000D01*
X188350000Y-91250000D02*
X188350000Y-92550000D01*
X188350000Y-92550000D02*
X187850000Y-92550000D01*
%TO.C,R114*%
X175440000Y-100190000D02*
X175440000Y-102010000D01*
X176360000Y-100190000D02*
X175440000Y-100190000D01*
X176360000Y-100190000D02*
X176360000Y-102010000D01*
X176360000Y-102010000D02*
X175440000Y-102010000D01*
%TO.C,Y1*%
X163250000Y-117000000D02*
X163250000Y-113300000D01*
X166650000Y-113300000D02*
X163250000Y-113300000D01*
X166650000Y-117000000D02*
X163250000Y-117000000D01*
X166650000Y-117000000D02*
X166650000Y-113300000D01*
%TO.C,C151*%
X187490000Y-104230000D02*
X188510000Y-104230000D01*
X187490000Y-106170000D02*
X187490000Y-104230000D01*
X187490000Y-106170000D02*
X188510000Y-106170000D01*
X188510000Y-106170000D02*
X188510000Y-104230000D01*
%TO.C,C229*%
X197050000Y-112450000D02*
X197050000Y-111950000D01*
X198350000Y-111950000D02*
X197050000Y-111950000D01*
X198350000Y-112450000D02*
X197050000Y-112450000D01*
X198350000Y-112450000D02*
X198350000Y-111950000D01*
%TO.C,C158*%
X179063604Y-98817157D02*
X179982843Y-99736396D01*
X179417157Y-98463604D02*
X179063604Y-98817157D01*
X179417157Y-98463604D02*
X180336396Y-99382843D01*
X180336396Y-99382843D02*
X179982843Y-99736396D01*
%TO.C,C133*%
X196090000Y-90760000D02*
X196090000Y-89840000D01*
X197910000Y-89840000D02*
X196090000Y-89840000D01*
X197910000Y-90760000D02*
X196090000Y-90760000D01*
X197910000Y-90760000D02*
X197910000Y-89840000D01*
%TO.C,C125*%
X178350000Y-88750000D02*
X178350000Y-89250000D01*
X178350000Y-88750000D02*
X179650000Y-88750000D01*
X178350000Y-89250000D02*
X179650000Y-89250000D01*
X179650000Y-88750000D02*
X179650000Y-89250000D01*
%TO.C,R50*%
X193040000Y-126190000D02*
X193040000Y-128010000D01*
X193960000Y-126190000D02*
X193040000Y-126190000D01*
X193960000Y-126190000D02*
X193960000Y-128010000D01*
X193960000Y-128010000D02*
X193040000Y-128010000D01*
%TO.C,R172*%
X165940000Y-61090000D02*
X165940000Y-62910000D01*
X166860000Y-61090000D02*
X165940000Y-61090000D01*
X166860000Y-61090000D02*
X166860000Y-62910000D01*
X166860000Y-62910000D02*
X165940000Y-62910000D01*
%TO.C,C135*%
X184650000Y-88850000D02*
X184650000Y-90150000D01*
X185150000Y-88850000D02*
X184650000Y-88850000D01*
X185150000Y-88850000D02*
X185150000Y-90150000D01*
X185150000Y-90150000D02*
X184650000Y-90150000D01*
%TO.C,C113*%
X189300000Y-91050000D02*
X189300000Y-91550000D01*
X189300000Y-91050000D02*
X190600000Y-91050000D01*
X189300000Y-91550000D02*
X190600000Y-91550000D01*
X190600000Y-91050000D02*
X190600000Y-91550000D01*
%TO.C,R92*%
X130340000Y-127990000D02*
X131260000Y-127990000D01*
X130340000Y-129810000D02*
X130340000Y-127990000D01*
X130340000Y-129810000D02*
X131260000Y-129810000D01*
X131260000Y-129810000D02*
X131260000Y-127990000D01*
%TO.C,C97*%
X188800000Y-91950000D02*
X188800000Y-92450000D01*
X188800000Y-91950000D02*
X190100000Y-91950000D01*
X188800000Y-92450000D02*
X190100000Y-92450000D01*
X190100000Y-91950000D02*
X190100000Y-92450000D01*
%TO.C,C162*%
X176690000Y-99340000D02*
X176690000Y-100260000D01*
X176690000Y-99340000D02*
X178510000Y-99340000D01*
X176690000Y-100260000D02*
X178510000Y-100260000D01*
X178510000Y-99340000D02*
X178510000Y-100260000D01*
%TO.C,C67*%
X192440000Y-129290000D02*
X192440000Y-131110000D01*
X193360000Y-129290000D02*
X192440000Y-129290000D01*
X193360000Y-129290000D02*
X193360000Y-131110000D01*
X193360000Y-131110000D02*
X192440000Y-131110000D01*
%TO.C,R164*%
X175740000Y-61290000D02*
X175740000Y-63110000D01*
X176660000Y-61290000D02*
X175740000Y-61290000D01*
X176660000Y-61290000D02*
X176660000Y-63110000D01*
X176660000Y-63110000D02*
X175740000Y-63110000D01*
%TO.C,C243*%
X196050000Y-118350000D02*
X196050000Y-117850000D01*
X197350000Y-117850000D02*
X196050000Y-117850000D01*
X197350000Y-118350000D02*
X196050000Y-118350000D01*
X197350000Y-118350000D02*
X197350000Y-117850000D01*
%TO.C,R179*%
X145990000Y-130390000D02*
X145990000Y-131310000D01*
X145990000Y-130390000D02*
X147810000Y-130390000D01*
X145990000Y-131310000D02*
X147810000Y-131310000D01*
X147810000Y-130390000D02*
X147810000Y-131310000D01*
%TO.C,C98*%
X183850000Y-92850000D02*
X183850000Y-94150000D01*
X184350000Y-92850000D02*
X183850000Y-92850000D01*
X184350000Y-92850000D02*
X184350000Y-94150000D01*
X184350000Y-94150000D02*
X183850000Y-94150000D01*
%TO.C,C231*%
X191350000Y-112150000D02*
X191850000Y-112150000D01*
X191350000Y-113450000D02*
X191350000Y-112150000D01*
X191350000Y-113450000D02*
X191850000Y-113450000D01*
X191850000Y-113450000D02*
X191850000Y-112150000D01*
%TO.C,C102*%
X182250000Y-95250000D02*
X182250000Y-95750000D01*
X182250000Y-95250000D02*
X183550000Y-95250000D01*
X182250000Y-95750000D02*
X183550000Y-95750000D01*
X183550000Y-95250000D02*
X183550000Y-95750000D01*
%TO.C,C152*%
X188890000Y-107430000D02*
X189910000Y-107430000D01*
X188890000Y-109370000D02*
X188890000Y-107430000D01*
X188890000Y-109370000D02*
X189910000Y-109370000D01*
X189910000Y-109370000D02*
X189910000Y-107430000D01*
%TO.C,R100*%
X181340000Y-131540000D02*
X181340000Y-132460000D01*
X181340000Y-131540000D02*
X183160000Y-131540000D01*
X181340000Y-132460000D02*
X183160000Y-132460000D01*
X183160000Y-131540000D02*
X183160000Y-132460000D01*
%TO.C,C237*%
X197150000Y-114550000D02*
X197150000Y-115050000D01*
X197150000Y-114550000D02*
X198450000Y-114550000D01*
X197150000Y-115050000D02*
X198450000Y-115050000D01*
X198450000Y-114550000D02*
X198450000Y-115050000D01*
%TO.C,C61*%
X195340000Y-114990000D02*
X195340000Y-116810000D01*
X196260000Y-114990000D02*
X195340000Y-114990000D01*
X196260000Y-114990000D02*
X196260000Y-116810000D01*
X196260000Y-116810000D02*
X195340000Y-116810000D01*
%TO.C,C93*%
X182250000Y-96850000D02*
X182250000Y-97350000D01*
X182250000Y-96850000D02*
X183550000Y-96850000D01*
X182250000Y-97350000D02*
X183550000Y-97350000D01*
X183550000Y-96850000D02*
X183550000Y-97350000D01*
%TO.C,C163*%
X182450000Y-101050000D02*
X182450000Y-102350000D01*
X182950000Y-101050000D02*
X182450000Y-101050000D01*
X182950000Y-101050000D02*
X182950000Y-102350000D01*
X182950000Y-102350000D02*
X182450000Y-102350000D01*
%TO.C,R142*%
X181790000Y-115255000D02*
X181790000Y-117075000D01*
X182710000Y-115255000D02*
X181790000Y-115255000D01*
X182710000Y-115255000D02*
X182710000Y-117075000D01*
X182710000Y-117075000D02*
X181790000Y-117075000D01*
%TO.C,C41*%
X138940000Y-92390000D02*
X139860000Y-92390000D01*
X138940000Y-94210000D02*
X138940000Y-92390000D01*
X138940000Y-94210000D02*
X139860000Y-94210000D01*
X139860000Y-94210000D02*
X139860000Y-92390000D01*
%TO.C,C241*%
X198950000Y-122650000D02*
X198950000Y-123950000D01*
X199450000Y-122650000D02*
X198950000Y-122650000D01*
X199450000Y-122650000D02*
X199450000Y-123950000D01*
X199450000Y-123950000D02*
X198950000Y-123950000D01*
%TO.C,C101*%
X184650000Y-96850000D02*
X185150000Y-96850000D01*
X184650000Y-98150000D02*
X184650000Y-96850000D01*
X184650000Y-98150000D02*
X185150000Y-98150000D01*
X185150000Y-98150000D02*
X185150000Y-96850000D01*
%TO.C,C156*%
X172690000Y-94040000D02*
X172690000Y-94960000D01*
X172690000Y-94040000D02*
X174510000Y-94040000D01*
X172690000Y-94960000D02*
X174510000Y-94960000D01*
X174510000Y-94040000D02*
X174510000Y-94960000D01*
%TO.C,C157*%
X180650000Y-97650000D02*
X180650000Y-98950000D01*
X181150000Y-97650000D02*
X180650000Y-97650000D01*
X181150000Y-97650000D02*
X181150000Y-98950000D01*
X181150000Y-98950000D02*
X180650000Y-98950000D01*
%TO.C,C160*%
X183050000Y-97650000D02*
X183050000Y-98950000D01*
X183550000Y-97650000D02*
X183050000Y-97650000D01*
X183550000Y-97650000D02*
X183550000Y-98950000D01*
X183550000Y-98950000D02*
X183050000Y-98950000D01*
%TO.C,C140*%
X191050000Y-90350000D02*
X191550000Y-90350000D01*
X191050000Y-91650000D02*
X191050000Y-90350000D01*
X191050000Y-91650000D02*
X191550000Y-91650000D01*
X191550000Y-91650000D02*
X191550000Y-90350000D01*
%TO.C,C155*%
X184650000Y-93650000D02*
X184650000Y-94150000D01*
X184650000Y-93650000D02*
X185950000Y-93650000D01*
X184650000Y-94150000D02*
X185950000Y-94150000D01*
X185950000Y-93650000D02*
X185950000Y-94150000D01*
%TO.C,R166*%
X177740000Y-61290000D02*
X177740000Y-63110000D01*
X178660000Y-61290000D02*
X177740000Y-61290000D01*
X178660000Y-61290000D02*
X178660000Y-63110000D01*
X178660000Y-63110000D02*
X177740000Y-63110000D01*
%TO.C,C132*%
X195290000Y-88060000D02*
X195290000Y-87140000D01*
X197110000Y-87140000D02*
X195290000Y-87140000D01*
X197110000Y-88060000D02*
X195290000Y-88060000D01*
X197110000Y-88060000D02*
X197110000Y-87140000D01*
%TO.C,R86*%
X181740000Y-83140000D02*
X182660000Y-83140000D01*
X181740000Y-84960000D02*
X181740000Y-83140000D01*
X181740000Y-84960000D02*
X182660000Y-84960000D01*
X182660000Y-84960000D02*
X182660000Y-83140000D01*
%TO.C,R74*%
X120940000Y-113090000D02*
X121860000Y-113090000D01*
X120940000Y-114910000D02*
X120940000Y-113090000D01*
X120940000Y-114910000D02*
X121860000Y-114910000D01*
X121860000Y-114910000D02*
X121860000Y-113090000D01*
%TO.C,R17*%
X151890000Y-106460000D02*
X151890000Y-105540000D01*
X153710000Y-105540000D02*
X151890000Y-105540000D01*
X153710000Y-106460000D02*
X151890000Y-106460000D01*
X153710000Y-106460000D02*
X153710000Y-105540000D01*
%TO.C,R94*%
X149000000Y-129900000D02*
X149000000Y-128000000D01*
X152500000Y-128000000D02*
X149000000Y-128000000D01*
X152500000Y-129900000D02*
X149000000Y-129900000D01*
X152500000Y-129900000D02*
X152500000Y-128000000D01*
%TO.C,C178*%
X145940000Y-128027500D02*
X145940000Y-129847500D01*
X146860000Y-128027500D02*
X145940000Y-128027500D01*
X146860000Y-128027500D02*
X146860000Y-129847500D01*
X146860000Y-129847500D02*
X145940000Y-129847500D01*
%TO.C,C141*%
X194290000Y-101390000D02*
X194290000Y-103210000D01*
X195210000Y-101390000D02*
X194290000Y-101390000D01*
X195210000Y-101390000D02*
X195210000Y-103210000D01*
X195210000Y-103210000D02*
X194290000Y-103210000D01*
%TO.C,R2*%
X182790000Y-115255000D02*
X183710000Y-115255000D01*
X182790000Y-117075000D02*
X182790000Y-115255000D01*
X182790000Y-117075000D02*
X183710000Y-117075000D01*
X183710000Y-117075000D02*
X183710000Y-115255000D01*
%TO.C,R62*%
X192040000Y-126190000D02*
X192040000Y-128010000D01*
X192960000Y-126190000D02*
X192040000Y-126190000D01*
X192960000Y-126190000D02*
X192960000Y-128010000D01*
X192960000Y-128010000D02*
X192040000Y-128010000D01*
%TO.C,C35*%
X148550000Y-56400000D02*
X148550000Y-59800000D01*
X150450000Y-56400000D02*
X148550000Y-56400000D01*
X150450000Y-56400000D02*
X150450000Y-59800000D01*
X150450000Y-59800000D02*
X148550000Y-59800000D01*
%TO.C,C112*%
X187050000Y-91250000D02*
X187550000Y-91250000D01*
X187050000Y-92550000D02*
X187050000Y-91250000D01*
X187050000Y-92550000D02*
X187550000Y-92550000D01*
X187550000Y-92550000D02*
X187550000Y-91250000D01*
%TO.C,R181*%
X131140000Y-130690000D02*
X132060000Y-130690000D01*
X131140000Y-132510000D02*
X131140000Y-130690000D01*
X131140000Y-132510000D02*
X132060000Y-132510000D01*
X132060000Y-132510000D02*
X132060000Y-130690000D01*
%TO.C,R111*%
X156940000Y-125190000D02*
X157860000Y-125190000D01*
X156940000Y-127010000D02*
X156940000Y-125190000D01*
X156940000Y-127010000D02*
X157860000Y-127010000D01*
X157860000Y-127010000D02*
X157860000Y-125190000D01*
D11*
%TO.C,J13*%
X140075000Y-77570000D02*
X140075000Y-89070000D01*
X140075000Y-77570000D02*
X150775000Y-77570000D01*
X140075000Y-89070000D02*
X150775000Y-89070000D01*
X150775000Y-77570000D02*
X150775000Y-89070000D01*
D10*
%TO.C,R98*%
X180340000Y-132790000D02*
X180340000Y-133710000D01*
X180340000Y-132790000D02*
X182160000Y-132790000D01*
X180340000Y-133710000D02*
X182160000Y-133710000D01*
X182160000Y-132790000D02*
X182160000Y-133710000D01*
%TO.C,R109*%
X159940000Y-125190000D02*
X160860000Y-125190000D01*
X159940000Y-127010000D02*
X159940000Y-125190000D01*
X159940000Y-127010000D02*
X160860000Y-127010000D01*
X160860000Y-127010000D02*
X160860000Y-125190000D01*
%TO.C,C116*%
X184650000Y-91250000D02*
X185150000Y-91250000D01*
X184650000Y-92550000D02*
X184650000Y-91250000D01*
X184650000Y-92550000D02*
X185150000Y-92550000D01*
X185150000Y-92550000D02*
X185150000Y-91250000D01*
%TO.C,R67*%
X195015000Y-126190000D02*
X195015000Y-128010000D01*
X195935000Y-126190000D02*
X195015000Y-126190000D01*
X195935000Y-126190000D02*
X195935000Y-128010000D01*
X195935000Y-128010000D02*
X195015000Y-128010000D01*
%TO.C,R93*%
X146940000Y-128027500D02*
X147860000Y-128027500D01*
X146940000Y-129847500D02*
X146940000Y-128027500D01*
X146940000Y-129847500D02*
X147860000Y-129847500D01*
X147860000Y-129847500D02*
X147860000Y-128027500D01*
%TO.C,R75*%
X118790000Y-115540000D02*
X118790000Y-116460000D01*
X118790000Y-115540000D02*
X120610000Y-115540000D01*
X118790000Y-116460000D02*
X120610000Y-116460000D01*
X120610000Y-115540000D02*
X120610000Y-116460000D01*
%TO.C,C109*%
X172750000Y-95000000D02*
X172750000Y-97000000D01*
X172750000Y-95000000D02*
X176250000Y-95000000D01*
X172750000Y-97000000D02*
X176250000Y-97000000D01*
X176250000Y-95000000D02*
X176250000Y-97000000D01*
%TO.C,C114*%
X181463604Y-92417157D02*
X182382843Y-93336396D01*
X181817157Y-92063604D02*
X181463604Y-92417157D01*
X181817157Y-92063604D02*
X182736396Y-92982843D01*
X182736396Y-92982843D02*
X182382843Y-93336396D01*
%TO.C,C37*%
X139950000Y-92400000D02*
X141850000Y-92400000D01*
X139950000Y-95800000D02*
X139950000Y-92400000D01*
X139950000Y-95800000D02*
X141850000Y-95800000D01*
X141850000Y-95800000D02*
X141850000Y-92400000D01*
%TO.C,C150*%
X182250000Y-94150000D02*
X182250000Y-93650000D01*
X183550000Y-93650000D02*
X182250000Y-93650000D01*
X183550000Y-94150000D02*
X182250000Y-94150000D01*
X183550000Y-94150000D02*
X183550000Y-93650000D01*
%TO.C,R68*%
X191040000Y-126190000D02*
X191040000Y-128010000D01*
X191960000Y-126190000D02*
X191040000Y-126190000D01*
X191960000Y-126190000D02*
X191960000Y-128010000D01*
X191960000Y-128010000D02*
X191040000Y-128010000D01*
%TO.C,C117*%
X170090000Y-98040000D02*
X170090000Y-98960000D01*
X170090000Y-98040000D02*
X171910000Y-98040000D01*
X170090000Y-98960000D02*
X171910000Y-98960000D01*
X171910000Y-98040000D02*
X171910000Y-98960000D01*
%TO.C,C69*%
X197440000Y-129290000D02*
X197440000Y-131110000D01*
X198360000Y-129290000D02*
X197440000Y-129290000D01*
X198360000Y-129290000D02*
X198360000Y-131110000D01*
X198360000Y-131110000D02*
X197440000Y-131110000D01*
%TO.C,R96*%
X149040000Y-118552500D02*
X149960000Y-118552500D01*
X149040000Y-120372500D02*
X149040000Y-118552500D01*
X149040000Y-120372500D02*
X149960000Y-120372500D01*
X149960000Y-120372500D02*
X149960000Y-118552500D01*
%TO.C,R51*%
X186890000Y-122760000D02*
X186890000Y-121840000D01*
X188710000Y-121840000D02*
X186890000Y-121840000D01*
X188710000Y-122760000D02*
X186890000Y-122760000D01*
X188710000Y-122760000D02*
X188710000Y-121840000D01*
%TO.C,L7*%
X142950000Y-55950000D02*
X142950000Y-59850000D01*
X142950000Y-59850000D02*
X145650000Y-59850000D01*
X145650000Y-55950000D02*
X142950000Y-55950000D01*
X145650000Y-59850000D02*
X145650000Y-55950000D01*
%TO.C,R143*%
X147040000Y-118540000D02*
X147040000Y-120360000D01*
X147960000Y-118540000D02*
X147040000Y-118540000D01*
X147960000Y-118540000D02*
X147960000Y-120360000D01*
X147960000Y-120360000D02*
X147040000Y-120360000D01*
%TO.C,C62*%
X184330000Y-121210000D02*
X184330000Y-120190000D01*
X186270000Y-120190000D02*
X184330000Y-120190000D01*
X186270000Y-121210000D02*
X184330000Y-121210000D01*
X186270000Y-121210000D02*
X186270000Y-120190000D01*
%TO.C,R153*%
X196040000Y-126190000D02*
X196040000Y-128010000D01*
X196960000Y-126190000D02*
X196040000Y-126190000D01*
X196960000Y-126190000D02*
X196960000Y-128010000D01*
X196960000Y-128010000D02*
X196040000Y-128010000D01*
%TO.C,C39*%
X150540000Y-57890000D02*
X150540000Y-59710000D01*
X151460000Y-57890000D02*
X150540000Y-57890000D01*
X151460000Y-57890000D02*
X151460000Y-59710000D01*
X151460000Y-59710000D02*
X150540000Y-59710000D01*
%TO.C,C127*%
X190250000Y-87250000D02*
X190250000Y-88550000D01*
X190750000Y-87250000D02*
X190250000Y-87250000D01*
X190750000Y-87250000D02*
X190750000Y-88550000D01*
X190750000Y-88550000D02*
X190250000Y-88550000D01*
%TO.C,C234*%
X191350000Y-116100000D02*
X191850000Y-116100000D01*
X191350000Y-117400000D02*
X191350000Y-116100000D01*
X191350000Y-117400000D02*
X191850000Y-117400000D01*
X191850000Y-117400000D02*
X191850000Y-116100000D01*
%TO.C,R101*%
X181340000Y-130540000D02*
X181340000Y-131460000D01*
X181340000Y-130540000D02*
X183160000Y-130540000D01*
X181340000Y-131460000D02*
X183160000Y-131460000D01*
X183160000Y-130540000D02*
X183160000Y-131460000D01*
%TO.C,C11*%
X139530000Y-108290000D02*
X139530000Y-109310000D01*
X139530000Y-108290000D02*
X141470000Y-108290000D01*
X139530000Y-109310000D02*
X141470000Y-109310000D01*
X141470000Y-108290000D02*
X141470000Y-109310000D01*
%TD*%
M02*
