M48
; DRILL file {KiCad 9.0.1} date 2025-05-15T18:24:42+0200
; FORMAT={-:-/ absolute / inch / decimal}
; #@! TF.CreationDate,2025-05-15T18:24:42+02:00
; #@! TF.GenerationSoftware,Kicad,Pcbnew,9.0.1
; #@! TF.FileFunction,MixedPlating,1,8
FMAT,2
INCH
; #@! TA.AperFunction,Plated,PTH,ViaDrill
T1C0.0079
; #@! TA.AperFunction,Plated,PTH,ComponentDrill
T2C0.0079
; #@! TA.AperFunction,Plated,PTH,ViaDrill
T3C0.0118
; #@! TA.AperFunction,Plated,PTH,ComponentDrill
T4C0.0236
; #@! TA.AperFunction,Plated,PTH,ComponentDrill
T5C0.0276
; #@! TA.AperFunction,Plated,PTH,ComponentDrill
T6C0.0354
; #@! TA.AperFunction,Plated,PTH,ComponentDrill
T7C0.0374
; #@! TA.AperFunction,Plated,PTH,ComponentDrill
T8C0.0394
; #@! TA.AperFunction,Plated,PTH,ComponentDrill
T9C0.0413
; #@! TA.AperFunction,Plated,PTH,ComponentDrill
T10C0.0433
; #@! TA.AperFunction,Plated,PTH,ComponentDrill
T11C0.0630
; #@! TA.AperFunction,Plated,PTH,ComponentDrill
T12C0.1260
; #@! TA.AperFunction,NonPlated,NPTH,ComponentDrill
T13C0.0256
; #@! TA.AperFunction,NonPlated,NPTH,ComponentDrill
T14C0.0610
; #@! TA.AperFunction,NonPlated,NPTH,ComponentDrill
T15C0.1260
%
G90
G05
T1
X4.4053Y-5.3209
X4.4094Y-4.5591
X4.4094Y-4.7441
X4.4316Y-4.6402
X4.4343Y-4.4671
X4.4409Y-4.4306
X4.4564Y-4.5128
X4.5Y-4.7008
X4.5Y-4.7441
X4.5906Y-4.4882
X4.6378Y-4.3976
X4.6457Y-4.4567
X4.7126Y-4.7126
X4.7323Y-4.7677
X4.7351Y-4.592
X4.7362Y-4.7283
X4.7717Y-4.6909
X4.7913Y-4.3346
X4.81Y-4.5138
X4.815Y-4.7089
X4.8178Y-4.4124
X4.8178Y-4.5709
X4.8189Y-4.4528
X4.8248Y-4.3759
X4.8268Y-4.5324
X4.8268Y-4.7283
X4.8268Y-4.7677
X4.8307Y-4.3304
X4.8307Y-4.6693
X4.831Y-4.788
X4.8357Y-4.4921
X4.8622Y-4.8622
X4.8851Y-4.8487
X4.9016Y-4.8794
X4.9134Y-4.3228
X4.9251Y-4.8463
X4.9437Y-4.8923
X4.9528Y-4.3661
X4.9528Y-4.4331
X4.9606Y-5.0197
X4.9724Y-4.3937
X4.978Y-4.8913
X5.0079Y-2.2598
X5.0197Y-5.0669
X5.0228Y-4.4029
X5.0229Y-4.3681
X5.0437Y-4.8437
X5.1403Y-4.4034
X5.1417Y-4.437
X5.1417Y-4.8701
X5.1614Y-4.3465
X5.1673Y-5.2441
X5.1958Y-5.1279
X5.2008Y-4.3465
X5.2198Y-5.1261
X5.2205Y-4.8701
X5.2247Y-4.4031
X5.2402Y-4.5118
X5.2402Y-5.122
X5.2441Y-4.748
X5.2693Y-4.6863
X5.2698Y-4.5865
X5.3052Y-4.5873
X5.3052Y-4.6871
X5.3189Y-4.6378
X5.3189Y-4.6654
X5.3465Y-5.0906
X5.3492Y-3.9449
X5.3622Y-4.7283
X5.3752Y-3.9449
X5.378Y-4.5079
X5.4199Y-4.6954
X5.4291Y-4.3307
X5.437Y-4.252
X5.4528Y-3.8386
X5.4567Y-3.752
X5.4567Y-4.7205
X5.4584Y-4.9203
X5.4646Y-2.2598
X5.4794Y-4.1505
X5.4882Y-4.2362
X5.4921Y-3.9213
X5.5039Y-2.6339
X5.5039Y-2.6654
X5.5039Y-2.6969
X5.5039Y-2.7283
X5.5039Y-2.7598
X5.5039Y-2.7913
X5.5039Y-2.8228
X5.5039Y-3.1933
X5.5039Y-3.2248
X5.5039Y-3.2563
X5.5039Y-3.2878
X5.5039Y-3.3193
X5.5039Y-3.3508
X5.5039Y-3.3823
X5.5118Y-4.311
X5.5472Y-4.7244
X5.563Y-4.0394
X5.563Y-4.3858
X5.5646Y-4.348
X5.5748Y-4.1535
X5.5748Y-4.2323
X5.5882Y-3.8632
X5.5906Y-3.9803
X5.5906Y-4.3228
X5.5906Y-4.937
X5.626Y-2.6181
X5.626Y-2.6496
X5.626Y-2.6811
X5.626Y-2.7126
X5.626Y-2.7441
X5.626Y-2.7756
X5.626Y-2.8071
X5.626Y-3.1772
X5.626Y-3.2087
X5.626Y-3.2402
X5.626Y-3.2717
X5.626Y-3.3031
X5.626Y-3.3346
X5.626Y-3.3661
X5.6299Y-3.9803
X5.6299Y-4.4055
X5.6472Y-4.917
X5.6503Y-4.4096
X5.6535Y-4.1378
X5.6535Y-4.252
X5.6575Y-4.1929
X5.6653Y-3.9804
X5.6701Y-4.0589
X5.671Y-4.4093
X5.6861Y-4.3661
X5.7019Y-4.3346
X5.7047Y-4.1378
X5.7087Y-4.1929
X5.7087Y-4.252
X5.7165Y-4.3583
X5.7323Y-4.0
X5.7323Y-4.0472
X5.7373Y-4.345
X5.7402Y-4.8543
X5.7491Y-4.0631
X5.752Y-4.3661
X5.7638Y-4.1378
X5.7638Y-4.1929
X5.7638Y-4.252
X5.7717Y-4.3504
X5.7756Y-3.9724
X5.7927Y-3.9416
X5.8071Y-4.7486
X5.815Y-5.1201
X5.8167Y-4.6514
X5.8346Y-4.2913
X5.8346Y-4.3228
X5.8386Y-5.128
X5.8543Y-3.8898
X5.8543Y-3.9134
X5.8543Y-3.937
X5.8583Y-5.1181
X5.8725Y-4.6563
X5.874Y-4.1535
X5.8819Y-3.8898
X5.8819Y-3.937
X5.8823Y-3.9129
X5.8858Y-4.1339
X5.8861Y-4.7486
X5.8948Y-4.6576
X5.9213Y-3.8543
X5.9252Y-4.3622
X5.9488Y-4.1535
X5.9508Y-3.8681
X5.9685Y-4.2047
X5.9685Y-4.2913
X5.9685Y-4.3307
X5.9685Y-4.3583
X5.9685Y-4.6693
X5.9724Y-4.1732
X5.9724Y-4.252
X5.9921Y-4.6063
X6.0069Y-4.798
X6.0069Y-4.824
X6.0079Y-5.0768
X6.0138Y-3.3937
X6.0185Y-4.6272
X6.0185Y-2.748
X6.0197Y-3.4201
X6.0197Y-3.4461
X6.0236Y-3.2598
X6.0262Y-3.2336
X6.03Y-2.769
X6.0335Y-4.3952
X6.0352Y-4.1297
X6.0394Y-3.3533
X6.0394Y-3.3793
X6.0394Y-4.7283
X6.0433Y-4.8937
X6.0445Y-2.748
X6.0446Y-3.2152
X6.0669Y-2.2244
X6.0669Y-3.1339
X6.0748Y-3.2165
X6.0775Y-3.441
X6.0821Y-2.7453
X6.0827Y-2.6957
X6.0827Y-2.7217
X6.0866Y-4.2126
X6.0866Y-4.252
X6.0866Y-4.2913
X6.0866Y-4.3307
X6.0866Y-4.3701
X6.0886Y-2.6732
X6.0892Y-3.1325
X6.0945Y-4.6811
X6.0971Y-3.4278
X6.0998Y-4.4435
X6.101Y-4.7687
X6.1024Y-3.3425
X6.1076Y-3.1509
X6.1155Y-3.4462
X6.1181Y-4.3858
X6.1181Y-4.7205
X6.126Y-4.4173
X6.126Y-4.5039
X6.1366Y-2.5737
X6.1366Y-2.685
X6.1417Y-4.7205
X6.1417Y-4.9016
X6.1566Y-4.9463
X6.1626Y-2.5737
X6.1626Y-2.685
X6.1654Y-4.4961
X6.1673Y-2.5472
X6.1752Y-2.9449
X6.1796Y-2.6679
X6.1811Y-5.0039
X6.1886Y-4.4768
X6.1941Y-4.6051
X6.1969Y-2.8965
X6.1969Y-2.9224
X6.2067Y-2.874
X6.2137Y-4.9177
X6.2283Y-3.2165
X6.2283Y-3.2776
X6.2283Y-5.1378
X6.2344Y-4.9182
X6.2362Y-5.0748
X6.2445Y-4.6275
X6.2458Y-4.5994
X6.248Y-3.235
X6.248Y-3.261
X6.2559Y-5.0039
X6.2638Y-5.1693
X6.2677Y-5.0433
X6.2677Y-5.1024
X6.2738Y-4.9168
X6.2767Y-4.6004
X6.2781Y-4.6282
X6.2795Y-2.374
X6.2944Y-4.9187
X6.315Y-2.378
X6.3155Y-5.0046
X6.3268Y-2.8937
X6.3346Y-4.5748
X6.3465Y-3.063
X6.3504Y-2.3858
X6.3543Y-2.3465
X6.3543Y-2.7008
X6.3543Y-4.9961
X6.374Y-4.5748
X6.378Y-2.2835
X6.378Y-4.5
X6.3858Y-4.7598
X6.3898Y-3.1378
X6.3937Y-2.8307
X6.3976Y-4.8406
X6.4016Y-3.0394
X6.4107Y-4.9366
X6.4134Y-2.9409
X6.4231Y-4.781
X6.4272Y-3.3406
X6.437Y-2.3228
X6.4409Y-2.3504
X6.4409Y-2.374
X6.4415Y-3.2902
X6.4415Y-3.3161
X6.442Y-2.3953
X6.443Y-4.6577
X6.4439Y-2.4159
X6.4449Y-2.5354
X6.4473Y-2.4567
X6.4488Y-3.1614
X6.4504Y-4.781
X6.4528Y-5.0433
X6.4587Y-3.2717
X6.4606Y-4.3898
X6.4606Y-5.1693
X6.4646Y-2.9213
X6.4646Y-3.0315
X6.4685Y-3.1969
X6.4696Y-4.851
X6.4709Y-4.9974
X6.4724Y-2.811
X6.4843Y-4.6102
X6.4882Y-2.4882
X6.4882Y-4.4213
X6.4893Y-4.4921
X6.4956Y-2.2587
X6.498Y-3.4803
X6.498Y-3.5531
X6.5039Y-4.7362
X6.5039Y-4.9646
X6.5118Y-3.5028
X6.5118Y-3.5287
X6.5157Y-3.1378
X6.5157Y-4.2007
X6.5198Y-3.3425
X6.5209Y-2.5131
X6.5236Y-5.0433
X6.5236Y-5.1693
X6.5276Y-4.9016
X6.5309Y-2.5535
X6.5344Y-2.3848
X6.5358Y-2.4922
X6.563Y-3.0736
X6.563Y-3.0996
X6.5669Y-4.5748
X6.5789Y-2.2583
X6.5796Y-2.2791
X6.5827Y-2.9752
X6.5827Y-3.0012
X6.5827Y-4.3898
X6.5906Y-5.0433
X6.5906Y-5.1693
X6.6021Y-3.1339
X6.6036Y-4.5584
X6.6039Y-4.6316
X6.6209Y-2.5533
X6.622Y-2.3189
X6.6254Y-3.3487
X6.6299Y-5.0748
X6.6325Y-4.7322
X6.6339Y-3.9173
X6.651Y-4.8833
X6.651Y-4.9108
X6.6516Y-2.439
X6.656Y-2.4088
X6.6568Y-4.3982
X6.6575Y-2.4803
X6.6654Y-2.9331
X6.6673Y-3.7434
X6.6673Y-3.8186
X6.6811Y-4.3701
X6.6929Y-2.5787
X6.6929Y-3.8386
X6.6929Y-3.878
X6.6996Y-3.5236
X6.7087Y-4.378
X6.723Y-3.9672
X6.7256Y-3.5236
X6.7402Y-2.3228
X6.7441Y-2.4803
X6.748Y-4.3701
X6.7559Y-3.0118
X6.7598Y-4.3937
X6.7684Y-3.7595
X6.7684Y-3.7989
X6.7698Y-4.6371
X6.7715Y-4.6647
X6.7717Y-2.2362
X6.7717Y-3.8386
X6.7717Y-3.878
X6.7756Y-3.5315
X6.7886Y-4.4662
X6.7916Y-3.0492
X6.7923Y-3.077
X6.7992Y-3.8622
X6.7992Y-3.8858
X6.8031Y-3.7598
X6.8031Y-3.7992
X6.8191Y-2.3379
X6.8228Y-2.936
X6.8228Y-3.0915
X6.8267Y-4.7316
X6.8422Y-2.4739
X6.8425Y-2.2756
X6.8493Y-4.4887
X6.8583Y-3.2323
X6.8661Y-3.0787
X6.874Y-3.1024
X6.874Y-3.437
X6.8752Y-3.7256
X6.8781Y-5.0677
X6.8784Y-4.7669
X6.8976Y-2.3268
X6.8999Y-3.9424
X6.9055Y-2.2992
X6.9055Y-2.374
X6.9055Y-2.3948
X6.9094Y-2.4173
X6.9252Y-3.937
X6.9252Y-5.0394
X6.936Y-3.8029
X6.937Y-2.4882
X6.937Y-3.7717
X6.937Y-3.8465
X6.9375Y-3.8805
X6.9409Y-4.5591
X6.951Y-3.9484
X6.9528Y-3.9685
X6.9528Y-4.0079
X6.9528Y-4.5157
X6.9606Y-4.6811
X6.9632Y-2.2575
X6.9656Y-3.8655
X6.9678Y-2.4913
X6.9724Y-4.9961
X6.9818Y-4.4667
X6.9821Y-2.5268
X6.9885Y-2.4921
X6.9923Y-2.5571
X7.0098Y-4.628
X7.0122Y-2.4927
X7.0157Y-2.3858
X7.0221Y-5.3054
X7.0256Y-5.3406
X7.0315Y-3.9685
X7.0315Y-4.0079
X7.0331Y-3.3523
X7.0354Y-3.8819
X7.0459Y-2.2575
X7.0591Y-3.4449
X7.0591Y-3.4764
X7.0591Y-3.5079
X7.0591Y-3.6024
X7.0591Y-3.6339
X7.0591Y-3.6654
X7.0591Y-3.7913
X7.0591Y-3.8858
X7.0591Y-3.9803
X7.0591Y-4.0118
X7.0634Y-3.8258
X7.0669Y-3.2874
X7.0709Y-2.2598
X7.0783Y-2.5535
X7.0787Y-2.2205
X7.0812Y-2.5164
X7.0906Y-2.2677
X7.0906Y-3.4449
X7.0906Y-3.4764
X7.0906Y-3.5079
X7.0906Y-3.6024
X7.0906Y-3.6339
X7.0906Y-3.6654
X7.0906Y-3.7913
X7.0906Y-3.8228
X7.0906Y-3.8543
X7.0906Y-3.8858
X7.0906Y-3.9173
X7.0906Y-3.9488
X7.0915Y-2.3156
X7.0925Y-3.3837
X7.0945Y-2.9843
X7.1024Y-4.6575
X7.1142Y-5.2774
X7.1142Y-5.2981
X7.1142Y-5.3189
X7.122Y-2.437
X7.122Y-3.5079
X7.122Y-3.5394
X7.122Y-3.5709
X7.122Y-3.6024
X7.122Y-3.6339
X7.122Y-3.6654
X7.122Y-3.6969
X7.122Y-3.7598
X7.122Y-3.7913
X7.122Y-3.8228
X7.122Y-3.8543
X7.122Y-3.8858
X7.122Y-3.9173
X7.122Y-3.9488
X7.122Y-3.9803
X7.122Y-4.0118
X7.1269Y-2.411
X7.1457Y-2.3169
X7.1457Y-2.5
X7.1457Y-3.4094
X7.1507Y-4.5236
X7.1513Y-3.5709
X7.1535Y-3.4764
X7.1535Y-3.5079
X7.1535Y-3.5394
X7.1535Y-3.6024
X7.1535Y-3.6339
X7.1535Y-3.6654
X7.1535Y-3.7283
X7.1535Y-3.7598
X7.1535Y-3.7913
X7.1535Y-3.8228
X7.1535Y-3.8543
X7.1535Y-3.8858
X7.1535Y-3.9173
X7.1535Y-3.9488
X7.1575Y-2.2697
X7.1614Y-2.3465
X7.1654Y-3.0669
X7.1751Y-4.6186
X7.1769Y-3.4111
X7.1777Y-2.886
X7.1779Y-2.6556
X7.1782Y-3.2687
X7.1811Y-4.6575
X7.185Y-3.4764
X7.185Y-3.5079
X7.185Y-3.5394
X7.185Y-3.5709
X7.185Y-3.6024
X7.185Y-3.6339
X7.185Y-3.6654
X7.185Y-3.6969
X7.185Y-3.7598
X7.185Y-3.8228
X7.185Y-3.8543
X7.185Y-3.8858
X7.185Y-3.9173
X7.185Y-3.9488
X7.185Y-3.9803
X7.185Y-4.0138
X7.1859Y-3.788
X7.1937Y-3.3689
X7.2008Y-3.4331
X7.2029Y-4.5241
X7.2032Y-2.6556
X7.2047Y-2.4764
X7.2047Y-2.8642
X7.2087Y-3.0688
X7.2087Y-3.4094
X7.2165Y-3.5079
X7.2165Y-3.5394
X7.2165Y-3.5709
X7.2165Y-3.6024
X7.2165Y-3.6339
X7.2165Y-3.6654
X7.2165Y-3.6969
X7.2165Y-3.7598
X7.2165Y-3.7913
X7.2165Y-3.8228
X7.2165Y-3.8543
X7.2165Y-3.8858
X7.2165Y-3.9173
X7.2165Y-3.9488
X7.2205Y-3.2677
X7.2283Y-4.5276
X7.23Y-2.6558
X7.2362Y-4.1654
X7.2441Y-4.6201
X7.247Y-3.1405
X7.248Y-3.4094
X7.248Y-3.4449
X7.248Y-3.4764
X7.248Y-3.5079
X7.248Y-3.5394
X7.248Y-3.5709
X7.248Y-3.6024
X7.248Y-3.6339
X7.248Y-3.6654
X7.248Y-3.6969
X7.248Y-3.7598
X7.248Y-3.7913
X7.248Y-3.8228
X7.248Y-3.8543
X7.248Y-3.8858
X7.248Y-3.9173
X7.248Y-3.9488
X7.248Y-3.9803
X7.2489Y-4.0132
X7.2503Y-3.7283
X7.2553Y-2.6556
X7.2559Y-4.063
X7.2559Y-4.752
X7.2559Y-4.815
X7.2617Y-2.3066
X7.2756Y-4.2126
X7.2795Y-3.3661
X7.2795Y-3.5394
X7.2795Y-3.5709
X7.2795Y-3.6024
X7.2795Y-3.6339
X7.2795Y-3.6654
X7.2795Y-3.6969
X7.2795Y-3.7598
X7.2795Y-3.7913
X7.2795Y-3.8228
X7.2795Y-3.8543
X7.2795Y-3.8858
X7.2795Y-3.9173
X7.2795Y-3.9488
X7.2804Y-4.2687
X7.2821Y-3.1638
X7.2953Y-3.3819
X7.3071Y-2.9843
X7.3088Y-3.1589
X7.31Y-3.3002
X7.311Y-3.4331
X7.311Y-3.4764
X7.311Y-3.5079
X7.311Y-3.5394
X7.311Y-3.5709
X7.311Y-3.6024
X7.311Y-3.6339
X7.311Y-3.6654
X7.311Y-3.6969
X7.311Y-3.7598
X7.311Y-3.7913
X7.311Y-3.8228
X7.311Y-3.8543
X7.311Y-3.8858
X7.311Y-3.9173
X7.311Y-3.9488
X7.311Y-3.9803
X7.311Y-4.0118
X7.311Y-4.0669
X7.3151Y-3.2792
X7.3228Y-2.4094
X7.3268Y-2.3386
X7.3268Y-2.374
X7.3307Y-2.4567
X7.3307Y-2.9055
X7.3307Y-2.9409
X7.3378Y-3.544
X7.3581Y-4.5059
X7.3583Y-4.0866
X7.374Y-3.5079
X7.374Y-3.5394
X7.374Y-3.5709
X7.374Y-3.6024
X7.374Y-3.6339
X7.374Y-3.6654
X7.374Y-3.6969
X7.374Y-3.7913
X7.374Y-3.8228
X7.374Y-3.8543
X7.374Y-3.8858
X7.374Y-3.9173
X7.374Y-3.9488
X7.3741Y-3.1732
X7.3751Y-3.7294
X7.3765Y-2.2575
X7.3937Y-2.4843
X7.4054Y-3.3481
X7.4055Y-3.1634
X7.4055Y-3.5079
X7.4055Y-3.5394
X7.4055Y-3.5709
X7.4055Y-3.6024
X7.4055Y-3.6339
X7.4055Y-3.6654
X7.4055Y-3.6969
X7.4055Y-3.7598
X7.4055Y-3.7913
X7.4055Y-3.8228
X7.4055Y-3.8543
X7.4055Y-3.8858
X7.4055Y-3.9173
X7.4055Y-3.9488
X7.4055Y-3.9803
X7.4055Y-4.0118
X7.4055Y-5.2283
X7.4094Y-4.3228
X7.4118Y-2.8285
X7.4173Y-2.549
X7.4202Y-3.4355
X7.4213Y-2.4921
X7.437Y-3.5394
X7.437Y-3.5709
X7.437Y-3.6024
X7.437Y-3.6339
X7.437Y-3.6654
X7.437Y-3.6969
X7.437Y-3.7598
X7.437Y-3.7913
X7.437Y-3.8228
X7.437Y-3.8543
X7.437Y-3.8858
X7.437Y-3.9173
X7.437Y-3.9488
X7.4419Y-4.6732
X7.4439Y-4.752
X7.4449Y-2.4882
X7.4554Y-5.2558
X7.4554Y-5.2952
X7.4554Y-5.3346
X7.4554Y-5.37
X7.4567Y-4.315
X7.4646Y-3.1836
X7.4647Y-4.6083
X7.4685Y-3.5079
X7.4685Y-3.5394
X7.4685Y-3.5709
X7.4685Y-3.6024
X7.4685Y-3.6339
X7.4685Y-3.6654
X7.4685Y-3.6969
X7.4685Y-3.7283
X7.4685Y-3.7598
X7.4685Y-3.7913
X7.4685Y-3.8228
X7.4685Y-3.8543
X7.4685Y-3.8858
X7.4685Y-3.9173
X7.4685Y-3.9488
X7.4685Y-3.9803
X7.4724Y-2.4882
X7.4764Y-5.1693
X7.477Y-2.2583
X7.4882Y-3.1624
X7.5Y-3.4764
X7.5Y-3.5079
X7.5Y-3.5394
X7.5Y-3.5709
X7.5Y-3.6024
X7.5Y-3.6339
X7.5Y-3.6654
X7.5Y-3.6969
X7.5Y-3.7283
X7.5Y-3.7598
X7.5Y-3.7913
X7.5Y-3.8228
X7.5Y-3.8543
X7.5Y-3.8858
X7.5Y-3.9173
X7.5Y-3.9488
X7.5Y-3.9803
X7.5039Y-3.4252
X7.5226Y-4.6417
X7.5315Y-3.1693
X7.5315Y-3.5079
X7.5315Y-3.5394
X7.5315Y-3.5709
X7.5315Y-3.6339
X7.5315Y-3.6654
X7.5315Y-3.7598
X7.5315Y-3.7913
X7.5315Y-3.8228
X7.5315Y-3.8543
X7.5315Y-3.8858
X7.5315Y-3.9173
X7.5315Y-3.9488
X7.5335Y-2.3028
X7.5354Y-2.374
X7.5354Y-2.3976
X7.5354Y-2.4252
X7.5354Y-4.9567
X7.5461Y-4.6841
X7.5471Y-4.2579
X7.5472Y-2.9764
X7.5491Y-4.7124
X7.5512Y-4.4291
X7.5512Y-4.4606
X7.5512Y-4.4921
X7.5512Y-4.5236
X7.5512Y-4.5551
X7.5512Y-4.5866
X7.5512Y-4.6181
X7.5512Y-4.7756
X7.5512Y-4.8071
X7.5512Y-4.8386
X7.5512Y-4.8701
X7.5512Y-4.9016
X7.5521Y-5.1453
X7.5618Y-3.756
X7.5619Y-3.7248
X7.563Y-3.9196
X7.563Y-3.5079
X7.563Y-3.5394
X7.563Y-3.5709
X7.563Y-3.6024
X7.563Y-3.6339
X7.563Y-3.6654
X7.563Y-3.7913
X7.563Y-3.8228
X7.563Y-3.8543
X7.563Y-3.8858
X7.563Y-3.9488
X7.563Y-3.9803
X7.563Y-4.0118
X7.5737Y-4.2845
X7.5827Y-4.4291
X7.5827Y-4.4606
X7.5827Y-4.4921
X7.5827Y-4.5236
X7.5827Y-4.5551
X7.5827Y-4.5866
X7.5827Y-4.6181
X7.5827Y-4.6496
X7.5827Y-4.6811
X7.5827Y-4.7126
X7.5827Y-4.7756
X7.5827Y-4.8071
X7.5827Y-4.8386
X7.5827Y-4.8701
X7.5827Y-4.9016
X7.5945Y-3.4449
X7.5945Y-3.6024
X7.5945Y-3.7913
X7.5945Y-3.9488
X7.5945Y-5.1654
X7.5965Y-2.366
X7.6102Y-4.252
X7.6133Y-4.5542
X7.6142Y-4.4291
X7.6142Y-4.4606
X7.6142Y-4.4921
X7.6142Y-4.5234
X7.6142Y-4.6496
X7.6142Y-4.6811
X7.6142Y-4.7126
X7.6142Y-4.7441
X7.6142Y-4.7756
X7.6142Y-4.8071
X7.6142Y-4.8386
X7.6142Y-4.8701
X7.6142Y-4.9016
X7.626Y-3.4449
X7.626Y-4.0118
X7.6327Y-3.8759
X7.6333Y-3.7151
X7.6335Y-3.6733
X7.6339Y-3.5551
X7.6412Y-3.7558
X7.6496Y-2.6693
X7.6499Y-4.5841
X7.6579Y-3.7888
X7.6614Y-3.8307
X7.6625Y-4.7609
X7.6732Y-3.8898
X7.6732Y-5.1654
X7.6772Y-3.7126
X7.6808Y-4.0619
X7.6811Y-3.4488
X7.6879Y-4.7126
X7.689Y-3.5551
X7.6929Y-4.622
X7.6969Y-4.7953
X7.7008Y-4.5157
X7.7087Y-4.6024
X7.7087Y-4.7126
X7.7087Y-4.872
X7.7097Y-4.6822
X7.7126Y-3.5551
X7.7224Y-2.5146
X7.7244Y-2.2835
X7.7264Y-2.5886
X7.7362Y-3.7112
X7.7379Y-4.6181
X7.7398Y-4.427
X7.7402Y-4.5236
X7.7402Y-4.5866
X7.7402Y-4.7441
X7.7402Y-4.8071
X7.7402Y-4.8386
X7.7402Y-4.8701
X7.7403Y-4.679
X7.7441Y-3.752
X7.748Y-4.933
X7.7559Y-3.8307
X7.7669Y-5.1453
X7.7677Y-3.4488
X7.7717Y-4.6789
X7.7717Y-4.4291
X7.7717Y-4.4606
X7.7717Y-4.4921
X7.7717Y-4.5236
X7.7717Y-4.5551
X7.7717Y-4.6181
X7.7717Y-4.7441
X7.7717Y-4.8071
X7.7717Y-4.8386
X7.7717Y-4.8701
X7.7723Y-4.6503
X7.7756Y-4.9016
X7.7864Y-3.6646
X7.7927Y-5.3465
X7.7953Y-3.5551
X7.7979Y-5.4448
X7.8031Y-4.4291
X7.8031Y-4.4606
X7.8031Y-4.4921
X7.8031Y-4.5236
X7.8031Y-4.5551
X7.8031Y-4.5866
X7.8031Y-4.6181
X7.8031Y-4.6496
X7.8031Y-4.7756
X7.8031Y-4.8071
X7.8031Y-4.8386
X7.8031Y-4.8701
X7.8044Y-3.6798
X7.8071Y-4.7441
X7.811Y-3.7323
X7.811Y-4.7126
X7.815Y-2.4606
X7.8223Y-3.7638
X7.8228Y-5.4659
X7.8268Y-4.9577
X7.8346Y-4.7402
X7.8622Y-4.8189
X7.8661Y-4.9606
X7.8701Y-4.8386
X7.8752Y-4.7847
X7.8753Y-5.3268
X7.8793Y-5.2442
X7.8793Y-5.2875
X7.8832Y-5.445
X7.8849Y-3.0778
X7.8868Y-2.4568
X7.8937Y-2.878
X7.8947Y-3.6461
X7.8947Y-3.7254
X7.9075Y-2.2933
X7.9331Y-4.9213
X7.9449Y-4.5
X7.9488Y-4.5591
X7.9488Y-4.5866
X7.9488Y-4.622
X7.9488Y-4.6575
X7.9488Y-4.689
X7.9567Y-2.4705
X7.9685Y-2.7047
X7.9961Y-3.4055
X8.0Y-3.4331
X8.0039Y-2.5157
X8.0039Y-4.0945
X8.0168Y-4.0698
X8.0187Y-2.8681
X8.0315Y-3.4921
X8.0315Y-3.5276
X8.0315Y-2.4673
X8.0404Y-4.0737
X8.0413Y-4.0453
X8.0472Y-2.8661
X8.0472Y-3.5079
X8.0472Y-3.5472
X8.0669Y-3.689
X8.0669Y-4.0433
X8.0709Y-2.8504
X8.0709Y-3.5827
X8.0709Y-3.8425
X8.0728Y-4.0177
X8.0748Y-3.4528
X8.0748Y-3.6457
X8.0748Y-3.7283
X8.076Y-3.6689
X8.0866Y-3.5669
X8.0866Y-3.622
X8.0895Y-3.4341
X8.0906Y-2.8661
X8.0906Y-3.4764
X8.0906Y-3.7126
X8.0906Y-3.8228
X8.0945Y-4.0157
X8.0984Y-2.5551
X8.1063Y-3.9921
T2
X5.1555Y-4.9817
X5.1555Y-5.0014
X5.1555Y-5.0211
X5.1949Y-4.9817
X5.1949Y-5.0014
X5.1949Y-5.0211
X5.7736Y-4.9738
X5.7736Y-4.9935
X5.7736Y-5.0132
X5.8091Y-4.5117
X5.8091Y-4.5314
X5.8091Y-4.5511
X5.813Y-4.9738
X5.813Y-4.9935
X5.813Y-5.0132
X5.8484Y-4.5117
X5.8484Y-4.5314
X5.8484Y-4.5511
X7.1378Y-4.378
X7.1378Y-4.3976
X7.1378Y-4.4173
X7.1772Y-4.378
X7.1772Y-4.3976
X7.1772Y-4.4173
X7.2191Y-5.2343
X7.2191Y-5.2736
X7.2388Y-5.2343
X7.2388Y-5.2736
X7.2585Y-5.2343
X7.2585Y-5.2736
T3
X4.3858Y-4.4961
X4.3858Y-4.685
X4.6545Y-4.5138
X4.7677Y-4.4094
X4.7953Y-4.4094
X4.7953Y-4.437
X4.815Y-5.126
X4.815Y-5.1535
X4.815Y-5.185
X4.8465Y-5.126
X4.8465Y-5.1535
X4.8465Y-5.185
X4.878Y-5.126
X4.878Y-5.1535
X4.878Y-5.185
X4.9094Y-5.126
X4.9094Y-5.1535
X4.9094Y-5.185
X4.9606Y-4.5669
X4.9606Y-4.6358
X4.9606Y-4.7146
X5.003Y-4.9022
X5.003Y-4.9298
X5.0039Y-5.1535
X5.0039Y-5.185
X5.0295Y-4.5669
X5.0295Y-4.6358
X5.0295Y-4.7146
X5.0354Y-5.1535
X5.0354Y-5.185
X5.0394Y-4.9016
X5.0394Y-4.9291
X5.0689Y-5.1535
X5.0689Y-5.185
X5.0709Y-4.9016
X5.0709Y-4.9291
X5.0984Y-4.5669
X5.0984Y-4.6358
X5.0984Y-4.7146
X5.1004Y-5.1535
X5.1004Y-5.185
X5.1024Y-4.9016
X5.1024Y-4.9291
X5.1319Y-5.1535
X5.1319Y-5.185
X5.1339Y-4.9016
X5.1339Y-4.9291
X5.1651Y-4.9277
X5.1654Y-4.9016
X5.1965Y-4.9277
X5.1969Y-4.9016
X5.2627Y-5.1444
X5.2627Y-5.1739
X5.2627Y-5.2034
X5.2922Y-5.1444
X5.2922Y-5.1739
X5.2922Y-5.2034
X5.463Y-3.1299
X5.4646Y-3.6929
X5.4921Y-3.4132
X5.4961Y-2.5709
X5.498Y-2.2874
X5.5039Y-2.8543
X5.5039Y-3.7402
X5.5433Y-2.248
X5.5472Y-3.7756
X5.5472Y-3.811
X5.5728Y-2.1811
X5.5827Y-2.2126
X5.6181Y-4.9449
X5.6181Y-4.9724
X5.622Y-5.1457
X5.622Y-5.1772
X5.6241Y-2.378
X5.6299Y-3.6181
X5.6339Y-3.811
X5.6535Y-5.1457
X5.6535Y-5.1772
X5.6545Y-4.9442
X5.6545Y-4.9718
X5.6614Y-2.1811
X5.6614Y-2.6691
X5.6614Y-3.3465
X5.6614Y-3.811
X5.686Y-4.9442
X5.686Y-4.9718
X5.6866Y-2.378
X5.687Y-5.1457
X5.687Y-5.1772
X5.689Y-2.1811
X5.689Y-3.811
X5.6906Y-4.4828
X5.6906Y-4.5104
X5.6906Y-4.5419
X5.6969Y-3.6417
X5.7017Y-4.6843
X5.7017Y-4.7158
X5.7165Y-2.1811
X5.7165Y-2.3898
X5.7165Y-3.811
X5.7175Y-4.9442
X5.7175Y-4.9718
X5.7185Y-5.1457
X5.7185Y-5.1772
X5.7205Y-2.6691
X5.7205Y-3.3465
X5.7215Y-3.617
X5.7221Y-4.4828
X5.7221Y-4.5104
X5.7332Y-4.6567
X5.7332Y-4.6843
X5.7332Y-4.7158
X5.7441Y-2.1811
X5.7441Y-3.811
X5.749Y-4.9442
X5.749Y-4.9718
X5.75Y-5.1457
X5.75Y-5.1772
X5.7536Y-4.4828
X5.7536Y-4.5104
X5.7647Y-4.6567
X5.7647Y-4.6843
X5.7647Y-4.7158
X5.7717Y-2.1811
X5.7717Y-3.811
X5.7805Y-4.9442
X5.7835Y-2.6183
X5.7835Y-3.3661
X5.7851Y-4.4828
X5.7851Y-4.5104
X5.7992Y-2.1811
X5.812Y-4.9442
X5.8166Y-4.4828
X5.8228Y-2.6183
X5.8228Y-2.8533
X5.8228Y-3.3661
X5.8481Y-4.4828
X5.8504Y-3.7756
X5.8583Y-3.811
X5.8806Y-5.1367
X5.8806Y-5.1662
X5.8806Y-5.1957
X5.8839Y-2.1811
X5.8858Y-2.2165
X5.8898Y-3.7441
X5.9101Y-5.1367
X5.9101Y-5.1662
X5.9101Y-5.1957
X5.9154Y-4.6752
X5.9154Y-4.7047
X5.9154Y-4.7343
X5.9173Y-2.9291
X5.9173Y-3.626
X5.9213Y-2.5433
X5.9252Y-2.252
X5.937Y-3.4134
X5.9389Y-3.1309
X5.941Y-3.7028
X5.9449Y-2.2736
X5.9449Y-3.3346
X5.9449Y-4.6752
X5.9449Y-4.7047
X5.9449Y-4.7343
X5.9457Y-3.2396
X5.9488Y-2.3701
X5.9488Y-2.7756
X5.9615Y-2.6621
X6.2047Y-4.7362
X6.2047Y-4.7913
X6.2047Y-4.8465
X6.2638Y-4.7378
X6.2638Y-4.7913
X6.2638Y-4.8465
X6.3189Y-4.7378
X6.3189Y-4.7913
X6.3189Y-4.8465
X6.6535Y-3.4528
X6.6693Y-3.937
X6.6693Y-3.9685
X6.6693Y-4.0
X6.6693Y-4.0315
X6.6813Y-3.2899
X6.6969Y-3.937
X6.6969Y-3.9685
X6.6969Y-4.0
X6.6969Y-4.0315
X6.7913Y-3.9488
X6.7913Y-3.9803
X6.7913Y-4.0118
X6.805Y-3.428
X6.8917Y-3.9675
X6.8917Y-3.9961
X6.8917Y-4.0256
X6.9252Y-4.0226
X6.939Y-5.1969
X6.939Y-5.2264
X6.9685Y-5.1969
X6.9685Y-5.2264
X6.998Y-5.1969
X6.998Y-5.2264
X7.0157Y-4.3504
X7.0157Y-4.378
X7.0157Y-4.4094
X7.0472Y-4.3504
X7.0472Y-4.378
X7.0512Y-4.5512
X7.0512Y-4.5827
X7.0591Y-5.1457
X7.0591Y-5.1772
X7.0591Y-5.2087
X7.0787Y-4.3504
X7.0787Y-4.378
X7.0827Y-4.5236
X7.0827Y-4.5512
X7.0827Y-4.5827
X7.0906Y-5.1457
X7.0906Y-5.1772
X7.0906Y-5.2087
X7.1102Y-4.3504
X7.1102Y-4.378
X7.1142Y-4.5236
X7.1142Y-4.5512
X7.1142Y-4.5827
X7.1181Y-5.1772
X7.1181Y-5.2087
X7.1417Y-4.3504
X7.1732Y-4.3504
X7.2666Y-4.541
X7.2666Y-4.5705
X7.2666Y-4.6001
X7.2677Y-5.1535
X7.2677Y-5.1772
X7.2677Y-5.2047
X7.2961Y-4.541
X7.2961Y-4.5705
X7.2961Y-4.6001
X7.2992Y-5.1535
X7.2992Y-5.1772
X7.2992Y-5.2047
X7.2992Y-5.2362
X7.2992Y-5.2677
X7.3425Y-4.6654
X7.3425Y-4.7441
X7.3425Y-4.8327
X7.3425Y-4.9213
X7.4016Y-4.9803
X7.4606Y-5.0394
X7.5197Y-5.0787
X7.5315Y-5.1969
X7.5984Y-5.0787
X7.6181Y-5.2953
X7.6181Y-5.3465
X7.6535Y-5.2953
X7.6535Y-5.3465
X7.6772Y-5.0787
X7.685Y-5.2953
X7.685Y-5.3465
X7.7362Y-5.0787
X7.7953Y-5.0787
T5
X4.6152Y-4.7047
T6
X5.0839Y-3.7843
X5.0839Y-3.8643
X5.0839Y-3.9443
X5.0839Y-4.0243
X5.0839Y-4.1043
X5.0839Y-4.1843
X5.1839Y-3.7443
X5.1839Y-3.8243
X5.1839Y-3.9043
X5.1839Y-4.0643
X5.1839Y-4.1443
X5.1839Y-4.2243
T7
X4.7047Y-3.0
X4.7047Y-3.0
X5.0984Y-3.0
X5.0984Y-3.0
X5.4055Y-2.439
X5.4055Y-3.561
X5.4921Y-3.0
X5.4921Y-3.0
X5.5906Y-2.439
X5.5906Y-3.561
X5.7874Y-2.439
X5.7874Y-3.561
X5.8858Y-3.0
X5.8858Y-3.0
X5.9685Y-2.5307
X5.9685Y-2.7193
X5.9685Y-2.7197
X5.9685Y-2.9083
X5.9685Y-3.0917
X5.9685Y-3.2803
X5.9685Y-3.2807
X5.9685Y-3.4693
T8
X4.7313Y-5.3035
X4.7313Y-5.4035
X4.8313Y-5.3035
X4.8313Y-5.4035
X4.9313Y-5.3035
X4.9313Y-5.4035
X5.0313Y-5.3035
X5.0313Y-5.4035
X5.1313Y-5.3035
X5.1313Y-5.4035
X5.2313Y-5.3035
X5.2313Y-5.4035
X5.6313Y-5.3035
X5.6313Y-5.4035
X5.7313Y-5.3035
X5.7313Y-5.4035
X5.8313Y-5.3035
X5.8313Y-5.4035
X5.9313Y-5.3035
X5.9313Y-5.4035
X6.0313Y-5.3035
X6.0313Y-5.4035
X6.1313Y-5.3035
X6.1313Y-5.4035
X6.2547Y-2.662
X6.2547Y-2.762
X6.2547Y-2.862
X6.2547Y-2.962
X6.2547Y-3.062
X6.2547Y-3.162
X6.2547Y-3.362
X6.2547Y-3.462
X6.2547Y-3.562
X6.2547Y-3.662
X6.2547Y-3.762
X6.2547Y-3.862
X6.2547Y-3.962
X6.2547Y-4.062
X8.1547Y-2.662
X8.1547Y-2.762
X8.1547Y-2.862
X8.1547Y-2.962
X8.1547Y-3.062
X8.1547Y-3.162
X8.1547Y-3.262
X8.1547Y-3.362
X8.1547Y-3.5219
X8.1547Y-3.6219
X8.1547Y-3.7219
X8.1547Y-3.8219
X8.1547Y-3.9219
X8.1547Y-4.0219
X8.1547Y-4.1219
X8.1547Y-4.2219
X8.1547Y-4.3219
X8.1547Y-4.4219
X8.3809Y-2.2459
X8.3809Y-2.3459
X8.3809Y-2.4459
X8.3809Y-2.5459
X8.3809Y-2.6459
X8.3809Y-2.7459
X8.3809Y-3.1459
X8.3809Y-3.2459
X8.3809Y-3.3459
X8.3809Y-3.4459
X8.3809Y-3.5459
X8.3809Y-3.6459
X8.3809Y-4.0459
X8.3809Y-4.1459
X8.3809Y-4.2459
X8.3809Y-4.3459
X8.3809Y-4.4459
X8.3809Y-4.5459
X8.3809Y-4.9459
X8.3809Y-5.0459
X8.3809Y-5.1459
X8.3809Y-5.2459
X8.3809Y-5.3459
X8.3809Y-5.4459
X8.4809Y-2.2459
X8.4809Y-2.3459
X8.4809Y-2.4459
X8.4809Y-2.5459
X8.4809Y-2.6459
X8.4809Y-2.7459
X8.4809Y-3.1459
X8.4809Y-3.2459
X8.4809Y-3.3459
X8.4809Y-3.4459
X8.4809Y-3.5459
X8.4809Y-3.6459
X8.4809Y-4.0459
X8.4809Y-4.1459
X8.4809Y-4.2459
X8.4809Y-4.3459
X8.4809Y-4.4459
X8.4809Y-4.5459
X8.4809Y-4.9459
X8.4809Y-5.0459
X8.4809Y-5.1459
X8.4809Y-5.2459
X8.4809Y-5.3459
X8.4809Y-5.4459
T9
X4.5079Y-2.439
X4.5079Y-2.6622
X4.5079Y-2.7768
X4.5079Y-3.2232
X4.5079Y-3.3378
X4.5079Y-3.561
X4.7047Y-2.439
X4.7047Y-3.561
X4.9016Y-2.439
X4.9016Y-3.561
X5.0984Y-2.439
X5.0984Y-2.5638
X5.0984Y-2.6626
X5.0984Y-2.7764
X5.0984Y-2.8752
X5.0984Y-3.1248
X5.0984Y-3.2236
X5.0984Y-3.3374
X5.0984Y-3.4362
X5.0984Y-3.561
X5.2953Y-2.439
X5.2953Y-3.561
X5.4921Y-2.439
X5.4921Y-3.561
X5.8858Y-2.439
X5.8858Y-3.561
T10
X5.2839Y-3.7443
X5.2839Y-3.8443
X5.2839Y-4.1243
X5.2839Y-4.2243
T11
X4.3589Y-3.6667
X4.3589Y-4.3018
T12
X4.2126Y-5.3543
X4.4882Y-2.2835
X8.1496Y-2.2835
X8.1496Y-5.3543
T13
X4.2994Y-4.4768
X4.2994Y-4.7043
T14
X5.7244Y-2.5301
X5.7244Y-2.5305
X5.7244Y-2.9081
X5.7244Y-2.9085
X5.7244Y-3.0913
X5.7244Y-3.0917
X5.7244Y-3.4693
X5.7244Y-3.4697
T15
X4.4839Y-3.7343
X4.4839Y-4.2343
T4
G00X4.1703Y-4.4205
M15
G01X4.1388Y-4.4205
M16
G05
G00X4.1703Y-4.7606
M15
G01X4.1388Y-4.7606
M16
G05
G00X4.3407Y-4.4205
M15
G01X4.2974Y-4.4205
M16
G05
G00X4.3407Y-4.7606
M15
G01X4.2974Y-4.7606
M16
G05
T8
G00X4.3484Y-4.9961
M15
G01X4.3484Y-5.0827
M16
G05
G00X4.5256Y-5.2283
M15
G01X4.439Y-5.2283
M16
G05
G00X4.5965Y-4.9882
M15
G01X4.5965Y-5.0906
M16
G05
M30
