%TF.GenerationSoftware,KiCad,Pcbnew,9.0.1*%
%TF.CreationDate,2025-05-15T18:24:47+02:00*%
%TF.ProjectId,Marble_Tiny,4d617262-6c65-45f5-9469-6e792e6b6963,rev?*%
%TF.SameCoordinates,Original*%
%TF.FileFunction,Soldermask,Bot*%
%TF.FilePolarity,Negative*%
%FSLAX46Y46*%
G04 Gerber Fmt 4.6, Leading zero omitted, Abs format (unit mm)*
G04 Created by KiCad (PCBNEW 9.0.1) date 2025-05-15 18:24:47*
%MOMM*%
%LPD*%
G01*
G04 APERTURE LIST*
G04 Aperture macros list*
%AMRoundRect*
0 Rectangle with rounded corners*
0 $1 Rounding radius*
0 $2 $3 $4 $5 $6 $7 $8 $9 X,Y pos of 4 corners*
0 Add a 4 corners polygon primitive as box body*
4,1,4,$2,$3,$4,$5,$6,$7,$8,$9,$2,$3,0*
0 Add four circle primitives for the rounded corners*
1,1,$1+$1,$2,$3*
1,1,$1+$1,$4,$5*
1,1,$1+$1,$6,$7*
1,1,$1+$1,$8,$9*
0 Add four rect primitives between the rounded corners*
20,1,$1+$1,$2,$3,$4,$5,0*
20,1,$1+$1,$4,$5,$6,$7,0*
20,1,$1+$1,$6,$7,$8,$9,0*
20,1,$1+$1,$8,$9,$2,$3,0*%
%AMRotRect*
0 Rectangle, with rotation*
0 The origin of the aperture is its center*
0 $1 length*
0 $2 width*
0 $3 Rotation angle, in degrees counterclockwise*
0 Add horizontal line*
21,1,$1,$2,0,0,$3*%
G04 Aperture macros list end*
%ADD10C,0.000000*%
%ADD11R,1.700000X1.700000*%
%ADD12C,1.700000*%
%ADD13C,0.650000*%
%ADD14O,2.100000X1.000000*%
%ADD15O,1.800000X1.000000*%
%ADD16C,5.500000*%
%ADD17R,2.000000X2.000000*%
%ADD18C,1.458000*%
%ADD19C,1.550000*%
%ADD20C,3.200000*%
%ADD21C,1.600000*%
%ADD22C,1.800000*%
%ADD23C,2.300000*%
%ADD24R,1.600000X1.600000*%
%ADD25O,1.600000X1.600000*%
%ADD26C,1.500000*%
%ADD27R,2.000000X4.600000*%
%ADD28O,2.000000X4.200000*%
%ADD29O,4.200000X2.000000*%
%ADD30R,0.620000X0.620000*%
%ADD31R,0.580000X0.620000*%
%ADD32R,0.450000X0.400000*%
%ADD33R,1.150000X1.450000*%
%ADD34R,0.400000X0.450000*%
%ADD35R,1.400000X1.050000*%
%ADD36R,0.600000X0.620000*%
%ADD37R,0.710000X0.720000*%
%ADD38R,0.620000X0.580000*%
%ADD39R,1.450000X1.150000*%
%ADD40R,0.900000X1.000000*%
%ADD41RoundRect,0.250000X0.850000X-0.375000X0.850000X0.375000X-0.850000X0.375000X-0.850000X-0.375000X0*%
%ADD42R,0.950000X1.450000*%
%ADD43R,1.550000X0.600000*%
%ADD44RoundRect,0.250000X-0.850000X0.375000X-0.850000X-0.375000X0.850000X-0.375000X0.850000X0.375000X0*%
%ADD45RoundRect,0.150000X-0.587500X-0.150000X0.587500X-0.150000X0.587500X0.150000X-0.587500X0.150000X0*%
%ADD46R,1.400000X0.950000*%
%ADD47R,2.400000X1.700000*%
%ADD48R,1.000000X0.950000*%
%ADD49R,2.000000X0.500000*%
%ADD50R,1.000000X0.900000*%
%ADD51R,0.720000X0.710000*%
%ADD52RotRect,0.450000X0.400000X315.000000*%
%ADD53R,0.950000X1.400000*%
%ADD54R,1.500000X0.400000*%
G04 APERTURE END LIST*
D10*
%TO.C,J9*%
G36*
X133600000Y-75100000D02*
G01*
X131600000Y-75100000D01*
X131600000Y-63050000D01*
X133600000Y-63050000D01*
X133600000Y-75100000D01*
G37*
G36*
X133600000Y-89350000D02*
G01*
X131600000Y-89350000D01*
X131600000Y-77300000D01*
X133600000Y-77300000D01*
X133600000Y-89350000D01*
G37*
%TD*%
D11*
%TO.C,J6*%
X212875000Y-79905000D03*
D12*
X212875000Y-82445000D03*
X212875000Y-84985000D03*
X212875000Y-87525000D03*
X212875000Y-90065000D03*
X212875000Y-92605000D03*
X215415000Y-79905000D03*
X215415000Y-82445000D03*
X215415000Y-84985000D03*
X215415000Y-87525000D03*
X215415000Y-90065000D03*
X215415000Y-92605000D03*
%TD*%
D13*
%TO.C,J2*%
X109205000Y-113710000D03*
X109205000Y-119490000D03*
D14*
X109705000Y-112280000D03*
D15*
X105525000Y-112280000D03*
D14*
X109705000Y-120920000D03*
D15*
X105525000Y-120920000D03*
%TD*%
D16*
%TO.C,B3*%
X207000000Y-58000000D03*
%TD*%
D11*
%TO.C,J4*%
X212875000Y-125625000D03*
D12*
X212875000Y-128165000D03*
X212875000Y-130705000D03*
X212875000Y-133245000D03*
X212875000Y-135785000D03*
X212875000Y-138325000D03*
X215415000Y-125625000D03*
X215415000Y-128165000D03*
X215415000Y-130705000D03*
X215415000Y-133245000D03*
X215415000Y-135785000D03*
X215415000Y-138325000D03*
%TD*%
D11*
%TO.C,J5*%
X212875000Y-102765000D03*
D12*
X212875000Y-105305000D03*
X212875000Y-107845000D03*
X212875000Y-110385000D03*
X212875000Y-112925000D03*
X212875000Y-115465000D03*
X215415000Y-102765000D03*
X215415000Y-105305000D03*
X215415000Y-107845000D03*
X215415000Y-110385000D03*
X215415000Y-112925000D03*
X215415000Y-115465000D03*
%TD*%
D16*
%TO.C,B1*%
X114000000Y-58000000D03*
%TD*%
D11*
%TO.C,J14*%
X132875000Y-134710000D03*
D12*
X130335000Y-134710000D03*
X127795000Y-134710000D03*
X125255000Y-134710000D03*
X122715000Y-134710000D03*
X120175000Y-134710000D03*
X132875000Y-137250000D03*
X130335000Y-137250000D03*
X127795000Y-137250000D03*
X125255000Y-137250000D03*
X122715000Y-137250000D03*
X120175000Y-137250000D03*
%TD*%
D17*
%TO.C,J8*%
X149500000Y-90450000D03*
X139500000Y-90450000D03*
X134500000Y-61950000D03*
X129500000Y-67630000D03*
X129500000Y-73030000D03*
X129500000Y-81880000D03*
X129500000Y-87280000D03*
X129500000Y-90450000D03*
X124500000Y-61950000D03*
X119500000Y-90450000D03*
X114500000Y-61950000D03*
X114500000Y-70530000D03*
X114500000Y-84780000D03*
X147000000Y-61950000D03*
X142000000Y-61950000D03*
D18*
X137300000Y-61950000D03*
X151600000Y-64280000D03*
X151600000Y-69080000D03*
D17*
X149500000Y-76200000D03*
D18*
X151600000Y-78530000D03*
X151600000Y-83330000D03*
D17*
X139500000Y-76200000D03*
X129500000Y-76200000D03*
X119500000Y-76200000D03*
%TD*%
D11*
%TO.C,J15*%
X155735000Y-134710000D03*
D12*
X153195000Y-134710000D03*
X150655000Y-134710000D03*
X148115000Y-134710000D03*
X145575000Y-134710000D03*
X143035000Y-134710000D03*
X155735000Y-137250000D03*
X153195000Y-137250000D03*
X150655000Y-137250000D03*
X148115000Y-137250000D03*
X145575000Y-137250000D03*
X143035000Y-137250000D03*
%TD*%
D19*
%TO.C,J1*%
X145400000Y-78530000D03*
X145400000Y-88130000D03*
%TD*%
D16*
%TO.C,B4*%
X207000000Y-136000000D03*
%TD*%
D20*
%TO.C,J3*%
X113890000Y-107550000D03*
X113890000Y-94850000D03*
D21*
X129130000Y-106280000D03*
X129130000Y-104248000D03*
X129130000Y-102216000D03*
X129130000Y-100184000D03*
X129130000Y-98152000D03*
X129130000Y-96120000D03*
X131670000Y-107296000D03*
X131670000Y-105264000D03*
X131670000Y-103232000D03*
X131670000Y-99168000D03*
X131670000Y-97136000D03*
X131670000Y-95104000D03*
D22*
X134210000Y-107296000D03*
X134210000Y-104756000D03*
X134210000Y-97644000D03*
X134210000Y-95104000D03*
D23*
X110715000Y-109265000D03*
X110715000Y-93135000D03*
%TD*%
D24*
%TO.C,A1*%
X158870000Y-103175000D03*
D25*
X158870000Y-100635000D03*
X158870000Y-98095000D03*
X158870000Y-95555000D03*
X158870000Y-93015000D03*
X158870000Y-90475000D03*
X158870000Y-87935000D03*
X158870000Y-85395000D03*
X158870000Y-80315000D03*
X158870000Y-77775000D03*
X158870000Y-75235000D03*
X158870000Y-72695000D03*
X158870000Y-70155000D03*
X158870000Y-67615000D03*
X207130000Y-67615000D03*
X207130000Y-70155000D03*
X207130000Y-72695000D03*
X207130000Y-75235000D03*
X207130000Y-77775000D03*
X207130000Y-80315000D03*
X207130000Y-82855000D03*
X207130000Y-85395000D03*
X207130000Y-89455000D03*
X207130000Y-91995000D03*
X207130000Y-94535000D03*
X207130000Y-97075000D03*
X207130000Y-99615000D03*
X207130000Y-102155000D03*
X207130000Y-104695000D03*
X207130000Y-107235000D03*
X207130000Y-109775000D03*
X207130000Y-112315000D03*
%TD*%
D16*
%TO.C,B2*%
X107000000Y-136000000D03*
%TD*%
D26*
%TO.C,TP1*%
X117225000Y-119500000D03*
%TD*%
D11*
%TO.C,J7*%
X212875000Y-57045000D03*
D12*
X212875000Y-59585000D03*
X212875000Y-62125000D03*
X212875000Y-64665000D03*
X212875000Y-67205000D03*
X212875000Y-69745000D03*
X215415000Y-57045000D03*
X215415000Y-59585000D03*
X215415000Y-62125000D03*
X215415000Y-64665000D03*
X215415000Y-67205000D03*
X215415000Y-69745000D03*
%TD*%
D27*
%TO.C,J10*%
X116750000Y-128000000D03*
D28*
X110450000Y-128000000D03*
D29*
X113850000Y-132800000D03*
%TD*%
D19*
%TO.C,J12*%
X145400000Y-64275000D03*
X145400000Y-73875000D03*
%TD*%
D30*
%TO.C,C103*%
X174350000Y-99600000D03*
X175250000Y-99600000D03*
%TD*%
%TO.C,C32*%
X142150000Y-55400000D03*
X143050000Y-55400000D03*
%TD*%
D31*
%TO.C,R180*%
X179030000Y-135650000D03*
X179970000Y-135650000D03*
%TD*%
D32*
%TO.C,C95*%
X189750000Y-93100000D03*
X190450000Y-93100000D03*
%TD*%
D33*
%TO.C,C122*%
X173600000Y-98100000D03*
X175400000Y-98100000D03*
%TD*%
D34*
%TO.C,C240*%
X192300000Y-118950000D03*
X192300000Y-119650000D03*
%TD*%
D30*
%TO.C,C108*%
X186500000Y-91350000D03*
X186500000Y-92250000D03*
%TD*%
D32*
%TO.C,C126*%
X178950000Y-89947117D03*
X179650000Y-89947117D03*
%TD*%
D35*
%TO.C,C38*%
X148600000Y-95100000D03*
X148600000Y-93300000D03*
%TD*%
D34*
%TO.C,C245*%
X191400000Y-122850000D03*
X191400000Y-122150000D03*
%TD*%
D30*
%TO.C,C63*%
X185750000Y-122300000D03*
X184850000Y-122300000D03*
%TD*%
%TO.C,C34*%
X148150000Y-96800000D03*
X147250000Y-96800000D03*
%TD*%
%TO.C,C66*%
X194900000Y-129750000D03*
X194900000Y-130650000D03*
%TD*%
%TO.C,C168*%
X177150000Y-100800000D03*
X178050000Y-100800000D03*
%TD*%
D32*
%TO.C,C94*%
X184150000Y-95500000D03*
X184850000Y-95500000D03*
%TD*%
D34*
%TO.C,C244*%
X198300000Y-121350000D03*
X198300000Y-122050000D03*
%TD*%
D36*
%TO.C,L16*%
X184640000Y-94700000D03*
X185560000Y-94700000D03*
%TD*%
D37*
%TO.C,C5*%
X150460000Y-106600000D03*
X149540000Y-106600000D03*
%TD*%
D31*
%TO.C,R55*%
X188270000Y-119300000D03*
X187330000Y-119300000D03*
%TD*%
D34*
%TO.C,C165*%
X183100000Y-99550000D03*
X183100000Y-100250000D03*
%TD*%
D32*
%TO.C,C121*%
X196050000Y-94300000D03*
X195350000Y-94300000D03*
%TD*%
%TO.C,C139*%
X193750000Y-87500000D03*
X193050000Y-87500000D03*
%TD*%
D34*
%TO.C,C249*%
X195600000Y-120550000D03*
X195600000Y-121250000D03*
%TD*%
D32*
%TO.C,C230*%
X193350000Y-113100000D03*
X192650000Y-113100000D03*
%TD*%
D38*
%TO.C,R90*%
X183400000Y-83530000D03*
X183400000Y-84470000D03*
%TD*%
%TO.C,R58*%
X194500000Y-126630000D03*
X194500000Y-127570000D03*
%TD*%
D32*
%TO.C,C92*%
X188150000Y-93100000D03*
X188850000Y-93100000D03*
%TD*%
D30*
%TO.C,C68*%
X189900000Y-129750000D03*
X189900000Y-130650000D03*
%TD*%
D34*
%TO.C,C153*%
X190400000Y-108650000D03*
X190400000Y-107950000D03*
%TD*%
D31*
%TO.C,R11*%
X153270000Y-108000000D03*
X152330000Y-108000000D03*
%TD*%
D30*
%TO.C,C123*%
X185700000Y-84350000D03*
X185700000Y-85250000D03*
%TD*%
%TO.C,C14*%
X140050000Y-105400000D03*
X140950000Y-105400000D03*
%TD*%
D38*
%TO.C,R171*%
X165400000Y-61530000D03*
X165400000Y-62470000D03*
%TD*%
D32*
%TO.C,C100*%
X184950000Y-96300000D03*
X185650000Y-96300000D03*
%TD*%
%TO.C,C120*%
X182550000Y-94700000D03*
X183250000Y-94700000D03*
%TD*%
D38*
%TO.C,R54*%
X197500000Y-126630000D03*
X197500000Y-127570000D03*
%TD*%
D33*
%TO.C,C119*%
X169350000Y-96000000D03*
X171150000Y-96000000D03*
%TD*%
D34*
%TO.C,C128*%
X188100000Y-88250000D03*
X188100000Y-88950000D03*
%TD*%
D30*
%TO.C,C131*%
X178650000Y-85900000D03*
X179550000Y-85900000D03*
%TD*%
D32*
%TO.C,C236*%
X197450000Y-115600000D03*
X198150000Y-115600000D03*
%TD*%
D39*
%TO.C,C110*%
X184800000Y-105800000D03*
X184800000Y-104000000D03*
%TD*%
D32*
%TO.C,C90*%
X186550000Y-93100000D03*
X187250000Y-93100000D03*
%TD*%
D30*
%TO.C,C40*%
X140300000Y-58150000D03*
X140300000Y-59050000D03*
%TD*%
D38*
%TO.C,R72*%
X199100000Y-118970000D03*
X199100000Y-118030000D03*
%TD*%
D32*
%TO.C,C239*%
X191650000Y-118000000D03*
X192350000Y-118000000D03*
%TD*%
D30*
%TO.C,C118*%
X170550000Y-97500000D03*
X171450000Y-97500000D03*
%TD*%
D40*
%TO.C,R1*%
X181500000Y-113700000D03*
X179900000Y-113700000D03*
%TD*%
D38*
%TO.C,R146*%
X132600000Y-131130000D03*
X132600000Y-132070000D03*
%TD*%
D41*
%TO.C,L8*%
X143300000Y-95375000D03*
X143300000Y-93225000D03*
%TD*%
D31*
%TO.C,R15*%
X152330000Y-111000000D03*
X153270000Y-111000000D03*
%TD*%
D38*
%TO.C,R178*%
X152150000Y-118620000D03*
X152150000Y-117680000D03*
%TD*%
D30*
%TO.C,C105*%
X186500000Y-94050000D03*
X186500000Y-94950000D03*
%TD*%
D32*
%TO.C,C144*%
X193250000Y-101900000D03*
X192550000Y-101900000D03*
%TD*%
%TO.C,C137*%
X181650000Y-93900000D03*
X180950000Y-93900000D03*
%TD*%
%TO.C,C154*%
X187340000Y-93900000D03*
X188040000Y-93900000D03*
%TD*%
D30*
%TO.C,C72*%
X123900000Y-110400000D03*
X124800000Y-110400000D03*
%TD*%
%TO.C,C167*%
X177150000Y-101800000D03*
X178050000Y-101800000D03*
%TD*%
D42*
%TO.C,L15*%
X186117500Y-108400000D03*
X188117500Y-108400000D03*
%TD*%
D43*
%TO.C,U22*%
X119800000Y-110825000D03*
X119800000Y-112095000D03*
X119800000Y-113365000D03*
X119800000Y-114635000D03*
X114400000Y-114635000D03*
X114400000Y-113365000D03*
X114400000Y-112095000D03*
X114400000Y-110825000D03*
%TD*%
D41*
%TO.C,L9*%
X146200000Y-95375000D03*
X146200000Y-93225000D03*
%TD*%
D31*
%TO.C,R169*%
X180830000Y-129900000D03*
X181770000Y-129900000D03*
%TD*%
D34*
%TO.C,C235*%
X198100000Y-117250000D03*
X198100000Y-117950000D03*
%TD*%
D31*
%TO.C,R145*%
X179970000Y-134650000D03*
X179030000Y-134650000D03*
%TD*%
D34*
%TO.C,C250*%
X190100000Y-117050000D03*
X190100000Y-117750000D03*
%TD*%
%TO.C,C134*%
X181500000Y-87550000D03*
X181500000Y-88250000D03*
%TD*%
%TO.C,C166*%
X184400000Y-102050000D03*
X184400000Y-101350000D03*
%TD*%
D31*
%TO.C,R53*%
X188270000Y-123300000D03*
X187330000Y-123300000D03*
%TD*%
D34*
%TO.C,C124*%
X192800000Y-97650000D03*
X192800000Y-96950000D03*
%TD*%
D32*
%TO.C,C130*%
X194650000Y-90300000D03*
X193950000Y-90300000D03*
%TD*%
D44*
%TO.C,L6*%
X147100000Y-56825000D03*
X147100000Y-58975000D03*
%TD*%
D34*
%TO.C,C164*%
X181100000Y-101300000D03*
X181100000Y-102000000D03*
%TD*%
D32*
%TO.C,C138*%
X178957324Y-90951217D03*
X179657324Y-90951217D03*
%TD*%
D34*
%TO.C,C159*%
X182500000Y-97950000D03*
X182500000Y-98650000D03*
%TD*%
D32*
%TO.C,C145*%
X194850000Y-98300000D03*
X194150000Y-98300000D03*
%TD*%
D34*
%TO.C,C232*%
X191700000Y-114850000D03*
X191700000Y-114150000D03*
%TD*%
D30*
%TO.C,C161*%
X177150000Y-98600000D03*
X178050000Y-98600000D03*
%TD*%
D38*
%TO.C,R144*%
X148300000Y-130830000D03*
X148300000Y-131770000D03*
%TD*%
D30*
%TO.C,C42*%
X150200000Y-94050000D03*
X150200000Y-93150000D03*
%TD*%
D34*
%TO.C,C115*%
X184100000Y-91550000D03*
X184100000Y-92250000D03*
%TD*%
%TO.C,C148*%
X188100000Y-97150000D03*
X188100000Y-97850000D03*
%TD*%
%TO.C,C242*%
X198300000Y-122950000D03*
X198300000Y-123650000D03*
%TD*%
%TO.C,C143*%
X188900000Y-101250000D03*
X188900000Y-100550000D03*
%TD*%
%TO.C,C238*%
X198200000Y-113250000D03*
X198200000Y-113950000D03*
%TD*%
D32*
%TO.C,C186*%
X164100000Y-112700000D03*
X164800000Y-112700000D03*
%TD*%
D45*
%TO.C,U9*%
X189662500Y-106650000D03*
X189662500Y-104750000D03*
X191537500Y-105700000D03*
%TD*%
D30*
%TO.C,C107*%
X189050000Y-94800000D03*
X188150000Y-94800000D03*
%TD*%
D34*
%TO.C,C147*%
X190400000Y-96350000D03*
X190400000Y-97050000D03*
%TD*%
D30*
%TO.C,C142*%
X195150000Y-97300000D03*
X196050000Y-97300000D03*
%TD*%
D31*
%TO.C,R16*%
X153270000Y-107000000D03*
X152330000Y-107000000D03*
%TD*%
D30*
%TO.C,C179*%
X131800000Y-128450000D03*
X131800000Y-129350000D03*
%TD*%
D38*
%TO.C,R112*%
X158400000Y-126570000D03*
X158400000Y-125630000D03*
%TD*%
D30*
%TO.C,C104*%
X196050000Y-96300000D03*
X195150000Y-96300000D03*
%TD*%
%TO.C,C33*%
X141450000Y-96800000D03*
X142350000Y-96800000D03*
%TD*%
D38*
%TO.C,R165*%
X177200000Y-61730000D03*
X177200000Y-62670000D03*
%TD*%
D34*
%TO.C,C89*%
X185700000Y-91550000D03*
X185700000Y-92250000D03*
%TD*%
D32*
%TO.C,C96*%
X189650000Y-97100000D03*
X188950000Y-97100000D03*
%TD*%
D26*
%TO.C,TP4*%
X145000000Y-98750000D03*
%TD*%
D31*
%TO.C,R70*%
X188270000Y-121300000D03*
X187330000Y-121300000D03*
%TD*%
D34*
%TO.C,C136*%
X184100000Y-86750000D03*
X184100000Y-87450000D03*
%TD*%
D38*
%TO.C,R95*%
X150600000Y-117932500D03*
X150600000Y-116992500D03*
%TD*%
D34*
%TO.C,C146*%
X191300000Y-95050000D03*
X191300000Y-94350000D03*
%TD*%
D31*
%TO.C,R69*%
X188270000Y-120300000D03*
X187330000Y-120300000D03*
%TD*%
D34*
%TO.C,C169*%
X179300000Y-101850000D03*
X179300000Y-101150000D03*
%TD*%
D17*
%TO.C,J9*%
X149500000Y-61950000D03*
X139500000Y-61950000D03*
X134500000Y-90450000D03*
X129500000Y-84770000D03*
X129500000Y-79370000D03*
X129500000Y-70520000D03*
X129500000Y-65120000D03*
X129500000Y-61950000D03*
X124500000Y-90450000D03*
X119500000Y-61950000D03*
X114500000Y-90450000D03*
X114500000Y-81870000D03*
X114500000Y-67620000D03*
X147000000Y-90450000D03*
X142000000Y-90450000D03*
D18*
X137300000Y-90450000D03*
X151600000Y-88120000D03*
X151600000Y-83320000D03*
D17*
X149500000Y-76200000D03*
D26*
X151600000Y-73870000D03*
D18*
X151600000Y-69070000D03*
D17*
X139500000Y-76200000D03*
X129500000Y-76200000D03*
X119500000Y-76200000D03*
%TD*%
D38*
%TO.C,R97*%
X148500000Y-119932500D03*
X148500000Y-118992500D03*
%TD*%
D30*
%TO.C,C15*%
X140050000Y-107600000D03*
X140950000Y-107600000D03*
%TD*%
D34*
%TO.C,C149*%
X192800000Y-99750000D03*
X192800000Y-99050000D03*
%TD*%
D38*
%TO.C,R168*%
X195150000Y-119070000D03*
X195150000Y-118130000D03*
%TD*%
D30*
%TO.C,C31*%
X148850000Y-55400000D03*
X147950000Y-55400000D03*
%TD*%
D31*
%TO.C,R71*%
X188270000Y-118300000D03*
X187330000Y-118300000D03*
%TD*%
D46*
%TO.C,R91*%
X129200000Y-127500000D03*
X129200000Y-129500000D03*
%TD*%
D38*
%TO.C,R170*%
X164400000Y-61530000D03*
X164400000Y-62470000D03*
%TD*%
D32*
%TO.C,C91*%
X189850000Y-95350000D03*
X190550000Y-95350000D03*
%TD*%
D34*
%TO.C,C233*%
X192500000Y-115650000D03*
X192500000Y-114950000D03*
%TD*%
D38*
%TO.C,R52*%
X198500000Y-126630000D03*
X198500000Y-127570000D03*
%TD*%
D35*
%TO.C,C36*%
X141800000Y-57100000D03*
X141800000Y-58900000D03*
%TD*%
D47*
%TO.C,Y5*%
X123900000Y-116150000D03*
X123900000Y-112450000D03*
%TD*%
D48*
%TO.C,L11*%
X193300000Y-106800000D03*
X193300000Y-105200000D03*
%TD*%
D30*
%TO.C,C8*%
X150450000Y-105500000D03*
X149550000Y-105500000D03*
%TD*%
%TO.C,C106*%
X196050000Y-95300000D03*
X195150000Y-95300000D03*
%TD*%
%TO.C,C70*%
X112750000Y-111800000D03*
X112750000Y-110900000D03*
%TD*%
D38*
%TO.C,R108*%
X159400000Y-126570000D03*
X159400000Y-125630000D03*
%TD*%
D31*
%TO.C,R13*%
X153270000Y-110000000D03*
X152330000Y-110000000D03*
%TD*%
%TO.C,R10*%
X153270000Y-109000000D03*
X152330000Y-109000000D03*
%TD*%
D19*
%TO.C,J11*%
X145400000Y-64265000D03*
X145400000Y-73865000D03*
D49*
X141300000Y-72465000D03*
X141300000Y-71665000D03*
X141300000Y-70865000D03*
X141300000Y-70065000D03*
X141300000Y-69265000D03*
X141300000Y-68465000D03*
X141300000Y-67665000D03*
X141300000Y-66865000D03*
X141300000Y-66065000D03*
X141300000Y-65265000D03*
X149500000Y-65665000D03*
X149500000Y-66465000D03*
X149500000Y-67265000D03*
X149500000Y-68065000D03*
X149500000Y-68865000D03*
X149500000Y-69665000D03*
X149500000Y-70465000D03*
X149500000Y-71265000D03*
X149500000Y-72065000D03*
X149500000Y-72865000D03*
%TD*%
D34*
%TO.C,C246*%
X191400000Y-124550000D03*
X191400000Y-123850000D03*
%TD*%
D30*
%TO.C,C71*%
X121500000Y-116750000D03*
X121500000Y-115850000D03*
%TD*%
D32*
%TO.C,C129*%
X192950000Y-93200000D03*
X192250000Y-93200000D03*
%TD*%
D34*
%TO.C,C99*%
X188100000Y-91550000D03*
X188100000Y-92250000D03*
%TD*%
D38*
%TO.C,R114*%
X175900000Y-100630000D03*
X175900000Y-101570000D03*
%TD*%
D50*
%TO.C,Y1*%
X165900000Y-114100000D03*
X165900000Y-116200000D03*
X164000000Y-116200000D03*
X164000000Y-114100000D03*
%TD*%
D51*
%TO.C,C151*%
X188000000Y-105660000D03*
X188000000Y-104740000D03*
%TD*%
D32*
%TO.C,C229*%
X198050000Y-112200000D03*
X197350000Y-112200000D03*
%TD*%
D52*
%TO.C,C158*%
X179452513Y-98852513D03*
X179947487Y-99347487D03*
%TD*%
D30*
%TO.C,C133*%
X197450000Y-90300000D03*
X196550000Y-90300000D03*
%TD*%
D32*
%TO.C,C125*%
X178650000Y-89000000D03*
X179350000Y-89000000D03*
%TD*%
D38*
%TO.C,R50*%
X193500000Y-126630000D03*
X193500000Y-127570000D03*
%TD*%
%TO.C,R172*%
X166400000Y-61530000D03*
X166400000Y-62470000D03*
%TD*%
D34*
%TO.C,C135*%
X184900000Y-89150000D03*
X184900000Y-89850000D03*
%TD*%
D32*
%TO.C,C113*%
X189600000Y-91300000D03*
X190300000Y-91300000D03*
%TD*%
D38*
%TO.C,R92*%
X130800000Y-129370000D03*
X130800000Y-128430000D03*
%TD*%
D32*
%TO.C,C97*%
X189100000Y-92200000D03*
X189800000Y-92200000D03*
%TD*%
D30*
%TO.C,C162*%
X177150000Y-99800000D03*
X178050000Y-99800000D03*
%TD*%
%TO.C,C67*%
X192900000Y-129750000D03*
X192900000Y-130650000D03*
%TD*%
D38*
%TO.C,R164*%
X176200000Y-61730000D03*
X176200000Y-62670000D03*
%TD*%
D32*
%TO.C,C243*%
X197050000Y-118100000D03*
X196350000Y-118100000D03*
%TD*%
D31*
%TO.C,R179*%
X146430000Y-130850000D03*
X147370000Y-130850000D03*
%TD*%
D34*
%TO.C,C98*%
X184100000Y-93150000D03*
X184100000Y-93850000D03*
%TD*%
%TO.C,C231*%
X191600000Y-113150000D03*
X191600000Y-112450000D03*
%TD*%
D32*
%TO.C,C102*%
X182550000Y-95500000D03*
X183250000Y-95500000D03*
%TD*%
D51*
%TO.C,C152*%
X189400000Y-108860000D03*
X189400000Y-107940000D03*
%TD*%
D31*
%TO.C,R100*%
X181780000Y-132000000D03*
X182720000Y-132000000D03*
%TD*%
D32*
%TO.C,C237*%
X197450000Y-114800000D03*
X198150000Y-114800000D03*
%TD*%
D30*
%TO.C,C61*%
X195800000Y-115450000D03*
X195800000Y-116350000D03*
%TD*%
D32*
%TO.C,C93*%
X182550000Y-97100000D03*
X183250000Y-97100000D03*
%TD*%
D34*
%TO.C,C163*%
X182700000Y-101350000D03*
X182700000Y-102050000D03*
%TD*%
D38*
%TO.C,R142*%
X182250000Y-115695000D03*
X182250000Y-116635000D03*
%TD*%
D30*
%TO.C,C41*%
X139400000Y-93750000D03*
X139400000Y-92850000D03*
%TD*%
D34*
%TO.C,C241*%
X199200000Y-122950000D03*
X199200000Y-123650000D03*
%TD*%
%TO.C,C101*%
X184900000Y-97850000D03*
X184900000Y-97150000D03*
%TD*%
D30*
%TO.C,C156*%
X173150000Y-94500000D03*
X174050000Y-94500000D03*
%TD*%
D34*
%TO.C,C157*%
X180900000Y-97950000D03*
X180900000Y-98650000D03*
%TD*%
%TO.C,C160*%
X183300000Y-97950000D03*
X183300000Y-98650000D03*
%TD*%
%TO.C,C140*%
X191300000Y-91350000D03*
X191300000Y-90650000D03*
%TD*%
D32*
%TO.C,C155*%
X184950000Y-93900000D03*
X185650000Y-93900000D03*
%TD*%
D38*
%TO.C,R166*%
X178200000Y-61730000D03*
X178200000Y-62670000D03*
%TD*%
D30*
%TO.C,C132*%
X196650000Y-87600000D03*
X195750000Y-87600000D03*
%TD*%
D38*
%TO.C,R86*%
X182200000Y-84520000D03*
X182200000Y-83580000D03*
%TD*%
%TO.C,R74*%
X121400000Y-114470000D03*
X121400000Y-113530000D03*
%TD*%
D31*
%TO.C,R17*%
X153270000Y-106000000D03*
X152330000Y-106000000D03*
%TD*%
D53*
%TO.C,R94*%
X151750000Y-128950000D03*
X149750000Y-128950000D03*
%TD*%
D30*
%TO.C,C178*%
X146400000Y-128487500D03*
X146400000Y-129387500D03*
%TD*%
%TO.C,C141*%
X194750000Y-101850000D03*
X194750000Y-102750000D03*
%TD*%
D38*
%TO.C,R2*%
X183250000Y-116635000D03*
X183250000Y-115695000D03*
%TD*%
%TO.C,R62*%
X192500000Y-126630000D03*
X192500000Y-127570000D03*
%TD*%
D35*
%TO.C,C35*%
X149500000Y-57200000D03*
X149500000Y-59000000D03*
%TD*%
D34*
%TO.C,C112*%
X187300000Y-92250000D03*
X187300000Y-91550000D03*
%TD*%
D38*
%TO.C,R181*%
X131600000Y-132070000D03*
X131600000Y-131130000D03*
%TD*%
%TO.C,R111*%
X157400000Y-126570000D03*
X157400000Y-125630000D03*
%TD*%
D19*
%TO.C,J13*%
X145400000Y-78520000D03*
X145400000Y-88120000D03*
D49*
X141300000Y-86720000D03*
X141300000Y-85920000D03*
X141300000Y-85120000D03*
X141300000Y-84320000D03*
X141300000Y-83520000D03*
X141300000Y-82720000D03*
X141300000Y-81920000D03*
X141300000Y-81120000D03*
X141300000Y-80320000D03*
X141300000Y-79520000D03*
X149500000Y-79920000D03*
D54*
X149500000Y-80720000D03*
X149500000Y-81520000D03*
D49*
X149500000Y-82320000D03*
X149500000Y-83120000D03*
X149500000Y-83920000D03*
X149500000Y-84720000D03*
D54*
X149500000Y-85520000D03*
X149500000Y-86320000D03*
D49*
X149500000Y-87120000D03*
%TD*%
D31*
%TO.C,R98*%
X180780000Y-133250000D03*
X181720000Y-133250000D03*
%TD*%
D38*
%TO.C,R109*%
X160400000Y-126570000D03*
X160400000Y-125630000D03*
%TD*%
D34*
%TO.C,C116*%
X184900000Y-92250000D03*
X184900000Y-91550000D03*
%TD*%
D38*
%TO.C,R67*%
X195475000Y-126630000D03*
X195475000Y-127570000D03*
%TD*%
%TO.C,R93*%
X147400000Y-129407500D03*
X147400000Y-128467500D03*
%TD*%
D31*
%TO.C,R75*%
X119230000Y-116000000D03*
X120170000Y-116000000D03*
%TD*%
D33*
%TO.C,C109*%
X173600000Y-96000000D03*
X175400000Y-96000000D03*
%TD*%
D52*
%TO.C,C114*%
X181852513Y-92452513D03*
X182347487Y-92947487D03*
%TD*%
D35*
%TO.C,C37*%
X140900000Y-95000000D03*
X140900000Y-93200000D03*
%TD*%
D32*
%TO.C,C150*%
X183250000Y-93900000D03*
X182550000Y-93900000D03*
%TD*%
D38*
%TO.C,R68*%
X191500000Y-126630000D03*
X191500000Y-127570000D03*
%TD*%
D30*
%TO.C,C117*%
X170550000Y-98500000D03*
X171450000Y-98500000D03*
%TD*%
%TO.C,C69*%
X197900000Y-129750000D03*
X197900000Y-130650000D03*
%TD*%
D38*
%TO.C,R96*%
X149500000Y-119932500D03*
X149500000Y-118992500D03*
%TD*%
D31*
%TO.C,R51*%
X188270000Y-122300000D03*
X187330000Y-122300000D03*
%TD*%
D44*
%TO.C,L7*%
X144300000Y-56825000D03*
X144300000Y-58975000D03*
%TD*%
D38*
%TO.C,R143*%
X147500000Y-118980000D03*
X147500000Y-119920000D03*
%TD*%
D37*
%TO.C,C62*%
X185760000Y-120700000D03*
X184840000Y-120700000D03*
%TD*%
D38*
%TO.C,R153*%
X196500000Y-126630000D03*
X196500000Y-127570000D03*
%TD*%
D30*
%TO.C,C39*%
X151000000Y-58350000D03*
X151000000Y-59250000D03*
%TD*%
D34*
%TO.C,C127*%
X190500000Y-87550000D03*
X190500000Y-88250000D03*
%TD*%
%TO.C,C234*%
X191600000Y-117100000D03*
X191600000Y-116400000D03*
%TD*%
D31*
%TO.C,R101*%
X181780000Y-131000000D03*
X182720000Y-131000000D03*
%TD*%
D37*
%TO.C,C11*%
X140040000Y-108800000D03*
X140960000Y-108800000D03*
%TD*%
M02*
