%TF.GenerationSoftware,KiCad,Pcbnew,9.0.1*%
%TF.CreationDate,2025-05-01T20:46:39+02:00*%
%TF.ProjectId,Marble_Tiny,4d617262-6c65-45f5-9469-6e792e6b6963,rev?*%
%TF.SameCoordinates,Original*%
%TF.FileFunction,Component,L8,Bot*%
%TF.FilePolarity,Positive*%
%FSLAX46Y46*%
G04 Gerber Fmt 4.6, Leading zero omitted, Abs format (unit mm)*
G04 Created by KiCad (PCBNEW 9.0.1) date 2025-05-01 20:46:39*
%MOMM*%
%LPD*%
G01*
G04 APERTURE LIST*
%TA.AperFunction,ComponentMain*%
%ADD10C,0.300000*%
%TD*%
%TA.AperFunction,ComponentOutline,Courtyard*%
%ADD11C,0.100000*%
%TD*%
%TA.AperFunction,ComponentPin*%
%ADD12P,0.360000X4X0.000000*%
%TD*%
%TA.AperFunction,ComponentPin*%
%ADD13C,0.100000*%
%TD*%
%TA.AperFunction,ComponentOutline,Footprint*%
%ADD14C,0.100000*%
%TD*%
G04 APERTURE END LIST*
D10*
%TO.C,C103*%
%TO.CFtp,CAPC1005X55N*%
%TO.CVal,CC0402_4.7UF_16V_20\u0025_X5R*%
%TO.CLbN,Capacitors SMD*%
%TO.CMnt,SMD*%
%TO.CRot,180*%
X174800000Y-99600000D03*
D11*
X175705000Y-99145000D02*
X175705000Y-100055000D01*
X173895000Y-100055000D01*
X173895000Y-99145000D01*
X175705000Y-99145000D01*
D12*
%TO.P,C103,1,1*%
X174350000Y-99600000D03*
D13*
%TO.P,C103,2,2*%
X175250000Y-99600000D03*
%TD*%
D10*
%TO.C,C32*%
%TO.CFtp,CAPC1005X55N*%
%TO.CVal,CC0402_100NF_50V_10\u0025_X7R*%
%TO.CLbN,Capacitors SMD*%
%TO.CMnt,SMD*%
%TO.CRot,180*%
X142600000Y-55400000D03*
D11*
X143505000Y-54945000D02*
X143505000Y-55855000D01*
X141695000Y-55855000D01*
X141695000Y-54945000D01*
X143505000Y-54945000D01*
D12*
%TO.P,C32,1,1*%
X142150000Y-55400000D03*
D13*
%TO.P,C32,2,2*%
X143050000Y-55400000D03*
%TD*%
D10*
%TO.C,C95*%
%TO.CFtp,CAPC0603X33N*%
%TO.CVal,CC0201_470NF_4V_20\u0025_X5R*%
%TO.CLbN,Capacitors SMD*%
%TO.CMnt,SMD*%
%TO.CRot,180*%
X190100000Y-93100000D03*
D11*
X190745000Y-92855000D02*
X190745000Y-93345000D01*
X189455000Y-93345000D01*
X189455000Y-92855000D01*
X190745000Y-92855000D01*
D12*
%TO.P,C95,1,1*%
X189750000Y-93100000D03*
D13*
%TO.P,C95,2,2*%
X190450000Y-93100000D03*
%TD*%
D10*
%TO.C,C122*%
%TO.CFtp,CAPC2012X145N*%
%TO.CVal,CC0805_100UF_6.3V_20\u0025_X5R*%
%TO.CLbN,Capacitors SMD*%
%TO.CMnt,SMD*%
%TO.CRot,180*%
X174500000Y-98100000D03*
D11*
X176245000Y-97105000D02*
X176245000Y-99095000D01*
X172755000Y-99095000D01*
X172755000Y-97105000D01*
X176245000Y-97105000D01*
D12*
%TO.P,C122,1,1*%
X173600000Y-98100000D03*
D13*
%TO.P,C122,2,2*%
X175400000Y-98100000D03*
%TD*%
D10*
%TO.C,C240*%
%TO.CFtp,CAPC0603X33N*%
%TO.CVal,CC0201_47NF_6.3V_10\u0025_X5R*%
%TO.CLbN,Capacitors SMD*%
%TO.CMnt,SMD*%
%TO.CRot,90*%
X192300000Y-119300000D03*
D11*
X192545000Y-118655000D02*
X192545000Y-119945000D01*
X192055000Y-119945000D01*
X192055000Y-118655000D01*
X192545000Y-118655000D01*
D12*
%TO.P,C240,1,1*%
X192300000Y-118950000D03*
D13*
%TO.P,C240,2,2*%
X192300000Y-119650000D03*
%TD*%
D10*
%TO.C,C108*%
%TO.CFtp,CAPC1005X55N*%
%TO.CVal,CC0402_4.7UF_16V_20\u0025_X5R*%
%TO.CLbN,Capacitors SMD*%
%TO.CMnt,SMD*%
%TO.CRot,90*%
X186500000Y-91800000D03*
D11*
X186955000Y-90895000D02*
X186955000Y-92705000D01*
X186045000Y-92705000D01*
X186045000Y-90895000D01*
X186955000Y-90895000D01*
D12*
%TO.P,C108,1,1*%
X186500000Y-91350000D03*
D13*
%TO.P,C108,2,2*%
X186500000Y-92250000D03*
%TD*%
D10*
%TO.C,C126*%
%TO.CFtp,CAPC0603X33N*%
%TO.CVal,CC0201_470NF_4V_20\u0025_X5R*%
%TO.CLbN,Capacitors SMD*%
%TO.CMnt,SMD*%
%TO.CRot,180*%
X179300000Y-89947117D03*
D11*
X179945000Y-89702117D02*
X179945000Y-90192117D01*
X178655000Y-90192117D01*
X178655000Y-89702117D01*
X179945000Y-89702117D01*
D12*
%TO.P,C126,1,1*%
X178950000Y-89947117D03*
D13*
%TO.P,C126,2,2*%
X179650000Y-89947117D03*
%TD*%
D10*
%TO.C,C38*%
%TO.CFtp,CAPC2012X135N*%
%TO.CVal,CC0805_22UF_16V_10\u0025_X5R*%
%TO.CLbN,Capacitors SMD*%
%TO.CMnt,SMD*%
%TO.CRot,-90*%
X148600000Y-94200000D03*
D11*
X149545000Y-92505000D02*
X149545000Y-95895000D01*
X147655000Y-95895000D01*
X147655000Y-92505000D01*
X149545000Y-92505000D01*
D12*
%TO.P,C38,1,1*%
X148600000Y-95100000D03*
D13*
%TO.P,C38,2,2*%
X148600000Y-93300000D03*
%TD*%
D10*
%TO.C,C245*%
%TO.CFtp,CAPC0603X33N*%
%TO.CVal,CC0201_470NF_4V_20\u0025_X5R*%
%TO.CLbN,Capacitors SMD*%
%TO.CMnt,SMD*%
%TO.CRot,-90*%
X191400000Y-122500000D03*
D11*
X191645000Y-121855000D02*
X191645000Y-123145000D01*
X191155000Y-123145000D01*
X191155000Y-121855000D01*
X191645000Y-121855000D01*
D12*
%TO.P,C245,1,1*%
X191400000Y-122850000D03*
D13*
%TO.P,C245,2,2*%
X191400000Y-122150000D03*
%TD*%
D10*
%TO.C,C63*%
%TO.CFtp,CAPC1005X55N*%
%TO.CVal,CC0402_100NF_50V_10\u0025_X7R*%
%TO.CLbN,Capacitors SMD*%
%TO.CMnt,SMD*%
%TO.CRot,0*%
X185300000Y-122300000D03*
D11*
X186205000Y-121845000D02*
X186205000Y-122755000D01*
X184395000Y-122755000D01*
X184395000Y-121845000D01*
X186205000Y-121845000D01*
D12*
%TO.P,C63,1,1*%
X185750000Y-122300000D03*
D13*
%TO.P,C63,2,2*%
X184850000Y-122300000D03*
%TD*%
D10*
%TO.C,C34*%
%TO.CFtp,CAPC1005X55N*%
%TO.CVal,CC0402_100NF_50V_10\u0025_X7R*%
%TO.CLbN,Capacitors SMD*%
%TO.CMnt,SMD*%
%TO.CRot,0*%
X147700000Y-96800000D03*
D11*
X148605000Y-96345000D02*
X148605000Y-97255000D01*
X146795000Y-97255000D01*
X146795000Y-96345000D01*
X148605000Y-96345000D01*
D12*
%TO.P,C34,1,1*%
X148150000Y-96800000D03*
D13*
%TO.P,C34,2,2*%
X147250000Y-96800000D03*
%TD*%
D10*
%TO.C,C66*%
%TO.CFtp,CAPC1005X55N*%
%TO.CVal,CC0402_100NF_50V_10\u0025_X7R*%
%TO.CLbN,Capacitors SMD*%
%TO.CMnt,SMD*%
%TO.CRot,90*%
X194900000Y-130200000D03*
D11*
X195355000Y-129295000D02*
X195355000Y-131105000D01*
X194445000Y-131105000D01*
X194445000Y-129295000D01*
X195355000Y-129295000D01*
D12*
%TO.P,C66,1,1*%
X194900000Y-129750000D03*
D13*
%TO.P,C66,2,2*%
X194900000Y-130650000D03*
%TD*%
D10*
%TO.C,C168*%
%TO.CFtp,CAPC1005X55N*%
%TO.CVal,CC0402_4.7UF_16V_20\u0025_X5R*%
%TO.CLbN,Capacitors SMD*%
%TO.CMnt,SMD*%
%TO.CRot,180*%
X177600000Y-100800000D03*
D11*
X178505000Y-100345000D02*
X178505000Y-101255000D01*
X176695000Y-101255000D01*
X176695000Y-100345000D01*
X178505000Y-100345000D01*
D12*
%TO.P,C168,1,1*%
X177150000Y-100800000D03*
D13*
%TO.P,C168,2,2*%
X178050000Y-100800000D03*
%TD*%
D10*
%TO.C,C94*%
%TO.CFtp,CAPC0603X33N*%
%TO.CVal,CC0201_470NF_4V_20\u0025_X5R*%
%TO.CLbN,Capacitors SMD*%
%TO.CMnt,SMD*%
%TO.CRot,180*%
X184500000Y-95500000D03*
D11*
X185145000Y-95255000D02*
X185145000Y-95745000D01*
X183855000Y-95745000D01*
X183855000Y-95255000D01*
X185145000Y-95255000D01*
D12*
%TO.P,C94,1,1*%
X184150000Y-95500000D03*
D13*
%TO.P,C94,2,2*%
X184850000Y-95500000D03*
%TD*%
D10*
%TO.C,C244*%
%TO.CFtp,CAPC0603X33N*%
%TO.CVal,CC0201_47NF_6.3V_10\u0025_X5R*%
%TO.CLbN,Capacitors SMD*%
%TO.CMnt,SMD*%
%TO.CRot,90*%
X198300000Y-121700000D03*
D11*
X198545000Y-121055000D02*
X198545000Y-122345000D01*
X198055000Y-122345000D01*
X198055000Y-121055000D01*
X198545000Y-121055000D01*
D12*
%TO.P,C244,1,1*%
X198300000Y-121350000D03*
D13*
%TO.P,C244,2,2*%
X198300000Y-122050000D03*
%TD*%
D10*
%TO.C,L16*%
%TO.CFtp,INDC1005X55N*%
%TO.CVal,IND0402_MURATA_BLM15HB221SN1*%
%TO.CLbN,Inductors SMD*%
%TO.CMnt,SMD*%
%TO.CRot,180*%
X185100000Y-94700000D03*
D11*
X186005000Y-94245000D02*
X186005000Y-95155000D01*
X184195000Y-95155000D01*
X184195000Y-94245000D01*
X186005000Y-94245000D01*
D12*
%TO.P,L16,1,1*%
X184640000Y-94700000D03*
D13*
%TO.P,L16,2,2*%
X185560000Y-94700000D03*
%TD*%
D10*
%TO.C,C5*%
%TO.CFtp,CAPC1005X70N*%
%TO.CVal,CC0402_10UF_6.3V_20\u0025_X5R*%
%TO.CLbN,Capacitors SMD*%
%TO.CMnt,SMD*%
%TO.CRot,0*%
X150000000Y-106600000D03*
D11*
X150965000Y-106095000D02*
X150965000Y-107105000D01*
X149035000Y-107105000D01*
X149035000Y-106095000D01*
X150965000Y-106095000D01*
D12*
%TO.P,C5,1,1*%
X150460000Y-106600000D03*
D13*
%TO.P,C5,2,2*%
X149540000Y-106600000D03*
%TD*%
D10*
%TO.C,R55*%
%TO.CFtp,RESC1005X40N*%
%TO.CVal,R0402_40R2_1\u0025_0.0625W_100PPM*%
%TO.CLbN,Resistors SMD*%
%TO.CMnt,SMD*%
%TO.CRot,0*%
X187800000Y-119300000D03*
D11*
X188705000Y-118845000D02*
X188705000Y-119755000D01*
X186895000Y-119755000D01*
X186895000Y-118845000D01*
X188705000Y-118845000D01*
D12*
%TO.P,R55,1,1*%
X188270000Y-119300000D03*
D13*
%TO.P,R55,2,2*%
X187330000Y-119300000D03*
%TD*%
D10*
%TO.C,C165*%
%TO.CFtp,CAPC0603X33N*%
%TO.CVal,CC0201_100NF_6.3V_10\u0025_X5R*%
%TO.CLbN,Capacitors SMD*%
%TO.CMnt,SMD*%
%TO.CRot,90*%
X183100000Y-99900000D03*
D11*
X183345000Y-99255000D02*
X183345000Y-100545000D01*
X182855000Y-100545000D01*
X182855000Y-99255000D01*
X183345000Y-99255000D01*
D12*
%TO.P,C165,1,1*%
X183100000Y-99550000D03*
D13*
%TO.P,C165,2,2*%
X183100000Y-100250000D03*
%TD*%
D10*
%TO.C,C121*%
%TO.CFtp,CAPC0603X33N*%
%TO.CVal,CC0201_47NF_6.3V_10\u0025_X5R*%
%TO.CLbN,Capacitors SMD*%
%TO.CMnt,SMD*%
%TO.CRot,0*%
X195700000Y-94300000D03*
D11*
X196345000Y-94055000D02*
X196345000Y-94545000D01*
X195055000Y-94545000D01*
X195055000Y-94055000D01*
X196345000Y-94055000D01*
D12*
%TO.P,C121,1,1*%
X196050000Y-94300000D03*
D13*
%TO.P,C121,2,2*%
X195350000Y-94300000D03*
%TD*%
D10*
%TO.C,R146*%
%TO.CFtp,RESC1005X40N*%
%TO.CVal,R0402_4K7_1\u0025_0.0625W_100PPM*%
%TO.CLbN,Resistors SMD*%
%TO.CMnt,SMD*%
%TO.CRot,90*%
X132600000Y-131600000D03*
D11*
X133055000Y-130695000D02*
X133055000Y-132505000D01*
X132145000Y-132505000D01*
X132145000Y-130695000D01*
X133055000Y-130695000D01*
D12*
%TO.P,R146,1,1*%
X132600000Y-131130000D03*
D13*
%TO.P,R146,2,2*%
X132600000Y-132070000D03*
%TD*%
D10*
%TO.C,C139*%
%TO.CFtp,CAPC0603X33N*%
%TO.CVal,CC0201_47NF_6.3V_10\u0025_X5R*%
%TO.CLbN,Capacitors SMD*%
%TO.CMnt,SMD*%
%TO.CRot,0*%
X193400000Y-87500000D03*
D11*
X194045000Y-87255000D02*
X194045000Y-87745000D01*
X192755000Y-87745000D01*
X192755000Y-87255000D01*
X194045000Y-87255000D01*
D12*
%TO.P,C139,1,1*%
X193750000Y-87500000D03*
D13*
%TO.P,C139,2,2*%
X193050000Y-87500000D03*
%TD*%
D10*
%TO.C,C249*%
%TO.CFtp,CAPC0603X33N*%
%TO.CVal,CC0201_100NF_6.3V_10\u0025_X5R*%
%TO.CLbN,Capacitors SMD*%
%TO.CMnt,SMD*%
%TO.CRot,90*%
X195600000Y-120900000D03*
D11*
X195845000Y-120255000D02*
X195845000Y-121545000D01*
X195355000Y-121545000D01*
X195355000Y-120255000D01*
X195845000Y-120255000D01*
D12*
%TO.P,C249,1,1*%
X195600000Y-120550000D03*
D13*
%TO.P,C249,2,2*%
X195600000Y-121250000D03*
%TD*%
D10*
%TO.C,C230*%
%TO.CFtp,CAPC0603X33N*%
%TO.CVal,CC0201_47NF_6.3V_10\u0025_X5R*%
%TO.CLbN,Capacitors SMD*%
%TO.CMnt,SMD*%
%TO.CRot,0*%
X193000000Y-113100000D03*
D11*
X193645000Y-112855000D02*
X193645000Y-113345000D01*
X192355000Y-113345000D01*
X192355000Y-112855000D01*
X193645000Y-112855000D01*
D12*
%TO.P,C230,1,1*%
X193350000Y-113100000D03*
D13*
%TO.P,C230,2,2*%
X192650000Y-113100000D03*
%TD*%
D10*
%TO.C,R90*%
%TO.CFtp,RESC1005X40N*%
%TO.CVal,R0402_1K_1\u0025_0.0625W_100PPM*%
%TO.CLbN,Resistors SMD*%
%TO.CMnt,SMD*%
%TO.CRot,90*%
X183400000Y-84000000D03*
D11*
X183855000Y-83095000D02*
X183855000Y-84905000D01*
X182945000Y-84905000D01*
X182945000Y-83095000D01*
X183855000Y-83095000D01*
D12*
%TO.P,R90,1,1*%
X183400000Y-83530000D03*
D13*
%TO.P,R90,2,2*%
X183400000Y-84470000D03*
%TD*%
D10*
%TO.C,R144*%
%TO.CFtp,RESC1005X40N*%
%TO.CVal,R0402_4K7_1\u0025_0.0625W_100PPM*%
%TO.CLbN,Resistors SMD*%
%TO.CMnt,SMD*%
%TO.CRot,90*%
X147500000Y-119462500D03*
D11*
X147955000Y-118557500D02*
X147955000Y-120367500D01*
X147045000Y-120367500D01*
X147045000Y-118557500D01*
X147955000Y-118557500D01*
D12*
%TO.P,R144,1,1*%
X147500000Y-118992500D03*
D13*
%TO.P,R144,2,2*%
X147500000Y-119932500D03*
%TD*%
D10*
%TO.C,R58*%
%TO.CFtp,RESC1005X40N*%
%TO.CVal,R0402_40R2_1\u0025_0.0625W_100PPM*%
%TO.CLbN,Resistors SMD*%
%TO.CMnt,SMD*%
%TO.CRot,90*%
X194500000Y-127100000D03*
D11*
X194955000Y-126195000D02*
X194955000Y-128005000D01*
X194045000Y-128005000D01*
X194045000Y-126195000D01*
X194955000Y-126195000D01*
D12*
%TO.P,R58,1,1*%
X194500000Y-126630000D03*
D13*
%TO.P,R58,2,2*%
X194500000Y-127570000D03*
%TD*%
D10*
%TO.C,C92*%
%TO.CFtp,CAPC0603X33N*%
%TO.CVal,CC0201_470NF_4V_20\u0025_X5R*%
%TO.CLbN,Capacitors SMD*%
%TO.CMnt,SMD*%
%TO.CRot,180*%
X188500000Y-93100000D03*
D11*
X189145000Y-92855000D02*
X189145000Y-93345000D01*
X187855000Y-93345000D01*
X187855000Y-92855000D01*
X189145000Y-92855000D01*
D12*
%TO.P,C92,1,1*%
X188150000Y-93100000D03*
D13*
%TO.P,C92,2,2*%
X188850000Y-93100000D03*
%TD*%
D10*
%TO.C,C68*%
%TO.CFtp,CAPC1005X55N*%
%TO.CVal,CC0402_100NF_50V_10\u0025_X7R*%
%TO.CLbN,Capacitors SMD*%
%TO.CMnt,SMD*%
%TO.CRot,90*%
X189900000Y-130200000D03*
D11*
X190355000Y-129295000D02*
X190355000Y-131105000D01*
X189445000Y-131105000D01*
X189445000Y-129295000D01*
X190355000Y-129295000D01*
D12*
%TO.P,C68,1,1*%
X189900000Y-129750000D03*
D13*
%TO.P,C68,2,2*%
X189900000Y-130650000D03*
%TD*%
D10*
%TO.C,C153*%
%TO.CFtp,CAPC0603X33N*%
%TO.CVal,CC0201_470NF_4V_20\u0025_X5R*%
%TO.CLbN,Capacitors SMD*%
%TO.CMnt,SMD*%
%TO.CRot,-90*%
X190400000Y-108300000D03*
D11*
X190645000Y-107655000D02*
X190645000Y-108945000D01*
X190155000Y-108945000D01*
X190155000Y-107655000D01*
X190645000Y-107655000D01*
D12*
%TO.P,C153,1,1*%
X190400000Y-108650000D03*
D13*
%TO.P,C153,2,2*%
X190400000Y-107950000D03*
%TD*%
D10*
%TO.C,R11*%
%TO.CFtp,RESC1005X40N*%
%TO.CVal,R0402_4K7_1\u0025_0.0625W_100PPM*%
%TO.CLbN,Resistors SMD*%
%TO.CMnt,SMD*%
%TO.CRot,0*%
X152800000Y-108000000D03*
D11*
X153705000Y-107545000D02*
X153705000Y-108455000D01*
X151895000Y-108455000D01*
X151895000Y-107545000D01*
X153705000Y-107545000D01*
D12*
%TO.P,R11,1,1*%
X153270000Y-108000000D03*
D13*
%TO.P,R11,2,2*%
X152330000Y-108000000D03*
%TD*%
D10*
%TO.C,C123*%
%TO.CFtp,CAPC1005X55N*%
%TO.CVal,CC0402_4.7UF_16V_20\u0025_X5R*%
%TO.CLbN,Capacitors SMD*%
%TO.CMnt,SMD*%
%TO.CRot,90*%
X185700000Y-84800000D03*
D11*
X186155000Y-83895000D02*
X186155000Y-85705000D01*
X185245000Y-85705000D01*
X185245000Y-83895000D01*
X186155000Y-83895000D01*
D12*
%TO.P,C123,1,1*%
X185700000Y-84350000D03*
D13*
%TO.P,C123,2,2*%
X185700000Y-85250000D03*
%TD*%
D10*
%TO.C,C14*%
%TO.CFtp,CAPC1005X55N*%
%TO.CVal,CC0402_100NF_50V_10\u0025_X7R*%
%TO.CLbN,Capacitors SMD*%
%TO.CMnt,SMD*%
%TO.CRot,180*%
X140500000Y-105400000D03*
D11*
X141405000Y-104945000D02*
X141405000Y-105855000D01*
X139595000Y-105855000D01*
X139595000Y-104945000D01*
X141405000Y-104945000D01*
D12*
%TO.P,C14,1,1*%
X140050000Y-105400000D03*
D13*
%TO.P,C14,2,2*%
X140950000Y-105400000D03*
%TD*%
D10*
%TO.C,R171*%
%TO.CFtp,RESC1005X40N*%
%TO.CVal,R0402_100K_1\u0025_0.0625W_100PPM*%
%TO.CLbN,Resistors SMD*%
%TO.CMnt,SMD*%
%TO.CRot,90*%
X165400000Y-62000000D03*
D11*
X165855000Y-61095000D02*
X165855000Y-62905000D01*
X164945000Y-62905000D01*
X164945000Y-61095000D01*
X165855000Y-61095000D01*
D12*
%TO.P,R171,1,1*%
X165400000Y-61530000D03*
D13*
%TO.P,R171,2,2*%
X165400000Y-62470000D03*
%TD*%
D10*
%TO.C,C100*%
%TO.CFtp,CAPC0603X33N*%
%TO.CVal,CC0201_47NF_6.3V_10\u0025_X5R*%
%TO.CLbN,Capacitors SMD*%
%TO.CMnt,SMD*%
%TO.CRot,180*%
X185300000Y-96300000D03*
D11*
X185945000Y-96055000D02*
X185945000Y-96545000D01*
X184655000Y-96545000D01*
X184655000Y-96055000D01*
X185945000Y-96055000D01*
D12*
%TO.P,C100,1,1*%
X184950000Y-96300000D03*
D13*
%TO.P,C100,2,2*%
X185650000Y-96300000D03*
%TD*%
D10*
%TO.C,C120*%
%TO.CFtp,CAPC0603X33N*%
%TO.CVal,CC0201_470NF_4V_20\u0025_X5R*%
%TO.CLbN,Capacitors SMD*%
%TO.CMnt,SMD*%
%TO.CRot,180*%
X182900000Y-94700000D03*
D11*
X183545000Y-94455000D02*
X183545000Y-94945000D01*
X182255000Y-94945000D01*
X182255000Y-94455000D01*
X183545000Y-94455000D01*
D12*
%TO.P,C120,1,1*%
X182550000Y-94700000D03*
D13*
%TO.P,C120,2,2*%
X183250000Y-94700000D03*
%TD*%
D10*
%TO.C,R54*%
%TO.CFtp,RESC1005X40N*%
%TO.CVal,R0402_40R2_1\u0025_0.0625W_100PPM*%
%TO.CLbN,Resistors SMD*%
%TO.CMnt,SMD*%
%TO.CRot,90*%
X197500000Y-127100000D03*
D11*
X197955000Y-126195000D02*
X197955000Y-128005000D01*
X197045000Y-128005000D01*
X197045000Y-126195000D01*
X197955000Y-126195000D01*
D12*
%TO.P,R54,1,1*%
X197500000Y-126630000D03*
D13*
%TO.P,R54,2,2*%
X197500000Y-127570000D03*
%TD*%
D10*
%TO.C,C119*%
%TO.CFtp,CAPC2012X145N*%
%TO.CVal,CC0805_100UF_6.3V_20\u0025_X5R*%
%TO.CLbN,Capacitors SMD*%
%TO.CMnt,SMD*%
%TO.CRot,180*%
X170250000Y-96000000D03*
D11*
X171995000Y-95005000D02*
X171995000Y-96995000D01*
X168505000Y-96995000D01*
X168505000Y-95005000D01*
X171995000Y-95005000D01*
D12*
%TO.P,C119,1,1*%
X169350000Y-96000000D03*
D13*
%TO.P,C119,2,2*%
X171150000Y-96000000D03*
%TD*%
D10*
%TO.C,C128*%
%TO.CFtp,CAPC0603X33N*%
%TO.CVal,CC0201_47NF_6.3V_10\u0025_X5R*%
%TO.CLbN,Capacitors SMD*%
%TO.CMnt,SMD*%
%TO.CRot,90*%
X188100000Y-88600000D03*
D11*
X188345000Y-87955000D02*
X188345000Y-89245000D01*
X187855000Y-89245000D01*
X187855000Y-87955000D01*
X188345000Y-87955000D01*
D12*
%TO.P,C128,1,1*%
X188100000Y-88250000D03*
D13*
%TO.P,C128,2,2*%
X188100000Y-88950000D03*
%TD*%
D10*
%TO.C,C131*%
%TO.CFtp,CAPC1005X55N*%
%TO.CVal,CC0402_4.7UF_16V_20\u0025_X5R*%
%TO.CLbN,Capacitors SMD*%
%TO.CMnt,SMD*%
%TO.CRot,180*%
X179100000Y-85900000D03*
D11*
X180005000Y-85445000D02*
X180005000Y-86355000D01*
X178195000Y-86355000D01*
X178195000Y-85445000D01*
X180005000Y-85445000D01*
D12*
%TO.P,C131,1,1*%
X178650000Y-85900000D03*
D13*
%TO.P,C131,2,2*%
X179550000Y-85900000D03*
%TD*%
D10*
%TO.C,C236*%
%TO.CFtp,CAPC0603X33N*%
%TO.CVal,CC0201_47NF_6.3V_10\u0025_X5R*%
%TO.CLbN,Capacitors SMD*%
%TO.CMnt,SMD*%
%TO.CRot,180*%
X197800000Y-115600000D03*
D11*
X198445000Y-115355000D02*
X198445000Y-115845000D01*
X197155000Y-115845000D01*
X197155000Y-115355000D01*
X198445000Y-115355000D01*
D12*
%TO.P,C236,1,1*%
X197450000Y-115600000D03*
D13*
%TO.P,C236,2,2*%
X198150000Y-115600000D03*
%TD*%
D10*
%TO.C,C110*%
%TO.CFtp,CAPC2012X145N*%
%TO.CVal,CC0805_100UF_6.3V_20\u0025_X5R*%
%TO.CLbN,Capacitors SMD*%
%TO.CMnt,SMD*%
%TO.CRot,-90*%
X184800000Y-104900000D03*
D11*
X185795000Y-103155000D02*
X185795000Y-106645000D01*
X183805000Y-106645000D01*
X183805000Y-103155000D01*
X185795000Y-103155000D01*
D12*
%TO.P,C110,1,1*%
X184800000Y-105800000D03*
D13*
%TO.P,C110,2,2*%
X184800000Y-104000000D03*
%TD*%
D10*
%TO.C,C90*%
%TO.CFtp,CAPC0603X33N*%
%TO.CVal,CC0201_470NF_4V_20\u0025_X5R*%
%TO.CLbN,Capacitors SMD*%
%TO.CMnt,SMD*%
%TO.CRot,180*%
X186900000Y-93100000D03*
D11*
X187545000Y-92855000D02*
X187545000Y-93345000D01*
X186255000Y-93345000D01*
X186255000Y-92855000D01*
X187545000Y-92855000D01*
D12*
%TO.P,C90,1,1*%
X186550000Y-93100000D03*
D13*
%TO.P,C90,2,2*%
X187250000Y-93100000D03*
%TD*%
D10*
%TO.C,C40*%
%TO.CFtp,CAPC1005X55N*%
%TO.CVal,CC0402_100NF_50V_10\u0025_X7R*%
%TO.CLbN,Capacitors SMD*%
%TO.CMnt,SMD*%
%TO.CRot,90*%
X140300000Y-58600000D03*
D11*
X140755000Y-57695000D02*
X140755000Y-59505000D01*
X139845000Y-59505000D01*
X139845000Y-57695000D01*
X140755000Y-57695000D01*
D12*
%TO.P,C40,1,1*%
X140300000Y-58150000D03*
D13*
%TO.P,C40,2,2*%
X140300000Y-59050000D03*
%TD*%
D10*
%TO.C,R72*%
%TO.CFtp,RESC1005X40N*%
%TO.CVal,R0402_240R_1\u0025_0.0625W_100PPM*%
%TO.CLbN,Resistors SMD*%
%TO.CMnt,SMD*%
%TO.CRot,-90*%
X199100000Y-118500000D03*
D11*
X199555000Y-117595000D02*
X199555000Y-119405000D01*
X198645000Y-119405000D01*
X198645000Y-117595000D01*
X199555000Y-117595000D01*
D12*
%TO.P,R72,1,1*%
X199100000Y-118970000D03*
D13*
%TO.P,R72,2,2*%
X199100000Y-118030000D03*
%TD*%
D10*
%TO.C,C239*%
%TO.CFtp,CAPC0603X33N*%
%TO.CVal,CC0201_47NF_6.3V_10\u0025_X5R*%
%TO.CLbN,Capacitors SMD*%
%TO.CMnt,SMD*%
%TO.CRot,180*%
X192000000Y-118000000D03*
D11*
X192645000Y-117755000D02*
X192645000Y-118245000D01*
X191355000Y-118245000D01*
X191355000Y-117755000D01*
X192645000Y-117755000D01*
D12*
%TO.P,C239,1,1*%
X191650000Y-118000000D03*
D13*
%TO.P,C239,2,2*%
X192350000Y-118000000D03*
%TD*%
D10*
%TO.C,C118*%
%TO.CFtp,CAPC1005X55N*%
%TO.CVal,CC0402_4.7UF_16V_20\u0025_X5R*%
%TO.CLbN,Capacitors SMD*%
%TO.CMnt,SMD*%
%TO.CRot,180*%
X171000000Y-97500000D03*
D11*
X171905000Y-97045000D02*
X171905000Y-97955000D01*
X170095000Y-97955000D01*
X170095000Y-97045000D01*
X171905000Y-97045000D01*
D12*
%TO.P,C118,1,1*%
X170550000Y-97500000D03*
D13*
%TO.P,C118,2,2*%
X171450000Y-97500000D03*
%TD*%
D10*
%TO.C,R1*%
%TO.CFtp,RESC1608X55N*%
%TO.CVal,R0603_6K65_0.1\u0025_0.063W_10PPM*%
%TO.CLbN,Resistors SMD*%
%TO.CMnt,SMD*%
%TO.CRot,0*%
X180700000Y-113700000D03*
D11*
X182195000Y-112955000D02*
X182195000Y-114445000D01*
X179205000Y-114445000D01*
X179205000Y-112955000D01*
X182195000Y-112955000D01*
D12*
%TO.P,R1,1,1*%
X181500000Y-113700000D03*
D13*
%TO.P,R1,2,2*%
X179900000Y-113700000D03*
%TD*%
D10*
%TO.C,L8*%
%TO.CFtp,L_1008_2520Metric*%
%TO.CVal,4.7 uH*%
%TO.CLbN,Inductor_SMD*%
%TO.CMnt,SMD*%
%TO.CRot,-90*%
X143300000Y-94300000D03*
D11*
X144645000Y-92355000D02*
X144645000Y-96245000D01*
X141955000Y-96245000D01*
X141955000Y-92355000D01*
X144645000Y-92355000D01*
D12*
%TO.P,L8,1,1*%
X143300000Y-95375000D03*
D13*
%TO.P,L8,2,2*%
X143300000Y-93225000D03*
%TD*%
D10*
%TO.C,R15*%
%TO.CFtp,RESC1005X40N*%
%TO.CVal,R0402_4K7_1\u0025_0.0625W_100PPM*%
%TO.CLbN,Resistors SMD*%
%TO.CMnt,SMD*%
%TO.CRot,180*%
X152800000Y-111000000D03*
D11*
X153705000Y-110545000D02*
X153705000Y-111455000D01*
X151895000Y-111455000D01*
X151895000Y-110545000D01*
X153705000Y-110545000D01*
D12*
%TO.P,R15,1,1*%
X152330000Y-111000000D03*
D13*
%TO.P,R15,2,2*%
X153270000Y-111000000D03*
%TD*%
D10*
%TO.C,C105*%
%TO.CFtp,CAPC1005X55N*%
%TO.CVal,CC0402_4.7UF_16V_20\u0025_X5R*%
%TO.CLbN,Capacitors SMD*%
%TO.CMnt,SMD*%
%TO.CRot,90*%
X186500000Y-94500000D03*
D11*
X186955000Y-93595000D02*
X186955000Y-95405000D01*
X186045000Y-95405000D01*
X186045000Y-93595000D01*
X186955000Y-93595000D01*
D12*
%TO.P,C105,1,1*%
X186500000Y-94050000D03*
D13*
%TO.P,C105,2,2*%
X186500000Y-94950000D03*
%TD*%
D10*
%TO.C,C144*%
%TO.CFtp,CAPC0603X33N*%
%TO.CVal,CC0201_470NF_4V_20\u0025_X5R*%
%TO.CLbN,Capacitors SMD*%
%TO.CMnt,SMD*%
%TO.CRot,0*%
X192900000Y-101900000D03*
D11*
X193545000Y-101655000D02*
X193545000Y-102145000D01*
X192255000Y-102145000D01*
X192255000Y-101655000D01*
X193545000Y-101655000D01*
D12*
%TO.P,C144,1,1*%
X193250000Y-101900000D03*
D13*
%TO.P,C144,2,2*%
X192550000Y-101900000D03*
%TD*%
D10*
%TO.C,C137*%
%TO.CFtp,CAPC0603X33N*%
%TO.CVal,CC0201_470NF_4V_20\u0025_X5R*%
%TO.CLbN,Capacitors SMD*%
%TO.CMnt,SMD*%
%TO.CRot,0*%
X181300000Y-93900000D03*
D11*
X181945000Y-93655000D02*
X181945000Y-94145000D01*
X180655000Y-94145000D01*
X180655000Y-93655000D01*
X181945000Y-93655000D01*
D12*
%TO.P,C137,1,1*%
X181650000Y-93900000D03*
D13*
%TO.P,C137,2,2*%
X180950000Y-93900000D03*
%TD*%
D10*
%TO.C,C154*%
%TO.CFtp,CAPC0603X33N*%
%TO.CVal,CC0201_100NF_6.3V_10\u0025_X5R*%
%TO.CLbN,Capacitors SMD*%
%TO.CMnt,SMD*%
%TO.CRot,180*%
X187690000Y-93900000D03*
D11*
X188335000Y-93655000D02*
X188335000Y-94145000D01*
X187045000Y-94145000D01*
X187045000Y-93655000D01*
X188335000Y-93655000D01*
D12*
%TO.P,C154,1,1*%
X187340000Y-93900000D03*
D13*
%TO.P,C154,2,2*%
X188040000Y-93900000D03*
%TD*%
D10*
%TO.C,C72*%
%TO.CFtp,CAPC1005X55N*%
%TO.CVal,CC0402_27PF_50V_5\u0025_C0G*%
%TO.CLbN,Capacitors SMD*%
%TO.CMnt,SMD*%
%TO.CRot,180*%
X124350000Y-110400000D03*
D11*
X125255000Y-109945000D02*
X125255000Y-110855000D01*
X123445000Y-110855000D01*
X123445000Y-109945000D01*
X125255000Y-109945000D01*
D12*
%TO.P,C72,1,1*%
X123900000Y-110400000D03*
D13*
%TO.P,C72,2,2*%
X124800000Y-110400000D03*
%TD*%
D10*
%TO.C,C167*%
%TO.CFtp,CAPC1005X55N*%
%TO.CVal,CC0402_4.7UF_16V_20\u0025_X5R*%
%TO.CLbN,Capacitors SMD*%
%TO.CMnt,SMD*%
%TO.CRot,180*%
X177600000Y-101800000D03*
D11*
X178505000Y-101345000D02*
X178505000Y-102255000D01*
X176695000Y-102255000D01*
X176695000Y-101345000D01*
X178505000Y-101345000D01*
D12*
%TO.P,C167,1,1*%
X177150000Y-101800000D03*
D13*
%TO.P,C167,2,2*%
X178050000Y-101800000D03*
%TD*%
D10*
%TO.C,L15*%
%TO.CFtp,INDC2013X145N*%
%TO.CVal,IND0805_TDK_MLZ2012M150WT000*%
%TO.CLbN,Inductors SMD*%
%TO.CMnt,SMD*%
%TO.CRot,180*%
X187117500Y-108400000D03*
D11*
X188862500Y-107405000D02*
X188862500Y-109395000D01*
X185372500Y-109395000D01*
X185372500Y-107405000D01*
X188862500Y-107405000D01*
D12*
%TO.P,L15,1,1*%
X186117500Y-108400000D03*
D13*
%TO.P,L15,2,2*%
X188117500Y-108400000D03*
%TD*%
D10*
%TO.C,U22*%
%TO.CFtp,SOIC127P600X175-8N*%
%TO.CVal,93C46B-I_SN*%
%TO.CLbN,ICs And Semiconductors SMD*%
%TO.CMnt,SMD*%
%TO.CRot,0*%
X117100000Y-112730000D03*
D11*
X120845000Y-109985000D02*
X120845000Y-115475000D01*
X113355000Y-115475000D01*
X113355000Y-109985000D01*
X120845000Y-109985000D01*
D12*
%TO.P,U22,1,CS*%
X119800000Y-110825000D03*
D13*
%TO.P,U22,2,CLK*%
X119800000Y-112095000D03*
%TO.P,U22,3,DI*%
X119800000Y-113365000D03*
%TO.P,U22,4,DO*%
X119800000Y-114635000D03*
%TO.P,U22,5,VSS*%
X114400000Y-114635000D03*
%TO.P,U22,6,NC*%
X114400000Y-113365000D03*
%TO.P,U22,7,NC*%
X114400000Y-112095000D03*
%TO.P,U22,8,VCC*%
X114400000Y-110825000D03*
%TD*%
D10*
%TO.C,L9*%
%TO.CFtp,L_1008_2520Metric*%
%TO.CVal,4.7 uH*%
%TO.CLbN,Inductor_SMD*%
%TO.CMnt,SMD*%
%TO.CRot,-90*%
X146200000Y-94300000D03*
D11*
X147545000Y-92355000D02*
X147545000Y-96245000D01*
X144855000Y-96245000D01*
X144855000Y-92355000D01*
X147545000Y-92355000D01*
D12*
%TO.P,L9,1,1*%
X146200000Y-95375000D03*
D13*
%TO.P,L9,2,2*%
X146200000Y-93225000D03*
%TD*%
D10*
%TO.C,R169*%
%TO.CFtp,RESC1005X40N*%
%TO.CVal,R0402_12K_1\u0025_0.0625W_100PPM*%
%TO.CLbN,Resistors SMD*%
%TO.CMnt,SMD*%
%TO.CRot,180*%
X181300000Y-129900000D03*
D11*
X182205000Y-129445000D02*
X182205000Y-130355000D01*
X180395000Y-130355000D01*
X180395000Y-129445000D01*
X182205000Y-129445000D01*
D12*
%TO.P,R169,1,1*%
X180830000Y-129900000D03*
D13*
%TO.P,R169,2,2*%
X181770000Y-129900000D03*
%TD*%
D10*
%TO.C,C235*%
%TO.CFtp,CAPC0603X33N*%
%TO.CVal,CC0201_47NF_6.3V_10\u0025_X5R*%
%TO.CLbN,Capacitors SMD*%
%TO.CMnt,SMD*%
%TO.CRot,90*%
X198100000Y-117600000D03*
D11*
X198345000Y-116955000D02*
X198345000Y-118245000D01*
X197855000Y-118245000D01*
X197855000Y-116955000D01*
X198345000Y-116955000D01*
D12*
%TO.P,C235,1,1*%
X198100000Y-117250000D03*
D13*
%TO.P,C235,2,2*%
X198100000Y-117950000D03*
%TD*%
D10*
%TO.C,C250*%
%TO.CFtp,CAPC0603X33N*%
%TO.CVal,CC0201_100NF_6.3V_10\u0025_X5R*%
%TO.CLbN,Capacitors SMD*%
%TO.CMnt,SMD*%
%TO.CRot,90*%
X190100000Y-117400000D03*
D11*
X190345000Y-116755000D02*
X190345000Y-118045000D01*
X189855000Y-118045000D01*
X189855000Y-116755000D01*
X190345000Y-116755000D01*
D12*
%TO.P,C250,1,1*%
X190100000Y-117050000D03*
D13*
%TO.P,C250,2,2*%
X190100000Y-117750000D03*
%TD*%
D10*
%TO.C,C134*%
%TO.CFtp,CAPC0603X33N*%
%TO.CVal,CC0201_470NF_4V_20\u0025_X5R*%
%TO.CLbN,Capacitors SMD*%
%TO.CMnt,SMD*%
%TO.CRot,90*%
X181500000Y-87900000D03*
D11*
X181745000Y-87255000D02*
X181745000Y-88545000D01*
X181255000Y-88545000D01*
X181255000Y-87255000D01*
X181745000Y-87255000D01*
D12*
%TO.P,C134,1,1*%
X181500000Y-87550000D03*
D13*
%TO.P,C134,2,2*%
X181500000Y-88250000D03*
%TD*%
D10*
%TO.C,C166*%
%TO.CFtp,CAPC0603X33N*%
%TO.CVal,CC0201_100NF_6.3V_10\u0025_X5R*%
%TO.CLbN,Capacitors SMD*%
%TO.CMnt,SMD*%
%TO.CRot,-90*%
X184400000Y-101700000D03*
D11*
X184645000Y-101055000D02*
X184645000Y-102345000D01*
X184155000Y-102345000D01*
X184155000Y-101055000D01*
X184645000Y-101055000D01*
D12*
%TO.P,C166,1,1*%
X184400000Y-102050000D03*
D13*
%TO.P,C166,2,2*%
X184400000Y-101350000D03*
%TD*%
D10*
%TO.C,R53*%
%TO.CFtp,RESC1005X40N*%
%TO.CVal,R0402_40R2_1\u0025_0.0625W_100PPM*%
%TO.CLbN,Resistors SMD*%
%TO.CMnt,SMD*%
%TO.CRot,0*%
X187800000Y-123300000D03*
D11*
X188705000Y-122845000D02*
X188705000Y-123755000D01*
X186895000Y-123755000D01*
X186895000Y-122845000D01*
X188705000Y-122845000D01*
D12*
%TO.P,R53,1,1*%
X188270000Y-123300000D03*
D13*
%TO.P,R53,2,2*%
X187330000Y-123300000D03*
%TD*%
D10*
%TO.C,C124*%
%TO.CFtp,CAPC0603X33N*%
%TO.CVal,CC0201_470NF_4V_20\u0025_X5R*%
%TO.CLbN,Capacitors SMD*%
%TO.CMnt,SMD*%
%TO.CRot,-90*%
X192800000Y-97300000D03*
D11*
X193045000Y-96655000D02*
X193045000Y-97945000D01*
X192555000Y-97945000D01*
X192555000Y-96655000D01*
X193045000Y-96655000D01*
D12*
%TO.P,C124,1,1*%
X192800000Y-97650000D03*
D13*
%TO.P,C124,2,2*%
X192800000Y-96950000D03*
%TD*%
D10*
%TO.C,C130*%
%TO.CFtp,CAPC0603X33N*%
%TO.CVal,CC0201_47NF_6.3V_10\u0025_X5R*%
%TO.CLbN,Capacitors SMD*%
%TO.CMnt,SMD*%
%TO.CRot,0*%
X194300000Y-90300000D03*
D11*
X194945000Y-90055000D02*
X194945000Y-90545000D01*
X193655000Y-90545000D01*
X193655000Y-90055000D01*
X194945000Y-90055000D01*
D12*
%TO.P,C130,1,1*%
X194650000Y-90300000D03*
D13*
%TO.P,C130,2,2*%
X193950000Y-90300000D03*
%TD*%
D10*
%TO.C,L6*%
%TO.CFtp,L_1008_2520Metric*%
%TO.CVal,4.7 uH*%
%TO.CLbN,Inductor_SMD*%
%TO.CMnt,SMD*%
%TO.CRot,90*%
X147100000Y-57900000D03*
D11*
X148445000Y-55955000D02*
X148445000Y-59845000D01*
X145755000Y-59845000D01*
X145755000Y-55955000D01*
X148445000Y-55955000D01*
D12*
%TO.P,L6,1,1*%
X147100000Y-56825000D03*
D13*
%TO.P,L6,2,2*%
X147100000Y-58975000D03*
%TD*%
D10*
%TO.C,C164*%
%TO.CFtp,CAPC0603X33N*%
%TO.CVal,CC0201_100NF_6.3V_10\u0025_X5R*%
%TO.CLbN,Capacitors SMD*%
%TO.CMnt,SMD*%
%TO.CRot,90*%
X181100000Y-101650000D03*
D11*
X181345000Y-101005000D02*
X181345000Y-102295000D01*
X180855000Y-102295000D01*
X180855000Y-101005000D01*
X181345000Y-101005000D01*
D12*
%TO.P,C164,1,1*%
X181100000Y-101300000D03*
D13*
%TO.P,C164,2,2*%
X181100000Y-102000000D03*
%TD*%
D10*
%TO.C,C138*%
%TO.CFtp,CAPC0603X33N*%
%TO.CVal,CC0201_47NF_6.3V_10\u0025_X5R*%
%TO.CLbN,Capacitors SMD*%
%TO.CMnt,SMD*%
%TO.CRot,180*%
X179307324Y-90951217D03*
D11*
X179952324Y-90706217D02*
X179952324Y-91196217D01*
X178662324Y-91196217D01*
X178662324Y-90706217D01*
X179952324Y-90706217D01*
D12*
%TO.P,C138,1,1*%
X178957324Y-90951217D03*
D13*
%TO.P,C138,2,2*%
X179657324Y-90951217D03*
%TD*%
D10*
%TO.C,C159*%
%TO.CFtp,CAPC0603X33N*%
%TO.CVal,CC0201_100NF_6.3V_10\u0025_X5R*%
%TO.CLbN,Capacitors SMD*%
%TO.CMnt,SMD*%
%TO.CRot,90*%
X182500000Y-98300000D03*
D11*
X182745000Y-97655000D02*
X182745000Y-98945000D01*
X182255000Y-98945000D01*
X182255000Y-97655000D01*
X182745000Y-97655000D01*
D12*
%TO.P,C159,1,1*%
X182500000Y-97950000D03*
D13*
%TO.P,C159,2,2*%
X182500000Y-98650000D03*
%TD*%
D10*
%TO.C,C145*%
%TO.CFtp,CAPC0603X33N*%
%TO.CVal,CC0201_470NF_4V_20\u0025_X5R*%
%TO.CLbN,Capacitors SMD*%
%TO.CMnt,SMD*%
%TO.CRot,0*%
X194500000Y-98300000D03*
D11*
X195145000Y-98055000D02*
X195145000Y-98545000D01*
X193855000Y-98545000D01*
X193855000Y-98055000D01*
X195145000Y-98055000D01*
D12*
%TO.P,C145,1,1*%
X194850000Y-98300000D03*
D13*
%TO.P,C145,2,2*%
X194150000Y-98300000D03*
%TD*%
D10*
%TO.C,C232*%
%TO.CFtp,CAPC0603X33N*%
%TO.CVal,CC0201_47NF_6.3V_10\u0025_X5R*%
%TO.CLbN,Capacitors SMD*%
%TO.CMnt,SMD*%
%TO.CRot,-90*%
X191700000Y-114500000D03*
D11*
X191945000Y-113855000D02*
X191945000Y-115145000D01*
X191455000Y-115145000D01*
X191455000Y-113855000D01*
X191945000Y-113855000D01*
D12*
%TO.P,C232,1,1*%
X191700000Y-114850000D03*
D13*
%TO.P,C232,2,2*%
X191700000Y-114150000D03*
%TD*%
D10*
%TO.C,C161*%
%TO.CFtp,CAPC1005X55N*%
%TO.CVal,CC0402_4.7UF_16V_20\u0025_X5R*%
%TO.CLbN,Capacitors SMD*%
%TO.CMnt,SMD*%
%TO.CRot,180*%
X177600000Y-98600000D03*
D11*
X178505000Y-98145000D02*
X178505000Y-99055000D01*
X176695000Y-99055000D01*
X176695000Y-98145000D01*
X178505000Y-98145000D01*
D12*
%TO.P,C161,1,1*%
X177150000Y-98600000D03*
D13*
%TO.P,C161,2,2*%
X178050000Y-98600000D03*
%TD*%
D10*
%TO.C,C42*%
%TO.CFtp,CAPC1005X55N*%
%TO.CVal,CC0402_100NF_50V_10\u0025_X7R*%
%TO.CLbN,Capacitors SMD*%
%TO.CMnt,SMD*%
%TO.CRot,-90*%
X150200000Y-93600000D03*
D11*
X150655000Y-92695000D02*
X150655000Y-94505000D01*
X149745000Y-94505000D01*
X149745000Y-92695000D01*
X150655000Y-92695000D01*
D12*
%TO.P,C42,1,1*%
X150200000Y-94050000D03*
D13*
%TO.P,C42,2,2*%
X150200000Y-93150000D03*
%TD*%
D10*
%TO.C,C115*%
%TO.CFtp,CAPC0603X33N*%
%TO.CVal,CC0201_470NF_4V_20\u0025_X5R*%
%TO.CLbN,Capacitors SMD*%
%TO.CMnt,SMD*%
%TO.CRot,90*%
X184100000Y-91900000D03*
D11*
X184345000Y-91255000D02*
X184345000Y-92545000D01*
X183855000Y-92545000D01*
X183855000Y-91255000D01*
X184345000Y-91255000D01*
D12*
%TO.P,C115,1,1*%
X184100000Y-91550000D03*
D13*
%TO.P,C115,2,2*%
X184100000Y-92250000D03*
%TD*%
D10*
%TO.C,C148*%
%TO.CFtp,CAPC0603X33N*%
%TO.CVal,CC0201_47NF_6.3V_10\u0025_X5R*%
%TO.CLbN,Capacitors SMD*%
%TO.CMnt,SMD*%
%TO.CRot,90*%
X188100000Y-97500000D03*
D11*
X188345000Y-96855000D02*
X188345000Y-98145000D01*
X187855000Y-98145000D01*
X187855000Y-96855000D01*
X188345000Y-96855000D01*
D12*
%TO.P,C148,1,1*%
X188100000Y-97150000D03*
D13*
%TO.P,C148,2,2*%
X188100000Y-97850000D03*
%TD*%
D10*
%TO.C,C242*%
%TO.CFtp,CAPC0603X33N*%
%TO.CVal,CC0201_47NF_6.3V_10\u0025_X5R*%
%TO.CLbN,Capacitors SMD*%
%TO.CMnt,SMD*%
%TO.CRot,90*%
X198300000Y-123300000D03*
D11*
X198545000Y-122655000D02*
X198545000Y-123945000D01*
X198055000Y-123945000D01*
X198055000Y-122655000D01*
X198545000Y-122655000D01*
D12*
%TO.P,C242,1,1*%
X198300000Y-122950000D03*
D13*
%TO.P,C242,2,2*%
X198300000Y-123650000D03*
%TD*%
D10*
%TO.C,C143*%
%TO.CFtp,CAPC0603X33N*%
%TO.CVal,CC0201_470NF_4V_20\u0025_X5R*%
%TO.CLbN,Capacitors SMD*%
%TO.CMnt,SMD*%
%TO.CRot,-90*%
X188900000Y-100900000D03*
D11*
X189145000Y-100255000D02*
X189145000Y-101545000D01*
X188655000Y-101545000D01*
X188655000Y-100255000D01*
X189145000Y-100255000D01*
D12*
%TO.P,C143,1,1*%
X188900000Y-101250000D03*
D13*
%TO.P,C143,2,2*%
X188900000Y-100550000D03*
%TD*%
D10*
%TO.C,C238*%
%TO.CFtp,CAPC0603X33N*%
%TO.CVal,CC0201_47NF_6.3V_10\u0025_X5R*%
%TO.CLbN,Capacitors SMD*%
%TO.CMnt,SMD*%
%TO.CRot,90*%
X198200000Y-113600000D03*
D11*
X198445000Y-112955000D02*
X198445000Y-114245000D01*
X197955000Y-114245000D01*
X197955000Y-112955000D01*
X198445000Y-112955000D01*
D12*
%TO.P,C238,1,1*%
X198200000Y-113250000D03*
D13*
%TO.P,C238,2,2*%
X198200000Y-113950000D03*
%TD*%
D10*
%TO.C,C186*%
%TO.CFtp,CAPC0603X33N*%
%TO.CVal,CC0201_100NF_6.3V_10\u0025_X5R*%
%TO.CLbN,Capacitors SMD*%
%TO.CMnt,SMD*%
%TO.CRot,180*%
X164450000Y-112700000D03*
D11*
X165095000Y-112455000D02*
X165095000Y-112945000D01*
X163805000Y-112945000D01*
X163805000Y-112455000D01*
X165095000Y-112455000D01*
D12*
%TO.P,C186,1,1*%
X164100000Y-112700000D03*
D13*
%TO.P,C186,2,2*%
X164800000Y-112700000D03*
%TD*%
D10*
%TO.C,U9*%
%TO.CFtp,SOT-23*%
%TO.CVal,REF3012*%
%TO.CLbN,Package_TO_SOT_SMD*%
%TO.CMnt,SMD*%
%TO.CRot,180*%
X190600000Y-105700000D03*
D11*
X192515000Y-104005000D02*
X192515000Y-107395000D01*
X188685000Y-107395000D01*
X188685000Y-104005000D01*
X192515000Y-104005000D01*
D12*
%TO.P,U9,1,IN*%
X189662500Y-106650000D03*
D13*
%TO.P,U9,2,OUT*%
X189662500Y-104750000D03*
%TO.P,U9,3,GND*%
X191537500Y-105700000D03*
%TD*%
D10*
%TO.C,C107*%
%TO.CFtp,CAPC1005X55N*%
%TO.CVal,CC0402_4.7UF_16V_20\u0025_X5R*%
%TO.CLbN,Capacitors SMD*%
%TO.CMnt,SMD*%
%TO.CRot,0*%
X188600000Y-94800000D03*
D11*
X189505000Y-94345000D02*
X189505000Y-95255000D01*
X187695000Y-95255000D01*
X187695000Y-94345000D01*
X189505000Y-94345000D01*
D12*
%TO.P,C107,1,1*%
X189050000Y-94800000D03*
D13*
%TO.P,C107,2,2*%
X188150000Y-94800000D03*
%TD*%
D10*
%TO.C,C147*%
%TO.CFtp,CAPC0603X33N*%
%TO.CVal,CC0201_47NF_6.3V_10\u0025_X5R*%
%TO.CLbN,Capacitors SMD*%
%TO.CMnt,SMD*%
%TO.CRot,90*%
X190400000Y-96700000D03*
D11*
X190645000Y-96055000D02*
X190645000Y-97345000D01*
X190155000Y-97345000D01*
X190155000Y-96055000D01*
X190645000Y-96055000D01*
D12*
%TO.P,C147,1,1*%
X190400000Y-96350000D03*
D13*
%TO.P,C147,2,2*%
X190400000Y-97050000D03*
%TD*%
D10*
%TO.C,C142*%
%TO.CFtp,CAPC1005X55N*%
%TO.CVal,CC0402_4.7UF_16V_20\u0025_X5R*%
%TO.CLbN,Capacitors SMD*%
%TO.CMnt,SMD*%
%TO.CRot,180*%
X195600000Y-97300000D03*
D11*
X196505000Y-96845000D02*
X196505000Y-97755000D01*
X194695000Y-97755000D01*
X194695000Y-96845000D01*
X196505000Y-96845000D01*
D12*
%TO.P,C142,1,1*%
X195150000Y-97300000D03*
D13*
%TO.P,C142,2,2*%
X196050000Y-97300000D03*
%TD*%
D10*
%TO.C,R16*%
%TO.CFtp,RESC1005X40N*%
%TO.CVal,R0402_4K7_1\u0025_0.0625W_100PPM*%
%TO.CLbN,Resistors SMD*%
%TO.CMnt,SMD*%
%TO.CRot,0*%
X152800000Y-107000000D03*
D11*
X153705000Y-106545000D02*
X153705000Y-107455000D01*
X151895000Y-107455000D01*
X151895000Y-106545000D01*
X153705000Y-106545000D01*
D12*
%TO.P,R16,1,1*%
X153270000Y-107000000D03*
D13*
%TO.P,R16,2,2*%
X152330000Y-107000000D03*
%TD*%
D10*
%TO.C,C179*%
%TO.CFtp,CAPC1005X55N*%
%TO.CVal,CC0402_22PF_50V_5\u0025_C0G*%
%TO.CLbN,Capacitors SMD*%
%TO.CMnt,SMD*%
%TO.CRot,90*%
X131800000Y-128900000D03*
D11*
X132255000Y-127995000D02*
X132255000Y-129805000D01*
X131345000Y-129805000D01*
X131345000Y-127995000D01*
X132255000Y-127995000D01*
D12*
%TO.P,C179,1,1*%
X131800000Y-128450000D03*
D13*
%TO.P,C179,2,2*%
X131800000Y-129350000D03*
%TD*%
D10*
%TO.C,R112*%
%TO.CFtp,RESC1005X40N*%
%TO.CVal,R0402_0R_JUMPER*%
%TO.CLbN,Resistors SMD*%
%TO.CMnt,SMD*%
%TO.CRot,-90*%
X158400000Y-126100000D03*
D11*
X158855000Y-125195000D02*
X158855000Y-127005000D01*
X157945000Y-127005000D01*
X157945000Y-125195000D01*
X158855000Y-125195000D01*
D12*
%TO.P,R112,1,1*%
X158400000Y-126570000D03*
D13*
%TO.P,R112,2,2*%
X158400000Y-125630000D03*
%TD*%
D10*
%TO.C,C104*%
%TO.CFtp,CAPC1005X55N*%
%TO.CVal,CC0402_4.7UF_16V_20\u0025_X5R*%
%TO.CLbN,Capacitors SMD*%
%TO.CMnt,SMD*%
%TO.CRot,0*%
X195600000Y-96300000D03*
D11*
X196505000Y-95845000D02*
X196505000Y-96755000D01*
X194695000Y-96755000D01*
X194695000Y-95845000D01*
X196505000Y-95845000D01*
D12*
%TO.P,C104,1,1*%
X196050000Y-96300000D03*
D13*
%TO.P,C104,2,2*%
X195150000Y-96300000D03*
%TD*%
D10*
%TO.C,C33*%
%TO.CFtp,CAPC1005X55N*%
%TO.CVal,CC0402_100NF_50V_10\u0025_X7R*%
%TO.CLbN,Capacitors SMD*%
%TO.CMnt,SMD*%
%TO.CRot,180*%
X141900000Y-96800000D03*
D11*
X142805000Y-96345000D02*
X142805000Y-97255000D01*
X140995000Y-97255000D01*
X140995000Y-96345000D01*
X142805000Y-96345000D01*
D12*
%TO.P,C33,1,1*%
X141450000Y-96800000D03*
D13*
%TO.P,C33,2,2*%
X142350000Y-96800000D03*
%TD*%
D10*
%TO.C,R143*%
%TO.CFtp,RESC1005X40N*%
%TO.CVal,R0402_4K7_1\u0025_0.0625W_100PPM*%
%TO.CLbN,Resistors SMD*%
%TO.CMnt,SMD*%
%TO.CRot,0*%
X179500000Y-134750000D03*
D11*
X180405000Y-134295000D02*
X180405000Y-135205000D01*
X178595000Y-135205000D01*
X178595000Y-134295000D01*
X180405000Y-134295000D01*
D12*
%TO.P,R143,1,1*%
X179970000Y-134750000D03*
D13*
%TO.P,R143,2,2*%
X179030000Y-134750000D03*
%TD*%
D10*
%TO.C,R165*%
%TO.CFtp,RESC1005X40N*%
%TO.CVal,R0402_100K_1\u0025_0.0625W_100PPM*%
%TO.CLbN,Resistors SMD*%
%TO.CMnt,SMD*%
%TO.CRot,90*%
X177200000Y-62200000D03*
D11*
X177655000Y-61295000D02*
X177655000Y-63105000D01*
X176745000Y-63105000D01*
X176745000Y-61295000D01*
X177655000Y-61295000D01*
D12*
%TO.P,R165,1,1*%
X177200000Y-61730000D03*
D13*
%TO.P,R165,2,2*%
X177200000Y-62670000D03*
%TD*%
D10*
%TO.C,C89*%
%TO.CFtp,CAPC0603X33N*%
%TO.CVal,CC0201_470NF_4V_20\u0025_X5R*%
%TO.CLbN,Capacitors SMD*%
%TO.CMnt,SMD*%
%TO.CRot,90*%
X185700000Y-91900000D03*
D11*
X185945000Y-91255000D02*
X185945000Y-92545000D01*
X185455000Y-92545000D01*
X185455000Y-91255000D01*
X185945000Y-91255000D01*
D12*
%TO.P,C89,1,1*%
X185700000Y-91550000D03*
D13*
%TO.P,C89,2,2*%
X185700000Y-92250000D03*
%TD*%
D10*
%TO.C,C96*%
%TO.CFtp,CAPC0603X33N*%
%TO.CVal,CC0201_470NF_4V_20\u0025_X5R*%
%TO.CLbN,Capacitors SMD*%
%TO.CMnt,SMD*%
%TO.CRot,0*%
X189300000Y-97100000D03*
D11*
X189945000Y-96855000D02*
X189945000Y-97345000D01*
X188655000Y-97345000D01*
X188655000Y-96855000D01*
X189945000Y-96855000D01*
D12*
%TO.P,C96,1,1*%
X189650000Y-97100000D03*
D13*
%TO.P,C96,2,2*%
X188950000Y-97100000D03*
%TD*%
D10*
%TO.C,R70*%
%TO.CFtp,RESC1005X40N*%
%TO.CVal,R0402_40R2_1\u0025_0.0625W_100PPM*%
%TO.CLbN,Resistors SMD*%
%TO.CMnt,SMD*%
%TO.CRot,0*%
X187800000Y-121300000D03*
D11*
X188705000Y-120845000D02*
X188705000Y-121755000D01*
X186895000Y-121755000D01*
X186895000Y-120845000D01*
X188705000Y-120845000D01*
D12*
%TO.P,R70,1,1*%
X188270000Y-121300000D03*
D13*
%TO.P,R70,2,2*%
X187330000Y-121300000D03*
%TD*%
D10*
%TO.C,C136*%
%TO.CFtp,CAPC0603X33N*%
%TO.CVal,CC0201_470NF_4V_20\u0025_X5R*%
%TO.CLbN,Capacitors SMD*%
%TO.CMnt,SMD*%
%TO.CRot,90*%
X184100000Y-87100000D03*
D11*
X184345000Y-86455000D02*
X184345000Y-87745000D01*
X183855000Y-87745000D01*
X183855000Y-86455000D01*
X184345000Y-86455000D01*
D12*
%TO.P,C136,1,1*%
X184100000Y-86750000D03*
D13*
%TO.P,C136,2,2*%
X184100000Y-87450000D03*
%TD*%
D10*
%TO.C,R95*%
%TO.CFtp,RESC1005X40N*%
%TO.CVal,R0402_30K_1\u0025_0.0625W_100PPM*%
%TO.CLbN,Resistors SMD*%
%TO.CMnt,SMD*%
%TO.CRot,-90*%
X150600000Y-117462500D03*
D11*
X151055000Y-116557500D02*
X151055000Y-118367500D01*
X150145000Y-118367500D01*
X150145000Y-116557500D01*
X151055000Y-116557500D01*
D12*
%TO.P,R95,1,1*%
X150600000Y-117932500D03*
D13*
%TO.P,R95,2,2*%
X150600000Y-116992500D03*
%TD*%
D10*
%TO.C,C146*%
%TO.CFtp,CAPC0603X33N*%
%TO.CVal,CC0201_470NF_4V_20\u0025_X5R*%
%TO.CLbN,Capacitors SMD*%
%TO.CMnt,SMD*%
%TO.CRot,-90*%
X191300000Y-94700000D03*
D11*
X191545000Y-94055000D02*
X191545000Y-95345000D01*
X191055000Y-95345000D01*
X191055000Y-94055000D01*
X191545000Y-94055000D01*
D12*
%TO.P,C146,1,1*%
X191300000Y-95050000D03*
D13*
%TO.P,C146,2,2*%
X191300000Y-94350000D03*
%TD*%
D10*
%TO.C,R69*%
%TO.CFtp,RESC1005X40N*%
%TO.CVal,R0402_40R2_1\u0025_0.0625W_100PPM*%
%TO.CLbN,Resistors SMD*%
%TO.CMnt,SMD*%
%TO.CRot,0*%
X187800000Y-120300000D03*
D11*
X188705000Y-119845000D02*
X188705000Y-120755000D01*
X186895000Y-120755000D01*
X186895000Y-119845000D01*
X188705000Y-119845000D01*
D12*
%TO.P,R69,1,1*%
X188270000Y-120300000D03*
D13*
%TO.P,R69,2,2*%
X187330000Y-120300000D03*
%TD*%
D10*
%TO.C,C169*%
%TO.CFtp,CAPC0603X33N*%
%TO.CVal,CC0201_100NF_6.3V_10\u0025_X5R*%
%TO.CLbN,Capacitors SMD*%
%TO.CMnt,SMD*%
%TO.CRot,-90*%
X179300000Y-101500000D03*
D11*
X179545000Y-100855000D02*
X179545000Y-102145000D01*
X179055000Y-102145000D01*
X179055000Y-100855000D01*
X179545000Y-100855000D01*
D12*
%TO.P,C169,1,1*%
X179300000Y-101850000D03*
D13*
%TO.P,C169,2,2*%
X179300000Y-101150000D03*
%TD*%
D10*
%TO.C,J9*%
%TO.CFtp,TE_2180739-1*%
%TO.CVal,2180739-1*%
%TO.CLbN,C__Users_48695_Downloads_2180739-1_TE_2180739-1.PcbLib*%
%TO.CMnt,Other*%
%TO.CRot,-90*%
X145400000Y-76200000D03*
D14*
X152350000Y-91450000D02*
X113500000Y-91450000D01*
X113500000Y-60950000D01*
X152350000Y-60950000D01*
X152350000Y-91450000D01*
D13*
%TO.P,J9,SH1,CHASSIS_GND1*%
X149500000Y-61950000D03*
%TO.P,J9,SH2,CHASSIS_GND1*%
X139500000Y-61950000D03*
%TO.P,J9,SH3,CHASSIS_GND1*%
X134500000Y-90450000D03*
%TO.P,J9,SH4,CHASSIS_GND1*%
X129500000Y-84770000D03*
%TO.P,J9,SH5,CHASSIS_GND1*%
X129500000Y-79370000D03*
%TO.P,J9,SH6,CHASSIS_GND1*%
X129500000Y-70520000D03*
%TO.P,J9,SH7,CHASSIS_GND1*%
X129500000Y-65120000D03*
%TO.P,J9,SH8,CHASSIS_GND1*%
X129500000Y-61950000D03*
%TO.P,J9,SH9,CHASSIS_GND1*%
X124500000Y-90450000D03*
%TO.P,J9,SH10,CHASSIS_GND1*%
X119500000Y-61950000D03*
%TO.P,J9,SH11,CHASSIS_GND1*%
X114500000Y-90450000D03*
%TO.P,J9,SH12,CHASSIS_GND1*%
X114500000Y-81870000D03*
%TO.P,J9,SH13,CHASSIS_GND1*%
X114500000Y-67620000D03*
%TO.P,J9,SH14,CHASSIS_GND1*%
X147000000Y-90450000D03*
%TO.P,J9,SH15,CHASSIS_GND1*%
X142000000Y-90450000D03*
%TO.P,J9,SH16,CHASSIS_GND2*%
X137300000Y-90450000D03*
%TO.P,J9,SH18,CHASSIS_GND2*%
X151600000Y-88120000D03*
%TO.P,J9,SH19,CHASSIS_GND2*%
X151600000Y-83320000D03*
%TO.P,J9,SH20,CHASSIS_GND2*%
X149500000Y-76200000D03*
%TO.P,J9,SH21,CHASSIS_GND2*%
X151600000Y-73870000D03*
%TO.P,J9,SH22,CHASSIS_GND2*%
X151600000Y-69070000D03*
%TO.P,J9,SH23,CHASSIS_GND2*%
X139500000Y-76200000D03*
%TO.P,J9,SH24,CHASSIS_GND2*%
X129500000Y-76200000D03*
%TO.P,J9,SH25,CHASSIS_GND2*%
X119500000Y-76200000D03*
%TD*%
D10*
%TO.C,R97*%
%TO.CFtp,RESC1005X40N*%
%TO.CVal,R0402_30K_1\u0025_0.0625W_100PPM*%
%TO.CLbN,Resistors SMD*%
%TO.CMnt,SMD*%
%TO.CRot,-90*%
X148500000Y-119462500D03*
D11*
X148955000Y-118557500D02*
X148955000Y-120367500D01*
X148045000Y-120367500D01*
X148045000Y-118557500D01*
X148955000Y-118557500D01*
D12*
%TO.P,R97,1,1*%
X148500000Y-119932500D03*
D13*
%TO.P,R97,2,2*%
X148500000Y-118992500D03*
%TD*%
D10*
%TO.C,C15*%
%TO.CFtp,CAPC1005X55N*%
%TO.CVal,CC0402_100NF_50V_10\u0025_X7R*%
%TO.CLbN,Capacitors SMD*%
%TO.CMnt,SMD*%
%TO.CRot,180*%
X140500000Y-107600000D03*
D11*
X141405000Y-107145000D02*
X141405000Y-108055000D01*
X139595000Y-108055000D01*
X139595000Y-107145000D01*
X141405000Y-107145000D01*
D12*
%TO.P,C15,1,1*%
X140050000Y-107600000D03*
D13*
%TO.P,C15,2,2*%
X140950000Y-107600000D03*
%TD*%
D10*
%TO.C,C149*%
%TO.CFtp,CAPC0603X33N*%
%TO.CVal,CC0201_47NF_6.3V_10\u0025_X5R*%
%TO.CLbN,Capacitors SMD*%
%TO.CMnt,SMD*%
%TO.CRot,-90*%
X192800000Y-99400000D03*
D11*
X193045000Y-98755000D02*
X193045000Y-100045000D01*
X192555000Y-100045000D01*
X192555000Y-98755000D01*
X193045000Y-98755000D01*
D12*
%TO.P,C149,1,1*%
X192800000Y-99750000D03*
D13*
%TO.P,C149,2,2*%
X192800000Y-99050000D03*
%TD*%
D10*
%TO.C,R168*%
%TO.CFtp,RESC1005X40N*%
%TO.CVal,R0402_80R6_1\u0025_0.1W_100PPM*%
%TO.CLbN,Resistors SMD*%
%TO.CMnt,SMD*%
%TO.CRot,-90*%
X195150000Y-118600000D03*
D11*
X195605000Y-117695000D02*
X195605000Y-119505000D01*
X194695000Y-119505000D01*
X194695000Y-117695000D01*
X195605000Y-117695000D01*
D12*
%TO.P,R168,1,1*%
X195150000Y-119070000D03*
D13*
%TO.P,R168,2,2*%
X195150000Y-118130000D03*
%TD*%
D10*
%TO.C,C31*%
%TO.CFtp,CAPC1005X55N*%
%TO.CVal,CC0402_100NF_50V_10\u0025_X7R*%
%TO.CLbN,Capacitors SMD*%
%TO.CMnt,SMD*%
%TO.CRot,0*%
X148400000Y-55400000D03*
D11*
X149305000Y-54945000D02*
X149305000Y-55855000D01*
X147495000Y-55855000D01*
X147495000Y-54945000D01*
X149305000Y-54945000D01*
D12*
%TO.P,C31,1,1*%
X148850000Y-55400000D03*
D13*
%TO.P,C31,2,2*%
X147950000Y-55400000D03*
%TD*%
D10*
%TO.C,R71*%
%TO.CFtp,RESC1005X40N*%
%TO.CVal,R0402_40R2_1\u0025_0.0625W_100PPM*%
%TO.CLbN,Resistors SMD*%
%TO.CMnt,SMD*%
%TO.CRot,0*%
X187800000Y-118300000D03*
D11*
X188705000Y-117845000D02*
X188705000Y-118755000D01*
X186895000Y-118755000D01*
X186895000Y-117845000D01*
X188705000Y-117845000D01*
D12*
%TO.P,R71,1,1*%
X188270000Y-118300000D03*
D13*
%TO.P,R71,2,2*%
X187330000Y-118300000D03*
%TD*%
D10*
%TO.C,R91*%
%TO.CFtp,RESC2012X60N*%
%TO.CVal,R0805_135K_0.1\u0025_0.1W_25PPM_KOA_RN73R2ATTD1353B25*%
%TO.CLbN,Resistors SMD*%
%TO.CMnt,SMD*%
%TO.CRot,90*%
X129200000Y-128500000D03*
D11*
X130145000Y-126755000D02*
X130145000Y-130245000D01*
X128255000Y-130245000D01*
X128255000Y-126755000D01*
X130145000Y-126755000D01*
D12*
%TO.P,R91,1,1*%
X129200000Y-127500000D03*
D13*
%TO.P,R91,2,2*%
X129200000Y-129500000D03*
%TD*%
D10*
%TO.C,R170*%
%TO.CFtp,RESC1005X40N*%
%TO.CVal,R0402_100K_1\u0025_0.0625W_100PPM*%
%TO.CLbN,Resistors SMD*%
%TO.CMnt,SMD*%
%TO.CRot,90*%
X164400000Y-62000000D03*
D11*
X164855000Y-61095000D02*
X164855000Y-62905000D01*
X163945000Y-62905000D01*
X163945000Y-61095000D01*
X164855000Y-61095000D01*
D12*
%TO.P,R170,1,1*%
X164400000Y-61530000D03*
D13*
%TO.P,R170,2,2*%
X164400000Y-62470000D03*
%TD*%
D10*
%TO.C,C91*%
%TO.CFtp,CAPC0603X33N*%
%TO.CVal,CC0201_470NF_4V_20\u0025_X5R*%
%TO.CLbN,Capacitors SMD*%
%TO.CMnt,SMD*%
%TO.CRot,180*%
X190200000Y-95350000D03*
D11*
X190845000Y-95105000D02*
X190845000Y-95595000D01*
X189555000Y-95595000D01*
X189555000Y-95105000D01*
X190845000Y-95105000D01*
D12*
%TO.P,C91,1,1*%
X189850000Y-95350000D03*
D13*
%TO.P,C91,2,2*%
X190550000Y-95350000D03*
%TD*%
D10*
%TO.C,C233*%
%TO.CFtp,CAPC0603X33N*%
%TO.CVal,CC0201_47NF_6.3V_10\u0025_X5R*%
%TO.CLbN,Capacitors SMD*%
%TO.CMnt,SMD*%
%TO.CRot,-90*%
X192500000Y-115300000D03*
D11*
X192745000Y-114655000D02*
X192745000Y-115945000D01*
X192255000Y-115945000D01*
X192255000Y-114655000D01*
X192745000Y-114655000D01*
D12*
%TO.P,C233,1,1*%
X192500000Y-115650000D03*
D13*
%TO.P,C233,2,2*%
X192500000Y-114950000D03*
%TD*%
D10*
%TO.C,R52*%
%TO.CFtp,RESC1005X40N*%
%TO.CVal,R0402_40R2_1\u0025_0.0625W_100PPM*%
%TO.CLbN,Resistors SMD*%
%TO.CMnt,SMD*%
%TO.CRot,90*%
X198500000Y-127100000D03*
D11*
X198955000Y-126195000D02*
X198955000Y-128005000D01*
X198045000Y-128005000D01*
X198045000Y-126195000D01*
X198955000Y-126195000D01*
D12*
%TO.P,R52,1,1*%
X198500000Y-126630000D03*
D13*
%TO.P,R52,2,2*%
X198500000Y-127570000D03*
%TD*%
D10*
%TO.C,C36*%
%TO.CFtp,CAPC2012X135N*%
%TO.CVal,CC0805_22UF_16V_10\u0025_X5R*%
%TO.CLbN,Capacitors SMD*%
%TO.CMnt,SMD*%
%TO.CRot,90*%
X141800000Y-58000000D03*
D11*
X142745000Y-56305000D02*
X142745000Y-59695000D01*
X140855000Y-59695000D01*
X140855000Y-56305000D01*
X142745000Y-56305000D01*
D12*
%TO.P,C36,1,1*%
X141800000Y-57100000D03*
D13*
%TO.P,C36,2,2*%
X141800000Y-58900000D03*
%TD*%
D10*
%TO.C,Y5*%
%TO.CFtp,XTAL_TXC_7A*%
%TO.CVal,XTAL_12MHZ_TXC_7A-12.000MAAJ-T*%
%TO.CLbN,ICs And Semiconductors SMD*%
%TO.CMnt,SMD*%
%TO.CRot,-90*%
X123900000Y-114300000D03*
D11*
X125745000Y-111355000D02*
X125745000Y-117245000D01*
X122055000Y-117245000D01*
X122055000Y-111355000D01*
X125745000Y-111355000D01*
D12*
%TO.P,Y5,1,OSC1*%
X123900000Y-116150000D03*
D13*
%TO.P,Y5,2,OSC2*%
X123900000Y-112450000D03*
%TD*%
D10*
%TO.C,L11*%
%TO.CFtp,INDC1608X95N*%
%TO.CVal,IND0603_MURATA_BLM18AG601SN1*%
%TO.CLbN,Inductors SMD*%
%TO.CMnt,SMD*%
%TO.CRot,-90*%
X193300000Y-106000000D03*
D11*
X194045000Y-104455000D02*
X194045000Y-107545000D01*
X192555000Y-107545000D01*
X192555000Y-104455000D01*
X194045000Y-104455000D01*
D12*
%TO.P,L11,1,1*%
X193300000Y-106800000D03*
D13*
%TO.P,L11,2,2*%
X193300000Y-105200000D03*
%TD*%
D10*
%TO.C,C8*%
%TO.CFtp,CAPC1005X55N*%
%TO.CVal,CC0402_100NF_50V_10\u0025_X7R*%
%TO.CLbN,Capacitors SMD*%
%TO.CMnt,SMD*%
%TO.CRot,0*%
X150000000Y-105500000D03*
D11*
X150905000Y-105045000D02*
X150905000Y-105955000D01*
X149095000Y-105955000D01*
X149095000Y-105045000D01*
X150905000Y-105045000D01*
D12*
%TO.P,C8,1,1*%
X150450000Y-105500000D03*
D13*
%TO.P,C8,2,2*%
X149550000Y-105500000D03*
%TD*%
D10*
%TO.C,C106*%
%TO.CFtp,CAPC1005X55N*%
%TO.CVal,CC0402_4.7UF_16V_20\u0025_X5R*%
%TO.CLbN,Capacitors SMD*%
%TO.CMnt,SMD*%
%TO.CRot,0*%
X195600000Y-95300000D03*
D11*
X196505000Y-94845000D02*
X196505000Y-95755000D01*
X194695000Y-95755000D01*
X194695000Y-94845000D01*
X196505000Y-94845000D01*
D12*
%TO.P,C106,1,1*%
X196050000Y-95300000D03*
D13*
%TO.P,C106,2,2*%
X195150000Y-95300000D03*
%TD*%
D10*
%TO.C,C70*%
%TO.CFtp,CAPC1005X55N*%
%TO.CVal,CC0402_100NF_50V_10\u0025_X7R*%
%TO.CLbN,Capacitors SMD*%
%TO.CMnt,SMD*%
%TO.CRot,-90*%
X112750000Y-111350000D03*
D11*
X113205000Y-110445000D02*
X113205000Y-112255000D01*
X112295000Y-112255000D01*
X112295000Y-110445000D01*
X113205000Y-110445000D01*
D12*
%TO.P,C70,1,1*%
X112750000Y-111800000D03*
D13*
%TO.P,C70,2,2*%
X112750000Y-110900000D03*
%TD*%
D10*
%TO.C,R108*%
%TO.CFtp,RESC1005X40N*%
%TO.CVal,R0402_0R_JUMPER*%
%TO.CLbN,Resistors SMD*%
%TO.CMnt,SMD*%
%TO.CRot,-90*%
X159400000Y-126100000D03*
D11*
X159855000Y-125195000D02*
X159855000Y-127005000D01*
X158945000Y-127005000D01*
X158945000Y-125195000D01*
X159855000Y-125195000D01*
D12*
%TO.P,R108,1,1*%
X159400000Y-126570000D03*
D13*
%TO.P,R108,2,2*%
X159400000Y-125630000D03*
%TD*%
D10*
%TO.C,R13*%
%TO.CFtp,RESC1005X40N*%
%TO.CVal,R0402_4K7_1\u0025_0.0625W_100PPM*%
%TO.CLbN,Resistors SMD*%
%TO.CMnt,SMD*%
%TO.CRot,0*%
X152800000Y-110000000D03*
D11*
X153705000Y-109545000D02*
X153705000Y-110455000D01*
X151895000Y-110455000D01*
X151895000Y-109545000D01*
X153705000Y-109545000D01*
D12*
%TO.P,R13,1,1*%
X153270000Y-110000000D03*
D13*
%TO.P,R13,2,2*%
X152330000Y-110000000D03*
%TD*%
D10*
%TO.C,R10*%
%TO.CFtp,RESC1005X40N*%
%TO.CVal,R0402_4K7_1\u0025_0.0625W_100PPM*%
%TO.CLbN,Resistors SMD*%
%TO.CMnt,SMD*%
%TO.CRot,0*%
X152800000Y-109000000D03*
D11*
X153705000Y-108545000D02*
X153705000Y-109455000D01*
X151895000Y-109455000D01*
X151895000Y-108545000D01*
X153705000Y-108545000D01*
D12*
%TO.P,R10,1,1*%
X153270000Y-109000000D03*
D13*
%TO.P,R10,2,2*%
X152330000Y-109000000D03*
%TD*%
D10*
%TO.C,J11*%
%TO.CFtp,TYCO_1367073-1*%
%TO.CVal,TYCO_1888247-1*%
%TO.CLbN,TYCO SMD*%
%TO.CMnt,SMD*%
%TO.CRot,180*%
X145400000Y-69070000D03*
D14*
X140300000Y-74640000D02*
X140300000Y-63490000D01*
X150500000Y-63490000D01*
X150500000Y-74640000D01*
X140300000Y-74640000D01*
D12*
%TO.P,J11,1,VEET*%
X141300000Y-72465000D03*
D13*
%TO.P,J11,*%
X145400000Y-64265000D03*
X145400000Y-73865000D03*
%TO.P,J11,2,TX_FAULT*%
X141300000Y-71665000D03*
%TO.P,J11,3,TX_DISABLE*%
X141300000Y-70865000D03*
%TO.P,J11,4,SDA*%
X141300000Y-70065000D03*
%TO.P,J11,5,SCL*%
X141300000Y-69265000D03*
%TO.P,J11,6,MOD_ABS*%
X141300000Y-68465000D03*
%TO.P,J11,7,RS0*%
X141300000Y-67665000D03*
%TO.P,J11,8,LOS*%
X141300000Y-66865000D03*
%TO.P,J11,9,RS1*%
X141300000Y-66065000D03*
%TO.P,J11,10,VEER*%
X141300000Y-65265000D03*
%TO.P,J11,11,VEER*%
X149500000Y-65665000D03*
%TO.P,J11,12,RD-*%
X149500000Y-66465000D03*
%TO.P,J11,13,RD+*%
X149500000Y-67265000D03*
%TO.P,J11,14,VEER*%
X149500000Y-68065000D03*
%TO.P,J11,15,VCCR*%
X149500000Y-68865000D03*
%TO.P,J11,16,VCCT*%
X149500000Y-69665000D03*
%TO.P,J11,17,VEET*%
X149500000Y-70465000D03*
%TO.P,J11,18,TD+*%
X149500000Y-71265000D03*
%TO.P,J11,19,TD-*%
X149500000Y-72065000D03*
%TO.P,J11,20,VEET*%
X149500000Y-72865000D03*
%TD*%
D10*
%TO.C,C246*%
%TO.CFtp,CAPC0603X33N*%
%TO.CVal,CC0201_470NF_4V_20\u0025_X5R*%
%TO.CLbN,Capacitors SMD*%
%TO.CMnt,SMD*%
%TO.CRot,-90*%
X191400000Y-124200000D03*
D11*
X191645000Y-123555000D02*
X191645000Y-124845000D01*
X191155000Y-124845000D01*
X191155000Y-123555000D01*
X191645000Y-123555000D01*
D12*
%TO.P,C246,1,1*%
X191400000Y-124550000D03*
D13*
%TO.P,C246,2,2*%
X191400000Y-123850000D03*
%TD*%
D10*
%TO.C,C71*%
%TO.CFtp,CAPC1005X55N*%
%TO.CVal,CC0402_27PF_50V_5\u0025_C0G*%
%TO.CLbN,Capacitors SMD*%
%TO.CMnt,SMD*%
%TO.CRot,-90*%
X121500000Y-116300000D03*
D11*
X121955000Y-115395000D02*
X121955000Y-117205000D01*
X121045000Y-117205000D01*
X121045000Y-115395000D01*
X121955000Y-115395000D01*
D12*
%TO.P,C71,1,1*%
X121500000Y-116750000D03*
D13*
%TO.P,C71,2,2*%
X121500000Y-115850000D03*
%TD*%
D10*
%TO.C,C129*%
%TO.CFtp,CAPC0603X33N*%
%TO.CVal,CC0201_47NF_6.3V_10\u0025_X5R*%
%TO.CLbN,Capacitors SMD*%
%TO.CMnt,SMD*%
%TO.CRot,0*%
X192600000Y-93200000D03*
D11*
X193245000Y-92955000D02*
X193245000Y-93445000D01*
X191955000Y-93445000D01*
X191955000Y-92955000D01*
X193245000Y-92955000D01*
D12*
%TO.P,C129,1,1*%
X192950000Y-93200000D03*
D13*
%TO.P,C129,2,2*%
X192250000Y-93200000D03*
%TD*%
D10*
%TO.C,C99*%
%TO.CFtp,CAPC0603X33N*%
%TO.CVal,CC0201_47NF_6.3V_10\u0025_X5R*%
%TO.CLbN,Capacitors SMD*%
%TO.CMnt,SMD*%
%TO.CRot,90*%
X188100000Y-91900000D03*
D11*
X188345000Y-91255000D02*
X188345000Y-92545000D01*
X187855000Y-92545000D01*
X187855000Y-91255000D01*
X188345000Y-91255000D01*
D12*
%TO.P,C99,1,1*%
X188100000Y-91550000D03*
D13*
%TO.P,C99,2,2*%
X188100000Y-92250000D03*
%TD*%
D10*
%TO.C,R114*%
%TO.CFtp,RESC1005X40N*%
%TO.CVal,R0402_100R_1\u0025_0.1W_100PPM*%
%TO.CLbN,Resistors SMD*%
%TO.CMnt,SMD*%
%TO.CRot,90*%
X175900000Y-101100000D03*
D11*
X176355000Y-100195000D02*
X176355000Y-102005000D01*
X175445000Y-102005000D01*
X175445000Y-100195000D01*
X176355000Y-100195000D01*
D12*
%TO.P,R114,1,1*%
X175900000Y-100630000D03*
D13*
%TO.P,R114,2,2*%
X175900000Y-101570000D03*
%TD*%
D10*
%TO.C,Y1*%
%TO.CFtp,OSC_ABRACON_ASEMPC*%
%TO.CVal,OSC_25MHZ_RAKON_IVT3205CR*%
%TO.CLbN,ICs And Semiconductors SMD*%
%TO.CMnt,SMD*%
%TO.CRot,0*%
X164950000Y-115150000D03*
D11*
X166645000Y-113305000D02*
X166645000Y-116995000D01*
X163255000Y-116995000D01*
X163255000Y-113305000D01*
X166645000Y-113305000D01*
D12*
%TO.P,Y1,1,VCO*%
X165900000Y-114100000D03*
D13*
%TO.P,Y1,3,GND*%
X165900000Y-116200000D03*
%TO.P,Y1,4,OUT*%
X164000000Y-116200000D03*
%TO.P,Y1,6,VDD*%
X164000000Y-114100000D03*
%TD*%
D10*
%TO.C,C151*%
%TO.CFtp,CAPC1005X70N*%
%TO.CVal,CC0402_10UF_6.3V_20\u0025_X5R*%
%TO.CLbN,Capacitors SMD*%
%TO.CMnt,SMD*%
%TO.CRot,-90*%
X188000000Y-105200000D03*
D11*
X188505000Y-104235000D02*
X188505000Y-106165000D01*
X187495000Y-106165000D01*
X187495000Y-104235000D01*
X188505000Y-104235000D01*
D12*
%TO.P,C151,1,1*%
X188000000Y-105660000D03*
D13*
%TO.P,C151,2,2*%
X188000000Y-104740000D03*
%TD*%
D10*
%TO.C,C229*%
%TO.CFtp,CAPC0603X33N*%
%TO.CVal,CC0201_47NF_6.3V_10\u0025_X5R*%
%TO.CLbN,Capacitors SMD*%
%TO.CMnt,SMD*%
%TO.CRot,0*%
X197700000Y-112200000D03*
D11*
X198345000Y-111955000D02*
X198345000Y-112445000D01*
X197055000Y-112445000D01*
X197055000Y-111955000D01*
X198345000Y-111955000D01*
D12*
%TO.P,C229,1,1*%
X198050000Y-112200000D03*
D13*
%TO.P,C229,2,2*%
X197350000Y-112200000D03*
%TD*%
D10*
%TO.C,C158*%
%TO.CFtp,CAPC0603X33N*%
%TO.CVal,CC0201_100NF_6.3V_10\u0025_X5R*%
%TO.CLbN,Capacitors SMD*%
%TO.CMnt,SMD*%
%TO.CRot,135*%
X179700000Y-99100000D03*
D11*
X180329324Y-99382843D02*
X179982843Y-99729324D01*
X179070676Y-98817157D01*
X179417157Y-98470676D01*
X180329324Y-99382843D01*
D12*
%TO.P,C158,1,1*%
X179452513Y-98852513D03*
D13*
%TO.P,C158,2,2*%
X179947487Y-99347487D03*
%TD*%
D10*
%TO.C,C133*%
%TO.CFtp,CAPC1005X55N*%
%TO.CVal,CC0402_4.7UF_16V_20\u0025_X5R*%
%TO.CLbN,Capacitors SMD*%
%TO.CMnt,SMD*%
%TO.CRot,0*%
X197000000Y-90300000D03*
D11*
X197905000Y-89845000D02*
X197905000Y-90755000D01*
X196095000Y-90755000D01*
X196095000Y-89845000D01*
X197905000Y-89845000D01*
D12*
%TO.P,C133,1,1*%
X197450000Y-90300000D03*
D13*
%TO.P,C133,2,2*%
X196550000Y-90300000D03*
%TD*%
D10*
%TO.C,C125*%
%TO.CFtp,CAPC0603X33N*%
%TO.CVal,CC0201_470NF_4V_20\u0025_X5R*%
%TO.CLbN,Capacitors SMD*%
%TO.CMnt,SMD*%
%TO.CRot,180*%
X179000000Y-89000000D03*
D11*
X179645000Y-88755000D02*
X179645000Y-89245000D01*
X178355000Y-89245000D01*
X178355000Y-88755000D01*
X179645000Y-88755000D01*
D12*
%TO.P,C125,1,1*%
X178650000Y-89000000D03*
D13*
%TO.P,C125,2,2*%
X179350000Y-89000000D03*
%TD*%
D10*
%TO.C,R50*%
%TO.CFtp,RESC1005X40N*%
%TO.CVal,R0402_40R2_1\u0025_0.0625W_100PPM*%
%TO.CLbN,Resistors SMD*%
%TO.CMnt,SMD*%
%TO.CRot,90*%
X193500000Y-127100000D03*
D11*
X193955000Y-126195000D02*
X193955000Y-128005000D01*
X193045000Y-128005000D01*
X193045000Y-126195000D01*
X193955000Y-126195000D01*
D12*
%TO.P,R50,1,1*%
X193500000Y-126630000D03*
D13*
%TO.P,R50,2,2*%
X193500000Y-127570000D03*
%TD*%
D10*
%TO.C,R172*%
%TO.CFtp,RESC1005X40N*%
%TO.CVal,R0402_100K_1\u0025_0.0625W_100PPM*%
%TO.CLbN,Resistors SMD*%
%TO.CMnt,SMD*%
%TO.CRot,90*%
X166400000Y-62000000D03*
D11*
X166855000Y-61095000D02*
X166855000Y-62905000D01*
X165945000Y-62905000D01*
X165945000Y-61095000D01*
X166855000Y-61095000D01*
D12*
%TO.P,R172,1,1*%
X166400000Y-61530000D03*
D13*
%TO.P,R172,2,2*%
X166400000Y-62470000D03*
%TD*%
D10*
%TO.C,C135*%
%TO.CFtp,CAPC0603X33N*%
%TO.CVal,CC0201_470NF_4V_20\u0025_X5R*%
%TO.CLbN,Capacitors SMD*%
%TO.CMnt,SMD*%
%TO.CRot,90*%
X184900000Y-89500000D03*
D11*
X185145000Y-88855000D02*
X185145000Y-90145000D01*
X184655000Y-90145000D01*
X184655000Y-88855000D01*
X185145000Y-88855000D01*
D12*
%TO.P,C135,1,1*%
X184900000Y-89150000D03*
D13*
%TO.P,C135,2,2*%
X184900000Y-89850000D03*
%TD*%
D10*
%TO.C,C113*%
%TO.CFtp,CAPC0603X33N*%
%TO.CVal,CC0201_470NF_4V_20\u0025_X5R*%
%TO.CLbN,Capacitors SMD*%
%TO.CMnt,SMD*%
%TO.CRot,180*%
X189950000Y-91300000D03*
D11*
X190595000Y-91055000D02*
X190595000Y-91545000D01*
X189305000Y-91545000D01*
X189305000Y-91055000D01*
X190595000Y-91055000D01*
D12*
%TO.P,C113,1,1*%
X189600000Y-91300000D03*
D13*
%TO.P,C113,2,2*%
X190300000Y-91300000D03*
%TD*%
D10*
%TO.C,R92*%
%TO.CFtp,RESC1005X40N*%
%TO.CVal,R0402_30K_1\u0025_0.0625W_100PPM*%
%TO.CLbN,Resistors SMD*%
%TO.CMnt,SMD*%
%TO.CRot,-90*%
X130800000Y-128900000D03*
D11*
X131255000Y-127995000D02*
X131255000Y-129805000D01*
X130345000Y-129805000D01*
X130345000Y-127995000D01*
X131255000Y-127995000D01*
D12*
%TO.P,R92,1,1*%
X130800000Y-129370000D03*
D13*
%TO.P,R92,2,2*%
X130800000Y-128430000D03*
%TD*%
D10*
%TO.C,C97*%
%TO.CFtp,CAPC0603X33N*%
%TO.CVal,CC0201_47NF_6.3V_10\u0025_X5R*%
%TO.CLbN,Capacitors SMD*%
%TO.CMnt,SMD*%
%TO.CRot,180*%
X189450000Y-92200000D03*
D11*
X190095000Y-91955000D02*
X190095000Y-92445000D01*
X188805000Y-92445000D01*
X188805000Y-91955000D01*
X190095000Y-91955000D01*
D12*
%TO.P,C97,1,1*%
X189100000Y-92200000D03*
D13*
%TO.P,C97,2,2*%
X189800000Y-92200000D03*
%TD*%
D10*
%TO.C,C162*%
%TO.CFtp,CAPC1005X55N*%
%TO.CVal,CC0402_4.7UF_16V_20\u0025_X5R*%
%TO.CLbN,Capacitors SMD*%
%TO.CMnt,SMD*%
%TO.CRot,180*%
X177600000Y-99800000D03*
D11*
X178505000Y-99345000D02*
X178505000Y-100255000D01*
X176695000Y-100255000D01*
X176695000Y-99345000D01*
X178505000Y-99345000D01*
D12*
%TO.P,C162,1,1*%
X177150000Y-99800000D03*
D13*
%TO.P,C162,2,2*%
X178050000Y-99800000D03*
%TD*%
D10*
%TO.C,C67*%
%TO.CFtp,CAPC1005X55N*%
%TO.CVal,CC0402_100NF_50V_10\u0025_X7R*%
%TO.CLbN,Capacitors SMD*%
%TO.CMnt,SMD*%
%TO.CRot,90*%
X192900000Y-130200000D03*
D11*
X193355000Y-129295000D02*
X193355000Y-131105000D01*
X192445000Y-131105000D01*
X192445000Y-129295000D01*
X193355000Y-129295000D01*
D12*
%TO.P,C67,1,1*%
X192900000Y-129750000D03*
D13*
%TO.P,C67,2,2*%
X192900000Y-130650000D03*
%TD*%
D10*
%TO.C,R164*%
%TO.CFtp,RESC1005X40N*%
%TO.CVal,R0402_100K_1\u0025_0.0625W_100PPM*%
%TO.CLbN,Resistors SMD*%
%TO.CMnt,SMD*%
%TO.CRot,90*%
X176200000Y-62200000D03*
D11*
X176655000Y-61295000D02*
X176655000Y-63105000D01*
X175745000Y-63105000D01*
X175745000Y-61295000D01*
X176655000Y-61295000D01*
D12*
%TO.P,R164,1,1*%
X176200000Y-61730000D03*
D13*
%TO.P,R164,2,2*%
X176200000Y-62670000D03*
%TD*%
D10*
%TO.C,C243*%
%TO.CFtp,CAPC0603X33N*%
%TO.CVal,CC0201_47NF_6.3V_10\u0025_X5R*%
%TO.CLbN,Capacitors SMD*%
%TO.CMnt,SMD*%
%TO.CRot,0*%
X196700000Y-118100000D03*
D11*
X197345000Y-117855000D02*
X197345000Y-118345000D01*
X196055000Y-118345000D01*
X196055000Y-117855000D01*
X197345000Y-117855000D01*
D12*
%TO.P,C243,1,1*%
X197050000Y-118100000D03*
D13*
%TO.P,C243,2,2*%
X196350000Y-118100000D03*
%TD*%
D10*
%TO.C,C98*%
%TO.CFtp,CAPC0603X33N*%
%TO.CVal,CC0201_47NF_6.3V_10\u0025_X5R*%
%TO.CLbN,Capacitors SMD*%
%TO.CMnt,SMD*%
%TO.CRot,90*%
X184100000Y-93500000D03*
D11*
X184345000Y-92855000D02*
X184345000Y-94145000D01*
X183855000Y-94145000D01*
X183855000Y-92855000D01*
X184345000Y-92855000D01*
D12*
%TO.P,C98,1,1*%
X184100000Y-93150000D03*
D13*
%TO.P,C98,2,2*%
X184100000Y-93850000D03*
%TD*%
D10*
%TO.C,C231*%
%TO.CFtp,CAPC0603X33N*%
%TO.CVal,CC0201_47NF_6.3V_10\u0025_X5R*%
%TO.CLbN,Capacitors SMD*%
%TO.CMnt,SMD*%
%TO.CRot,-90*%
X191600000Y-112800000D03*
D11*
X191845000Y-112155000D02*
X191845000Y-113445000D01*
X191355000Y-113445000D01*
X191355000Y-112155000D01*
X191845000Y-112155000D01*
D12*
%TO.P,C231,1,1*%
X191600000Y-113150000D03*
D13*
%TO.P,C231,2,2*%
X191600000Y-112450000D03*
%TD*%
D10*
%TO.C,C102*%
%TO.CFtp,CAPC0603X33N*%
%TO.CVal,CC0201_47NF_6.3V_10\u0025_X5R*%
%TO.CLbN,Capacitors SMD*%
%TO.CMnt,SMD*%
%TO.CRot,180*%
X182900000Y-95500000D03*
D11*
X183545000Y-95255000D02*
X183545000Y-95745000D01*
X182255000Y-95745000D01*
X182255000Y-95255000D01*
X183545000Y-95255000D01*
D12*
%TO.P,C102,1,1*%
X182550000Y-95500000D03*
D13*
%TO.P,C102,2,2*%
X183250000Y-95500000D03*
%TD*%
D10*
%TO.C,C152*%
%TO.CFtp,CAPC1005X70N*%
%TO.CVal,CC0402_10UF_6.3V_20\u0025_X5R*%
%TO.CLbN,Capacitors SMD*%
%TO.CMnt,SMD*%
%TO.CRot,-90*%
X189400000Y-108400000D03*
D11*
X189905000Y-107435000D02*
X189905000Y-109365000D01*
X188895000Y-109365000D01*
X188895000Y-107435000D01*
X189905000Y-107435000D01*
D12*
%TO.P,C152,1,1*%
X189400000Y-108860000D03*
D13*
%TO.P,C152,2,2*%
X189400000Y-107940000D03*
%TD*%
D10*
%TO.C,R100*%
%TO.CFtp,RESC1005X40N*%
%TO.CVal,R0402_30K_1\u0025_0.0625W_100PPM*%
%TO.CLbN,Resistors SMD*%
%TO.CMnt,SMD*%
%TO.CRot,180*%
X182250000Y-132000000D03*
D11*
X183155000Y-131545000D02*
X183155000Y-132455000D01*
X181345000Y-132455000D01*
X181345000Y-131545000D01*
X183155000Y-131545000D01*
D12*
%TO.P,R100,1,1*%
X181780000Y-132000000D03*
D13*
%TO.P,R100,2,2*%
X182720000Y-132000000D03*
%TD*%
D10*
%TO.C,C237*%
%TO.CFtp,CAPC0603X33N*%
%TO.CVal,CC0201_47NF_6.3V_10\u0025_X5R*%
%TO.CLbN,Capacitors SMD*%
%TO.CMnt,SMD*%
%TO.CRot,180*%
X197800000Y-114800000D03*
D11*
X198445000Y-114555000D02*
X198445000Y-115045000D01*
X197155000Y-115045000D01*
X197155000Y-114555000D01*
X198445000Y-114555000D01*
D12*
%TO.P,C237,1,1*%
X197450000Y-114800000D03*
D13*
%TO.P,C237,2,2*%
X198150000Y-114800000D03*
%TD*%
D10*
%TO.C,C61*%
%TO.CFtp,CAPC1005X55N*%
%TO.CVal,CC0402_4.7UF_16V_20\u0025_X5R*%
%TO.CLbN,Capacitors SMD*%
%TO.CMnt,SMD*%
%TO.CRot,90*%
X195800000Y-115900000D03*
D11*
X196255000Y-114995000D02*
X196255000Y-116805000D01*
X195345000Y-116805000D01*
X195345000Y-114995000D01*
X196255000Y-114995000D01*
D12*
%TO.P,C61,1,1*%
X195800000Y-115450000D03*
D13*
%TO.P,C61,2,2*%
X195800000Y-116350000D03*
%TD*%
D10*
%TO.C,C93*%
%TO.CFtp,CAPC0603X33N*%
%TO.CVal,CC0201_470NF_4V_20\u0025_X5R*%
%TO.CLbN,Capacitors SMD*%
%TO.CMnt,SMD*%
%TO.CRot,180*%
X182900000Y-97100000D03*
D11*
X183545000Y-96855000D02*
X183545000Y-97345000D01*
X182255000Y-97345000D01*
X182255000Y-96855000D01*
X183545000Y-96855000D01*
D12*
%TO.P,C93,1,1*%
X182550000Y-97100000D03*
D13*
%TO.P,C93,2,2*%
X183250000Y-97100000D03*
%TD*%
D10*
%TO.C,C163*%
%TO.CFtp,CAPC0603X33N*%
%TO.CVal,CC0201_100NF_6.3V_10\u0025_X5R*%
%TO.CLbN,Capacitors SMD*%
%TO.CMnt,SMD*%
%TO.CRot,90*%
X182700000Y-101700000D03*
D11*
X182945000Y-101055000D02*
X182945000Y-102345000D01*
X182455000Y-102345000D01*
X182455000Y-101055000D01*
X182945000Y-101055000D01*
D12*
%TO.P,C163,1,1*%
X182700000Y-101350000D03*
D13*
%TO.P,C163,2,2*%
X182700000Y-102050000D03*
%TD*%
D10*
%TO.C,R142*%
%TO.CFtp,RESC1005X40N*%
%TO.CVal,R0402_4K7_1\u0025_0.0625W_100PPM*%
%TO.CLbN,Resistors SMD*%
%TO.CMnt,SMD*%
%TO.CRot,90*%
X182250000Y-116165000D03*
D11*
X182705000Y-115260000D02*
X182705000Y-117070000D01*
X181795000Y-117070000D01*
X181795000Y-115260000D01*
X182705000Y-115260000D01*
D12*
%TO.P,R142,1,1*%
X182250000Y-115695000D03*
D13*
%TO.P,R142,2,2*%
X182250000Y-116635000D03*
%TD*%
D10*
%TO.C,C41*%
%TO.CFtp,CAPC1005X55N*%
%TO.CVal,CC0402_100NF_50V_10\u0025_X7R*%
%TO.CLbN,Capacitors SMD*%
%TO.CMnt,SMD*%
%TO.CRot,-90*%
X139400000Y-93300000D03*
D11*
X139855000Y-92395000D02*
X139855000Y-94205000D01*
X138945000Y-94205000D01*
X138945000Y-92395000D01*
X139855000Y-92395000D01*
D12*
%TO.P,C41,1,1*%
X139400000Y-93750000D03*
D13*
%TO.P,C41,2,2*%
X139400000Y-92850000D03*
%TD*%
D10*
%TO.C,C241*%
%TO.CFtp,CAPC0603X33N*%
%TO.CVal,CC0201_47NF_6.3V_10\u0025_X5R*%
%TO.CLbN,Capacitors SMD*%
%TO.CMnt,SMD*%
%TO.CRot,90*%
X199200000Y-123300000D03*
D11*
X199445000Y-122655000D02*
X199445000Y-123945000D01*
X198955000Y-123945000D01*
X198955000Y-122655000D01*
X199445000Y-122655000D01*
D12*
%TO.P,C241,1,1*%
X199200000Y-122950000D03*
D13*
%TO.P,C241,2,2*%
X199200000Y-123650000D03*
%TD*%
D10*
%TO.C,C101*%
%TO.CFtp,CAPC0603X33N*%
%TO.CVal,CC0201_47NF_6.3V_10\u0025_X5R*%
%TO.CLbN,Capacitors SMD*%
%TO.CMnt,SMD*%
%TO.CRot,-90*%
X184900000Y-97500000D03*
D11*
X185145000Y-96855000D02*
X185145000Y-98145000D01*
X184655000Y-98145000D01*
X184655000Y-96855000D01*
X185145000Y-96855000D01*
D12*
%TO.P,C101,1,1*%
X184900000Y-97850000D03*
D13*
%TO.P,C101,2,2*%
X184900000Y-97150000D03*
%TD*%
D10*
%TO.C,C156*%
%TO.CFtp,CAPC1005X55N*%
%TO.CVal,CC0402_4.7UF_16V_20\u0025_X5R*%
%TO.CLbN,Capacitors SMD*%
%TO.CMnt,SMD*%
%TO.CRot,180*%
X173600000Y-94500000D03*
D11*
X174505000Y-94045000D02*
X174505000Y-94955000D01*
X172695000Y-94955000D01*
X172695000Y-94045000D01*
X174505000Y-94045000D01*
D12*
%TO.P,C156,1,1*%
X173150000Y-94500000D03*
D13*
%TO.P,C156,2,2*%
X174050000Y-94500000D03*
%TD*%
D10*
%TO.C,C157*%
%TO.CFtp,CAPC0603X33N*%
%TO.CVal,CC0201_100NF_6.3V_10\u0025_X5R*%
%TO.CLbN,Capacitors SMD*%
%TO.CMnt,SMD*%
%TO.CRot,90*%
X180900000Y-98300000D03*
D11*
X181145000Y-97655000D02*
X181145000Y-98945000D01*
X180655000Y-98945000D01*
X180655000Y-97655000D01*
X181145000Y-97655000D01*
D12*
%TO.P,C157,1,1*%
X180900000Y-97950000D03*
D13*
%TO.P,C157,2,2*%
X180900000Y-98650000D03*
%TD*%
D10*
%TO.C,C160*%
%TO.CFtp,CAPC0603X33N*%
%TO.CVal,CC0201_100NF_6.3V_10\u0025_X5R*%
%TO.CLbN,Capacitors SMD*%
%TO.CMnt,SMD*%
%TO.CRot,90*%
X183300000Y-98300000D03*
D11*
X183545000Y-97655000D02*
X183545000Y-98945000D01*
X183055000Y-98945000D01*
X183055000Y-97655000D01*
X183545000Y-97655000D01*
D12*
%TO.P,C160,1,1*%
X183300000Y-97950000D03*
D13*
%TO.P,C160,2,2*%
X183300000Y-98650000D03*
%TD*%
D10*
%TO.C,C140*%
%TO.CFtp,CAPC0603X33N*%
%TO.CVal,CC0201_47NF_6.3V_10\u0025_X5R*%
%TO.CLbN,Capacitors SMD*%
%TO.CMnt,SMD*%
%TO.CRot,-90*%
X191300000Y-91000000D03*
D11*
X191545000Y-90355000D02*
X191545000Y-91645000D01*
X191055000Y-91645000D01*
X191055000Y-90355000D01*
X191545000Y-90355000D01*
D12*
%TO.P,C140,1,1*%
X191300000Y-91350000D03*
D13*
%TO.P,C140,2,2*%
X191300000Y-90650000D03*
%TD*%
D10*
%TO.C,C155*%
%TO.CFtp,CAPC0603X33N*%
%TO.CVal,CC0201_470NF_4V_20\u0025_X5R*%
%TO.CLbN,Capacitors SMD*%
%TO.CMnt,SMD*%
%TO.CRot,180*%
X185300000Y-93900000D03*
D11*
X185945000Y-93655000D02*
X185945000Y-94145000D01*
X184655000Y-94145000D01*
X184655000Y-93655000D01*
X185945000Y-93655000D01*
D12*
%TO.P,C155,1,1*%
X184950000Y-93900000D03*
D13*
%TO.P,C155,2,2*%
X185650000Y-93900000D03*
%TD*%
D10*
%TO.C,R166*%
%TO.CFtp,RESC1005X40N*%
%TO.CVal,R0402_100K_1\u0025_0.0625W_100PPM*%
%TO.CLbN,Resistors SMD*%
%TO.CMnt,SMD*%
%TO.CRot,90*%
X178200000Y-62200000D03*
D11*
X178655000Y-61295000D02*
X178655000Y-63105000D01*
X177745000Y-63105000D01*
X177745000Y-61295000D01*
X178655000Y-61295000D01*
D12*
%TO.P,R166,1,1*%
X178200000Y-61730000D03*
D13*
%TO.P,R166,2,2*%
X178200000Y-62670000D03*
%TD*%
D10*
%TO.C,C132*%
%TO.CFtp,CAPC1005X55N*%
%TO.CVal,CC0402_4.7UF_16V_20\u0025_X5R*%
%TO.CLbN,Capacitors SMD*%
%TO.CMnt,SMD*%
%TO.CRot,0*%
X196200000Y-87600000D03*
D11*
X197105000Y-87145000D02*
X197105000Y-88055000D01*
X195295000Y-88055000D01*
X195295000Y-87145000D01*
X197105000Y-87145000D01*
D12*
%TO.P,C132,1,1*%
X196650000Y-87600000D03*
D13*
%TO.P,C132,2,2*%
X195750000Y-87600000D03*
%TD*%
D10*
%TO.C,R86*%
%TO.CFtp,RESC1005X40N*%
%TO.CVal,R0402_4K7_1\u0025_0.0625W_100PPM*%
%TO.CLbN,Resistors SMD*%
%TO.CMnt,SMD*%
%TO.CRot,-90*%
X182200000Y-84050000D03*
D11*
X182655000Y-83145000D02*
X182655000Y-84955000D01*
X181745000Y-84955000D01*
X181745000Y-83145000D01*
X182655000Y-83145000D01*
D12*
%TO.P,R86,1,1*%
X182200000Y-84520000D03*
D13*
%TO.P,R86,2,2*%
X182200000Y-83580000D03*
%TD*%
D10*
%TO.C,R74*%
%TO.CFtp,RESC1005X40N*%
%TO.CVal,R0402_2K2_1\u0025_0.0625W_100PPM*%
%TO.CLbN,Resistors SMD*%
%TO.CMnt,SMD*%
%TO.CRot,-90*%
X121400000Y-114000000D03*
D11*
X121855000Y-113095000D02*
X121855000Y-114905000D01*
X120945000Y-114905000D01*
X120945000Y-113095000D01*
X121855000Y-113095000D01*
D12*
%TO.P,R74,1,1*%
X121400000Y-114470000D03*
D13*
%TO.P,R74,2,2*%
X121400000Y-113530000D03*
%TD*%
D10*
%TO.C,R17*%
%TO.CFtp,RESC1005X40N*%
%TO.CVal,R0402_4K7_1\u0025_0.0625W_100PPM*%
%TO.CLbN,Resistors SMD*%
%TO.CMnt,SMD*%
%TO.CRot,0*%
X152800000Y-106000000D03*
D11*
X153705000Y-105545000D02*
X153705000Y-106455000D01*
X151895000Y-106455000D01*
X151895000Y-105545000D01*
X153705000Y-105545000D01*
D12*
%TO.P,R17,1,1*%
X153270000Y-106000000D03*
D13*
%TO.P,R17,2,2*%
X152330000Y-106000000D03*
%TD*%
D10*
%TO.C,R94*%
%TO.CFtp,RESC2012X60N*%
%TO.CVal,R0805_135K_0.1\u0025_0.1W_25PPM_KOA_RN73R2ATTD1353B25*%
%TO.CLbN,Resistors SMD*%
%TO.CMnt,SMD*%
%TO.CRot,0*%
X150750000Y-128950000D03*
D11*
X152495000Y-128005000D02*
X152495000Y-129895000D01*
X149005000Y-129895000D01*
X149005000Y-128005000D01*
X152495000Y-128005000D01*
D12*
%TO.P,R94,1,1*%
X151750000Y-128950000D03*
D13*
%TO.P,R94,2,2*%
X149750000Y-128950000D03*
%TD*%
D10*
%TO.C,C178*%
%TO.CFtp,CAPC1005X55N*%
%TO.CVal,CC0402_22PF_50V_5\u0025_C0G*%
%TO.CLbN,Capacitors SMD*%
%TO.CMnt,SMD*%
%TO.CRot,90*%
X146400000Y-128937500D03*
D11*
X146855000Y-128032500D02*
X146855000Y-129842500D01*
X145945000Y-129842500D01*
X145945000Y-128032500D01*
X146855000Y-128032500D01*
D12*
%TO.P,C178,1,1*%
X146400000Y-128487500D03*
D13*
%TO.P,C178,2,2*%
X146400000Y-129387500D03*
%TD*%
D10*
%TO.C,C141*%
%TO.CFtp,CAPC1005X55N*%
%TO.CVal,CC0402_4.7UF_16V_20\u0025_X5R*%
%TO.CLbN,Capacitors SMD*%
%TO.CMnt,SMD*%
%TO.CRot,90*%
X194750000Y-102300000D03*
D11*
X195205000Y-101395000D02*
X195205000Y-103205000D01*
X194295000Y-103205000D01*
X194295000Y-101395000D01*
X195205000Y-101395000D01*
D12*
%TO.P,C141,1,1*%
X194750000Y-101850000D03*
D13*
%TO.P,C141,2,2*%
X194750000Y-102750000D03*
%TD*%
D10*
%TO.C,R2*%
%TO.CFtp,RESC1005X40N*%
%TO.CVal,R0402_10K_1\u0025_0.0625W_100PPM*%
%TO.CLbN,Resistors SMD*%
%TO.CMnt,SMD*%
%TO.CRot,-90*%
X183250000Y-116165000D03*
D11*
X183705000Y-115260000D02*
X183705000Y-117070000D01*
X182795000Y-117070000D01*
X182795000Y-115260000D01*
X183705000Y-115260000D01*
D12*
%TO.P,R2,1,1*%
X183250000Y-116635000D03*
D13*
%TO.P,R2,2,2*%
X183250000Y-115695000D03*
%TD*%
D10*
%TO.C,R62*%
%TO.CFtp,RESC1005X40N*%
%TO.CVal,R0402_40R2_1\u0025_0.0625W_100PPM*%
%TO.CLbN,Resistors SMD*%
%TO.CMnt,SMD*%
%TO.CRot,90*%
X192500000Y-127100000D03*
D11*
X192955000Y-126195000D02*
X192955000Y-128005000D01*
X192045000Y-128005000D01*
X192045000Y-126195000D01*
X192955000Y-126195000D01*
D12*
%TO.P,R62,1,1*%
X192500000Y-126630000D03*
D13*
%TO.P,R62,2,2*%
X192500000Y-127570000D03*
%TD*%
D10*
%TO.C,C35*%
%TO.CFtp,CAPC2012X135N*%
%TO.CVal,CC0805_22UF_16V_10\u0025_X5R*%
%TO.CLbN,Capacitors SMD*%
%TO.CMnt,SMD*%
%TO.CRot,90*%
X149500000Y-58100000D03*
D11*
X150445000Y-56405000D02*
X150445000Y-59795000D01*
X148555000Y-59795000D01*
X148555000Y-56405000D01*
X150445000Y-56405000D01*
D12*
%TO.P,C35,1,1*%
X149500000Y-57200000D03*
D13*
%TO.P,C35,2,2*%
X149500000Y-59000000D03*
%TD*%
D10*
%TO.C,C112*%
%TO.CFtp,CAPC0603X33N*%
%TO.CVal,CC0201_47NF_6.3V_10\u0025_X5R*%
%TO.CLbN,Capacitors SMD*%
%TO.CMnt,SMD*%
%TO.CRot,-90*%
X187300000Y-91900000D03*
D11*
X187545000Y-91255000D02*
X187545000Y-92545000D01*
X187055000Y-92545000D01*
X187055000Y-91255000D01*
X187545000Y-91255000D01*
D12*
%TO.P,C112,1,1*%
X187300000Y-92250000D03*
D13*
%TO.P,C112,2,2*%
X187300000Y-91550000D03*
%TD*%
D10*
%TO.C,R111*%
%TO.CFtp,RESC1005X40N*%
%TO.CVal,R0402_0R_JUMPER*%
%TO.CLbN,Resistors SMD*%
%TO.CMnt,SMD*%
%TO.CRot,-90*%
X157400000Y-126100000D03*
D11*
X157855000Y-125195000D02*
X157855000Y-127005000D01*
X156945000Y-127005000D01*
X156945000Y-125195000D01*
X157855000Y-125195000D01*
D12*
%TO.P,R111,1,1*%
X157400000Y-126570000D03*
D13*
%TO.P,R111,2,2*%
X157400000Y-125630000D03*
%TD*%
D10*
%TO.C,J13*%
%TO.CFtp,TYCO_1888247-1*%
%TO.CVal,TYCO_1888247-1*%
%TO.CLbN,TYCO SMD*%
%TO.CMnt,SMD*%
%TO.CRot,180*%
X145400000Y-83325000D03*
D11*
X150770000Y-77575000D02*
X150770000Y-89065000D01*
X140080000Y-89065000D01*
X140080000Y-77575000D01*
X150770000Y-77575000D01*
D12*
%TO.P,J13,1,VEET*%
X141300000Y-86720000D03*
D13*
%TO.P,J13,*%
X145400000Y-78520000D03*
X145400000Y-88120000D03*
%TO.P,J13,2,TX_FAULT*%
X141300000Y-85920000D03*
%TO.P,J13,3,TX_DISABLE*%
X141300000Y-85120000D03*
%TO.P,J13,4,SDA*%
X141300000Y-84320000D03*
%TO.P,J13,5,SCL*%
X141300000Y-83520000D03*
%TO.P,J13,6,MOD_ABS*%
X141300000Y-82720000D03*
%TO.P,J13,7,RS0*%
X141300000Y-81920000D03*
%TO.P,J13,8,LOS*%
X141300000Y-81120000D03*
%TO.P,J13,9,RS1*%
X141300000Y-80320000D03*
%TO.P,J13,10,VEER*%
X141300000Y-79520000D03*
%TO.P,J13,11,VEER*%
X149500000Y-79920000D03*
%TO.P,J13,12,RD-*%
X149500000Y-80720000D03*
%TO.P,J13,13,RD+*%
X149500000Y-81520000D03*
%TO.P,J13,14,VEER*%
X149500000Y-82320000D03*
%TO.P,J13,15,VCCR*%
X149500000Y-83120000D03*
%TO.P,J13,16,VCCT*%
X149500000Y-83920000D03*
%TO.P,J13,17,VEET*%
X149500000Y-84720000D03*
%TO.P,J13,18,TD+*%
X149500000Y-85520000D03*
%TO.P,J13,19,TD-*%
X149500000Y-86320000D03*
%TO.P,J13,20,VEET*%
X149500000Y-87120000D03*
%TD*%
D10*
%TO.C,R98*%
%TO.CFtp,RESC1005X40N*%
%TO.CVal,R0402_10K_1\u0025_0.0625W_100PPM*%
%TO.CLbN,Resistors SMD*%
%TO.CMnt,SMD*%
%TO.CRot,180*%
X181250000Y-133250000D03*
D11*
X182155000Y-132795000D02*
X182155000Y-133705000D01*
X180345000Y-133705000D01*
X180345000Y-132795000D01*
X182155000Y-132795000D01*
D12*
%TO.P,R98,1,1*%
X180780000Y-133250000D03*
D13*
%TO.P,R98,2,2*%
X181720000Y-133250000D03*
%TD*%
D10*
%TO.C,R109*%
%TO.CFtp,RESC1005X40N*%
%TO.CVal,R0402_0R_JUMPER*%
%TO.CLbN,Resistors SMD*%
%TO.CMnt,SMD*%
%TO.CRot,-90*%
X160400000Y-126100000D03*
D11*
X160855000Y-125195000D02*
X160855000Y-127005000D01*
X159945000Y-127005000D01*
X159945000Y-125195000D01*
X160855000Y-125195000D01*
D12*
%TO.P,R109,1,1*%
X160400000Y-126570000D03*
D13*
%TO.P,R109,2,2*%
X160400000Y-125630000D03*
%TD*%
D10*
%TO.C,C116*%
%TO.CFtp,CAPC0603X33N*%
%TO.CVal,CC0201_470NF_4V_20\u0025_X5R*%
%TO.CLbN,Capacitors SMD*%
%TO.CMnt,SMD*%
%TO.CRot,-90*%
X184900000Y-91900000D03*
D11*
X185145000Y-91255000D02*
X185145000Y-92545000D01*
X184655000Y-92545000D01*
X184655000Y-91255000D01*
X185145000Y-91255000D01*
D12*
%TO.P,C116,1,1*%
X184900000Y-92250000D03*
D13*
%TO.P,C116,2,2*%
X184900000Y-91550000D03*
%TD*%
D10*
%TO.C,R67*%
%TO.CFtp,RESC1005X40N*%
%TO.CVal,R0402_40R2_1\u0025_0.0625W_100PPM*%
%TO.CLbN,Resistors SMD*%
%TO.CMnt,SMD*%
%TO.CRot,90*%
X195475000Y-127100000D03*
D11*
X195930000Y-126195000D02*
X195930000Y-128005000D01*
X195020000Y-128005000D01*
X195020000Y-126195000D01*
X195930000Y-126195000D01*
D12*
%TO.P,R67,1,1*%
X195475000Y-126630000D03*
D13*
%TO.P,R67,2,2*%
X195475000Y-127570000D03*
%TD*%
D10*
%TO.C,R93*%
%TO.CFtp,RESC1005X40N*%
%TO.CVal,R0402_30K_1\u0025_0.0625W_100PPM*%
%TO.CLbN,Resistors SMD*%
%TO.CMnt,SMD*%
%TO.CRot,-90*%
X147400000Y-128937500D03*
D11*
X147855000Y-128032500D02*
X147855000Y-129842500D01*
X146945000Y-129842500D01*
X146945000Y-128032500D01*
X147855000Y-128032500D01*
D12*
%TO.P,R93,1,1*%
X147400000Y-129407500D03*
D13*
%TO.P,R93,2,2*%
X147400000Y-128467500D03*
%TD*%
D10*
%TO.C,R75*%
%TO.CFtp,RESC1005X40N*%
%TO.CVal,R0402_10K_1\u0025_0.0625W_100PPM*%
%TO.CLbN,Resistors SMD*%
%TO.CMnt,SMD*%
%TO.CRot,180*%
X119700000Y-116000000D03*
D11*
X120605000Y-115545000D02*
X120605000Y-116455000D01*
X118795000Y-116455000D01*
X118795000Y-115545000D01*
X120605000Y-115545000D01*
D12*
%TO.P,R75,1,1*%
X119230000Y-116000000D03*
D13*
%TO.P,R75,2,2*%
X120170000Y-116000000D03*
%TD*%
D10*
%TO.C,C109*%
%TO.CFtp,CAPC2012X145N*%
%TO.CVal,CC0805_100UF_6.3V_20\u0025_X5R*%
%TO.CLbN,Capacitors SMD*%
%TO.CMnt,SMD*%
%TO.CRot,180*%
X174500000Y-96000000D03*
D11*
X176245000Y-95005000D02*
X176245000Y-96995000D01*
X172755000Y-96995000D01*
X172755000Y-95005000D01*
X176245000Y-95005000D01*
D12*
%TO.P,C109,1,1*%
X173600000Y-96000000D03*
D13*
%TO.P,C109,2,2*%
X175400000Y-96000000D03*
%TD*%
D10*
%TO.C,C114*%
%TO.CFtp,CAPC0603X33N*%
%TO.CVal,CC0201_470NF_4V_20\u0025_X5R*%
%TO.CLbN,Capacitors SMD*%
%TO.CMnt,SMD*%
%TO.CRot,135*%
X182100000Y-92700000D03*
D11*
X182729324Y-92982843D02*
X182382843Y-93329324D01*
X181470676Y-92417157D01*
X181817157Y-92070676D01*
X182729324Y-92982843D01*
D12*
%TO.P,C114,1,1*%
X181852513Y-92452513D03*
D13*
%TO.P,C114,2,2*%
X182347487Y-92947487D03*
%TD*%
D10*
%TO.C,C37*%
%TO.CFtp,CAPC2012X135N*%
%TO.CVal,CC0805_22UF_16V_10\u0025_X5R*%
%TO.CLbN,Capacitors SMD*%
%TO.CMnt,SMD*%
%TO.CRot,-90*%
X140900000Y-94100000D03*
D11*
X141845000Y-92405000D02*
X141845000Y-95795000D01*
X139955000Y-95795000D01*
X139955000Y-92405000D01*
X141845000Y-92405000D01*
D12*
%TO.P,C37,1,1*%
X140900000Y-95000000D03*
D13*
%TO.P,C37,2,2*%
X140900000Y-93200000D03*
%TD*%
D10*
%TO.C,C150*%
%TO.CFtp,CAPC0603X33N*%
%TO.CVal,CC0201_47NF_6.3V_10\u0025_X5R*%
%TO.CLbN,Capacitors SMD*%
%TO.CMnt,SMD*%
%TO.CRot,0*%
X182900000Y-93900000D03*
D11*
X183545000Y-93655000D02*
X183545000Y-94145000D01*
X182255000Y-94145000D01*
X182255000Y-93655000D01*
X183545000Y-93655000D01*
D12*
%TO.P,C150,1,1*%
X183250000Y-93900000D03*
D13*
%TO.P,C150,2,2*%
X182550000Y-93900000D03*
%TD*%
D10*
%TO.C,R68*%
%TO.CFtp,RESC1005X40N*%
%TO.CVal,R0402_40R2_1\u0025_0.0625W_100PPM*%
%TO.CLbN,Resistors SMD*%
%TO.CMnt,SMD*%
%TO.CRot,90*%
X191500000Y-127100000D03*
D11*
X191955000Y-126195000D02*
X191955000Y-128005000D01*
X191045000Y-128005000D01*
X191045000Y-126195000D01*
X191955000Y-126195000D01*
D12*
%TO.P,R68,1,1*%
X191500000Y-126630000D03*
D13*
%TO.P,R68,2,2*%
X191500000Y-127570000D03*
%TD*%
D10*
%TO.C,C117*%
%TO.CFtp,CAPC1005X55N*%
%TO.CVal,CC0402_4.7UF_16V_20\u0025_X5R*%
%TO.CLbN,Capacitors SMD*%
%TO.CMnt,SMD*%
%TO.CRot,180*%
X171000000Y-98500000D03*
D11*
X171905000Y-98045000D02*
X171905000Y-98955000D01*
X170095000Y-98955000D01*
X170095000Y-98045000D01*
X171905000Y-98045000D01*
D12*
%TO.P,C117,1,1*%
X170550000Y-98500000D03*
D13*
%TO.P,C117,2,2*%
X171450000Y-98500000D03*
%TD*%
D10*
%TO.C,C69*%
%TO.CFtp,CAPC1005X55N*%
%TO.CVal,CC0402_100NF_50V_10\u0025_X7R*%
%TO.CLbN,Capacitors SMD*%
%TO.CMnt,SMD*%
%TO.CRot,90*%
X197900000Y-130200000D03*
D11*
X198355000Y-129295000D02*
X198355000Y-131105000D01*
X197445000Y-131105000D01*
X197445000Y-129295000D01*
X198355000Y-129295000D01*
D12*
%TO.P,C69,1,1*%
X197900000Y-129750000D03*
D13*
%TO.P,C69,2,2*%
X197900000Y-130650000D03*
%TD*%
D10*
%TO.C,R96*%
%TO.CFtp,RESC1005X40N*%
%TO.CVal,R0402_30K_1\u0025_0.0625W_100PPM*%
%TO.CLbN,Resistors SMD*%
%TO.CMnt,SMD*%
%TO.CRot,-90*%
X149500000Y-119462500D03*
D11*
X149955000Y-118557500D02*
X149955000Y-120367500D01*
X149045000Y-120367500D01*
X149045000Y-118557500D01*
X149955000Y-118557500D01*
D12*
%TO.P,R96,1,1*%
X149500000Y-119932500D03*
D13*
%TO.P,R96,2,2*%
X149500000Y-118992500D03*
%TD*%
D10*
%TO.C,R51*%
%TO.CFtp,RESC1005X40N*%
%TO.CVal,R0402_40R2_1\u0025_0.0625W_100PPM*%
%TO.CLbN,Resistors SMD*%
%TO.CMnt,SMD*%
%TO.CRot,0*%
X187800000Y-122300000D03*
D11*
X188705000Y-121845000D02*
X188705000Y-122755000D01*
X186895000Y-122755000D01*
X186895000Y-121845000D01*
X188705000Y-121845000D01*
D12*
%TO.P,R51,1,1*%
X188270000Y-122300000D03*
D13*
%TO.P,R51,2,2*%
X187330000Y-122300000D03*
%TD*%
D10*
%TO.C,L7*%
%TO.CFtp,L_1008_2520Metric*%
%TO.CVal,4.7 uH*%
%TO.CLbN,Inductor_SMD*%
%TO.CMnt,SMD*%
%TO.CRot,90*%
X144300000Y-57900000D03*
D11*
X145645000Y-55955000D02*
X145645000Y-59845000D01*
X142955000Y-59845000D01*
X142955000Y-55955000D01*
X145645000Y-55955000D01*
D12*
%TO.P,L7,1,1*%
X144300000Y-56825000D03*
D13*
%TO.P,L7,2,2*%
X144300000Y-58975000D03*
%TD*%
D10*
%TO.C,C62*%
%TO.CFtp,CAPC1005X70N*%
%TO.CVal,CC0402_10UF_6.3V_20\u0025_X5R*%
%TO.CLbN,Capacitors SMD*%
%TO.CMnt,SMD*%
%TO.CRot,0*%
X185300000Y-120700000D03*
D11*
X186265000Y-120195000D02*
X186265000Y-121205000D01*
X184335000Y-121205000D01*
X184335000Y-120195000D01*
X186265000Y-120195000D01*
D12*
%TO.P,C62,1,1*%
X185760000Y-120700000D03*
D13*
%TO.P,C62,2,2*%
X184840000Y-120700000D03*
%TD*%
D10*
%TO.C,R145*%
%TO.CFtp,RESC1005X40N*%
%TO.CVal,R0402_4K7_1\u0025_0.0625W_100PPM*%
%TO.CLbN,Resistors SMD*%
%TO.CMnt,SMD*%
%TO.CRot,90*%
X148300000Y-131250000D03*
D11*
X148755000Y-130345000D02*
X148755000Y-132155000D01*
X147845000Y-132155000D01*
X147845000Y-130345000D01*
X148755000Y-130345000D01*
D12*
%TO.P,R145,1,1*%
X148300000Y-130780000D03*
D13*
%TO.P,R145,2,2*%
X148300000Y-131720000D03*
%TD*%
D10*
%TO.C,R153*%
%TO.CFtp,RESC1005X40N*%
%TO.CVal,R0402_40R2_1\u0025_0.0625W_100PPM*%
%TO.CLbN,Resistors SMD*%
%TO.CMnt,SMD*%
%TO.CRot,90*%
X196500000Y-127100000D03*
D11*
X196955000Y-126195000D02*
X196955000Y-128005000D01*
X196045000Y-128005000D01*
X196045000Y-126195000D01*
X196955000Y-126195000D01*
D12*
%TO.P,R153,1,1*%
X196500000Y-126630000D03*
D13*
%TO.P,R153,2,2*%
X196500000Y-127570000D03*
%TD*%
D10*
%TO.C,C39*%
%TO.CFtp,CAPC1005X55N*%
%TO.CVal,CC0402_100NF_50V_10\u0025_X7R*%
%TO.CLbN,Capacitors SMD*%
%TO.CMnt,SMD*%
%TO.CRot,90*%
X151000000Y-58800000D03*
D11*
X151455000Y-57895000D02*
X151455000Y-59705000D01*
X150545000Y-59705000D01*
X150545000Y-57895000D01*
X151455000Y-57895000D01*
D12*
%TO.P,C39,1,1*%
X151000000Y-58350000D03*
D13*
%TO.P,C39,2,2*%
X151000000Y-59250000D03*
%TD*%
D10*
%TO.C,C127*%
%TO.CFtp,CAPC0603X33N*%
%TO.CVal,CC0201_470NF_4V_20\u0025_X5R*%
%TO.CLbN,Capacitors SMD*%
%TO.CMnt,SMD*%
%TO.CRot,90*%
X190500000Y-87900000D03*
D11*
X190745000Y-87255000D02*
X190745000Y-88545000D01*
X190255000Y-88545000D01*
X190255000Y-87255000D01*
X190745000Y-87255000D01*
D12*
%TO.P,C127,1,1*%
X190500000Y-87550000D03*
D13*
%TO.P,C127,2,2*%
X190500000Y-88250000D03*
%TD*%
D10*
%TO.C,C234*%
%TO.CFtp,CAPC0603X33N*%
%TO.CVal,CC0201_47NF_6.3V_10\u0025_X5R*%
%TO.CLbN,Capacitors SMD*%
%TO.CMnt,SMD*%
%TO.CRot,-90*%
X191600000Y-116750000D03*
D11*
X191845000Y-116105000D02*
X191845000Y-117395000D01*
X191355000Y-117395000D01*
X191355000Y-116105000D01*
X191845000Y-116105000D01*
D12*
%TO.P,C234,1,1*%
X191600000Y-117100000D03*
D13*
%TO.P,C234,2,2*%
X191600000Y-116400000D03*
%TD*%
D10*
%TO.C,R101*%
%TO.CFtp,RESC1005X40N*%
%TO.CVal,R0402_30K_1\u0025_0.0625W_100PPM*%
%TO.CLbN,Resistors SMD*%
%TO.CMnt,SMD*%
%TO.CRot,180*%
X182250000Y-131000000D03*
D11*
X183155000Y-130545000D02*
X183155000Y-131455000D01*
X181345000Y-131455000D01*
X181345000Y-130545000D01*
X183155000Y-130545000D01*
D12*
%TO.P,R101,1,1*%
X181780000Y-131000000D03*
D13*
%TO.P,R101,2,2*%
X182720000Y-131000000D03*
%TD*%
D10*
%TO.C,C11*%
%TO.CFtp,CAPC1005X70N*%
%TO.CVal,CC0402_10UF_6.3V_20\u0025_X5R*%
%TO.CLbN,Capacitors SMD*%
%TO.CMnt,SMD*%
%TO.CRot,180*%
X140500000Y-108800000D03*
D11*
X141465000Y-108295000D02*
X141465000Y-109305000D01*
X139535000Y-109305000D01*
X139535000Y-108295000D01*
X141465000Y-108295000D01*
D12*
%TO.P,C11,1,1*%
X140040000Y-108800000D03*
D13*
%TO.P,C11,2,2*%
X140960000Y-108800000D03*
%TD*%
M02*
