%TF.GenerationSoftware,KiCad,Pcbnew,9.0.1*%
%TF.CreationDate,2025-05-01T20:46:39+02:00*%
%TF.ProjectId,Marble_Tiny,4d617262-6c65-45f5-9469-6e792e6b6963,rev?*%
%TF.SameCoordinates,Original*%
%TF.FileFunction,Component,L1,Top*%
%TF.FilePolarity,Positive*%
%FSLAX46Y46*%
G04 Gerber Fmt 4.6, Leading zero omitted, Abs format (unit mm)*
G04 Created by KiCad (PCBNEW 9.0.1) date 2025-05-01 20:46:39*
%MOMM*%
%LPD*%
G01*
G04 APERTURE LIST*
%TA.AperFunction,ComponentMain*%
%ADD10C,0.300000*%
%TD*%
%TA.AperFunction,ComponentOutline,Footprint*%
%ADD11C,0.100000*%
%TD*%
%TA.AperFunction,ComponentPin*%
%ADD12P,0.360000X4X0.000000*%
%TD*%
%TA.AperFunction,ComponentPin*%
%ADD13C,0.100000*%
%TD*%
%TA.AperFunction,ComponentOutline,Courtyard*%
%ADD14C,0.100000*%
%TD*%
G04 APERTURE END LIST*
D10*
%TO.C,U11*%
%TO.CFtp,VREG_TPSM863257RDXR*%
%TO.CVal,TPSM863257RDXR*%
%TO.CLbN,ICs And Semiconductors SMD*%
%TO.CMnt,Other*%
%TO.CRot,90*%
X183200000Y-134600000D03*
D11*
X181000000Y-136500000D02*
X185025000Y-136500000D01*
X185025000Y-132700000D01*
X181000000Y-132700000D01*
X181000000Y-136500000D01*
D12*
%TO.P,U11,1,VIN*%
X181862500Y-135962500D03*
X181301000Y-135515000D03*
D13*
%TO.P,U11,2,SW*%
X183875000Y-135750000D03*
X182726000Y-135090000D03*
%TO.P,U11,3,VOUT*%
X183365000Y-133950000D03*
X183865000Y-133950000D03*
X184365000Y-133950000D03*
X183875000Y-133450000D03*
X183365000Y-132950000D03*
X183865000Y-132950000D03*
X184365000Y-132950000D03*
X182726000Y-132790000D03*
%TO.P,U11,4,PGND*%
X181862500Y-133237500D03*
X181301000Y-132790000D03*
%TO.P,U11,5,PG*%
X181300000Y-134100000D03*
%TO.P,U11,6,EN*%
X181300000Y-134600000D03*
%TO.P,U11,7,FB*%
X181300000Y-135100000D03*
%TD*%
D10*
%TO.C,U4*%
%TO.CFtp,VREG_TPSM863257RDXR*%
%TO.CVal,TPSM863257RDXR*%
%TO.CLbN,ICs And Semiconductors SMD*%
%TO.CMnt,Other*%
%TO.CRot,180*%
X182950000Y-112365000D03*
D11*
X184850000Y-114565000D02*
X184850000Y-110540000D01*
X181050000Y-110540000D01*
X181050000Y-114565000D01*
X184850000Y-114565000D01*
D12*
%TO.P,U4,1,VIN*%
X184312500Y-113702500D03*
X183865000Y-114264000D03*
D13*
%TO.P,U4,2,SW*%
X184100000Y-111690000D03*
X183440000Y-112839000D03*
%TO.P,U4,3,VOUT*%
X182300000Y-112200000D03*
X182300000Y-111700000D03*
X182300000Y-111200000D03*
X181800000Y-111690000D03*
X181300000Y-112200000D03*
X181300000Y-111700000D03*
X181300000Y-111200000D03*
X181140000Y-112839000D03*
%TO.P,U4,4,PGND*%
X181587500Y-113702500D03*
X181140000Y-114264000D03*
%TO.P,U4,5,PG*%
X182450000Y-114265000D03*
%TO.P,U4,6,EN*%
X182950000Y-114265000D03*
%TO.P,U4,7,FB*%
X183450000Y-114265000D03*
%TD*%
D10*
%TO.C,U10*%
%TO.CFtp,VREG_TPSM863257RDXR*%
%TO.CVal,TPSM863257RDXR*%
%TO.CLbN,ICs And Semiconductors SMD*%
%TO.CMnt,Other*%
%TO.CRot,180*%
X148300000Y-127500000D03*
D11*
X150200000Y-129700000D02*
X150200000Y-125675000D01*
X146400000Y-125675000D01*
X146400000Y-129700000D01*
X150200000Y-129700000D01*
D12*
%TO.P,U10,1,VIN*%
X149662500Y-128837500D03*
X149215000Y-129399000D03*
D13*
%TO.P,U10,2,SW*%
X149450000Y-126825000D03*
X148790000Y-127974000D03*
%TO.P,U10,3,VOUT*%
X147650000Y-127335000D03*
X147650000Y-126835000D03*
X147650000Y-126335000D03*
X147150000Y-126825000D03*
X146650000Y-127335000D03*
X146650000Y-126835000D03*
X146650000Y-126335000D03*
X146490000Y-127974000D03*
%TO.P,U10,4,PGND*%
X146937500Y-128837500D03*
X146490000Y-129399000D03*
%TO.P,U10,5,PG*%
X147800000Y-129400000D03*
%TO.P,U10,6,EN*%
X148300000Y-129400000D03*
%TO.P,U10,7,FB*%
X148800000Y-129400000D03*
%TD*%
D10*
%TO.C,U5*%
%TO.CFtp,VREG_TPSM863257RDXR*%
%TO.CVal,TPSM863257RDXR*%
%TO.CLbN,ICs And Semiconductors SMD*%
%TO.CMnt,Other*%
%TO.CRot,180*%
X149200000Y-115762500D03*
D11*
X151100000Y-117962500D02*
X151100000Y-113937500D01*
X147300000Y-113937500D01*
X147300000Y-117962500D01*
X151100000Y-117962500D01*
D12*
%TO.P,U5,1,VIN*%
X150562500Y-117100000D03*
X150115000Y-117661500D03*
D13*
%TO.P,U5,2,SW*%
X150350000Y-115087500D03*
X149690000Y-116236500D03*
%TO.P,U5,3,VOUT*%
X148550000Y-115597500D03*
X148550000Y-115097500D03*
X148550000Y-114597500D03*
X148050000Y-115087500D03*
X147550000Y-115597500D03*
X147550000Y-115097500D03*
X147550000Y-114597500D03*
X147390000Y-116236500D03*
%TO.P,U5,4,PGND*%
X147837500Y-117100000D03*
X147390000Y-117661500D03*
%TO.P,U5,5,PG*%
X148700000Y-117662500D03*
%TO.P,U5,6,EN*%
X149200000Y-117662500D03*
%TO.P,U5,7,FB*%
X149700000Y-117662500D03*
%TD*%
D10*
%TO.C,U6*%
%TO.CFtp,VREG_TPSM863257RDXR*%
%TO.CVal,TPSM863257RDXR*%
%TO.CLbN,ICs And Semiconductors SMD*%
%TO.CMnt,Other*%
%TO.CRot,180*%
X132600000Y-127700000D03*
D11*
X134500000Y-129900000D02*
X134500000Y-125875000D01*
X130700000Y-125875000D01*
X130700000Y-129900000D01*
X134500000Y-129900000D01*
D12*
%TO.P,U6,1,VIN*%
X133962500Y-129037500D03*
X133515000Y-129599000D03*
D13*
%TO.P,U6,2,SW*%
X133750000Y-127025000D03*
X133090000Y-128174000D03*
%TO.P,U6,3,VOUT*%
X131950000Y-127535000D03*
X131950000Y-127035000D03*
X131950000Y-126535000D03*
X131450000Y-127025000D03*
X130950000Y-127535000D03*
X130950000Y-127035000D03*
X130950000Y-126535000D03*
X130790000Y-128174000D03*
%TO.P,U6,4,PGND*%
X131237500Y-129037500D03*
X130790000Y-129599000D03*
%TO.P,U6,5,PG*%
X132100000Y-129600000D03*
%TO.P,U6,6,EN*%
X132600000Y-129600000D03*
%TO.P,U6,7,FB*%
X133100000Y-129600000D03*
%TD*%
D10*
%TO.C,R156*%
%TO.CFtp,RESC1005X40N*%
%TO.CVal,R0402_10K_1\u0025_0.0625W_100PPM*%
%TO.CLbN,Resistors SMD*%
%TO.CMnt,SMD*%
%TO.CRot,0*%
X197300000Y-63885000D03*
D14*
X198205000Y-63430000D02*
X198205000Y-64340000D01*
X196395000Y-64340000D01*
X196395000Y-63430000D01*
X198205000Y-63430000D01*
D12*
%TO.P,R156,1,1*%
X196830000Y-63885000D03*
D13*
%TO.P,R156,2,2*%
X197770000Y-63885000D03*
%TD*%
D10*
%TO.C,C13*%
%TO.CFtp,CAPC1005X55N*%
%TO.CVal,CC0402_100NF_50V_10\u0025_X7R*%
%TO.CLbN,Capacitors SMD*%
%TO.CMnt,SMD*%
%TO.CRot,-90*%
X144000000Y-102100000D03*
D14*
X144455000Y-101195000D02*
X144455000Y-103005000D01*
X143545000Y-103005000D01*
X143545000Y-101195000D01*
X144455000Y-101195000D01*
D12*
%TO.P,C13,1,1*%
X144000000Y-101650000D03*
D13*
%TO.P,C13,2,2*%
X144000000Y-102550000D03*
%TD*%
D10*
%TO.C,R61*%
%TO.CFtp,RESC1005X40N*%
%TO.CVal,R0402_40R2_1\u0025_0.0625W_100PPM*%
%TO.CLbN,Resistors SMD*%
%TO.CMnt,SMD*%
%TO.CRot,-90*%
X198800000Y-127100000D03*
D14*
X199255000Y-126195000D02*
X199255000Y-128005000D01*
X198345000Y-128005000D01*
X198345000Y-126195000D01*
X199255000Y-126195000D01*
D12*
%TO.P,R61,1,1*%
X198800000Y-126630000D03*
D13*
%TO.P,R61,2,2*%
X198800000Y-127570000D03*
%TD*%
D10*
%TO.C,U3*%
%TO.CFtp,MSOP-10_3x3mm_P0.5mm*%
%TO.CVal,Si5351A-B-GT*%
%TO.CLbN,Package_SO*%
%TO.CMnt,SMD*%
%TO.CRot,-90*%
X169700000Y-80500000D03*
D14*
X171445000Y-77325000D02*
X171445000Y-83675000D01*
X167955000Y-83675000D01*
X167955000Y-77325000D01*
X171445000Y-77325000D01*
D12*
%TO.P,U3,1,VDD*%
X170700000Y-78387500D03*
D13*
%TO.P,U3,2,XA*%
X170200000Y-78387500D03*
%TO.P,U3,3,XB*%
X169700000Y-78387500D03*
%TO.P,U3,4,SCL*%
X169200000Y-78387500D03*
%TO.P,U3,5,SDA*%
X168700000Y-78387500D03*
%TO.P,U3,6,CLK2*%
X168700000Y-82612500D03*
%TO.P,U3,7,VDDO*%
X169200000Y-82612500D03*
%TO.P,U3,8,GND*%
X169700000Y-82612500D03*
%TO.P,U3,9,CLK1*%
X170200000Y-82612500D03*
%TO.P,U3,10,CLK0*%
X170700000Y-82612500D03*
%TD*%
D10*
%TO.C,R129*%
%TO.CFtp,RESC1005X40N*%
%TO.CVal,R0402_140R_1\u0025_0.0625W_100PPM*%
%TO.CLbN,Resistors SMD*%
%TO.CMnt,SMD*%
%TO.CRot,0*%
X164700000Y-75400000D03*
D14*
X165605000Y-74945000D02*
X165605000Y-75855000D01*
X163795000Y-75855000D01*
X163795000Y-74945000D01*
X165605000Y-74945000D01*
D12*
%TO.P,R129,1,1*%
X164230000Y-75400000D03*
D13*
%TO.P,R129,2,2*%
X165170000Y-75400000D03*
%TD*%
D10*
%TO.C,R131*%
%TO.CFtp,RESC1005X40N*%
%TO.CVal,R0402_2K32_1\u0025_0.0625W_100PPM*%
%TO.CLbN,Resistors SMD*%
%TO.CMnt,SMD*%
%TO.CRot,0*%
X162800000Y-73500000D03*
D14*
X163705000Y-73045000D02*
X163705000Y-73955000D01*
X161895000Y-73955000D01*
X161895000Y-73045000D01*
X163705000Y-73045000D01*
D12*
%TO.P,R131,1,1*%
X162330000Y-73500000D03*
D13*
%TO.P,R131,2,2*%
X163270000Y-73500000D03*
%TD*%
D10*
%TO.C,U12*%
%TO.CFtp,SOT95P284X122-5N*%
%TO.CVal,LP5951MF-3.0/NOPB*%
%TO.CLbN,ICs And Semiconductors SMD*%
%TO.CMnt,SMD*%
%TO.CRot,0*%
X159300000Y-113715000D03*
D14*
X161395000Y-111970000D02*
X161395000Y-115460000D01*
X157205000Y-115460000D01*
X157205000Y-111970000D01*
X161395000Y-111970000D01*
D12*
%TO.P,U12,1,VIN*%
X158000000Y-112765000D03*
D13*
%TO.P,U12,2,GND*%
X158000000Y-113715000D03*
%TO.P,U12,3,EN*%
X158000000Y-114665000D03*
%TO.P,U12,4,NC*%
X160600000Y-114665000D03*
%TO.P,U12,5,VOUT*%
X160600000Y-112765000D03*
%TD*%
D10*
%TO.C,C19*%
%TO.CFtp,CAPC2012X135N*%
%TO.CVal,CC0805_22UF_16V_10\u0025_X5R*%
%TO.CLbN,Capacitors SMD*%
%TO.CMnt,SMD*%
%TO.CRot,-90*%
X141800000Y-58000000D03*
D14*
X142745000Y-56305000D02*
X142745000Y-59695000D01*
X140855000Y-59695000D01*
X140855000Y-56305000D01*
X142745000Y-56305000D01*
D12*
%TO.P,C19,1,1*%
X141800000Y-57100000D03*
D13*
%TO.P,C19,2,2*%
X141800000Y-58900000D03*
%TD*%
D10*
%TO.C,R19*%
%TO.CFtp,RESC1005X40N*%
%TO.CVal,R0402_330R_1\u0025_0.0625W_100PPM*%
%TO.CLbN,Resistors SMD*%
%TO.CMnt,SMD*%
%TO.CRot,180*%
X137400000Y-96400000D03*
D14*
X138305000Y-95945000D02*
X138305000Y-96855000D01*
X136495000Y-96855000D01*
X136495000Y-95945000D01*
X138305000Y-95945000D01*
D12*
%TO.P,R19,1,1*%
X137870000Y-96400000D03*
D13*
%TO.P,R19,2,2*%
X136930000Y-96400000D03*
%TD*%
D10*
%TO.C,C227*%
%TO.CFtp,CAPC1005X55N*%
%TO.CVal,CC0402_100NF_50V_10\u0025_X7R*%
%TO.CLbN,Capacitors SMD*%
%TO.CMnt,SMD*%
%TO.CRot,-90*%
X185625000Y-74265000D03*
D14*
X186080000Y-73360000D02*
X186080000Y-75170000D01*
X185170000Y-75170000D01*
X185170000Y-73360000D01*
X186080000Y-73360000D01*
D12*
%TO.P,C227,1,1*%
X185625000Y-73815000D03*
D13*
%TO.P,C227,2,2*%
X185625000Y-74715000D03*
%TD*%
D10*
%TO.C,U16*%
%TO.CFtp,QFN50P500X500X100-33N-S355*%
%TO.CVal,CDCM61004RHB*%
%TO.CLbN,ICs And Semiconductors SMD*%
%TO.CMnt,SMD*%
%TO.CRot,0*%
X159100000Y-121700000D03*
D14*
X162245000Y-118555000D02*
X162245000Y-124845000D01*
X155955000Y-124845000D01*
X155955000Y-118555000D01*
X162245000Y-118555000D01*
D12*
%TO.P,U16,1,VCCOUT*%
X156650000Y-119950000D03*
D13*
%TO.P,U16,2,OUTN1*%
X156650000Y-120450000D03*
%TO.P,U16,3,OUTP1*%
X156650000Y-120950000D03*
%TO.P,U16,4,VCCOUT*%
X156650000Y-121450000D03*
%TO.P,U16,5,OUTN0*%
X156650000Y-121950000D03*
%TO.P,U16,6,OUTP0*%
X156650000Y-122450000D03*
%TO.P,U16,7,CE*%
X156650000Y-122950000D03*
%TO.P,U16,8,NC*%
X156650000Y-123450000D03*
%TO.P,U16,9,VCCVCO*%
X157350000Y-124150000D03*
%TO.P,U16,10,OS1*%
X157850000Y-124150000D03*
%TO.P,U16,11,OS0*%
X158350000Y-124150000D03*
%TO.P,U16,12,~{RSTN}*%
X158850000Y-124150000D03*
%TO.P,U16,13,OD0*%
X159350000Y-124150000D03*
%TO.P,U16,14,OD1*%
X159850000Y-124150000D03*
%TO.P,U16,15,OD2*%
X160350000Y-124150000D03*
%TO.P,U16,16,VCCPLL2*%
X160850000Y-124150000D03*
%TO.P,U16,17,REGCAP2*%
X161550000Y-123450000D03*
%TO.P,U16,18,VCCPLL1*%
X161550000Y-122950000D03*
%TO.P,U16,19,REGCAP1*%
X161550000Y-122450000D03*
%TO.P,U16,20,VCCIN*%
X161550000Y-121950000D03*
%TO.P,U16,21,XIN*%
X161550000Y-121450000D03*
%TO.P,U16,22,GND1*%
X161550000Y-120950000D03*
%TO.P,U16,23,OSCOUT*%
X161550000Y-120450000D03*
%TO.P,U16,24,NC*%
X161550000Y-119950000D03*
%TO.P,U16,25,PR0*%
X160850000Y-119250000D03*
%TO.P,U16,26,PR1*%
X160350000Y-119250000D03*
%TO.P,U16,27,VCCOUT*%
X159850000Y-119250000D03*
%TO.P,U16,28,OUTN3*%
X159350000Y-119250000D03*
%TO.P,U16,29,OUTP3*%
X158850000Y-119250000D03*
%TO.P,U16,30,VCCOUT*%
X158350000Y-119250000D03*
%TO.P,U16,31,OUTN2*%
X157850000Y-119250000D03*
%TO.P,U16,32,OUTP2*%
X157350000Y-119250000D03*
%TO.P,U16,33,EP*%
X159100000Y-121700000D03*
%TD*%
D10*
%TO.C,C209*%
%TO.CFtp,CAPC0603X33N*%
%TO.CVal,CC0201_100NF_6.3V_10\u0025_X5R*%
%TO.CLbN,Capacitors SMD*%
%TO.CMnt,SMD*%
%TO.CRot,90*%
X158100000Y-117200000D03*
D14*
X158345000Y-116555000D02*
X158345000Y-117845000D01*
X157855000Y-117845000D01*
X157855000Y-116555000D01*
X158345000Y-116555000D01*
D12*
%TO.P,C209,1,1*%
X158100000Y-117550000D03*
D13*
%TO.P,C209,2,2*%
X158100000Y-116850000D03*
%TD*%
D10*
%TO.C,R135*%
%TO.CFtp,RESC1005X40N*%
%TO.CVal,R0402_2K32_1\u0025_0.0625W_100PPM*%
%TO.CLbN,Resistors SMD*%
%TO.CMnt,SMD*%
%TO.CRot,0*%
X162800000Y-70600000D03*
D14*
X163705000Y-70145000D02*
X163705000Y-71055000D01*
X161895000Y-71055000D01*
X161895000Y-70145000D01*
X163705000Y-70145000D01*
D12*
%TO.P,R135,1,1*%
X162330000Y-70600000D03*
D13*
%TO.P,R135,2,2*%
X163270000Y-70600000D03*
%TD*%
D10*
%TO.C,L17*%
%TO.CFtp,INDC1608X65N*%
%TO.CVal,IND0603_MURATA_BLM18SG121TN1D*%
%TO.CLbN,Inductors SMD*%
%TO.CMnt,SMD*%
%TO.CRot,0*%
X160000000Y-128900000D03*
D14*
X161495000Y-128155000D02*
X161495000Y-129645000D01*
X158505000Y-129645000D01*
X158505000Y-128155000D01*
X161495000Y-128155000D01*
D12*
%TO.P,L17,1,1*%
X159250000Y-128900000D03*
D13*
%TO.P,L17,2,2*%
X160750000Y-128900000D03*
%TD*%
D10*
%TO.C,C199*%
%TO.CFtp,CAPC1709X100N*%
%TO.CVal,CC0603_22UF_6.3V_20\u0025_X5R*%
%TO.CLbN,Capacitors SMD*%
%TO.CMnt,SMD*%
%TO.CRot,-90*%
X165700000Y-129700000D03*
D14*
X166495000Y-128155000D02*
X166495000Y-131245000D01*
X164905000Y-131245000D01*
X164905000Y-128155000D01*
X166495000Y-128155000D01*
D12*
%TO.P,C199,1,1*%
X165700000Y-128900000D03*
D13*
%TO.P,C199,2,2*%
X165700000Y-130500000D03*
%TD*%
D10*
%TO.C,C188*%
%TO.CFtp,CAPC1005X55N*%
%TO.CVal,CC0201_100NF_6.3V_10\u0025_X5R*%
%TO.CLbN,Capacitors SMD*%
%TO.CMnt,SMD*%
%TO.CRot,0*%
X166250000Y-111500000D03*
D14*
X167155000Y-111045000D02*
X167155000Y-111955000D01*
X165345000Y-111955000D01*
X165345000Y-111045000D01*
X167155000Y-111045000D01*
D12*
%TO.P,C188,1,1*%
X165800000Y-111500000D03*
D13*
%TO.P,C188,2,2*%
X166700000Y-111500000D03*
%TD*%
D10*
%TO.C,R28*%
%TO.CFtp,RESC1005X40N*%
%TO.CVal,R0402_4K7_1\u0025_0.0625W_100PPM*%
%TO.CLbN,Resistors SMD*%
%TO.CMnt,SMD*%
%TO.CRot,-90*%
X178162500Y-64400000D03*
D14*
X178617500Y-63495000D02*
X178617500Y-65305000D01*
X177707500Y-65305000D01*
X177707500Y-63495000D01*
X178617500Y-63495000D01*
D12*
%TO.P,R28,1,1*%
X178162500Y-63930000D03*
D13*
%TO.P,R28,2,2*%
X178162500Y-64870000D03*
%TD*%
D10*
%TO.C,J6*%
%TO.CFtp,PinSocket_2x06_P2.54mm_Horizontal_PMOD*%
%TO.CVal,Conn_02x06_Top_Bottom*%
%TO.CLbN,Miscellaneous THD*%
%TO.CMnt,TH*%
%TO.CRot,180*%
X212875000Y-92605000D03*
D14*
X225920000Y-78160000D02*
X225920000Y-94400000D01*
X211080000Y-94400000D01*
X211080000Y-78160000D01*
X225920000Y-78160000D01*
D12*
%TO.P,J6,1,Pin_1*%
X212875000Y-79905000D03*
D13*
%TO.P,J6,2,Pin_2*%
X212875000Y-82445000D03*
%TO.P,J6,3,Pin_3*%
X212875000Y-84985000D03*
%TO.P,J6,4,Pin_4*%
X212875000Y-87525000D03*
%TO.P,J6,5,Pin_5*%
X212875000Y-90065000D03*
%TO.P,J6,6,Pin_6*%
X212875000Y-92605000D03*
%TO.P,J6,7,Pin_7*%
X215415000Y-79905000D03*
%TO.P,J6,8,Pin_8*%
X215415000Y-82445000D03*
%TO.P,J6,9,Pin_9*%
X215415000Y-84985000D03*
%TO.P,J6,10,Pin_10*%
X215415000Y-87525000D03*
%TO.P,J6,11,Pin_11*%
X215415000Y-90065000D03*
%TO.P,J6,12,Pin_12*%
X215415000Y-92605000D03*
%TD*%
D10*
%TO.C,C218*%
%TO.CFtp,CAPC1005X55N*%
%TO.CVal,CC0402_4.7UF_16V_20\u0025_X5R*%
%TO.CLbN,Capacitors SMD*%
%TO.CMnt,SMD*%
%TO.CRot,0*%
X173800000Y-103425000D03*
D14*
X174705000Y-102970000D02*
X174705000Y-103880000D01*
X172895000Y-103880000D01*
X172895000Y-102970000D01*
X174705000Y-102970000D01*
D12*
%TO.P,C218,1,1*%
X173350000Y-103425000D03*
D13*
%TO.P,C218,2,2*%
X174250000Y-103425000D03*
%TD*%
D10*
%TO.C,R113*%
%TO.CFtp,RESC1005X40N*%
%TO.CVal,R0402_510R_0.1\u0025_0.0625W_10PPM*%
%TO.CLbN,Resistors SMD*%
%TO.CMnt,SMD*%
%TO.CRot,-90*%
X171000000Y-84700000D03*
D14*
X171455000Y-83795000D02*
X171455000Y-85605000D01*
X170545000Y-85605000D01*
X170545000Y-83795000D01*
X171455000Y-83795000D01*
D12*
%TO.P,R113,1,1*%
X171000000Y-84230000D03*
D13*
%TO.P,R113,2,2*%
X171000000Y-85170000D03*
%TD*%
D10*
%TO.C,L3*%
%TO.CFtp,L_1008_2520Metric*%
%TO.CVal,4.7 uH*%
%TO.CLbN,Inductor_SMD*%
%TO.CMnt,SMD*%
%TO.CRot,-90*%
X147100000Y-57900000D03*
D14*
X148445000Y-55955000D02*
X148445000Y-59845000D01*
X145755000Y-59845000D01*
X145755000Y-55955000D01*
X148445000Y-55955000D01*
D12*
%TO.P,L3,1,1*%
X147100000Y-56825000D03*
D13*
%TO.P,L3,2,2*%
X147100000Y-58975000D03*
%TD*%
D10*
%TO.C,R150*%
%TO.CFtp,RESC1005X40N*%
%TO.CVal,R0402_1K_1\u0025_0.0625W_100PPM*%
%TO.CLbN,Resistors SMD*%
%TO.CMnt,SMD*%
%TO.CRot,-90*%
X198800000Y-136700000D03*
D14*
X199255000Y-135795000D02*
X199255000Y-137605000D01*
X198345000Y-137605000D01*
X198345000Y-135795000D01*
X199255000Y-135795000D01*
D12*
%TO.P,R150,1,1*%
X198800000Y-136230000D03*
D13*
%TO.P,R150,2,2*%
X198800000Y-137170000D03*
%TD*%
D10*
%TO.C,C78*%
%TO.CFtp,CAPC1005X55N*%
%TO.CVal,CC0402_100NF_50V_10\u0025_X7R*%
%TO.CLbN,Capacitors SMD*%
%TO.CMnt,SMD*%
%TO.CRot,-90*%
X123100000Y-111600000D03*
D14*
X123555000Y-110695000D02*
X123555000Y-112505000D01*
X122645000Y-112505000D01*
X122645000Y-110695000D01*
X123555000Y-110695000D01*
D12*
%TO.P,C78,1,1*%
X123100000Y-111150000D03*
D13*
%TO.P,C78,2,2*%
X123100000Y-112050000D03*
%TD*%
D10*
%TO.C,U18*%
%TO.CFtp,SOT-23-5*%
%TO.CVal,TLV77325PDBVR*%
%TO.CLbN,Package_TO_SOT_SMD*%
%TO.CMnt,SMD*%
%TO.CRot,-90*%
X166100000Y-82300000D03*
D14*
X167795000Y-80255000D02*
X167795000Y-84345000D01*
X164405000Y-84345000D01*
X164405000Y-80255000D01*
X167795000Y-80255000D01*
D12*
%TO.P,U18,1,IN*%
X167050000Y-81162500D03*
D13*
%TO.P,U18,2,GND*%
X166100000Y-81162500D03*
%TO.P,U18,3,EN*%
X165150000Y-81162500D03*
%TO.P,U18,4,NC*%
X165150000Y-83437500D03*
%TO.P,U18,5,OUT*%
X167050000Y-83437500D03*
%TD*%
D10*
%TO.C,C3*%
%TO.CFtp,CAPC1005X55N*%
%TO.CVal,CC0402_27PF_50V_5\u0025_C0G*%
%TO.CLbN,Capacitors SMD*%
%TO.CMnt,SMD*%
%TO.CRot,90*%
X141930000Y-99200000D03*
D14*
X142385000Y-98295000D02*
X142385000Y-100105000D01*
X141475000Y-100105000D01*
X141475000Y-98295000D01*
X142385000Y-98295000D01*
D12*
%TO.P,C3,1,1*%
X141930000Y-99650000D03*
D13*
%TO.P,C3,2,2*%
X141930000Y-98750000D03*
%TD*%
D10*
%TO.C,R175*%
%TO.CFtp,RESC1005X40N*%
%TO.CVal,R0402_100K_1\u0025_0.0625W_100PPM*%
%TO.CLbN,Resistors SMD*%
%TO.CMnt,SMD*%
%TO.CRot,180*%
X170200000Y-58000000D03*
D14*
X171105000Y-57545000D02*
X171105000Y-58455000D01*
X169295000Y-58455000D01*
X169295000Y-57545000D01*
X171105000Y-57545000D01*
D12*
%TO.P,R175,1,1*%
X170670000Y-58000000D03*
D13*
%TO.P,R175,2,2*%
X169730000Y-58000000D03*
%TD*%
D10*
%TO.C,U19*%
%TO.CFtp,QFN50P400X400X80-25N-S245*%
%TO.CVal,TCA9535RTWR*%
%TO.CLbN,ICs And Semiconductors SMD*%
%TO.CMnt,SMD*%
%TO.CRot,0*%
X166262500Y-60600000D03*
D14*
X168907500Y-57955000D02*
X168907500Y-63245000D01*
X163617500Y-63245000D01*
X163617500Y-57955000D01*
X168907500Y-57955000D01*
D12*
%TO.P,U19,1,P00*%
X164312500Y-59350000D03*
D13*
%TO.P,U19,2,P01*%
X164312500Y-59850000D03*
%TO.P,U19,3,P02*%
X164312500Y-60350000D03*
%TO.P,U19,4,P03*%
X164312500Y-60850000D03*
%TO.P,U19,5,P04*%
X164312500Y-61350000D03*
%TO.P,U19,6,P05*%
X164312500Y-61850000D03*
%TO.P,U19,7,P06*%
X165012500Y-62550000D03*
%TO.P,U19,8,P07*%
X165512500Y-62550000D03*
%TO.P,U19,9,GND*%
X166012500Y-62550000D03*
%TO.P,U19,10,P10*%
X166512500Y-62550000D03*
%TO.P,U19,11,P11*%
X167012500Y-62550000D03*
%TO.P,U19,12,P12*%
X167512500Y-62550000D03*
%TO.P,U19,13,P13*%
X168212500Y-61850000D03*
%TO.P,U19,14,P14*%
X168212500Y-61350000D03*
%TO.P,U19,15,P15*%
X168212500Y-60850000D03*
%TO.P,U19,16,P16*%
X168212500Y-60350000D03*
%TO.P,U19,17,P17*%
X168212500Y-59850000D03*
%TO.P,U19,18,A0*%
X168212500Y-59350000D03*
%TO.P,U19,19,SCL*%
X167512500Y-58650000D03*
%TO.P,U19,20,SDA*%
X167012500Y-58650000D03*
%TO.P,U19,21,VCC*%
X166512500Y-58650000D03*
%TO.P,U19,22,~{INT}*%
X166012500Y-58650000D03*
%TO.P,U19,23,A1*%
X165512500Y-58650000D03*
%TO.P,U19,24,A2*%
X165012500Y-58650000D03*
%TO.P,U19,25,EP*%
X166262500Y-60600000D03*
%TD*%
D10*
%TO.C,R34*%
%TO.CFtp,RESC1005X40N*%
%TO.CVal,R0402_4K7_1\u0025_0.0625W_100PPM*%
%TO.CLbN,Resistors SMD*%
%TO.CMnt,SMD*%
%TO.CRot,0*%
X181962500Y-60900000D03*
D14*
X182867500Y-60445000D02*
X182867500Y-61355000D01*
X181057500Y-61355000D01*
X181057500Y-60445000D01*
X182867500Y-60445000D01*
D12*
%TO.P,R34,1,1*%
X181492500Y-60900000D03*
D13*
%TO.P,R34,2,2*%
X182432500Y-60900000D03*
%TD*%
D10*
%TO.C,C84*%
%TO.CFtp,CAPC1005X55N*%
%TO.CVal,CC0402_100NF_50V_10\u0025_X7R*%
%TO.CLbN,Capacitors SMD*%
%TO.CMnt,SMD*%
%TO.CRot,90*%
X131100000Y-111400000D03*
D14*
X131555000Y-110495000D02*
X131555000Y-112305000D01*
X130645000Y-112305000D01*
X130645000Y-110495000D01*
X131555000Y-110495000D01*
D12*
%TO.P,C84,1,1*%
X131100000Y-111850000D03*
D13*
%TO.P,C84,2,2*%
X131100000Y-110950000D03*
%TD*%
D10*
%TO.C,C177*%
%TO.CFtp,CAPC2012X135N*%
%TO.CVal,CC0805_22UF_16V_10\u0025_X5R*%
%TO.CLbN,Capacitors SMD*%
%TO.CMnt,SMD*%
%TO.CRot,90*%
X145800000Y-116400000D03*
D14*
X146745000Y-114705000D02*
X146745000Y-118095000D01*
X144855000Y-118095000D01*
X144855000Y-114705000D01*
X146745000Y-114705000D01*
D12*
%TO.P,C177,1,1*%
X145800000Y-117300000D03*
D13*
%TO.P,C177,2,2*%
X145800000Y-115500000D03*
%TD*%
D10*
%TO.C,Q2*%
%TO.CFtp,SOT95P240X110-3N*%
%TO.CVal,BSS138LT1G*%
%TO.CLbN,ICs And Semiconductors SMD*%
%TO.CMnt,SMD*%
%TO.CRot,90*%
X202400000Y-61250000D03*
D14*
X204145000Y-59305000D02*
X204145000Y-63195000D01*
X200655000Y-63195000D01*
X200655000Y-59305000D01*
X204145000Y-59305000D01*
D12*
%TO.P,Q2,1,G*%
X201450000Y-62400000D03*
D13*
%TO.P,Q2,2,S*%
X203350000Y-62400000D03*
%TO.P,Q2,3,D*%
X202400000Y-60100000D03*
%TD*%
D10*
%TO.C,C10*%
%TO.CFtp,CAPC1005X55N*%
%TO.CVal,CC0402_100NF_50V_10\u0025_X7R*%
%TO.CLbN,Capacitors SMD*%
%TO.CMnt,SMD*%
%TO.CRot,-90*%
X142000000Y-102100000D03*
D14*
X142455000Y-101195000D02*
X142455000Y-103005000D01*
X141545000Y-103005000D01*
X141545000Y-101195000D01*
X142455000Y-101195000D01*
D12*
%TO.P,C10,1,1*%
X142000000Y-101650000D03*
D13*
%TO.P,C10,2,2*%
X142000000Y-102550000D03*
%TD*%
D10*
%TO.C,R76*%
%TO.CFtp,RESC1005X40N*%
%TO.CVal,R0402_10K_1\u0025_0.0625W_100PPM*%
%TO.CLbN,Resistors SMD*%
%TO.CMnt,SMD*%
%TO.CRot,90*%
X124160000Y-111350000D03*
D14*
X124615000Y-110445000D02*
X124615000Y-112255000D01*
X123705000Y-112255000D01*
X123705000Y-110445000D01*
X124615000Y-110445000D01*
D12*
%TO.P,R76,1,1*%
X124160000Y-111820000D03*
D13*
%TO.P,R76,2,2*%
X124160000Y-110880000D03*
%TD*%
D10*
%TO.C,Y2*%
%TO.CFtp,OSCCC320X500X160-4N*%
%TO.CVal,VM53S3-25.000-2.5/-30+75*%
%TO.CLbN,ICs And Semiconductors SMD*%
%TO.CMnt,SMD*%
%TO.CRot,0*%
X164950000Y-115150000D03*
D14*
X167145000Y-112055000D02*
X167145000Y-118245000D01*
X162755000Y-118245000D01*
X162755000Y-112055000D01*
X167145000Y-112055000D01*
D12*
%TO.P,Y2,1,VC*%
X163650000Y-113000000D03*
D13*
%TO.P,Y2,2,GND*%
X163650000Y-117300000D03*
%TO.P,Y2,3,OUT*%
X166250000Y-117300000D03*
%TO.P,Y2,4,+Vs*%
X166250000Y-113000000D03*
%TD*%
D10*
%TO.C,C22*%
%TO.CFtp,CAPC1005X55N*%
%TO.CVal,CC0402_100NF_50V_10\u0025_X7R*%
%TO.CLbN,Capacitors SMD*%
%TO.CMnt,SMD*%
%TO.CRot,0*%
X142600000Y-55400000D03*
D14*
X143505000Y-54945000D02*
X143505000Y-55855000D01*
X141695000Y-55855000D01*
X141695000Y-54945000D01*
X143505000Y-54945000D01*
D12*
%TO.P,C22,1,1*%
X142150000Y-55400000D03*
D13*
%TO.P,C22,2,2*%
X143050000Y-55400000D03*
%TD*%
D10*
%TO.C,C191*%
%TO.CFtp,CAPC0603X33N*%
%TO.CVal,CC0201_100NF_6.3V_10\u0025_X5R*%
%TO.CLbN,Capacitors SMD*%
%TO.CMnt,SMD*%
%TO.CRot,-90*%
X169430000Y-124385000D03*
D14*
X169675000Y-123740000D02*
X169675000Y-125030000D01*
X169185000Y-125030000D01*
X169185000Y-123740000D01*
X169675000Y-123740000D01*
D12*
%TO.P,C191,1,1*%
X169430000Y-124035000D03*
D13*
%TO.P,C191,2,2*%
X169430000Y-124735000D03*
%TD*%
D10*
%TO.C,C247*%
%TO.CFtp,CAPC1005X55N*%
%TO.CVal,CC0402_100NF_50V_10\u0025_X7R*%
%TO.CLbN,Capacitors SMD*%
%TO.CMnt,SMD*%
%TO.CRot,90*%
X140900000Y-99200000D03*
D14*
X141355000Y-98295000D02*
X141355000Y-100105000D01*
X140445000Y-100105000D01*
X140445000Y-98295000D01*
X141355000Y-98295000D01*
D12*
%TO.P,C247,1,1*%
X140900000Y-99650000D03*
D13*
%TO.P,C247,2,2*%
X140900000Y-98750000D03*
%TD*%
D10*
%TO.C,R147*%
%TO.CFtp,RESC1005X40N*%
%TO.CVal,R0402_30K_1\u0025_0.0625W_100PPM*%
%TO.CLbN,Resistors SMD*%
%TO.CMnt,SMD*%
%TO.CRot,-90*%
X113700000Y-135600000D03*
D14*
X114155000Y-134695000D02*
X114155000Y-136505000D01*
X113245000Y-136505000D01*
X113245000Y-134695000D01*
X114155000Y-134695000D01*
D12*
%TO.P,R147,1,1*%
X113700000Y-135130000D03*
D13*
%TO.P,R147,2,2*%
X113700000Y-136070000D03*
%TD*%
D10*
%TO.C,R154*%
%TO.CFtp,RESC1005X40N*%
%TO.CVal,R0402_100K_1\u0025_0.0625W_100PPM*%
%TO.CLbN,Resistors SMD*%
%TO.CMnt,SMD*%
%TO.CRot,0*%
X137200000Y-120100000D03*
D14*
X138105000Y-119645000D02*
X138105000Y-120555000D01*
X136295000Y-120555000D01*
X136295000Y-119645000D01*
X138105000Y-119645000D01*
D12*
%TO.P,R154,1,1*%
X136730000Y-120100000D03*
D13*
%TO.P,R154,2,2*%
X137670000Y-120100000D03*
%TD*%
D10*
%TO.C,C2*%
%TO.CFtp,CAPC2012X95N*%
%TO.CVal,CC0805_10UF_25V_10\u0025_X5R*%
%TO.CLbN,Capacitors SMD*%
%TO.CMnt,SMD*%
%TO.CRot,0*%
X183050000Y-116165000D03*
D14*
X184745000Y-115170000D02*
X184745000Y-117160000D01*
X181355000Y-117160000D01*
X181355000Y-115170000D01*
X184745000Y-115170000D01*
D12*
%TO.P,C2,1,1*%
X182150000Y-116165000D03*
D13*
%TO.P,C2,2,2*%
X183950000Y-116165000D03*
%TD*%
D10*
%TO.C,R167*%
%TO.CFtp,RESC1005X40N*%
%TO.CVal,R0402_40R2_1\u0025_0.0625W_100PPM*%
%TO.CLbN,Resistors SMD*%
%TO.CMnt,SMD*%
%TO.CRot,-90*%
X192800000Y-127100000D03*
D14*
X193255000Y-126195000D02*
X193255000Y-128005000D01*
X192345000Y-128005000D01*
X192345000Y-126195000D01*
X193255000Y-126195000D01*
D12*
%TO.P,R167,1,1*%
X192800000Y-126630000D03*
D13*
%TO.P,R167,2,2*%
X192800000Y-127570000D03*
%TD*%
D10*
%TO.C,C208*%
%TO.CFtp,CAPC0603X33N*%
%TO.CVal,CC0201_100NF_6.3V_10\u0025_X5R*%
%TO.CLbN,Capacitors SMD*%
%TO.CMnt,SMD*%
%TO.CRot,0*%
X163500000Y-121900000D03*
D14*
X164145000Y-121655000D02*
X164145000Y-122145000D01*
X162855000Y-122145000D01*
X162855000Y-121655000D01*
X164145000Y-121655000D01*
D12*
%TO.P,C208,1,1*%
X163150000Y-121900000D03*
D13*
%TO.P,C208,2,2*%
X163850000Y-121900000D03*
%TD*%
D10*
%TO.C,R87*%
%TO.CFtp,RESC1005X40N*%
%TO.CVal,R0402_4K7_1\u0025_0.0625W_100PPM*%
%TO.CLbN,Resistors SMD*%
%TO.CMnt,SMD*%
%TO.CRot,0*%
X199500000Y-94600000D03*
D14*
X200405000Y-94145000D02*
X200405000Y-95055000D01*
X198595000Y-95055000D01*
X198595000Y-94145000D01*
X200405000Y-94145000D01*
D12*
%TO.P,R87,1,1*%
X199030000Y-94600000D03*
D13*
%TO.P,R87,2,2*%
X199970000Y-94600000D03*
%TD*%
D10*
%TO.C,C174*%
%TO.CFtp,CAPC2012X95N*%
%TO.CVal,CC0805_10UF_25V_10\u0025_X5R*%
%TO.CLbN,Capacitors SMD*%
%TO.CMnt,SMD*%
%TO.CRot,0*%
X148750000Y-119562500D03*
D14*
X150445000Y-118567500D02*
X150445000Y-120557500D01*
X147055000Y-120557500D01*
X147055000Y-118567500D01*
X150445000Y-118567500D01*
D12*
%TO.P,C174,1,1*%
X147850000Y-119562500D03*
D13*
%TO.P,C174,2,2*%
X149650000Y-119562500D03*
%TD*%
D10*
%TO.C,C198*%
%TO.CFtp,CAPC0603X33N*%
%TO.CVal,CC0201_100NF_6.3V_10\u0025_X5R*%
%TO.CLbN,Capacitors SMD*%
%TO.CMnt,SMD*%
%TO.CRot,90*%
X172000000Y-77800000D03*
D14*
X172245000Y-77155000D02*
X172245000Y-78445000D01*
X171755000Y-78445000D01*
X171755000Y-77155000D01*
X172245000Y-77155000D01*
D12*
%TO.P,C198,1,1*%
X172000000Y-78150000D03*
D13*
%TO.P,C198,2,2*%
X172000000Y-77450000D03*
%TD*%
D10*
%TO.C,C202*%
%TO.CFtp,CAPC1005X55N*%
%TO.CVal,CC0402_100NF_50V_10\u0025_X7R*%
%TO.CLbN,Capacitors SMD*%
%TO.CMnt,SMD*%
%TO.CRot,-90*%
X158900000Y-126100000D03*
D14*
X159355000Y-125195000D02*
X159355000Y-127005000D01*
X158445000Y-127005000D01*
X158445000Y-125195000D01*
X159355000Y-125195000D01*
D12*
%TO.P,C202,1,1*%
X158900000Y-125650000D03*
D13*
%TO.P,C202,2,2*%
X158900000Y-126550000D03*
%TD*%
D10*
%TO.C,R20*%
%TO.CFtp,RESC1005X40N*%
%TO.CVal,R0402_330R_1\u0025_0.0625W_100PPM*%
%TO.CLbN,Resistors SMD*%
%TO.CMnt,SMD*%
%TO.CRot,180*%
X136900000Y-107000000D03*
D14*
X137805000Y-106545000D02*
X137805000Y-107455000D01*
X135995000Y-107455000D01*
X135995000Y-106545000D01*
X137805000Y-106545000D01*
D12*
%TO.P,R20,1,1*%
X137370000Y-107000000D03*
D13*
%TO.P,R20,2,2*%
X136430000Y-107000000D03*
%TD*%
D10*
%TO.C,R174*%
%TO.CFtp,RESC1005X40N*%
%TO.CVal,R0402_100K_1\u0025_0.0625W_100PPM*%
%TO.CLbN,Resistors SMD*%
%TO.CMnt,SMD*%
%TO.CRot,180*%
X170200000Y-59000000D03*
D14*
X171105000Y-58545000D02*
X171105000Y-59455000D01*
X169295000Y-59455000D01*
X169295000Y-58545000D01*
X171105000Y-58545000D01*
D12*
%TO.P,R174,1,1*%
X170670000Y-59000000D03*
D13*
%TO.P,R174,2,2*%
X169730000Y-59000000D03*
%TD*%
D10*
%TO.C,R102*%
%TO.CFtp,RESC1005X40N*%
%TO.CVal,R0402_240R_1\u0025_0.0625W_100PPM*%
%TO.CLbN,Resistors SMD*%
%TO.CMnt,SMD*%
%TO.CRot,-90*%
X172430000Y-116285000D03*
D14*
X172885000Y-115380000D02*
X172885000Y-117190000D01*
X171975000Y-117190000D01*
X171975000Y-115380000D01*
X172885000Y-115380000D01*
D12*
%TO.P,R102,1,1*%
X172430000Y-115815000D03*
D13*
%TO.P,R102,2,2*%
X172430000Y-116755000D03*
%TD*%
D10*
%TO.C,C193*%
%TO.CFtp,CAPC1005X55N*%
%TO.CVal,CC0402_2.2NF_50V_10\u0025_X7R*%
%TO.CLbN,Capacitors SMD*%
%TO.CMnt,SMD*%
%TO.CRot,180*%
X163400000Y-120800000D03*
D14*
X164305000Y-120345000D02*
X164305000Y-121255000D01*
X162495000Y-121255000D01*
X162495000Y-120345000D01*
X164305000Y-120345000D01*
D12*
%TO.P,C193,1,1*%
X163850000Y-120800000D03*
D13*
%TO.P,C193,2,2*%
X162950000Y-120800000D03*
%TD*%
D10*
%TO.C,C176*%
%TO.CFtp,CAPC2012X95N*%
%TO.CVal,CC0805_10UF_25V_10\u0025_X5R*%
%TO.CLbN,Capacitors SMD*%
%TO.CMnt,SMD*%
%TO.CRot,0*%
X132300000Y-131600000D03*
D14*
X133995000Y-130605000D02*
X133995000Y-132595000D01*
X130605000Y-132595000D01*
X130605000Y-130605000D01*
X133995000Y-130605000D01*
D12*
%TO.P,C176,1,1*%
X131400000Y-131600000D03*
D13*
%TO.P,C176,2,2*%
X133200000Y-131600000D03*
%TD*%
D10*
%TO.C,R25*%
%TO.CFtp,RESC1005X40N*%
%TO.CVal,R0402_4K7_1\u0025_0.0625W_100PPM*%
%TO.CLbN,Resistors SMD*%
%TO.CMnt,SMD*%
%TO.CRot,180*%
X174262500Y-60400000D03*
D14*
X175167500Y-59945000D02*
X175167500Y-60855000D01*
X173357500Y-60855000D01*
X173357500Y-59945000D01*
X175167500Y-59945000D01*
D12*
%TO.P,R25,1,1*%
X174732500Y-60400000D03*
D13*
%TO.P,R25,2,2*%
X173792500Y-60400000D03*
%TD*%
D10*
%TO.C,C74*%
%TO.CFtp,CAPC1005X55N*%
%TO.CVal,CC0402_100NF_50V_10\u0025_X7R*%
%TO.CLbN,Capacitors SMD*%
%TO.CMnt,SMD*%
%TO.CRot,180*%
X131600000Y-123700000D03*
D14*
X132505000Y-123245000D02*
X132505000Y-124155000D01*
X130695000Y-124155000D01*
X130695000Y-123245000D01*
X132505000Y-123245000D01*
D12*
%TO.P,C74,1,1*%
X132050000Y-123700000D03*
D13*
%TO.P,C74,2,2*%
X131150000Y-123700000D03*
%TD*%
D10*
%TO.C,R8*%
%TO.CFtp,RESC1005X40N*%
%TO.CVal,R0402_22R_1\u0025_0.0625W_100PPM*%
%TO.CLbN,Resistors SMD*%
%TO.CMnt,SMD*%
%TO.CRot,180*%
X152800000Y-106000000D03*
D14*
X153705000Y-105545000D02*
X153705000Y-106455000D01*
X151895000Y-106455000D01*
X151895000Y-105545000D01*
X153705000Y-105545000D01*
D12*
%TO.P,R8,1,1*%
X153270000Y-106000000D03*
D13*
%TO.P,R8,2,2*%
X152330000Y-106000000D03*
%TD*%
D10*
%TO.C,R4*%
%TO.CFtp,RESC1005X40N*%
%TO.CVal,R0402_22R_1\u0025_0.0625W_100PPM*%
%TO.CLbN,Resistors SMD*%
%TO.CMnt,SMD*%
%TO.CRot,180*%
X152800000Y-108000000D03*
D14*
X153705000Y-107545000D02*
X153705000Y-108455000D01*
X151895000Y-108455000D01*
X151895000Y-107545000D01*
X153705000Y-107545000D01*
D12*
%TO.P,R4,1,1*%
X153270000Y-108000000D03*
D13*
%TO.P,R4,2,2*%
X152330000Y-108000000D03*
%TD*%
D10*
%TO.C,R124*%
%TO.CFtp,RESC1005X40N*%
%TO.CVal,R0402_845R_0.1\u0025_0.063W_25PPM*%
%TO.CLbN,Resistors SMD*%
%TO.CMnt,SMD*%
%TO.CRot,0*%
X164700000Y-78900000D03*
D14*
X165605000Y-78445000D02*
X165605000Y-79355000D01*
X163795000Y-79355000D01*
X163795000Y-78445000D01*
X165605000Y-78445000D01*
D12*
%TO.P,R124,1,1*%
X164230000Y-78900000D03*
D13*
%TO.P,R124,2,2*%
X165170000Y-78900000D03*
%TD*%
D10*
%TO.C,C207*%
%TO.CFtp,CAPC1005X55N*%
%TO.CVal,CC0402_1UF_16V_10\u0025_X5R*%
%TO.CLbN,Capacitors SMD*%
%TO.CMnt,SMD*%
%TO.CRot,-90*%
X157000000Y-126100000D03*
D14*
X157455000Y-125195000D02*
X157455000Y-127005000D01*
X156545000Y-127005000D01*
X156545000Y-125195000D01*
X157455000Y-125195000D01*
D12*
%TO.P,C207,1,1*%
X157000000Y-125650000D03*
D13*
%TO.P,C207,2,2*%
X157000000Y-126550000D03*
%TD*%
D10*
%TO.C,R32*%
%TO.CFtp,RESC1005X40N*%
%TO.CVal,R0402_4K7_1\u0025_0.0625W_100PPM*%
%TO.CLbN,Resistors SMD*%
%TO.CMnt,SMD*%
%TO.CRot,0*%
X181962500Y-62900000D03*
D14*
X182867500Y-62445000D02*
X182867500Y-63355000D01*
X181057500Y-63355000D01*
X181057500Y-62445000D01*
X182867500Y-62445000D01*
D12*
%TO.P,R32,1,1*%
X181492500Y-62900000D03*
D13*
%TO.P,R32,2,2*%
X182432500Y-62900000D03*
%TD*%
D10*
%TO.C,C80*%
%TO.CFtp,CAPC1005X55N*%
%TO.CVal,CC0402_100NF_50V_10\u0025_X7R*%
%TO.CLbN,Capacitors SMD*%
%TO.CMnt,SMD*%
%TO.CRot,0*%
X121300000Y-120100000D03*
D14*
X122205000Y-119645000D02*
X122205000Y-120555000D01*
X120395000Y-120555000D01*
X120395000Y-119645000D01*
X122205000Y-119645000D01*
D12*
%TO.P,C80,1,1*%
X120850000Y-120100000D03*
D13*
%TO.P,C80,2,2*%
X121750000Y-120100000D03*
%TD*%
D10*
%TO.C,R155*%
%TO.CFtp,RESC1005X40N*%
%TO.CVal,R0402_10K_1\u0025_0.0625W_100PPM*%
%TO.CLbN,Resistors SMD*%
%TO.CMnt,SMD*%
%TO.CRot,-90*%
X196200000Y-56900000D03*
D14*
X196655000Y-55995000D02*
X196655000Y-57805000D01*
X195745000Y-57805000D01*
X195745000Y-55995000D01*
X196655000Y-55995000D01*
D12*
%TO.P,R155,1,1*%
X196200000Y-56430000D03*
D13*
%TO.P,R155,2,2*%
X196200000Y-57370000D03*
%TD*%
D10*
%TO.C,R162*%
%TO.CFtp,RESC1005X40N*%
%TO.CVal,R0402_30K_1\u0025_0.0625W_100PPM*%
%TO.CLbN,Resistors SMD*%
%TO.CMnt,SMD*%
%TO.CRot,-90*%
X173275000Y-75675000D03*
D14*
X173730000Y-74770000D02*
X173730000Y-76580000D01*
X172820000Y-76580000D01*
X172820000Y-74770000D01*
X173730000Y-74770000D01*
D12*
%TO.P,R162,1,1*%
X173275000Y-75205000D03*
D13*
%TO.P,R162,2,2*%
X173275000Y-76145000D03*
%TD*%
D10*
%TO.C,J2*%
%TO.CFtp,USB_C_Receptacle_GCT_USB4105-xx-A_16P_TopMnt_Horizontal*%
%TO.CVal,USB_C_Receptacle_USB2.0_16P*%
%TO.CLbN,Connector_USB*%
%TO.CMnt,SMD*%
%TO.CRot,-90*%
X106600000Y-116600000D03*
D14*
X111355000Y-111285000D02*
X111355000Y-121915000D01*
X102425000Y-121915000D01*
X102425000Y-111285000D01*
X111355000Y-111285000D01*
D12*
%TO.P,J2,A1,GND*%
X110280000Y-113400000D03*
D13*
%TO.P,J2,*%
X109205000Y-113710000D03*
X109205000Y-119490000D03*
%TO.P,J2,A4,VBUS*%
X110280000Y-114200000D03*
%TO.P,J2,A5,CC1*%
X110280000Y-115350000D03*
%TO.P,J2,A6,D+*%
X110280000Y-116350000D03*
%TO.P,J2,A7,D-*%
X110280000Y-116850000D03*
%TO.P,J2,A8,SBU1*%
X110280000Y-117850000D03*
%TO.P,J2,A9,VBUS*%
X110280000Y-119000000D03*
%TO.P,J2,A12,GND*%
X110280000Y-119800000D03*
%TO.P,J2,B1,GND*%
X110280000Y-119800000D03*
%TO.P,J2,B4,VBUS*%
X110280000Y-119000000D03*
%TO.P,J2,B5,CC2*%
X110280000Y-118350000D03*
%TO.P,J2,B6,D+*%
X110280000Y-117350000D03*
%TO.P,J2,B7,D-*%
X110280000Y-115850000D03*
%TO.P,J2,B8,SBU2*%
X110280000Y-114850000D03*
%TO.P,J2,B9,VBUS*%
X110280000Y-114200000D03*
%TO.P,J2,B12,GND*%
X110280000Y-113400000D03*
%TO.P,J2,S1,SHIELD*%
X109705000Y-112280000D03*
X105525000Y-112280000D03*
X109705000Y-120920000D03*
X105525000Y-120920000D03*
%TD*%
D10*
%TO.C,D1*%
%TO.CFtp,SOT190P230X110-4N*%
%TO.CVal,PRTR5V0U2X*%
%TO.CLbN,ICs And Semiconductors SMD*%
%TO.CMnt,SMD*%
%TO.CRot,90*%
X114200000Y-116700000D03*
D14*
X115945000Y-114805000D02*
X115945000Y-118595000D01*
X112455000Y-118595000D01*
X112455000Y-114805000D01*
X115945000Y-114805000D01*
D12*
%TO.P,D1,1,GND*%
X113450000Y-117850000D03*
D13*
%TO.P,D1,2,I/O1*%
X115150000Y-117850000D03*
%TO.P,D1,3,I/O2*%
X115150000Y-115550000D03*
%TO.P,D1,4,VCC*%
X113250000Y-115550000D03*
%TD*%
D10*
%TO.C,C205*%
%TO.CFtp,CAPC1005X55N*%
%TO.CVal,CC0402_100NF_50V_10\u0025_X7R*%
%TO.CLbN,Capacitors SMD*%
%TO.CMnt,SMD*%
%TO.CRot,0*%
X153900000Y-122700000D03*
D14*
X154805000Y-122245000D02*
X154805000Y-123155000D01*
X152995000Y-123155000D01*
X152995000Y-122245000D01*
X154805000Y-122245000D01*
D12*
%TO.P,C205,1,1*%
X153450000Y-122700000D03*
D13*
%TO.P,C205,2,2*%
X154350000Y-122700000D03*
%TD*%
D10*
%TO.C,R31*%
%TO.CFtp,RESC1005X40N*%
%TO.CVal,R0402_4K7_1\u0025_0.0625W_100PPM*%
%TO.CLbN,Resistors SMD*%
%TO.CMnt,SMD*%
%TO.CRot,-90*%
X187750000Y-64275000D03*
D14*
X188205000Y-63370000D02*
X188205000Y-65180000D01*
X187295000Y-65180000D01*
X187295000Y-63370000D01*
X188205000Y-63370000D01*
D12*
%TO.P,R31,1,1*%
X187750000Y-63805000D03*
D13*
%TO.P,R31,2,2*%
X187750000Y-64745000D03*
%TD*%
D10*
%TO.C,C185*%
%TO.CFtp,CAPC0603X33N*%
%TO.CVal,CC0201_100NF_6.3V_10\u0025_X5R*%
%TO.CLbN,Capacitors SMD*%
%TO.CMnt,SMD*%
%TO.CRot,180*%
X169230000Y-120185000D03*
D14*
X169875000Y-119940000D02*
X169875000Y-120430000D01*
X168585000Y-120430000D01*
X168585000Y-119940000D01*
X169875000Y-119940000D01*
D12*
%TO.P,C185,1,1*%
X169580000Y-120185000D03*
D13*
%TO.P,C185,2,2*%
X168880000Y-120185000D03*
%TD*%
D10*
%TO.C,R78*%
%TO.CFtp,RESC1005X40N*%
%TO.CVal,R0402_12K_1\u0025_0.0625W_100PPM*%
%TO.CLbN,Resistors SMD*%
%TO.CMnt,SMD*%
%TO.CRot,0*%
X121300000Y-116600000D03*
D14*
X122205000Y-116145000D02*
X122205000Y-117055000D01*
X120395000Y-117055000D01*
X120395000Y-116145000D01*
X122205000Y-116145000D01*
D12*
%TO.P,R78,1,1*%
X120830000Y-116600000D03*
D13*
%TO.P,R78,2,2*%
X121770000Y-116600000D03*
%TD*%
D10*
%TO.C,B3*%
%TO.CFtp,MTG320_550*%
%TO.CVal,PLATED_HOLE3.2_PAD5.5*%
%TO.CLbN,Pads*%
%TO.CMnt,TH*%
%TO.CRot,0*%
X207000000Y-58000000D03*
D11*
X204250000Y-55250000D02*
X204250000Y-60750000D01*
X209750000Y-60750000D01*
X209750000Y-55250000D01*
X204250000Y-55250000D01*
D12*
%TO.P,B3,1,1*%
X207000000Y-58000000D03*
%TD*%
D10*
%TO.C,L5*%
%TO.CFtp,L_1008_2520Metric*%
%TO.CVal,4.7 uH*%
%TO.CLbN,Inductor_SMD*%
%TO.CMnt,SMD*%
%TO.CRot,90*%
X143300000Y-94300000D03*
D14*
X144645000Y-92355000D02*
X144645000Y-96245000D01*
X141955000Y-96245000D01*
X141955000Y-92355000D01*
X144645000Y-92355000D01*
D12*
%TO.P,L5,1,1*%
X143300000Y-95375000D03*
D13*
%TO.P,L5,2,2*%
X143300000Y-93225000D03*
%TD*%
D10*
%TO.C,R45*%
%TO.CFtp,RESC1005X40N*%
%TO.CVal,R0402_4K7_1\u0025_0.0625W_100PPM*%
%TO.CLbN,Resistors SMD*%
%TO.CMnt,SMD*%
%TO.CRot,180*%
X162462500Y-61600000D03*
D14*
X163367500Y-61145000D02*
X163367500Y-62055000D01*
X161557500Y-62055000D01*
X161557500Y-61145000D01*
X163367500Y-61145000D01*
D12*
%TO.P,R45,1,1*%
X162932500Y-61600000D03*
D13*
%TO.P,R45,2,2*%
X161992500Y-61600000D03*
%TD*%
D10*
%TO.C,R105*%
%TO.CFtp,RESC1005X40N*%
%TO.CVal,R0402_0R_JUMPER*%
%TO.CLbN,Resistors SMD*%
%TO.CMnt,SMD*%
%TO.CRot,90*%
X155400000Y-124000000D03*
D14*
X155855000Y-123095000D02*
X155855000Y-124905000D01*
X154945000Y-124905000D01*
X154945000Y-123095000D01*
X155855000Y-123095000D01*
D12*
%TO.P,R105,1,1*%
X155400000Y-124470000D03*
D13*
%TO.P,R105,2,2*%
X155400000Y-123530000D03*
%TD*%
D10*
%TO.C,J4*%
%TO.CFtp,PinSocket_2x06_P2.54mm_Horizontal_PMOD*%
%TO.CVal,Conn_02x06_Top_Bottom*%
%TO.CLbN,Miscellaneous THD*%
%TO.CMnt,TH*%
%TO.CRot,180*%
X212875000Y-138325000D03*
D14*
X225920000Y-123880000D02*
X225920000Y-140120000D01*
X211080000Y-140120000D01*
X211080000Y-123880000D01*
X225920000Y-123880000D01*
D12*
%TO.P,J4,1,Pin_1*%
X212875000Y-125625000D03*
D13*
%TO.P,J4,2,Pin_2*%
X212875000Y-128165000D03*
%TO.P,J4,3,Pin_3*%
X212875000Y-130705000D03*
%TO.P,J4,4,Pin_4*%
X212875000Y-133245000D03*
%TO.P,J4,5,Pin_5*%
X212875000Y-135785000D03*
%TO.P,J4,6,Pin_6*%
X212875000Y-138325000D03*
%TO.P,J4,7,Pin_7*%
X215415000Y-125625000D03*
%TO.P,J4,8,Pin_8*%
X215415000Y-128165000D03*
%TO.P,J4,9,Pin_9*%
X215415000Y-130705000D03*
%TO.P,J4,10,Pin_10*%
X215415000Y-133245000D03*
%TO.P,J4,11,Pin_11*%
X215415000Y-135785000D03*
%TO.P,J4,12,Pin_12*%
X215415000Y-138325000D03*
%TD*%
D10*
%TO.C,C221*%
%TO.CFtp,CAPC1005X55N*%
%TO.CVal,CC0402_100NF_50V_10\u0025_X7R*%
%TO.CLbN,Capacitors SMD*%
%TO.CMnt,SMD*%
%TO.CRot,0*%
X166012500Y-57362000D03*
D14*
X166917500Y-56907000D02*
X166917500Y-57817000D01*
X165107500Y-57817000D01*
X165107500Y-56907000D01*
X166917500Y-56907000D01*
D12*
%TO.P,C221,1,1*%
X165562500Y-57362000D03*
D13*
%TO.P,C221,2,2*%
X166462500Y-57362000D03*
%TD*%
D10*
%TO.C,R122*%
%TO.CFtp,RESC1005X40N*%
%TO.CVal,R0402_4K7_1\u0025_0.0625W_100PPM*%
%TO.CLbN,Resistors SMD*%
%TO.CMnt,SMD*%
%TO.CRot,180*%
X184900000Y-59300000D03*
D14*
X185805000Y-58845000D02*
X185805000Y-59755000D01*
X183995000Y-59755000D01*
X183995000Y-58845000D01*
X185805000Y-58845000D01*
D12*
%TO.P,R122,1,1*%
X185370000Y-59300000D03*
D13*
%TO.P,R122,2,2*%
X184430000Y-59300000D03*
%TD*%
D10*
%TO.C,R44*%
%TO.CFtp,RESC1005X40N*%
%TO.CVal,R0402_4K7_1\u0025_0.0625W_100PPM*%
%TO.CLbN,Resistors SMD*%
%TO.CMnt,SMD*%
%TO.CRot,0*%
X170162500Y-63000000D03*
D14*
X171067500Y-62545000D02*
X171067500Y-63455000D01*
X169257500Y-63455000D01*
X169257500Y-62545000D01*
X171067500Y-62545000D01*
D12*
%TO.P,R44,1,1*%
X169692500Y-63000000D03*
D13*
%TO.P,R44,2,2*%
X170632500Y-63000000D03*
%TD*%
D10*
%TO.C,C7*%
%TO.CFtp,CAPC1005X70N*%
%TO.CVal,CC0402_10UF_6.3V_20\u0025_X5R*%
%TO.CLbN,Capacitors SMD*%
%TO.CMnt,SMD*%
%TO.CRot,90*%
X142000000Y-110900000D03*
D14*
X142505000Y-109935000D02*
X142505000Y-111865000D01*
X141495000Y-111865000D01*
X141495000Y-109935000D01*
X142505000Y-109935000D01*
D12*
%TO.P,C7,1,1*%
X142000000Y-111360000D03*
D13*
%TO.P,C7,2,2*%
X142000000Y-110440000D03*
%TD*%
D10*
%TO.C,Y6*%
%TO.CFtp,XTAL_TXC_8Y*%
%TO.CVal,XTAL_25MHZ_TXC_8Y-25.000MAAJ-T*%
%TO.CLbN,ICs And Semiconductors SMD*%
%TO.CMnt,SMD*%
%TO.CRot,-90*%
X170000000Y-75950000D03*
D14*
X171395000Y-74755000D02*
X171395000Y-77145000D01*
X168605000Y-77145000D01*
X168605000Y-74755000D01*
X171395000Y-74755000D01*
D12*
%TO.P,Y6,1,X*%
X170700000Y-75400000D03*
D13*
%TO.P,Y6,2,GND*%
X169300000Y-75400000D03*
%TO.P,Y6,3,X*%
X169300000Y-76500000D03*
%TO.P,Y6,4,GND*%
X170700000Y-76500000D03*
%TD*%
D10*
%TO.C,C111*%
%TO.CFtp,CAPC2012X145N*%
%TO.CVal,CC0805_100UF_6.3V_20\u0025_X5R*%
%TO.CLbN,Capacitors SMD*%
%TO.CMnt,SMD*%
%TO.CRot,0*%
X174600000Y-95800000D03*
D14*
X176345000Y-94805000D02*
X176345000Y-96795000D01*
X172855000Y-96795000D01*
X172855000Y-94805000D01*
X176345000Y-94805000D01*
D12*
%TO.P,C111,1,1*%
X173700000Y-95800000D03*
D13*
%TO.P,C111,2,2*%
X175500000Y-95800000D03*
%TD*%
D10*
%TO.C,U25*%
%TO.CFtp,SOT95P280X145-5N*%
%TO.CVal,SN74LVC1G07DBV*%
%TO.CLbN,ICs And Semiconductors SMD*%
%TO.CMnt,SMD*%
%TO.CRot,90*%
X142500000Y-122750000D03*
D14*
X144295000Y-120655000D02*
X144295000Y-124845000D01*
X140705000Y-124845000D01*
X140705000Y-120655000D01*
X144295000Y-120655000D01*
D12*
%TO.P,U25,1*%
X141550000Y-124050000D03*
D13*
%TO.P,U25,2,IN*%
X142500000Y-124050000D03*
%TO.P,U25,3,GND*%
X143450000Y-124050000D03*
%TO.P,U25,4,OUT*%
X143450000Y-121450000D03*
%TO.P,U25,5,VCC*%
X141550000Y-121450000D03*
%TD*%
D10*
%TO.C,Q3*%
%TO.CFtp,SOT95P240X110-3N*%
%TO.CVal,BSS138LT1G*%
%TO.CLbN,ICs And Semiconductors SMD*%
%TO.CMnt,SMD*%
%TO.CRot,90*%
X195250000Y-61250000D03*
D14*
X196995000Y-59305000D02*
X196995000Y-63195000D01*
X193505000Y-63195000D01*
X193505000Y-59305000D01*
X196995000Y-59305000D01*
D12*
%TO.P,Q3,1,G*%
X194300000Y-62400000D03*
D13*
%TO.P,Q3,2,S*%
X196200000Y-62400000D03*
%TO.P,Q3,3,D*%
X195250000Y-60100000D03*
%TD*%
D10*
%TO.C,C85*%
%TO.CFtp,CAPC1005X55N*%
%TO.CVal,CC0402_4.7UF_16V_20\u0025_X5R*%
%TO.CLbN,Capacitors SMD*%
%TO.CMnt,SMD*%
%TO.CRot,-90*%
X120600000Y-115100000D03*
D14*
X121055000Y-114195000D02*
X121055000Y-116005000D01*
X120145000Y-116005000D01*
X120145000Y-114195000D01*
X121055000Y-114195000D01*
D12*
%TO.P,C85,1,1*%
X120600000Y-114650000D03*
D13*
%TO.P,C85,2,2*%
X120600000Y-115550000D03*
%TD*%
D10*
%TO.C,R152*%
%TO.CFtp,RESC1005X40N*%
%TO.CVal,R0402_12K_1\u0025_0.0625W_100PPM*%
%TO.CLbN,Resistors SMD*%
%TO.CMnt,SMD*%
%TO.CRot,-90*%
X124500000Y-125000000D03*
D14*
X124955000Y-124095000D02*
X124955000Y-125905000D01*
X124045000Y-125905000D01*
X124045000Y-124095000D01*
X124955000Y-124095000D01*
D12*
%TO.P,R152,1,1*%
X124500000Y-124530000D03*
D13*
%TO.P,R152,2,2*%
X124500000Y-125470000D03*
%TD*%
D10*
%TO.C,R121*%
%TO.CFtp,RESC1005X40N*%
%TO.CVal,R0402_240R_1\u0025_0.0625W_100PPM*%
%TO.CLbN,Resistors SMD*%
%TO.CMnt,SMD*%
%TO.CRot,90*%
X172000000Y-86600000D03*
D14*
X172455000Y-85695000D02*
X172455000Y-87505000D01*
X171545000Y-87505000D01*
X171545000Y-85695000D01*
X172455000Y-85695000D01*
D12*
%TO.P,R121,1,1*%
X172000000Y-87070000D03*
D13*
%TO.P,R121,2,2*%
X172000000Y-86130000D03*
%TD*%
D10*
%TO.C,R14*%
%TO.CFtp,RESC1005X40N*%
%TO.CVal,R0402_4K7_1\u0025_0.0625W_100PPM*%
%TO.CLbN,Resistors SMD*%
%TO.CMnt,SMD*%
%TO.CRot,0*%
X136900000Y-108000000D03*
D14*
X137805000Y-107545000D02*
X137805000Y-108455000D01*
X135995000Y-108455000D01*
X135995000Y-107545000D01*
X137805000Y-107545000D01*
D12*
%TO.P,R14,1,1*%
X136430000Y-108000000D03*
D13*
%TO.P,R14,2,2*%
X137370000Y-108000000D03*
%TD*%
D10*
%TO.C,LD1*%
%TO.CFtp,LED_OSRAM_LS Q976*%
%TO.CVal,LED_OSRAM_LS_Q976-NR-1*%
%TO.CLbN,ICs And Semiconductors SMD*%
%TO.CMnt,SMD*%
%TO.CRot,-90*%
X111250000Y-136025000D03*
D14*
X111895000Y-134655000D02*
X111895000Y-137395000D01*
X110605000Y-137395000D01*
X110605000Y-134655000D01*
X111895000Y-134655000D01*
D12*
%TO.P,LD1,1,C*%
X111250000Y-135150000D03*
X111250000Y-135550000D03*
D13*
%TO.P,LD1,2,A*%
X111250000Y-136500000D03*
X111250000Y-136900000D03*
%TD*%
D10*
%TO.C,C225*%
%TO.CFtp,CAPC1005X55N*%
%TO.CVal,CC0402_100NF_50V_10\u0025_X7R*%
%TO.CLbN,Capacitors SMD*%
%TO.CMnt,SMD*%
%TO.CRot,90*%
X189900000Y-135950000D03*
D14*
X190355000Y-135045000D02*
X190355000Y-136855000D01*
X189445000Y-136855000D01*
X189445000Y-135045000D01*
X190355000Y-135045000D01*
D12*
%TO.P,C225,1,1*%
X189900000Y-136400000D03*
D13*
%TO.P,C225,2,2*%
X189900000Y-135500000D03*
%TD*%
D10*
%TO.C,R158*%
%TO.CFtp,RESC1005X40N*%
%TO.CVal,R0402_10K_1\u0025_0.0625W_100PPM*%
%TO.CLbN,Resistors SMD*%
%TO.CMnt,SMD*%
%TO.CRot,180*%
X202250000Y-63885000D03*
D14*
X203155000Y-63430000D02*
X203155000Y-64340000D01*
X201345000Y-64340000D01*
X201345000Y-63430000D01*
X203155000Y-63430000D01*
D12*
%TO.P,R158,1,1*%
X202720000Y-63885000D03*
D13*
%TO.P,R158,2,2*%
X201780000Y-63885000D03*
%TD*%
D10*
%TO.C,C196*%
%TO.CFtp,CAPC0603X33N*%
%TO.CVal,CC0201_100NF_6.3V_10\u0025_X5R*%
%TO.CLbN,Capacitors SMD*%
%TO.CMnt,SMD*%
%TO.CRot,90*%
X167730000Y-116685000D03*
D14*
X167975000Y-116040000D02*
X167975000Y-117330000D01*
X167485000Y-117330000D01*
X167485000Y-116040000D01*
X167975000Y-116040000D01*
D12*
%TO.P,C196,1,1*%
X167730000Y-117035000D03*
D13*
%TO.P,C196,2,2*%
X167730000Y-116335000D03*
%TD*%
D10*
%TO.C,U21*%
%TO.CFtp,QFN50P900X900X100-65N-S445*%
%TO.CVal,FT2232HQ*%
%TO.CLbN,ICs And Semiconductors SMD*%
%TO.CMnt,SMD*%
%TO.CRot,0*%
X127850000Y-117850000D03*
D14*
X132995000Y-112705000D02*
X132995000Y-122995000D01*
X122705000Y-122995000D01*
X122705000Y-112705000D01*
X132995000Y-112705000D01*
D12*
%TO.P,U21,1,GND*%
X123400000Y-114100000D03*
D13*
%TO.P,U21,2,OSCI*%
X123400000Y-114600000D03*
%TO.P,U21,3,OSCO*%
X123400000Y-115100000D03*
%TO.P,U21,4,VPHY*%
X123400000Y-115600000D03*
%TO.P,U21,5,GND*%
X123400000Y-116100000D03*
%TO.P,U21,6,REF*%
X123400000Y-116600000D03*
%TO.P,U21,7,DM*%
X123400000Y-117100000D03*
%TO.P,U21,8,DP*%
X123400000Y-117600000D03*
%TO.P,U21,9,VPLL*%
X123400000Y-118100000D03*
%TO.P,U21,10,AGND*%
X123400000Y-118600000D03*
%TO.P,U21,11,GND*%
X123400000Y-119100000D03*
%TO.P,U21,12,VCORE*%
X123400000Y-119600000D03*
%TO.P,U21,13,TEST*%
X123400000Y-120100000D03*
%TO.P,U21,14,RESET#*%
X123400000Y-120600000D03*
%TO.P,U21,15,GND*%
X123400000Y-121100000D03*
%TO.P,U21,16,ADBUS0*%
X123400000Y-121600000D03*
%TO.P,U21,17,ADBUS1*%
X124100000Y-122300000D03*
%TO.P,U21,18,ADBUS2*%
X124600000Y-122300000D03*
%TO.P,U21,19,ADBUS3*%
X125100000Y-122300000D03*
%TO.P,U21,20,VCCIO*%
X125600000Y-122300000D03*
%TO.P,U21,21,ADBUS4*%
X126100000Y-122300000D03*
%TO.P,U21,22,ADBUS5*%
X126600000Y-122300000D03*
%TO.P,U21,23,ADBUS6*%
X127100000Y-122300000D03*
%TO.P,U21,24,ADBUS7*%
X127600000Y-122300000D03*
%TO.P,U21,25,GND*%
X128100000Y-122300000D03*
%TO.P,U21,26,ACBUS0*%
X128600000Y-122300000D03*
%TO.P,U21,27,ACBUS1*%
X129100000Y-122300000D03*
%TO.P,U21,28,ACBUS2*%
X129600000Y-122300000D03*
%TO.P,U21,29,ACBUS3*%
X130100000Y-122300000D03*
%TO.P,U21,30,ACBUS4*%
X130600000Y-122300000D03*
%TO.P,U21,31,VCCIO*%
X131100000Y-122300000D03*
%TO.P,U21,32,ACBUS5*%
X131600000Y-122300000D03*
%TO.P,U21,33,ACBUS6*%
X132300000Y-121600000D03*
%TO.P,U21,34,ACBUS7*%
X132300000Y-121100000D03*
%TO.P,U21,35,GND*%
X132300000Y-120600000D03*
%TO.P,U21,36,SUSPEND#*%
X132300000Y-120100000D03*
%TO.P,U21,37,VCORE*%
X132300000Y-119600000D03*
%TO.P,U21,38,BDBUS0*%
X132300000Y-119100000D03*
%TO.P,U21,39,BDBUS1*%
X132300000Y-118600000D03*
%TO.P,U21,40,BDBUS2*%
X132300000Y-118100000D03*
%TO.P,U21,41,BDBUS3*%
X132300000Y-117600000D03*
%TO.P,U21,42,VCCIO*%
X132300000Y-117100000D03*
%TO.P,U21,43,BDBUS4*%
X132300000Y-116600000D03*
%TO.P,U21,44,BDBUS5*%
X132300000Y-116100000D03*
%TO.P,U21,45,BDBUS6*%
X132300000Y-115600000D03*
%TO.P,U21,46,BDBUS7*%
X132300000Y-115100000D03*
%TO.P,U21,47,GND*%
X132300000Y-114600000D03*
%TO.P,U21,48,BCBUS0*%
X132300000Y-114100000D03*
%TO.P,U21,49,VREGOUT*%
X131600000Y-113400000D03*
%TO.P,U21,50,VREGIN*%
X131100000Y-113400000D03*
%TO.P,U21,51,GND*%
X130600000Y-113400000D03*
%TO.P,U21,52,BCBUS1*%
X130100000Y-113400000D03*
%TO.P,U21,53,BCBUS2*%
X129600000Y-113400000D03*
%TO.P,U21,54,BCBUS3*%
X129100000Y-113400000D03*
%TO.P,U21,55,BCBUS4*%
X128600000Y-113400000D03*
%TO.P,U21,56,VCCIO*%
X128100000Y-113400000D03*
%TO.P,U21,57,BCBUS5*%
X127600000Y-113400000D03*
%TO.P,U21,58,BCBUS6*%
X127100000Y-113400000D03*
%TO.P,U21,59,BCBUS7*%
X126600000Y-113400000D03*
%TO.P,U21,60,PWREN#*%
X126100000Y-113400000D03*
%TO.P,U21,61,EEDATA*%
X125600000Y-113400000D03*
%TO.P,U21,62,EECLK*%
X125100000Y-113400000D03*
%TO.P,U21,63,EECS*%
X124600000Y-113400000D03*
%TO.P,U21,64,VCORE*%
X124100000Y-113400000D03*
%TO.P,U21,65,GND*%
X127850000Y-117850000D03*
%TD*%
D10*
%TO.C,C26*%
%TO.CFtp,CAPC1005X55N*%
%TO.CVal,CC0402_100NF_50V_10\u0025_X7R*%
%TO.CLbN,Capacitors SMD*%
%TO.CMnt,SMD*%
%TO.CRot,180*%
X147700000Y-96800000D03*
D14*
X148605000Y-96345000D02*
X148605000Y-97255000D01*
X146795000Y-97255000D01*
X146795000Y-96345000D01*
X148605000Y-96345000D01*
D12*
%TO.P,C26,1,1*%
X148150000Y-96800000D03*
D13*
%TO.P,C26,2,2*%
X147250000Y-96800000D03*
%TD*%
D10*
%TO.C,R118*%
%TO.CFtp,RESC1005X40N*%
%TO.CVal,R0402_200R_1\u0025_0.0625W_100PPM*%
%TO.CLbN,Resistors SMD*%
%TO.CMnt,SMD*%
%TO.CRot,180*%
X153900000Y-120700000D03*
D14*
X154805000Y-120245000D02*
X154805000Y-121155000D01*
X152995000Y-121155000D01*
X152995000Y-120245000D01*
X154805000Y-120245000D01*
D12*
%TO.P,R118,1,1*%
X154370000Y-120700000D03*
D13*
%TO.P,R118,2,2*%
X153430000Y-120700000D03*
%TD*%
D10*
%TO.C,C29*%
%TO.CFtp,CAPC1005X55N*%
%TO.CVal,CC0402_100NF_50V_10\u0025_X7R*%
%TO.CLbN,Capacitors SMD*%
%TO.CMnt,SMD*%
%TO.CRot,90*%
X150200000Y-93600000D03*
D14*
X150655000Y-92695000D02*
X150655000Y-94505000D01*
X149745000Y-94505000D01*
X149745000Y-92695000D01*
X150655000Y-92695000D01*
D12*
%TO.P,C29,1,1*%
X150200000Y-94050000D03*
D13*
%TO.P,C29,2,2*%
X150200000Y-93150000D03*
%TD*%
D10*
%TO.C,C9*%
%TO.CFtp,CAPC1005X55N*%
%TO.CVal,CC0402_100NF_50V_10\u0025_X7R*%
%TO.CLbN,Capacitors SMD*%
%TO.CMnt,SMD*%
%TO.CRot,90*%
X143000000Y-110900000D03*
D14*
X143455000Y-109995000D02*
X143455000Y-111805000D01*
X142545000Y-111805000D01*
X142545000Y-109995000D01*
X143455000Y-109995000D01*
D12*
%TO.P,C9,1,1*%
X143000000Y-111350000D03*
D13*
%TO.P,C9,2,2*%
X143000000Y-110450000D03*
%TD*%
D10*
%TO.C,C172*%
%TO.CFtp,CAPC2012X135N*%
%TO.CVal,CC0805_22UF_16V_10\u0025_X5R*%
%TO.CLbN,Capacitors SMD*%
%TO.CMnt,SMD*%
%TO.CRot,90*%
X143100000Y-128250000D03*
D14*
X144045000Y-126555000D02*
X144045000Y-129945000D01*
X142155000Y-129945000D01*
X142155000Y-126555000D01*
X144045000Y-126555000D01*
D12*
%TO.P,C172,1,1*%
X143100000Y-129150000D03*
D13*
%TO.P,C172,2,2*%
X143100000Y-127350000D03*
%TD*%
D10*
%TO.C,R63*%
%TO.CFtp,RESC1005X40N*%
%TO.CVal,R0402_40R2_1\u0025_0.0625W_100PPM*%
%TO.CLbN,Resistors SMD*%
%TO.CMnt,SMD*%
%TO.CRot,-90*%
X196800000Y-127100000D03*
D14*
X197255000Y-126195000D02*
X197255000Y-128005000D01*
X196345000Y-128005000D01*
X196345000Y-126195000D01*
X197255000Y-126195000D01*
D12*
%TO.P,R63,1,1*%
X196800000Y-126630000D03*
D13*
%TO.P,R63,2,2*%
X196800000Y-127570000D03*
%TD*%
D10*
%TO.C,R83*%
%TO.CFtp,RESC1005X40N*%
%TO.CVal,R0402_2K2_1\u0025_0.0625W_100PPM*%
%TO.CLbN,Resistors SMD*%
%TO.CMnt,SMD*%
%TO.CRot,180*%
X113100000Y-114000000D03*
D14*
X114005000Y-113545000D02*
X114005000Y-114455000D01*
X112195000Y-114455000D01*
X112195000Y-113545000D01*
X114005000Y-113545000D01*
D12*
%TO.P,R83,1,1*%
X113570000Y-114000000D03*
D13*
%TO.P,R83,2,2*%
X112630000Y-114000000D03*
%TD*%
D10*
%TO.C,J5*%
%TO.CFtp,PinSocket_2x06_P2.54mm_Horizontal_PMOD*%
%TO.CVal,Conn_02x06_Top_Bottom*%
%TO.CLbN,Miscellaneous THD*%
%TO.CMnt,TH*%
%TO.CRot,180*%
X212875000Y-115465000D03*
D14*
X225920000Y-101020000D02*
X225920000Y-117260000D01*
X211080000Y-117260000D01*
X211080000Y-101020000D01*
X225920000Y-101020000D01*
D12*
%TO.P,J5,1,Pin_1*%
X212875000Y-102765000D03*
D13*
%TO.P,J5,2,Pin_2*%
X212875000Y-105305000D03*
%TO.P,J5,3,Pin_3*%
X212875000Y-107845000D03*
%TO.P,J5,4,Pin_4*%
X212875000Y-110385000D03*
%TO.P,J5,5,Pin_5*%
X212875000Y-112925000D03*
%TO.P,J5,6,Pin_6*%
X212875000Y-115465000D03*
%TO.P,J5,7,Pin_7*%
X215415000Y-102765000D03*
%TO.P,J5,8,Pin_8*%
X215415000Y-105305000D03*
%TO.P,J5,9,Pin_9*%
X215415000Y-107845000D03*
%TO.P,J5,10,Pin_10*%
X215415000Y-110385000D03*
%TO.P,J5,11,Pin_11*%
X215415000Y-112925000D03*
%TO.P,J5,12,Pin_12*%
X215415000Y-115465000D03*
%TD*%
D10*
%TO.C,R65*%
%TO.CFtp,RESC1005X40N*%
%TO.CVal,R0402_40R2_1\u0025_0.0625W_100PPM*%
%TO.CLbN,Resistors SMD*%
%TO.CMnt,SMD*%
%TO.CRot,180*%
X187800000Y-120700000D03*
D14*
X188705000Y-120245000D02*
X188705000Y-121155000D01*
X186895000Y-121155000D01*
X186895000Y-120245000D01*
X188705000Y-120245000D01*
D12*
%TO.P,R65,1,1*%
X188270000Y-120700000D03*
D13*
%TO.P,R65,2,2*%
X187330000Y-120700000D03*
%TD*%
D10*
%TO.C,L2*%
%TO.CFtp,L_1008_2520Metric*%
%TO.CVal,4.7 uH*%
%TO.CLbN,Inductor_SMD*%
%TO.CMnt,SMD*%
%TO.CRot,-90*%
X144300000Y-57900000D03*
D14*
X145645000Y-55955000D02*
X145645000Y-59845000D01*
X142955000Y-59845000D01*
X142955000Y-55955000D01*
X145645000Y-55955000D01*
D12*
%TO.P,L2,1,1*%
X144300000Y-56825000D03*
D13*
%TO.P,L2,2,2*%
X144300000Y-58975000D03*
%TD*%
D10*
%TO.C,D2*%
%TO.CFtp,SODFL2513X100N*%
%TO.CVal,MM3Z12VB*%
%TO.CLbN,ICs And Semiconductors SMD*%
%TO.CMnt,SMD*%
%TO.CRot,90*%
X124500000Y-127900000D03*
D14*
X125375000Y-126195000D02*
X125375000Y-129605000D01*
X123625000Y-129605000D01*
X123625000Y-126195000D01*
X125375000Y-126195000D01*
D12*
%TO.P,D2,1,C*%
X124500000Y-129050000D03*
D13*
%TO.P,D2,2,A*%
X124500000Y-126750000D03*
%TD*%
D10*
%TO.C,B1*%
%TO.CFtp,MTG320_550*%
%TO.CVal,PLATED_HOLE3.2_PAD5.5*%
%TO.CLbN,Pads*%
%TO.CMnt,TH*%
%TO.CRot,0*%
X114000000Y-58000000D03*
D11*
X111250000Y-55250000D02*
X111250000Y-60750000D01*
X116750000Y-60750000D01*
X116750000Y-55250000D01*
X111250000Y-55250000D01*
D12*
%TO.P,B1,1,1*%
X114000000Y-58000000D03*
%TD*%
D10*
%TO.C,R106*%
%TO.CFtp,RESC1005X40N*%
%TO.CVal,R0402_0R_JUMPER*%
%TO.CLbN,Resistors SMD*%
%TO.CMnt,SMD*%
%TO.CRot,-90*%
X161900000Y-117200000D03*
D14*
X162355000Y-116295000D02*
X162355000Y-118105000D01*
X161445000Y-118105000D01*
X161445000Y-116295000D01*
X162355000Y-116295000D01*
D12*
%TO.P,R106,1,1*%
X161900000Y-116730000D03*
D13*
%TO.P,R106,2,2*%
X161900000Y-117670000D03*
%TD*%
D10*
%TO.C,C201*%
%TO.CFtp,CAPC1709X100N*%
%TO.CVal,CC0603_22UF_6.3V_20\u0025_X5R*%
%TO.CLbN,Capacitors SMD*%
%TO.CMnt,SMD*%
%TO.CRot,90*%
X165200000Y-121900000D03*
D14*
X165995000Y-120355000D02*
X165995000Y-123445000D01*
X164405000Y-123445000D01*
X164405000Y-120355000D01*
X165995000Y-120355000D01*
D12*
%TO.P,C201,1,1*%
X165200000Y-122700000D03*
D13*
%TO.P,C201,2,2*%
X165200000Y-121100000D03*
%TD*%
D10*
%TO.C,R41*%
%TO.CFtp,RESC1005X40N*%
%TO.CVal,R0402_4K7_1\u0025_0.0625W_100PPM*%
%TO.CLbN,Resistors SMD*%
%TO.CMnt,SMD*%
%TO.CRot,-90*%
X190150000Y-64275000D03*
D14*
X190605000Y-63370000D02*
X190605000Y-65180000D01*
X189695000Y-65180000D01*
X189695000Y-63370000D01*
X190605000Y-63370000D01*
D12*
%TO.P,R41,1,1*%
X190150000Y-63805000D03*
D13*
%TO.P,R41,2,2*%
X190150000Y-64745000D03*
%TD*%
D10*
%TO.C,R140*%
%TO.CFtp,RESC1005X40N*%
%TO.CVal,R0402_4K7_1\u0025_0.0625W_100PPM*%
%TO.CLbN,Resistors SMD*%
%TO.CMnt,SMD*%
%TO.CRot,-90*%
X183100000Y-76900000D03*
D14*
X183555000Y-75995000D02*
X183555000Y-77805000D01*
X182645000Y-77805000D01*
X182645000Y-75995000D01*
X183555000Y-75995000D01*
D12*
%TO.P,R140,1,1*%
X183100000Y-76430000D03*
D13*
%TO.P,R140,2,2*%
X183100000Y-77370000D03*
%TD*%
D10*
%TO.C,R132*%
%TO.CFtp,RESC1005X40N*%
%TO.CVal,R0402_1K_1\u0025_0.0625W_100PPM*%
%TO.CLbN,Resistors SMD*%
%TO.CMnt,SMD*%
%TO.CRot,180*%
X162800000Y-72500000D03*
D14*
X163705000Y-72045000D02*
X163705000Y-72955000D01*
X161895000Y-72955000D01*
X161895000Y-72045000D01*
X163705000Y-72045000D01*
D12*
%TO.P,R132,1,1*%
X163270000Y-72500000D03*
D13*
%TO.P,R132,2,2*%
X162330000Y-72500000D03*
%TD*%
D10*
%TO.C,R134*%
%TO.CFtp,RESC1005X40N*%
%TO.CVal,R0402_845R_0.1\u0025_0.063W_25PPM*%
%TO.CLbN,Resistors SMD*%
%TO.CMnt,SMD*%
%TO.CRot,0*%
X164700000Y-73500000D03*
D14*
X165605000Y-73045000D02*
X165605000Y-73955000D01*
X163795000Y-73955000D01*
X163795000Y-73045000D01*
X165605000Y-73045000D01*
D12*
%TO.P,R134,1,1*%
X164230000Y-73500000D03*
D13*
%TO.P,R134,2,2*%
X165170000Y-73500000D03*
%TD*%
D10*
%TO.C,R85*%
%TO.CFtp,RESC1005X40N*%
%TO.CVal,R0402_4K7_1\u0025_0.0625W_100PPM*%
%TO.CLbN,Resistors SMD*%
%TO.CMnt,SMD*%
%TO.CRot,0*%
X199500000Y-95600000D03*
D14*
X200405000Y-95145000D02*
X200405000Y-96055000D01*
X198595000Y-96055000D01*
X198595000Y-95145000D01*
X200405000Y-95145000D01*
D12*
%TO.P,R85,1,1*%
X199030000Y-95600000D03*
D13*
%TO.P,R85,2,2*%
X199970000Y-95600000D03*
%TD*%
D10*
%TO.C,C182*%
%TO.CFtp,CAPC1005X55N*%
%TO.CVal,CC0402_1UF_16V_10\u0025_X5R*%
%TO.CLbN,Capacitors SMD*%
%TO.CMnt,SMD*%
%TO.CRot,-90*%
X155600000Y-113315000D03*
D14*
X156055000Y-112410000D02*
X156055000Y-114220000D01*
X155145000Y-114220000D01*
X155145000Y-112410000D01*
X156055000Y-112410000D01*
D12*
%TO.P,C182,1,1*%
X155600000Y-112865000D03*
D13*
%TO.P,C182,2,2*%
X155600000Y-113765000D03*
%TD*%
D10*
%TO.C,R47*%
%TO.CFtp,RESC1005X40N*%
%TO.CVal,R0402_4K7_1\u0025_0.0625W_100PPM*%
%TO.CLbN,Resistors SMD*%
%TO.CMnt,SMD*%
%TO.CRot,180*%
X162462500Y-62600000D03*
D14*
X163367500Y-62145000D02*
X163367500Y-63055000D01*
X161557500Y-63055000D01*
X161557500Y-62145000D01*
X163367500Y-62145000D01*
D12*
%TO.P,R47,1,1*%
X162932500Y-62600000D03*
D13*
%TO.P,R47,2,2*%
X161992500Y-62600000D03*
%TD*%
D10*
%TO.C,U28*%
%TO.CFtp,SOP65P640X120-8N*%
%TO.CVal,24AA256UID-I_ST*%
%TO.CLbN,ICs And Semiconductors SMD*%
%TO.CMnt,SMD*%
%TO.CRot,-90*%
X183300000Y-71800000D03*
D14*
X185095000Y-67905000D02*
X185095000Y-75695000D01*
X181505000Y-75695000D01*
X181505000Y-67905000D01*
X185095000Y-67905000D01*
D12*
%TO.P,U28,1,A0*%
X184275000Y-68900000D03*
D13*
%TO.P,U28,2,A1*%
X183625000Y-68900000D03*
%TO.P,U28,3,A2*%
X182975000Y-68900000D03*
%TO.P,U28,4,VSS*%
X182325000Y-68900000D03*
%TO.P,U28,5,SDA*%
X182325000Y-74700000D03*
%TO.P,U28,6,SCL*%
X182975000Y-74700000D03*
%TO.P,U28,7,NC*%
X183625000Y-74700000D03*
%TO.P,U28,8,VCC*%
X184275000Y-74700000D03*
%TD*%
D10*
%TO.C,J14*%
%TO.CFtp,PinSocket_2x06_P2.54mm_Vertical_PMOD*%
%TO.CVal,Conn_02x06_Top_Bottom*%
%TO.CLbN,Miscellaneous THD*%
%TO.CMnt,TH*%
%TO.CRot,90*%
X120175000Y-134710000D03*
D14*
X134620000Y-132955000D02*
X134620000Y-139045000D01*
X118380000Y-139045000D01*
X118380000Y-132955000D01*
X134620000Y-132955000D01*
D12*
%TO.P,J14,1,Pin_1*%
X132875000Y-134710000D03*
D13*
%TO.P,J14,2,Pin_2*%
X130335000Y-134710000D03*
%TO.P,J14,3,Pin_3*%
X127795000Y-134710000D03*
%TO.P,J14,4,Pin_4*%
X125255000Y-134710000D03*
%TO.P,J14,5,Pin_5*%
X122715000Y-134710000D03*
%TO.P,J14,6,Pin_6*%
X120175000Y-134710000D03*
%TO.P,J14,7,Pin_7*%
X132875000Y-137250000D03*
%TO.P,J14,8,Pin_8*%
X130335000Y-137250000D03*
%TO.P,J14,9,Pin_9*%
X127795000Y-137250000D03*
%TO.P,J14,10,Pin_10*%
X125255000Y-137250000D03*
%TO.P,J14,11,Pin_11*%
X122715000Y-137250000D03*
%TO.P,J14,12,Pin_12*%
X120175000Y-137250000D03*
%TD*%
D10*
%TO.C,R110*%
%TO.CFtp,RESC1005X40N*%
%TO.CVal,R0402_0R_JUMPER*%
%TO.CLbN,Resistors SMD*%
%TO.CMnt,SMD*%
%TO.CRot,90*%
X160400000Y-126100000D03*
D14*
X160855000Y-125195000D02*
X160855000Y-127005000D01*
X159945000Y-127005000D01*
X159945000Y-125195000D01*
X160855000Y-125195000D01*
D12*
%TO.P,R110,1,1*%
X160400000Y-126570000D03*
D13*
%TO.P,R110,2,2*%
X160400000Y-125630000D03*
%TD*%
D10*
%TO.C,C88*%
%TO.CFtp,CAPC1005X55N*%
%TO.CVal,CC0402_100NF_50V_10\u0025_X7R*%
%TO.CLbN,Capacitors SMD*%
%TO.CMnt,SMD*%
%TO.CRot,90*%
X121700000Y-118700000D03*
D14*
X122155000Y-117795000D02*
X122155000Y-119605000D01*
X121245000Y-119605000D01*
X121245000Y-117795000D01*
X122155000Y-117795000D01*
D12*
%TO.P,C88,1,1*%
X121700000Y-119150000D03*
D13*
%TO.P,C88,2,2*%
X121700000Y-118250000D03*
%TD*%
D10*
%TO.C,C17*%
%TO.CFtp,CAPC1005X70N*%
%TO.CVal,CC0402_10UF_6.3V_20\u0025_X5R*%
%TO.CLbN,Capacitors SMD*%
%TO.CMnt,SMD*%
%TO.CRot,180*%
X150700000Y-100000000D03*
D14*
X151665000Y-99495000D02*
X151665000Y-100505000D01*
X149735000Y-100505000D01*
X149735000Y-99495000D01*
X151665000Y-99495000D01*
D12*
%TO.P,C17,1,1*%
X151160000Y-100000000D03*
D13*
%TO.P,C17,2,2*%
X150240000Y-100000000D03*
%TD*%
D10*
%TO.C,C222*%
%TO.CFtp,CAPC1005X55N*%
%TO.CVal,CC0402_100NF_50V_10\u0025_X7R*%
%TO.CLbN,Capacitors SMD*%
%TO.CMnt,SMD*%
%TO.CRot,0*%
X177912500Y-57350000D03*
D14*
X178817500Y-56895000D02*
X178817500Y-57805000D01*
X177007500Y-57805000D01*
X177007500Y-56895000D01*
X178817500Y-56895000D01*
D12*
%TO.P,C222,1,1*%
X177462500Y-57350000D03*
D13*
%TO.P,C222,2,2*%
X178362500Y-57350000D03*
%TD*%
D10*
%TO.C,R21*%
%TO.CFtp,RESC1005X40N*%
%TO.CVal,R0402_4K7_1\u0025_0.0625W_100PPM*%
%TO.CLbN,Resistors SMD*%
%TO.CMnt,SMD*%
%TO.CRot,180*%
X174262500Y-58400000D03*
D14*
X175167500Y-57945000D02*
X175167500Y-58855000D01*
X173357500Y-58855000D01*
X173357500Y-57945000D01*
X175167500Y-57945000D01*
D12*
%TO.P,R21,1,1*%
X174732500Y-58400000D03*
D13*
%TO.P,R21,2,2*%
X173792500Y-58400000D03*
%TD*%
D10*
%TO.C,R66*%
%TO.CFtp,RESC1005X40N*%
%TO.CVal,R0402_40R2_1\u0025_0.0625W_100PPM*%
%TO.CLbN,Resistors SMD*%
%TO.CMnt,SMD*%
%TO.CRot,-90*%
X194800000Y-127100000D03*
D14*
X195255000Y-126195000D02*
X195255000Y-128005000D01*
X194345000Y-128005000D01*
X194345000Y-126195000D01*
X195255000Y-126195000D01*
D12*
%TO.P,R66,1,1*%
X194800000Y-126630000D03*
D13*
%TO.P,R66,2,2*%
X194800000Y-127570000D03*
%TD*%
D10*
%TO.C,R6*%
%TO.CFtp,RESC1005X40N*%
%TO.CVal,R0402_22R_1\u0025_0.0625W_100PPM*%
%TO.CLbN,Resistors SMD*%
%TO.CMnt,SMD*%
%TO.CRot,180*%
X152800000Y-110000000D03*
D14*
X153705000Y-109545000D02*
X153705000Y-110455000D01*
X151895000Y-110455000D01*
X151895000Y-109545000D01*
X153705000Y-109545000D01*
D12*
%TO.P,R6,1,1*%
X153270000Y-110000000D03*
D13*
%TO.P,R6,2,2*%
X152330000Y-110000000D03*
%TD*%
D10*
%TO.C,U17*%
%TO.CFtp,QFN50P400X400X80-25N-S245*%
%TO.CVal,TCA9535RTWR*%
%TO.CLbN,ICs And Semiconductors SMD*%
%TO.CMnt,SMD*%
%TO.CRot,0*%
X178162500Y-60600000D03*
D14*
X180807500Y-57955000D02*
X180807500Y-63245000D01*
X175517500Y-63245000D01*
X175517500Y-57955000D01*
X180807500Y-57955000D01*
D12*
%TO.P,U17,1,P00*%
X176212500Y-59350000D03*
D13*
%TO.P,U17,2,P01*%
X176212500Y-59850000D03*
%TO.P,U17,3,P02*%
X176212500Y-60350000D03*
%TO.P,U17,4,P03*%
X176212500Y-60850000D03*
%TO.P,U17,5,P04*%
X176212500Y-61350000D03*
%TO.P,U17,6,P05*%
X176212500Y-61850000D03*
%TO.P,U17,7,P06*%
X176912500Y-62550000D03*
%TO.P,U17,8,P07*%
X177412500Y-62550000D03*
%TO.P,U17,9,GND*%
X177912500Y-62550000D03*
%TO.P,U17,10,P10*%
X178412500Y-62550000D03*
%TO.P,U17,11,P11*%
X178912500Y-62550000D03*
%TO.P,U17,12,P12*%
X179412500Y-62550000D03*
%TO.P,U17,13,P13*%
X180112500Y-61850000D03*
%TO.P,U17,14,P14*%
X180112500Y-61350000D03*
%TO.P,U17,15,P15*%
X180112500Y-60850000D03*
%TO.P,U17,16,P16*%
X180112500Y-60350000D03*
%TO.P,U17,17,P17*%
X180112500Y-59850000D03*
%TO.P,U17,18,A0*%
X180112500Y-59350000D03*
%TO.P,U17,19,SCL*%
X179412500Y-58650000D03*
%TO.P,U17,20,SDA*%
X178912500Y-58650000D03*
%TO.P,U17,21,VCC*%
X178412500Y-58650000D03*
%TO.P,U17,22,~{INT}*%
X177912500Y-58650000D03*
%TO.P,U17,23,A1*%
X177412500Y-58650000D03*
%TO.P,U17,24,A2*%
X176912500Y-58650000D03*
%TO.P,U17,25,EP*%
X178162500Y-60600000D03*
%TD*%
D10*
%TO.C,R79*%
%TO.CFtp,RESC1005X40N*%
%TO.CVal,R0402_4K7_1\u0025_0.0625W_100PPM*%
%TO.CLbN,Resistors SMD*%
%TO.CMnt,SMD*%
%TO.CRot,180*%
X121300000Y-121100000D03*
D14*
X122205000Y-120645000D02*
X122205000Y-121555000D01*
X120395000Y-121555000D01*
X120395000Y-120645000D01*
X122205000Y-120645000D01*
D12*
%TO.P,R79,1,1*%
X121770000Y-121100000D03*
D13*
%TO.P,R79,2,2*%
X120830000Y-121100000D03*
%TD*%
D10*
%TO.C,R82*%
%TO.CFtp,RESC1005X40N*%
%TO.CVal,R0402_5K1_1\u0025_0.0625W_100PPM*%
%TO.CLbN,Resistors SMD*%
%TO.CMnt,SMD*%
%TO.CRot,0*%
X113200000Y-120500000D03*
D14*
X114105000Y-120045000D02*
X114105000Y-120955000D01*
X112295000Y-120955000D01*
X112295000Y-120045000D01*
X114105000Y-120045000D01*
D12*
%TO.P,R82,1,1*%
X112730000Y-120500000D03*
D13*
%TO.P,R82,2,2*%
X113670000Y-120500000D03*
%TD*%
D10*
%TO.C,J8*%
%TO.CFtp,TE_2180739-1*%
%TO.CVal,2180739-1*%
%TO.CLbN,C__Users_48695_Downloads_2180739-1_TE_2180739-1.PcbLib*%
%TO.CMnt,Other*%
%TO.CRot,-90*%
X145400000Y-76200000D03*
D11*
X152329000Y-60950000D02*
X113500000Y-60950000D01*
X113500000Y-91450000D01*
X152329000Y-91450000D01*
X152329000Y-60950000D01*
D13*
%TO.P,J8,SH1,CHASSIS_GND1*%
X149500000Y-90450000D03*
%TO.P,J8,SH2,CHASSIS_GND1*%
X139500000Y-90450000D03*
%TO.P,J8,SH3,CHASSIS_GND1*%
X134500000Y-61950000D03*
%TO.P,J8,SH4,CHASSIS_GND1*%
X129500000Y-67630000D03*
%TO.P,J8,SH5,CHASSIS_GND1*%
X129500000Y-73030000D03*
%TO.P,J8,SH6,CHASSIS_GND1*%
X129500000Y-81880000D03*
%TO.P,J8,SH7,CHASSIS_GND1*%
X129500000Y-87280000D03*
%TO.P,J8,SH8,CHASSIS_GND1*%
X129500000Y-90450000D03*
%TO.P,J8,SH9,CHASSIS_GND1*%
X124500000Y-61950000D03*
%TO.P,J8,SH10,CHASSIS_GND1*%
X119500000Y-90450000D03*
%TO.P,J8,SH11,CHASSIS_GND1*%
X114500000Y-61950000D03*
%TO.P,J8,SH12,CHASSIS_GND1*%
X114500000Y-70530000D03*
%TO.P,J8,SH13,CHASSIS_GND1*%
X114500000Y-84780000D03*
%TO.P,J8,SH14,CHASSIS_GND1*%
X147000000Y-61950000D03*
%TO.P,J8,SH15,CHASSIS_GND1*%
X142000000Y-61950000D03*
%TO.P,J8,SH16,CHASSIS_GND2*%
X137300000Y-61950000D03*
%TO.P,J8,SH18,CHASSIS_GND2*%
X151600000Y-64280000D03*
%TO.P,J8,SH19,CHASSIS_GND2*%
X151600000Y-69080000D03*
%TO.P,J8,SH20,CHASSIS_GND2*%
X149500000Y-76200000D03*
%TO.P,J8,SH21,CHASSIS_GND2*%
X151600000Y-78530000D03*
%TO.P,J8,SH22,CHASSIS_GND2*%
X151600000Y-83330000D03*
%TO.P,J8,SH23,CHASSIS_GND2*%
X139500000Y-76200000D03*
%TO.P,J8,SH24,CHASSIS_GND2*%
X129500000Y-76200000D03*
%TO.P,J8,SH25,CHASSIS_GND2*%
X119500000Y-76200000D03*
%TD*%
D10*
%TO.C,U8*%
%TO.CFtp,SOT95P280X145-5N*%
%TO.CVal,TLV62565DBV*%
%TO.CLbN,ICs And Semiconductors SMD*%
%TO.CMnt,SMD*%
%TO.CRot,180*%
X115700000Y-111700000D03*
D14*
X117795000Y-109905000D02*
X117795000Y-113495000D01*
X113605000Y-113495000D01*
X113605000Y-109905000D01*
X117795000Y-109905000D01*
D12*
%TO.P,U8,1,EN*%
X117000000Y-112650000D03*
D13*
%TO.P,U8,2,GND*%
X117000000Y-111700000D03*
%TO.P,U8,3,SW*%
X117000000Y-110750000D03*
%TO.P,U8,4,VIN*%
X114400000Y-110750000D03*
%TO.P,U8,5,FB*%
X114400000Y-112650000D03*
%TD*%
D10*
%TO.C,R81*%
%TO.CFtp,RESC1005X40N*%
%TO.CVal,R0402_10K_1\u0025_0.0625W_100PPM*%
%TO.CLbN,Resistors SMD*%
%TO.CMnt,SMD*%
%TO.CRot,0*%
X115130000Y-114000000D03*
D14*
X116035000Y-113545000D02*
X116035000Y-114455000D01*
X114225000Y-114455000D01*
X114225000Y-113545000D01*
X116035000Y-113545000D01*
D12*
%TO.P,R81,1,1*%
X114660000Y-114000000D03*
D13*
%TO.P,R81,2,2*%
X115600000Y-114000000D03*
%TD*%
D10*
%TO.C,R176*%
%TO.CFtp,RESC1005X40N*%
%TO.CVal,R0402_10K_1\u0025_0.0625W_100PPM*%
%TO.CLbN,Resistors SMD*%
%TO.CMnt,SMD*%
%TO.CRot,180*%
X177100000Y-128000000D03*
D14*
X178005000Y-127545000D02*
X178005000Y-128455000D01*
X176195000Y-128455000D01*
X176195000Y-127545000D01*
X178005000Y-127545000D01*
D12*
%TO.P,R176,1,1*%
X177570000Y-128000000D03*
D13*
%TO.P,R176,2,2*%
X176630000Y-128000000D03*
%TD*%
D10*
%TO.C,R18*%
%TO.CFtp,RESC1005X40N*%
%TO.CVal,R0402_4K7_1\u0025_0.0625W_100PPM*%
%TO.CLbN,Resistors SMD*%
%TO.CMnt,SMD*%
%TO.CRot,0*%
X137400000Y-97500000D03*
D14*
X138305000Y-97045000D02*
X138305000Y-97955000D01*
X136495000Y-97955000D01*
X136495000Y-97045000D01*
X138305000Y-97045000D01*
D12*
%TO.P,R18,1,1*%
X136930000Y-97500000D03*
D13*
%TO.P,R18,2,2*%
X137870000Y-97500000D03*
%TD*%
D10*
%TO.C,C194*%
%TO.CFtp,CAPC0603X33N*%
%TO.CVal,CC0201_100NF_6.3V_10\u0025_X5R*%
%TO.CLbN,Capacitors SMD*%
%TO.CMnt,SMD*%
%TO.CRot,-90*%
X172430000Y-118135000D03*
D14*
X172675000Y-117490000D02*
X172675000Y-118780000D01*
X172185000Y-118780000D01*
X172185000Y-117490000D01*
X172675000Y-117490000D01*
D12*
%TO.P,C194,1,1*%
X172430000Y-117785000D03*
D13*
%TO.P,C194,2,2*%
X172430000Y-118485000D03*
%TD*%
D10*
%TO.C,Q4*%
%TO.CFtp,Diodes_PowerDI3333-8*%
%TO.CVal,DMP3013SFV*%
%TO.CLbN,Package_SON*%
%TO.CMnt,SMD*%
%TO.CRot,180*%
X121200000Y-128025000D03*
D14*
X123295000Y-126130000D02*
X123295000Y-129920000D01*
X119105000Y-129920000D01*
X119105000Y-126130000D01*
X123295000Y-126130000D01*
D12*
%TO.P,Q4,1,S*%
X122700000Y-129000000D03*
D13*
%TO.P,Q4,2,S*%
X122700000Y-128350000D03*
%TO.P,Q4,3,S*%
X122700000Y-127700000D03*
%TO.P,Q4,4,G*%
X122700000Y-127050000D03*
%TO.P,Q4,5,D*%
X120745000Y-128025000D03*
%TD*%
D10*
%TO.C,C87*%
%TO.CFtp,CAPC1005X55N*%
%TO.CVal,CC0402_4.7UF_16V_20\u0025_X5R*%
%TO.CLbN,Capacitors SMD*%
%TO.CMnt,SMD*%
%TO.CRot,90*%
X120700000Y-118700000D03*
D14*
X121155000Y-117795000D02*
X121155000Y-119605000D01*
X120245000Y-119605000D01*
X120245000Y-117795000D01*
X121155000Y-117795000D01*
D12*
%TO.P,C87,1,1*%
X120700000Y-119150000D03*
D13*
%TO.P,C87,2,2*%
X120700000Y-118250000D03*
%TD*%
D10*
%TO.C,R73*%
%TO.CFtp,RESC1005X40N*%
%TO.CVal,R0402_4K7_1\u0025_0.0625W_100PPM*%
%TO.CLbN,Resistors SMD*%
%TO.CMnt,SMD*%
%TO.CRot,180*%
X188900000Y-109100000D03*
D14*
X189805000Y-108645000D02*
X189805000Y-109555000D01*
X187995000Y-109555000D01*
X187995000Y-108645000D01*
X189805000Y-108645000D01*
D12*
%TO.P,R73,1,1*%
X189370000Y-109100000D03*
D13*
%TO.P,R73,2,2*%
X188430000Y-109100000D03*
%TD*%
D10*
%TO.C,J15*%
%TO.CFtp,PinSocket_2x06_P2.54mm_Vertical_PMOD*%
%TO.CVal,Conn_02x06_Top_Bottom*%
%TO.CLbN,Miscellaneous THD*%
%TO.CMnt,TH*%
%TO.CRot,90*%
X143035000Y-134710000D03*
D14*
X157480000Y-132955000D02*
X157480000Y-139045000D01*
X141240000Y-139045000D01*
X141240000Y-132955000D01*
X157480000Y-132955000D01*
D12*
%TO.P,J15,1,Pin_1*%
X155735000Y-134710000D03*
D13*
%TO.P,J15,2,Pin_2*%
X153195000Y-134710000D03*
%TO.P,J15,3,Pin_3*%
X150655000Y-134710000D03*
%TO.P,J15,4,Pin_4*%
X148115000Y-134710000D03*
%TO.P,J15,5,Pin_5*%
X145575000Y-134710000D03*
%TO.P,J15,6,Pin_6*%
X143035000Y-134710000D03*
%TO.P,J15,7,Pin_7*%
X155735000Y-137250000D03*
%TO.P,J15,8,Pin_8*%
X153195000Y-137250000D03*
%TO.P,J15,9,Pin_9*%
X150655000Y-137250000D03*
%TO.P,J15,10,Pin_10*%
X148115000Y-137250000D03*
%TO.P,J15,11,Pin_11*%
X145575000Y-137250000D03*
%TO.P,J15,12,Pin_12*%
X143035000Y-137250000D03*
%TD*%
D10*
%TO.C,R136*%
%TO.CFtp,RESC1005X40N*%
%TO.CVal,R0402_1K_1\u0025_0.0625W_100PPM*%
%TO.CLbN,Resistors SMD*%
%TO.CMnt,SMD*%
%TO.CRot,180*%
X162800000Y-69600000D03*
D14*
X163705000Y-69145000D02*
X163705000Y-70055000D01*
X161895000Y-70055000D01*
X161895000Y-69145000D01*
X163705000Y-69145000D01*
D12*
%TO.P,R136,1,1*%
X163270000Y-69600000D03*
D13*
%TO.P,R136,2,2*%
X162330000Y-69600000D03*
%TD*%
D10*
%TO.C,R26*%
%TO.CFtp,RESC1005X40N*%
%TO.CVal,R0402_4K7_1\u0025_0.0625W_100PPM*%
%TO.CLbN,Resistors SMD*%
%TO.CMnt,SMD*%
%TO.CRot,180*%
X174262500Y-61400000D03*
D14*
X175167500Y-60945000D02*
X175167500Y-61855000D01*
X173357500Y-61855000D01*
X173357500Y-60945000D01*
X175167500Y-60945000D01*
D12*
%TO.P,R26,1,1*%
X174732500Y-61400000D03*
D13*
%TO.P,R26,2,2*%
X173792500Y-61400000D03*
%TD*%
D10*
%TO.C,C181*%
%TO.CFtp,CAPC2012X135N*%
%TO.CVal,CC0805_22UF_16V_10\u0025_X5R*%
%TO.CLbN,Capacitors SMD*%
%TO.CMnt,SMD*%
%TO.CRot,0*%
X182800000Y-131425000D03*
D14*
X184495000Y-130480000D02*
X184495000Y-132370000D01*
X181105000Y-132370000D01*
X181105000Y-130480000D01*
X184495000Y-130480000D01*
D12*
%TO.P,C181,1,1*%
X181900000Y-131425000D03*
D13*
%TO.P,C181,2,2*%
X183700000Y-131425000D03*
%TD*%
D10*
%TO.C,C223*%
%TO.CFtp,CAPC1005X70N*%
%TO.CVal,CC0402_10UF_6.3V_20\u0025_X5R*%
%TO.CLbN,Capacitors SMD*%
%TO.CMnt,SMD*%
%TO.CRot,180*%
X199200000Y-138300000D03*
D14*
X200165000Y-137795000D02*
X200165000Y-138805000D01*
X198235000Y-138805000D01*
X198235000Y-137795000D01*
X200165000Y-137795000D01*
D12*
%TO.P,C223,1,1*%
X199660000Y-138300000D03*
D13*
%TO.P,C223,2,2*%
X198740000Y-138300000D03*
%TD*%
D10*
%TO.C,R117*%
%TO.CFtp,RESC1005X40N*%
%TO.CVal,R0402_100R_1\u0025_0.1W_100PPM*%
%TO.CLbN,Resistors SMD*%
%TO.CMnt,SMD*%
%TO.CRot,0*%
X172650000Y-81350000D03*
D14*
X173555000Y-80895000D02*
X173555000Y-81805000D01*
X171745000Y-81805000D01*
X171745000Y-80895000D01*
X173555000Y-80895000D01*
D12*
%TO.P,R117,1,1*%
X172180000Y-81350000D03*
D13*
%TO.P,R117,2,2*%
X173120000Y-81350000D03*
%TD*%
D10*
%TO.C,C77*%
%TO.CFtp,CAPC1005X55N*%
%TO.CVal,CC0402_100NF_50V_10\u0025_X7R*%
%TO.CLbN,Capacitors SMD*%
%TO.CMnt,SMD*%
%TO.CRot,180*%
X134300000Y-117100000D03*
D14*
X135205000Y-116645000D02*
X135205000Y-117555000D01*
X133395000Y-117555000D01*
X133395000Y-116645000D01*
X135205000Y-116645000D01*
D12*
%TO.P,C77,1,1*%
X134750000Y-117100000D03*
D13*
%TO.P,C77,2,2*%
X133850000Y-117100000D03*
%TD*%
D10*
%TO.C,C1*%
%TO.CFtp,CAPC2012X135N*%
%TO.CVal,CC0805_22UF_16V_10\u0025_X5R*%
%TO.CLbN,Capacitors SMD*%
%TO.CMnt,SMD*%
%TO.CRot,90*%
X179650000Y-112900000D03*
D14*
X180595000Y-111205000D02*
X180595000Y-114595000D01*
X178705000Y-114595000D01*
X178705000Y-111205000D01*
X180595000Y-111205000D01*
D12*
%TO.P,C1,1,1*%
X179650000Y-113800000D03*
D13*
%TO.P,C1,2,2*%
X179650000Y-112000000D03*
%TD*%
D10*
%TO.C,C248*%
%TO.CFtp,CAPC1005X55N*%
%TO.CVal,CC0402_100NF_50V_10\u0025_X7R*%
%TO.CLbN,Capacitors SMD*%
%TO.CMnt,SMD*%
%TO.CRot,-90*%
X172275000Y-75675000D03*
D14*
X172730000Y-74770000D02*
X172730000Y-76580000D01*
X171820000Y-76580000D01*
X171820000Y-74770000D01*
X172730000Y-74770000D01*
D12*
%TO.P,C248,1,1*%
X172275000Y-75225000D03*
D13*
%TO.P,C248,2,2*%
X172275000Y-76125000D03*
%TD*%
D10*
%TO.C,R24*%
%TO.CFtp,RESC1005X40N*%
%TO.CVal,R0402_4K7_1\u0025_0.0625W_100PPM*%
%TO.CLbN,Resistors SMD*%
%TO.CMnt,SMD*%
%TO.CRot,180*%
X184900000Y-61400000D03*
D14*
X185805000Y-60945000D02*
X185805000Y-61855000D01*
X183995000Y-61855000D01*
X183995000Y-60945000D01*
X185805000Y-60945000D01*
D12*
%TO.P,R24,1,1*%
X185370000Y-61400000D03*
D13*
%TO.P,R24,2,2*%
X184430000Y-61400000D03*
%TD*%
D10*
%TO.C,U14*%
%TO.CFtp,SOP65P490X110-8N*%
%TO.CVal,DAC8550IDGK*%
%TO.CLbN,ICs And Semiconductors SMD*%
%TO.CMnt,SMD*%
%TO.CRot,90*%
X170055000Y-115085000D03*
D14*
X171850000Y-111890000D02*
X171850000Y-118280000D01*
X168260000Y-118280000D01*
X168260000Y-111890000D01*
X171850000Y-111890000D01*
D12*
%TO.P,U14,1,VDD*%
X169080000Y-117285000D03*
D13*
%TO.P,U14,2,VREF*%
X169730000Y-117285000D03*
%TO.P,U14,3,VFB*%
X170380000Y-117285000D03*
%TO.P,U14,4,VOUT*%
X171030000Y-117285000D03*
%TO.P,U14,5,~{SYNC}*%
X171030000Y-112885000D03*
%TO.P,U14,6,SCLK*%
X170380000Y-112885000D03*
%TO.P,U14,7,DIN*%
X169730000Y-112885000D03*
%TO.P,U14,8,GND*%
X169080000Y-112885000D03*
%TD*%
D10*
%TO.C,C192*%
%TO.CFtp,CAPC1709X100N*%
%TO.CVal,CC0603_22UF_6.3V_20\u0025_X5R*%
%TO.CLbN,Capacitors SMD*%
%TO.CMnt,SMD*%
%TO.CRot,0*%
X163300000Y-130500000D03*
D14*
X164845000Y-129705000D02*
X164845000Y-131295000D01*
X161755000Y-131295000D01*
X161755000Y-129705000D01*
X164845000Y-129705000D01*
D12*
%TO.P,C192,1,1*%
X162500000Y-130500000D03*
D13*
%TO.P,C192,2,2*%
X164100000Y-130500000D03*
%TD*%
D10*
%TO.C,R148*%
%TO.CFtp,RESC1005X40N*%
%TO.CVal,R0402_10K_1\u0025_0.0625W_100PPM*%
%TO.CLbN,Resistors SMD*%
%TO.CMnt,SMD*%
%TO.CRot,180*%
X142000000Y-120025000D03*
D14*
X142905000Y-119570000D02*
X142905000Y-120480000D01*
X141095000Y-120480000D01*
X141095000Y-119570000D01*
X142905000Y-119570000D01*
D12*
%TO.P,R148,1,1*%
X142470000Y-120025000D03*
D13*
%TO.P,R148,2,2*%
X141530000Y-120025000D03*
%TD*%
D10*
%TO.C,R137*%
%TO.CFtp,RESC1005X40N*%
%TO.CVal,R0402_140R_1\u0025_0.0625W_100PPM*%
%TO.CLbN,Resistors SMD*%
%TO.CMnt,SMD*%
%TO.CRot,0*%
X164700000Y-69600000D03*
D14*
X165605000Y-69145000D02*
X165605000Y-70055000D01*
X163795000Y-70055000D01*
X163795000Y-69145000D01*
X165605000Y-69145000D01*
D12*
%TO.P,R137,1,1*%
X164230000Y-69600000D03*
D13*
%TO.P,R137,2,2*%
X165170000Y-69600000D03*
%TD*%
D10*
%TO.C,Q1*%
%TO.CFtp,SOT95P240X110-3N*%
%TO.CVal,BSS138LT1G*%
%TO.CLbN,ICs And Semiconductors SMD*%
%TO.CMnt,SMD*%
%TO.CRot,90*%
X198750000Y-61250000D03*
D14*
X200495000Y-59305000D02*
X200495000Y-63195000D01*
X197005000Y-63195000D01*
X197005000Y-59305000D01*
X200495000Y-59305000D01*
D12*
%TO.P,Q1,1,G*%
X197800000Y-62400000D03*
D13*
%TO.P,Q1,2,S*%
X199700000Y-62400000D03*
%TO.P,Q1,3,D*%
X198750000Y-60100000D03*
%TD*%
D10*
%TO.C,R30*%
%TO.CFtp,RESC1005X40N*%
%TO.CVal,R0402_4K7_1\u0025_0.0625W_100PPM*%
%TO.CLbN,Resistors SMD*%
%TO.CMnt,SMD*%
%TO.CRot,180*%
X184900000Y-62400000D03*
D14*
X185805000Y-61945000D02*
X185805000Y-62855000D01*
X183995000Y-62855000D01*
X183995000Y-61945000D01*
X185805000Y-61945000D01*
D12*
%TO.P,R30,1,1*%
X185370000Y-62400000D03*
D13*
%TO.P,R30,2,2*%
X184430000Y-62400000D03*
%TD*%
D10*
%TO.C,C73*%
%TO.CFtp,CAPC1005X55N*%
%TO.CVal,CC0402_4.7UF_16V_20\u0025_X5R*%
%TO.CLbN,Capacitors SMD*%
%TO.CMnt,SMD*%
%TO.CRot,90*%
X132100000Y-111400000D03*
D14*
X132555000Y-110495000D02*
X132555000Y-112305000D01*
X131645000Y-112305000D01*
X131645000Y-110495000D01*
X132555000Y-110495000D01*
D12*
%TO.P,C73,1,1*%
X132100000Y-111850000D03*
D13*
%TO.P,C73,2,2*%
X132100000Y-110950000D03*
%TD*%
D10*
%TO.C,J1*%
%TO.CFtp,TYCO_1367073-1*%
%TO.CVal,TYCO_1888247-1*%
%TO.CLbN,TYCO SMD*%
%TO.CMnt,SMD*%
%TO.CRot,0*%
X145400000Y-83325000D03*
D11*
X140300000Y-77755000D02*
X140300000Y-88905000D01*
X150500000Y-88905000D01*
X150500000Y-77755000D01*
X140300000Y-77755000D01*
D12*
%TO.P,J1,1,VEET*%
X141300000Y-79930000D03*
D13*
%TO.P,J1,*%
X145400000Y-78530000D03*
X145400000Y-88130000D03*
%TO.P,J1,2,TX_FAULT*%
X141300000Y-80730000D03*
%TO.P,J1,3,TX_DISABLE*%
X141300000Y-81530000D03*
%TO.P,J1,4,SDA*%
X141300000Y-82330000D03*
%TO.P,J1,5,SCL*%
X141300000Y-83130000D03*
%TO.P,J1,6,MOD_ABS*%
X141300000Y-83930000D03*
%TO.P,J1,7,RS0*%
X141300000Y-84730000D03*
%TO.P,J1,8,LOS*%
X141300000Y-85530000D03*
%TO.P,J1,9,RS1*%
X141300000Y-86330000D03*
%TO.P,J1,10,VEER*%
X141300000Y-87130000D03*
%TO.P,J1,11,VEER*%
X149500000Y-86730000D03*
%TO.P,J1,12,RD-*%
X149500000Y-85930000D03*
%TO.P,J1,13,RD+*%
X149500000Y-85130000D03*
%TO.P,J1,14,VEER*%
X149500000Y-84330000D03*
%TO.P,J1,15,VCCR*%
X149500000Y-83530000D03*
%TO.P,J1,16,VCCT*%
X149500000Y-82730000D03*
%TO.P,J1,17,VEET*%
X149500000Y-81930000D03*
%TO.P,J1,18,TD+*%
X149500000Y-81130000D03*
%TO.P,J1,19,TD-*%
X149500000Y-80330000D03*
%TO.P,J1,20,VEET*%
X149500000Y-79530000D03*
%TD*%
D10*
%TO.C,R12*%
%TO.CFtp,RESC1005X40N*%
%TO.CVal,R0402_4K7_1\u0025_0.0625W_100PPM*%
%TO.CLbN,Resistors SMD*%
%TO.CMnt,SMD*%
%TO.CRot,90*%
X146300000Y-102100000D03*
D14*
X146755000Y-101195000D02*
X146755000Y-103005000D01*
X145845000Y-103005000D01*
X145845000Y-101195000D01*
X146755000Y-101195000D01*
D12*
%TO.P,R12,1,1*%
X146300000Y-102570000D03*
D13*
%TO.P,R12,2,2*%
X146300000Y-101630000D03*
%TD*%
D10*
%TO.C,C224*%
%TO.CFtp,CAPC1005X70N*%
%TO.CVal,CC0402_10UF_6.3V_20\u0025_X5R*%
%TO.CLbN,Capacitors SMD*%
%TO.CMnt,SMD*%
%TO.CRot,180*%
X199200000Y-133200000D03*
D14*
X200165000Y-132695000D02*
X200165000Y-133705000D01*
X198235000Y-133705000D01*
X198235000Y-132695000D01*
X200165000Y-132695000D01*
D12*
%TO.P,C224,1,1*%
X199660000Y-133200000D03*
D13*
%TO.P,C224,2,2*%
X198740000Y-133200000D03*
%TD*%
D10*
%TO.C,C86*%
%TO.CFtp,CAPC1005X55N*%
%TO.CVal,CC0402_100NF_50V_10\u0025_X7R*%
%TO.CLbN,Capacitors SMD*%
%TO.CMnt,SMD*%
%TO.CRot,-90*%
X121600000Y-115100000D03*
D14*
X122055000Y-114195000D02*
X122055000Y-116005000D01*
X121145000Y-116005000D01*
X121145000Y-114195000D01*
X122055000Y-114195000D01*
D12*
%TO.P,C86,1,1*%
X121600000Y-114650000D03*
D13*
%TO.P,C86,2,2*%
X121600000Y-115550000D03*
%TD*%
D10*
%TO.C,R99*%
%TO.CFtp,RESC1005X40N*%
%TO.CVal,R0402_240R_1\u0025_0.0625W_100PPM*%
%TO.CLbN,Resistors SMD*%
%TO.CMnt,SMD*%
%TO.CRot,-90*%
X169430000Y-122485000D03*
D14*
X169885000Y-121580000D02*
X169885000Y-123390000D01*
X168975000Y-123390000D01*
X168975000Y-121580000D01*
X169885000Y-121580000D01*
D12*
%TO.P,R99,1,1*%
X169430000Y-122015000D03*
D13*
%TO.P,R99,2,2*%
X169430000Y-122955000D03*
%TD*%
D10*
%TO.C,R151*%
%TO.CFtp,RESC1005X40N*%
%TO.CVal,R0402_1K_1\u0025_0.0625W_100PPM*%
%TO.CLbN,Resistors SMD*%
%TO.CMnt,SMD*%
%TO.CRot,180*%
X199200000Y-134300000D03*
D14*
X200105000Y-133845000D02*
X200105000Y-134755000D01*
X198295000Y-134755000D01*
X198295000Y-133845000D01*
X200105000Y-133845000D01*
D12*
%TO.P,R151,1,1*%
X199670000Y-134300000D03*
D13*
%TO.P,R151,2,2*%
X198730000Y-134300000D03*
%TD*%
D10*
%TO.C,U24*%
%TO.CFtp,SOT95P280X145-5N*%
%TO.CVal,SN74LVC1G07DBV*%
%TO.CLbN,ICs And Semiconductors SMD*%
%TO.CMnt,SMD*%
%TO.CRot,90*%
X137675000Y-122750000D03*
D14*
X139470000Y-120655000D02*
X139470000Y-124845000D01*
X135880000Y-124845000D01*
X135880000Y-120655000D01*
X139470000Y-120655000D01*
D12*
%TO.P,U24,1*%
X136725000Y-124050000D03*
D13*
%TO.P,U24,2,IN*%
X137675000Y-124050000D03*
%TO.P,U24,3,GND*%
X138625000Y-124050000D03*
%TO.P,U24,4,OUT*%
X138625000Y-121450000D03*
%TO.P,U24,5,VCC*%
X136725000Y-121450000D03*
%TD*%
D10*
%TO.C,Y3*%
%TO.CFtp,OSC_IQD_CFPV-45*%
%TO.CVal,OSC_20MHZ_IQD_LFVCXO026156*%
%TO.CLbN,ICs And Semiconductors SMD*%
%TO.CMnt,SMD*%
%TO.CRot,0*%
X179200000Y-122800000D03*
D14*
X182545000Y-118955000D02*
X182545000Y-126645000D01*
X175855000Y-126645000D01*
X175855000Y-118955000D01*
X182545000Y-118955000D01*
D12*
%TO.P,Y3,1,VCTRL*%
X177100000Y-120260000D03*
D13*
%TO.P,Y3,2,E/D*%
X177100000Y-122800000D03*
%TO.P,Y3,3,GND*%
X177100000Y-125340000D03*
%TO.P,Y3,4,OUT*%
X181300000Y-125340000D03*
%TO.P,Y3,5,N/C*%
X181300000Y-122800000D03*
%TO.P,Y3,6,+VS*%
X181300000Y-120260000D03*
%TD*%
D10*
%TO.C,C189*%
%TO.CFtp,CAPC0603X33N*%
%TO.CVal,CC0201_100NF_6.3V_10\u0025_X5R*%
%TO.CLbN,Capacitors SMD*%
%TO.CMnt,SMD*%
%TO.CRot,90*%
X172430000Y-114335000D03*
D14*
X172675000Y-113690000D02*
X172675000Y-114980000D01*
X172185000Y-114980000D01*
X172185000Y-113690000D01*
X172675000Y-113690000D01*
D12*
%TO.P,C189,1,1*%
X172430000Y-114685000D03*
D13*
%TO.P,C189,2,2*%
X172430000Y-113985000D03*
%TD*%
D10*
%TO.C,R38*%
%TO.CFtp,RESC1005X40N*%
%TO.CVal,R0402_4K7_1\u0025_0.0625W_100PPM*%
%TO.CLbN,Resistors SMD*%
%TO.CMnt,SMD*%
%TO.CRot,90*%
X167562500Y-64400000D03*
D14*
X168017500Y-63495000D02*
X168017500Y-65305000D01*
X167107500Y-65305000D01*
X167107500Y-63495000D01*
X168017500Y-63495000D01*
D12*
%TO.P,R38,1,1*%
X167562500Y-64870000D03*
D13*
%TO.P,R38,2,2*%
X167562500Y-63930000D03*
%TD*%
D10*
%TO.C,C184*%
%TO.CFtp,CAPC1005X55N*%
%TO.CVal,CC0402_1UF_16V_10\u0025_X5R*%
%TO.CLbN,Capacitors SMD*%
%TO.CMnt,SMD*%
%TO.CRot,-90*%
X162000000Y-113215000D03*
D14*
X162455000Y-112310000D02*
X162455000Y-114120000D01*
X161545000Y-114120000D01*
X161545000Y-112310000D01*
X162455000Y-112310000D01*
D12*
%TO.P,C184,1,1*%
X162000000Y-112765000D03*
D13*
%TO.P,C184,2,2*%
X162000000Y-113665000D03*
%TD*%
D10*
%TO.C,C12*%
%TO.CFtp,CAPC1005X55N*%
%TO.CVal,CC0402_100NF_50V_10\u0025_X7R*%
%TO.CLbN,Capacitors SMD*%
%TO.CMnt,SMD*%
%TO.CRot,90*%
X148800000Y-109300000D03*
D14*
X149255000Y-108395000D02*
X149255000Y-110205000D01*
X148345000Y-110205000D01*
X148345000Y-108395000D01*
X149255000Y-108395000D01*
D12*
%TO.P,C12,1,1*%
X148800000Y-109750000D03*
D13*
%TO.P,C12,2,2*%
X148800000Y-108850000D03*
%TD*%
D10*
%TO.C,R161*%
%TO.CFtp,RESC1005X40N*%
%TO.CVal,R0402_10K_1\u0025_0.0625W_100PPM*%
%TO.CLbN,Resistors SMD*%
%TO.CMnt,SMD*%
%TO.CRot,-90*%
X191350000Y-56900000D03*
D14*
X191805000Y-55995000D02*
X191805000Y-57805000D01*
X190895000Y-57805000D01*
X190895000Y-55995000D01*
X191805000Y-55995000D01*
D12*
%TO.P,R161,1,1*%
X191350000Y-56430000D03*
D13*
%TO.P,R161,2,2*%
X191350000Y-57370000D03*
%TD*%
D10*
%TO.C,L4*%
%TO.CFtp,L_1008_2520Metric*%
%TO.CVal,4.7 uH*%
%TO.CLbN,Inductor_SMD*%
%TO.CMnt,SMD*%
%TO.CRot,90*%
X146200000Y-94300000D03*
D14*
X147545000Y-92355000D02*
X147545000Y-96245000D01*
X144855000Y-96245000D01*
X144855000Y-92355000D01*
X147545000Y-92355000D01*
D12*
%TO.P,L4,1,1*%
X146200000Y-95375000D03*
D13*
%TO.P,L4,2,2*%
X146200000Y-93225000D03*
%TD*%
D10*
%TO.C,C180*%
%TO.CFtp,CAPC2012X95N*%
%TO.CVal,CC0805_10UF_25V_10\u0025_X5R*%
%TO.CLbN,Capacitors SMD*%
%TO.CMnt,SMD*%
%TO.CRot,-90*%
X179600000Y-134500000D03*
D14*
X180595000Y-132805000D02*
X180595000Y-136195000D01*
X178605000Y-136195000D01*
X178605000Y-132805000D01*
X180595000Y-132805000D01*
D12*
%TO.P,C180,1,1*%
X179600000Y-133600000D03*
D13*
%TO.P,C180,2,2*%
X179600000Y-135400000D03*
%TD*%
D10*
%TO.C,C81*%
%TO.CFtp,CAPC1005X55N*%
%TO.CVal,CC0402_4.7UF_16V_20\u0025_X5R*%
%TO.CLbN,Capacitors SMD*%
%TO.CMnt,SMD*%
%TO.CRot,0*%
X112600000Y-110800000D03*
D14*
X113505000Y-110345000D02*
X113505000Y-111255000D01*
X111695000Y-111255000D01*
X111695000Y-110345000D01*
X113505000Y-110345000D01*
D12*
%TO.P,C81,1,1*%
X112150000Y-110800000D03*
D13*
%TO.P,C81,2,2*%
X113050000Y-110800000D03*
%TD*%
D10*
%TO.C,R84*%
%TO.CFtp,RESC1005X40N*%
%TO.CVal,R0402_1K_1\u0025_0.0625W_100PPM*%
%TO.CLbN,Resistors SMD*%
%TO.CMnt,SMD*%
%TO.CRot,-90*%
X185600000Y-76900000D03*
D14*
X186055000Y-75995000D02*
X186055000Y-77805000D01*
X185145000Y-77805000D01*
X185145000Y-75995000D01*
X186055000Y-75995000D01*
D12*
%TO.P,R84,1,1*%
X185600000Y-76430000D03*
D13*
%TO.P,R84,2,2*%
X185600000Y-77370000D03*
%TD*%
D10*
%TO.C,U26*%
%TO.CFtp,QFN65P400X400X100-17N-S225*%
%TO.CVal,PCA9546ARGV*%
%TO.CLbN,ICs And Semiconductors SMD*%
%TO.CMnt,SMD*%
%TO.CRot,0*%
X188800000Y-60600000D03*
D14*
X191445000Y-57955000D02*
X191445000Y-63245000D01*
X186155000Y-63245000D01*
X186155000Y-57955000D01*
X191445000Y-57955000D01*
D12*
%TO.P,U26,1,~{RESET}*%
X186950000Y-59625000D03*
D13*
%TO.P,U26,2,SD0*%
X186950000Y-60275000D03*
%TO.P,U26,3,SC0*%
X186950000Y-60925000D03*
%TO.P,U26,4,SD1*%
X186950000Y-61575000D03*
%TO.P,U26,5,SC1*%
X187825000Y-62450000D03*
%TO.P,U26,6,GND*%
X188475000Y-62450000D03*
%TO.P,U26,7,SD2*%
X189125000Y-62450000D03*
%TO.P,U26,8,SC2*%
X189775000Y-62450000D03*
%TO.P,U26,9,SD3*%
X190650000Y-61575000D03*
%TO.P,U26,10,SC3*%
X190650000Y-60925000D03*
%TO.P,U26,11,A2*%
X190650000Y-60275000D03*
%TO.P,U26,12,SCL*%
X190650000Y-59625000D03*
%TO.P,U26,13,SDA*%
X189775000Y-58750000D03*
%TO.P,U26,14,VCC*%
X189125000Y-58750000D03*
%TO.P,U26,15,A0*%
X188475000Y-58750000D03*
%TO.P,U26,16,A1*%
X187825000Y-58750000D03*
%TO.P,U26,17,EP*%
X188800000Y-60600000D03*
%TD*%
D10*
%TO.C,U2*%
%TO.CFtp,FBGA-96_8x14mm_Layout9x16_P0.8mm*%
%TO.CVal,MT41K512M16HA-125_E / MT41K512M16VRP-107 IT:P*%
%TO.CLbN,Package_BGA*%
%TO.CMnt,SMD*%
%TO.CRot,0*%
X194600000Y-118100000D03*
D14*
X199595000Y-110105000D02*
X199595000Y-126095000D01*
X189605000Y-126095000D01*
X189605000Y-110105000D01*
X199595000Y-110105000D01*
D12*
%TO.P,U2,A1,VDDQ*%
X191400000Y-112100000D03*
D13*
%TO.P,U2,A2,DQ13*%
X192200000Y-112100000D03*
%TO.P,U2,A3,DQ15*%
X193000000Y-112100000D03*
%TO.P,U2,A7,DQ12*%
X196200000Y-112100000D03*
%TO.P,U2,A8,VDDQ*%
X197000000Y-112100000D03*
%TO.P,U2,A9,VSS*%
X197800000Y-112100000D03*
%TO.P,U2,B1,VSSQ*%
X191400000Y-112900000D03*
%TO.P,U2,B2,VDD*%
X192200000Y-112900000D03*
%TO.P,U2,B3,VSS*%
X193000000Y-112900000D03*
%TO.P,U2,B7,~{UDQS}*%
X196200000Y-112900000D03*
%TO.P,U2,B8,DQ14*%
X197000000Y-112900000D03*
%TO.P,U2,B9,VSSQ*%
X197800000Y-112900000D03*
%TO.P,U2,C1,VDDQ*%
X191400000Y-113700000D03*
%TO.P,U2,C2,DQ11*%
X192200000Y-113700000D03*
%TO.P,U2,C3,DQ9*%
X193000000Y-113700000D03*
%TO.P,U2,C7,UDQS*%
X196200000Y-113700000D03*
%TO.P,U2,C8,DQ10*%
X197000000Y-113700000D03*
%TO.P,U2,C9,VDDQ*%
X197800000Y-113700000D03*
%TO.P,U2,D1,VSSQ*%
X191400000Y-114500000D03*
%TO.P,U2,D2,VDDQ*%
X192200000Y-114500000D03*
%TO.P,U2,D3,UDM*%
X193000000Y-114500000D03*
%TO.P,U2,D7,DQ8*%
X196200000Y-114500000D03*
%TO.P,U2,D8,VSSQ*%
X197000000Y-114500000D03*
%TO.P,U2,D9,VDD*%
X197800000Y-114500000D03*
%TO.P,U2,E1,VSS*%
X191400000Y-115300000D03*
%TO.P,U2,E2,VSSQ*%
X192200000Y-115300000D03*
%TO.P,U2,E3,DQ0*%
X193000000Y-115300000D03*
%TO.P,U2,E7,LDM*%
X196200000Y-115300000D03*
%TO.P,U2,E8,VSSQ*%
X197000000Y-115300000D03*
%TO.P,U2,E9,VDDQ*%
X197800000Y-115300000D03*
%TO.P,U2,F1,VDDQ*%
X191400000Y-116100000D03*
%TO.P,U2,F2,DQ2*%
X192200000Y-116100000D03*
%TO.P,U2,F3,LDQS*%
X193000000Y-116100000D03*
%TO.P,U2,F7,DQ1*%
X196200000Y-116100000D03*
%TO.P,U2,F8,DQ3*%
X197000000Y-116100000D03*
%TO.P,U2,F9,VSSQ*%
X197800000Y-116100000D03*
%TO.P,U2,G1,VSSQ*%
X191400000Y-116900000D03*
%TO.P,U2,G2,DQ6*%
X192200000Y-116900000D03*
%TO.P,U2,G3,~{LDQS}*%
X193000000Y-116900000D03*
%TO.P,U2,G7,VDD*%
X196200000Y-116900000D03*
%TO.P,U2,G8,VSS*%
X197000000Y-116900000D03*
%TO.P,U2,G9,VSSQ*%
X197800000Y-116900000D03*
%TO.P,U2,H1,VREFDQ*%
X191400000Y-117700000D03*
%TO.P,U2,H2,VDDQ*%
X192200000Y-117700000D03*
%TO.P,U2,H3,DQ4*%
X193000000Y-117700000D03*
%TO.P,U2,H7,DQ7*%
X196200000Y-117700000D03*
%TO.P,U2,H8,DQ5*%
X197000000Y-117700000D03*
%TO.P,U2,H9,VDDQ*%
X197800000Y-117700000D03*
%TO.P,U2,J1,NC*%
X191400000Y-118500000D03*
%TO.P,U2,J2,VSS*%
X192200000Y-118500000D03*
%TO.P,U2,J3,~{RAS}*%
X193000000Y-118500000D03*
%TO.P,U2,J7,CK*%
X196200000Y-118500000D03*
%TO.P,U2,J8,VSS*%
X197000000Y-118500000D03*
%TO.P,U2,J9,NC*%
X197800000Y-118500000D03*
%TO.P,U2,K1,ODT*%
X191400000Y-119300000D03*
%TO.P,U2,K2,VDD*%
X192200000Y-119300000D03*
%TO.P,U2,K3,~{CAS}*%
X193000000Y-119300000D03*
%TO.P,U2,K7,~{CK}*%
X196200000Y-119300000D03*
%TO.P,U2,K8,VDD*%
X197000000Y-119300000D03*
%TO.P,U2,K9,CKE*%
X197800000Y-119300000D03*
%TO.P,U2,L1,NC*%
X191400000Y-120100000D03*
%TO.P,U2,L2,~{CS}*%
X192200000Y-120100000D03*
%TO.P,U2,L3,~{WE}*%
X193000000Y-120100000D03*
%TO.P,U2,L7,A10/AP*%
X196200000Y-120100000D03*
%TO.P,U2,L8,ZQ*%
X197000000Y-120100000D03*
%TO.P,U2,L9,NC*%
X197800000Y-120100000D03*
%TO.P,U2,M1,VSS*%
X191400000Y-120900000D03*
%TO.P,U2,M2,BA0*%
X192200000Y-120900000D03*
%TO.P,U2,M3,BA2*%
X193000000Y-120900000D03*
%TO.P,U2,M7,A15*%
X196200000Y-120900000D03*
%TO.P,U2,M8,VREFCA*%
X197000000Y-120900000D03*
%TO.P,U2,M9,VSS*%
X197800000Y-120900000D03*
%TO.P,U2,N1,VDD*%
X191400000Y-121700000D03*
%TO.P,U2,N2,A3*%
X192200000Y-121700000D03*
%TO.P,U2,N3,A0*%
X193000000Y-121700000D03*
%TO.P,U2,N7,A12/~{BC}*%
X196200000Y-121700000D03*
%TO.P,U2,N8,BA1*%
X197000000Y-121700000D03*
%TO.P,U2,N9,VDD*%
X197800000Y-121700000D03*
%TO.P,U2,P1,VSS*%
X191400000Y-122500000D03*
%TO.P,U2,P2,A5*%
X192200000Y-122500000D03*
%TO.P,U2,P3,A2*%
X193000000Y-122500000D03*
%TO.P,U2,P7,A1*%
X196200000Y-122500000D03*
%TO.P,U2,P8,A4*%
X197000000Y-122500000D03*
%TO.P,U2,P9,VSS*%
X197800000Y-122500000D03*
%TO.P,U2,R1,VDD*%
X191400000Y-123300000D03*
%TO.P,U2,R2,A7*%
X192200000Y-123300000D03*
%TO.P,U2,R3,A9*%
X193000000Y-123300000D03*
%TO.P,U2,R7,A11*%
X196200000Y-123300000D03*
%TO.P,U2,R8,A6*%
X197000000Y-123300000D03*
%TO.P,U2,R9,VDD*%
X197800000Y-123300000D03*
%TO.P,U2,T1,VSS*%
X191400000Y-124100000D03*
%TO.P,U2,T2,~{RESET}*%
X192200000Y-124100000D03*
%TO.P,U2,T3,A13*%
X193000000Y-124100000D03*
%TO.P,U2,T7,A14*%
X196200000Y-124100000D03*
%TO.P,U2,T8,A8*%
X197000000Y-124100000D03*
%TO.P,U2,T9,VSS*%
X197800000Y-124100000D03*
%TD*%
D10*
%TO.C,R157*%
%TO.CFtp,RESC1005X40N*%
%TO.CVal,R0402_10K_1\u0025_0.0625W_100PPM*%
%TO.CLbN,Resistors SMD*%
%TO.CMnt,SMD*%
%TO.CRot,-90*%
X200850000Y-57185000D03*
D14*
X201305000Y-56280000D02*
X201305000Y-58090000D01*
X200395000Y-58090000D01*
X200395000Y-56280000D01*
X201305000Y-56280000D01*
D12*
%TO.P,R157,1,1*%
X200850000Y-56715000D03*
D13*
%TO.P,R157,2,2*%
X200850000Y-57655000D03*
%TD*%
D10*
%TO.C,C228*%
%TO.CFtp,CAPC1005X55N*%
%TO.CVal,CC0402_100NF_50V_10\u0025_X7R*%
%TO.CLbN,Capacitors SMD*%
%TO.CMnt,SMD*%
%TO.CRot,-90*%
X125900000Y-128600000D03*
D14*
X126355000Y-127695000D02*
X126355000Y-129505000D01*
X125445000Y-129505000D01*
X125445000Y-127695000D01*
X126355000Y-127695000D01*
D12*
%TO.P,C228,1,1*%
X125900000Y-128150000D03*
D13*
%TO.P,C228,2,2*%
X125900000Y-129050000D03*
%TD*%
D10*
%TO.C,R116*%
%TO.CFtp,RESC1005X40N*%
%TO.CVal,R0402_510R_0.1\u0025_0.0625W_10PPM*%
%TO.CLbN,Resistors SMD*%
%TO.CMnt,SMD*%
%TO.CRot,-90*%
X170000000Y-84700000D03*
D14*
X170455000Y-83795000D02*
X170455000Y-85605000D01*
X169545000Y-85605000D01*
X169545000Y-83795000D01*
X170455000Y-83795000D01*
D12*
%TO.P,R116,1,1*%
X170000000Y-84230000D03*
D13*
%TO.P,R116,2,2*%
X170000000Y-85170000D03*
%TD*%
D10*
%TO.C,C216*%
%TO.CFtp,CAPC1005X55N*%
%TO.CVal,CC0402_1UF_16V_10\u0025_X5R*%
%TO.CLbN,Capacitors SMD*%
%TO.CMnt,SMD*%
%TO.CRot,0*%
X166900000Y-84900000D03*
D14*
X167805000Y-84445000D02*
X167805000Y-85355000D01*
X165995000Y-85355000D01*
X165995000Y-84445000D01*
X167805000Y-84445000D01*
D12*
%TO.P,C216,1,1*%
X166450000Y-84900000D03*
D13*
%TO.P,C216,2,2*%
X167350000Y-84900000D03*
%TD*%
D10*
%TO.C,U13*%
%TO.CFtp,SOIC127P600X175-8N*%
%TO.CVal,LM336M-2.5*%
%TO.CLbN,ICs And Semiconductors SMD*%
%TO.CMnt,SMD*%
%TO.CRot,90*%
X172800000Y-124900000D03*
D14*
X175545000Y-121155000D02*
X175545000Y-128645000D01*
X170055000Y-128645000D01*
X170055000Y-121155000D01*
X175545000Y-121155000D01*
D12*
%TO.P,U13,1*%
X170895000Y-127600000D03*
D13*
%TO.P,U13,2*%
X172165000Y-127600000D03*
%TO.P,U13,3*%
X173435000Y-127600000D03*
%TO.P,U13,4,A*%
X174705000Y-127600000D03*
%TO.P,U13,5,Adj*%
X174705000Y-122200000D03*
%TO.P,U13,6*%
X173435000Y-122200000D03*
%TO.P,U13,7*%
X172165000Y-122200000D03*
%TO.P,U13,8,C*%
X170895000Y-122200000D03*
%TD*%
D10*
%TO.C,R43*%
%TO.CFtp,RESC1005X40N*%
%TO.CVal,R0402_4K7_1\u0025_0.0625W_100PPM*%
%TO.CLbN,Resistors SMD*%
%TO.CMnt,SMD*%
%TO.CRot,180*%
X162462500Y-60600000D03*
D14*
X163367500Y-60145000D02*
X163367500Y-61055000D01*
X161557500Y-61055000D01*
X161557500Y-60145000D01*
X163367500Y-60145000D01*
D12*
%TO.P,R43,1,1*%
X162932500Y-60600000D03*
D13*
%TO.P,R43,2,2*%
X161992500Y-60600000D03*
%TD*%
D10*
%TO.C,R39*%
%TO.CFtp,RESC1005X40N*%
%TO.CVal,R0402_4K7_1\u0025_0.0625W_100PPM*%
%TO.CLbN,Resistors SMD*%
%TO.CMnt,SMD*%
%TO.CRot,-90*%
X189150000Y-64275000D03*
D14*
X189605000Y-63370000D02*
X189605000Y-65180000D01*
X188695000Y-65180000D01*
X188695000Y-63370000D01*
X189605000Y-63370000D01*
D12*
%TO.P,R39,1,1*%
X189150000Y-63805000D03*
D13*
%TO.P,R39,2,2*%
X189150000Y-64745000D03*
%TD*%
D10*
%TO.C,R46*%
%TO.CFtp,RESC1005X40N*%
%TO.CVal,R0402_4K7_1\u0025_0.0625W_100PPM*%
%TO.CLbN,Resistors SMD*%
%TO.CMnt,SMD*%
%TO.CRot,0*%
X170162500Y-62000000D03*
D14*
X171067500Y-61545000D02*
X171067500Y-62455000D01*
X169257500Y-62455000D01*
X169257500Y-61545000D01*
X171067500Y-61545000D01*
D12*
%TO.P,R46,1,1*%
X169692500Y-62000000D03*
D13*
%TO.P,R46,2,2*%
X170632500Y-62000000D03*
%TD*%
D10*
%TO.C,R89*%
%TO.CFtp,RESC1005X40N*%
%TO.CVal,R0402_1K_1\u0025_0.0625W_100PPM*%
%TO.CLbN,Resistors SMD*%
%TO.CMnt,SMD*%
%TO.CRot,180*%
X199505000Y-92600000D03*
D14*
X200410000Y-92145000D02*
X200410000Y-93055000D01*
X198600000Y-93055000D01*
X198600000Y-92145000D01*
X200410000Y-92145000D01*
D12*
%TO.P,R89,1,1*%
X199975000Y-92600000D03*
D13*
%TO.P,R89,2,2*%
X199035000Y-92600000D03*
%TD*%
D10*
%TO.C,R48*%
%TO.CFtp,RESC1005X40N*%
%TO.CVal,R0402_4K7_1\u0025_0.0625W_100PPM*%
%TO.CLbN,Resistors SMD*%
%TO.CMnt,SMD*%
%TO.CRot,0*%
X170162500Y-61000000D03*
D14*
X171067500Y-60545000D02*
X171067500Y-61455000D01*
X169257500Y-61455000D01*
X169257500Y-60545000D01*
X171067500Y-60545000D01*
D12*
%TO.P,R48,1,1*%
X169692500Y-61000000D03*
D13*
%TO.P,R48,2,2*%
X170632500Y-61000000D03*
%TD*%
D10*
%TO.C,C76*%
%TO.CFtp,CAPC1005X55N*%
%TO.CVal,CC0402_100NF_50V_10\u0025_X7R*%
%TO.CLbN,Capacitors SMD*%
%TO.CMnt,SMD*%
%TO.CRot,-90*%
X128100000Y-111400000D03*
D14*
X128555000Y-110495000D02*
X128555000Y-112305000D01*
X127645000Y-112305000D01*
X127645000Y-110495000D01*
X128555000Y-110495000D01*
D12*
%TO.P,C76,1,1*%
X128100000Y-110950000D03*
D13*
%TO.P,C76,2,2*%
X128100000Y-111850000D03*
%TD*%
D10*
%TO.C,C226*%
%TO.CFtp,CAPC1005X55N*%
%TO.CVal,CC0402_100NF_50V_10\u0025_X7R*%
%TO.CLbN,Capacitors SMD*%
%TO.CMnt,SMD*%
%TO.CRot,180*%
X199200000Y-135300000D03*
D14*
X200105000Y-134845000D02*
X200105000Y-135755000D01*
X198295000Y-135755000D01*
X198295000Y-134845000D01*
X200105000Y-134845000D01*
D12*
%TO.P,C226,1,1*%
X199650000Y-135300000D03*
D13*
%TO.P,C226,2,2*%
X198750000Y-135300000D03*
%TD*%
D10*
%TO.C,C175*%
%TO.CFtp,CAPC2012X95N*%
%TO.CVal,CC0805_10UF_25V_10\u0025_X5R*%
%TO.CLbN,Capacitors SMD*%
%TO.CMnt,SMD*%
%TO.CRot,0*%
X148000000Y-131500000D03*
D14*
X149695000Y-130505000D02*
X149695000Y-132495000D01*
X146305000Y-132495000D01*
X146305000Y-130505000D01*
X149695000Y-130505000D01*
D12*
%TO.P,C175,1,1*%
X147100000Y-131500000D03*
D13*
%TO.P,C175,2,2*%
X148900000Y-131500000D03*
%TD*%
D10*
%TO.C,R7*%
%TO.CFtp,RESC1005X40N*%
%TO.CVal,R0402_22R_1\u0025_0.0625W_100PPM*%
%TO.CLbN,Resistors SMD*%
%TO.CMnt,SMD*%
%TO.CRot,180*%
X152800000Y-111000000D03*
D14*
X153705000Y-110545000D02*
X153705000Y-111455000D01*
X151895000Y-111455000D01*
X151895000Y-110545000D01*
X153705000Y-110545000D01*
D12*
%TO.P,R7,1,1*%
X153270000Y-111000000D03*
D13*
%TO.P,R7,2,2*%
X152330000Y-111000000D03*
%TD*%
D10*
%TO.C,C219*%
%TO.CFtp,CAPC1005X55N*%
%TO.CVal,CC0402_4.7UF_16V_20\u0025_X5R*%
%TO.CLbN,Capacitors SMD*%
%TO.CMnt,SMD*%
%TO.CRot,180*%
X171800000Y-103425000D03*
D14*
X172705000Y-102970000D02*
X172705000Y-103880000D01*
X170895000Y-103880000D01*
X170895000Y-102970000D01*
X172705000Y-102970000D01*
D12*
%TO.P,C219,1,1*%
X172250000Y-103425000D03*
D13*
%TO.P,C219,2,2*%
X171350000Y-103425000D03*
%TD*%
D10*
%TO.C,R125*%
%TO.CFtp,RESC1005X40N*%
%TO.CVal,R0402_2K32_1\u0025_0.0625W_100PPM*%
%TO.CLbN,Resistors SMD*%
%TO.CMnt,SMD*%
%TO.CRot,0*%
X162800000Y-78900000D03*
D14*
X163705000Y-78445000D02*
X163705000Y-79355000D01*
X161895000Y-79355000D01*
X161895000Y-78445000D01*
X163705000Y-78445000D01*
D12*
%TO.P,R125,1,1*%
X162330000Y-78900000D03*
D13*
%TO.P,R125,2,2*%
X163270000Y-78900000D03*
%TD*%
D10*
%TO.C,C28*%
%TO.CFtp,CAPC2012X135N*%
%TO.CVal,CC0805_22UF_16V_10\u0025_X5R*%
%TO.CLbN,Capacitors SMD*%
%TO.CMnt,SMD*%
%TO.CRot,90*%
X140900000Y-94100000D03*
D14*
X141845000Y-92405000D02*
X141845000Y-95795000D01*
X139955000Y-95795000D01*
X139955000Y-92405000D01*
X141845000Y-92405000D01*
D12*
%TO.P,C28,1,1*%
X140900000Y-95000000D03*
D13*
%TO.P,C28,2,2*%
X140900000Y-93200000D03*
%TD*%
D10*
%TO.C,C212*%
%TO.CFtp,CAPC0603X33N*%
%TO.CVal,CC0201_100NF_6.3V_10\u0025_X5R*%
%TO.CLbN,Capacitors SMD*%
%TO.CMnt,SMD*%
%TO.CRot,0*%
X163500000Y-123200000D03*
D14*
X164145000Y-122955000D02*
X164145000Y-123445000D01*
X162855000Y-123445000D01*
X162855000Y-122955000D01*
X164145000Y-122955000D01*
D12*
%TO.P,C212,1,1*%
X163150000Y-123200000D03*
D13*
%TO.P,C212,2,2*%
X163850000Y-123200000D03*
%TD*%
D10*
%TO.C,C204*%
%TO.CFtp,CAPC1005X55N*%
%TO.CVal,CC0402_100NF_50V_10\u0025_X7R*%
%TO.CLbN,Capacitors SMD*%
%TO.CMnt,SMD*%
%TO.CRot,90*%
X171000000Y-86600000D03*
D14*
X171455000Y-85695000D02*
X171455000Y-87505000D01*
X170545000Y-87505000D01*
X170545000Y-85695000D01*
X171455000Y-85695000D01*
D12*
%TO.P,C204,1,1*%
X171000000Y-87050000D03*
D13*
%TO.P,C204,2,2*%
X171000000Y-86150000D03*
%TD*%
D10*
%TO.C,R103*%
%TO.CFtp,RESC1005X40N*%
%TO.CVal,R0402_240R_1\u0025_0.0625W_100PPM*%
%TO.CLbN,Resistors SMD*%
%TO.CMnt,SMD*%
%TO.CRot,-90*%
X177330000Y-116285000D03*
D14*
X177785000Y-115380000D02*
X177785000Y-117190000D01*
X176875000Y-117190000D01*
X176875000Y-115380000D01*
X177785000Y-115380000D01*
D12*
%TO.P,R103,1,1*%
X177330000Y-115815000D03*
D13*
%TO.P,R103,2,2*%
X177330000Y-116755000D03*
%TD*%
D10*
%TO.C,R56*%
%TO.CFtp,RESC1005X40N*%
%TO.CVal,R0402_40R2_1\u0025_0.0625W_100PPM*%
%TO.CLbN,Resistors SMD*%
%TO.CMnt,SMD*%
%TO.CRot,180*%
X187800000Y-118700000D03*
D14*
X188705000Y-118245000D02*
X188705000Y-119155000D01*
X186895000Y-119155000D01*
X186895000Y-118245000D01*
X188705000Y-118245000D01*
D12*
%TO.P,R56,1,1*%
X188270000Y-118700000D03*
D13*
%TO.P,R56,2,2*%
X187330000Y-118700000D03*
%TD*%
D10*
%TO.C,C82*%
%TO.CFtp,CAPC1005X55N*%
%TO.CVal,CC0402_100NF_50V_10\u0025_X7R*%
%TO.CLbN,Capacitors SMD*%
%TO.CMnt,SMD*%
%TO.CRot,-90*%
X121700000Y-111100000D03*
D14*
X122155000Y-110195000D02*
X122155000Y-112005000D01*
X121245000Y-112005000D01*
X121245000Y-110195000D01*
X122155000Y-110195000D01*
D12*
%TO.P,C82,1,1*%
X121700000Y-110650000D03*
D13*
%TO.P,C82,2,2*%
X121700000Y-111550000D03*
%TD*%
D10*
%TO.C,L10*%
%TO.CFtp,INDC1005X55N*%
%TO.CVal,IND0402_MURATA_BLM15PX121SN1D*%
%TO.CLbN,Inductors SMD*%
%TO.CMnt,SMD*%
%TO.CRot,-90*%
X119600000Y-115100000D03*
D14*
X120055000Y-114195000D02*
X120055000Y-116005000D01*
X119145000Y-116005000D01*
X119145000Y-114195000D01*
X120055000Y-114195000D01*
D12*
%TO.P,L10,1,1*%
X119600000Y-114640000D03*
D13*
%TO.P,L10,2,2*%
X119600000Y-115560000D03*
%TD*%
D10*
%TO.C,L13*%
%TO.CFtp,INDC1005X55N*%
%TO.CVal,IND0402_MURATA_BLM15PX121SN1D*%
%TO.CLbN,Inductors SMD*%
%TO.CMnt,SMD*%
%TO.CRot,90*%
X119700000Y-118700000D03*
D14*
X120155000Y-117795000D02*
X120155000Y-119605000D01*
X119245000Y-119605000D01*
X119245000Y-117795000D01*
X120155000Y-117795000D01*
D12*
%TO.P,L13,1,1*%
X119700000Y-119160000D03*
D13*
%TO.P,L13,2,2*%
X119700000Y-118240000D03*
%TD*%
D10*
%TO.C,R64*%
%TO.CFtp,RESC1005X40N*%
%TO.CVal,R0402_40R2_1\u0025_0.0625W_100PPM*%
%TO.CLbN,Resistors SMD*%
%TO.CMnt,SMD*%
%TO.CRot,-90*%
X190800000Y-127100000D03*
D14*
X191255000Y-126195000D02*
X191255000Y-128005000D01*
X190345000Y-128005000D01*
X190345000Y-126195000D01*
X191255000Y-126195000D01*
D12*
%TO.P,R64,1,1*%
X190800000Y-126630000D03*
D13*
%TO.P,R64,2,2*%
X190800000Y-127570000D03*
%TD*%
D10*
%TO.C,C220*%
%TO.CFtp,CAPC1005X55N*%
%TO.CVal,CC0402_100NF_50V_10\u0025_X7R*%
%TO.CLbN,Capacitors SMD*%
%TO.CMnt,SMD*%
%TO.CRot,0*%
X188850000Y-57362000D03*
D14*
X189755000Y-56907000D02*
X189755000Y-57817000D01*
X187945000Y-57817000D01*
X187945000Y-56907000D01*
X189755000Y-56907000D01*
D12*
%TO.P,C220,1,1*%
X188400000Y-57362000D03*
D13*
%TO.P,C220,2,2*%
X189300000Y-57362000D03*
%TD*%
D10*
%TO.C,R9*%
%TO.CFtp,RESC1005X40N*%
%TO.CVal,R0402_22R_1\u0025_0.0625W_100PPM*%
%TO.CLbN,Resistors SMD*%
%TO.CMnt,SMD*%
%TO.CRot,180*%
X152800000Y-107000000D03*
D14*
X153705000Y-106545000D02*
X153705000Y-107455000D01*
X151895000Y-107455000D01*
X151895000Y-106545000D01*
X153705000Y-106545000D01*
D12*
%TO.P,R9,1,1*%
X153270000Y-107000000D03*
D13*
%TO.P,R9,2,2*%
X152330000Y-107000000D03*
%TD*%
D10*
%TO.C,L18*%
%TO.CFtp,INDC1608X65N*%
%TO.CVal,IND0603_MURATA_BLM18SG121TN1D*%
%TO.CLbN,Inductors SMD*%
%TO.CMnt,SMD*%
%TO.CRot,0*%
X163200000Y-128900000D03*
D14*
X164695000Y-128155000D02*
X164695000Y-129645000D01*
X161705000Y-129645000D01*
X161705000Y-128155000D01*
X164695000Y-128155000D01*
D12*
%TO.P,L18,1,1*%
X162450000Y-128900000D03*
D13*
%TO.P,L18,2,2*%
X163950000Y-128900000D03*
%TD*%
D10*
%TO.C,R160*%
%TO.CFtp,RESC1005X40N*%
%TO.CVal,R0402_0R_JUMPER*%
%TO.CLbN,Resistors SMD*%
%TO.CMnt,SMD*%
%TO.CRot,180*%
X149300000Y-97900000D03*
D14*
X150205000Y-97445000D02*
X150205000Y-98355000D01*
X148395000Y-98355000D01*
X148395000Y-97445000D01*
X150205000Y-97445000D01*
D12*
%TO.P,R160,1,1*%
X149770000Y-97900000D03*
D13*
%TO.P,R160,2,2*%
X148830000Y-97900000D03*
%TD*%
D10*
%TO.C,C23*%
%TO.CFtp,CAPC2012X135N*%
%TO.CVal,CC0805_22UF_16V_10\u0025_X5R*%
%TO.CLbN,Capacitors SMD*%
%TO.CMnt,SMD*%
%TO.CRot,-90*%
X149500000Y-58100000D03*
D14*
X150445000Y-56405000D02*
X150445000Y-59795000D01*
X148555000Y-59795000D01*
X148555000Y-56405000D01*
X150445000Y-56405000D01*
D12*
%TO.P,C23,1,1*%
X149500000Y-57200000D03*
D13*
%TO.P,C23,2,2*%
X149500000Y-59000000D03*
%TD*%
D10*
%TO.C,B4*%
%TO.CFtp,MTG320_550*%
%TO.CVal,PLATED_HOLE3.2_PAD5.5*%
%TO.CLbN,Pads*%
%TO.CMnt,TH*%
%TO.CRot,0*%
X207000000Y-136000000D03*
D11*
X204250000Y-133250000D02*
X204250000Y-138750000D01*
X209750000Y-138750000D01*
X209750000Y-133250000D01*
X204250000Y-133250000D01*
D12*
%TO.P,B4,1,1*%
X207000000Y-136000000D03*
%TD*%
D10*
%TO.C,R104*%
%TO.CFtp,RESC1005X40N*%
%TO.CVal,R0402_0R_JUMPER*%
%TO.CLbN,Resistors SMD*%
%TO.CMnt,SMD*%
%TO.CRot,180*%
X165150000Y-118800000D03*
D14*
X166055000Y-118345000D02*
X166055000Y-119255000D01*
X164245000Y-119255000D01*
X164245000Y-118345000D01*
X166055000Y-118345000D01*
D12*
%TO.P,R104,1,1*%
X165620000Y-118800000D03*
D13*
%TO.P,R104,2,2*%
X164680000Y-118800000D03*
%TD*%
D10*
%TO.C,R60*%
%TO.CFtp,RESC1005X40N*%
%TO.CVal,R0402_40R2_1\u0025_0.0625W_100PPM*%
%TO.CLbN,Resistors SMD*%
%TO.CMnt,SMD*%
%TO.CRot,-90*%
X195800000Y-127100000D03*
D14*
X196255000Y-126195000D02*
X196255000Y-128005000D01*
X195345000Y-128005000D01*
X195345000Y-126195000D01*
X196255000Y-126195000D01*
D12*
%TO.P,R60,1,1*%
X195800000Y-126630000D03*
D13*
%TO.P,R60,2,2*%
X195800000Y-127570000D03*
%TD*%
D10*
%TO.C,C171*%
%TO.CFtp,CAPC2012X135N*%
%TO.CVal,CC0805_22UF_16V_10\u0025_X5R*%
%TO.CLbN,Capacitors SMD*%
%TO.CMnt,SMD*%
%TO.CRot,90*%
X129400000Y-128400000D03*
D14*
X130345000Y-126705000D02*
X130345000Y-130095000D01*
X128455000Y-130095000D01*
X128455000Y-126705000D01*
X130345000Y-126705000D01*
D12*
%TO.P,C171,1,1*%
X129400000Y-129300000D03*
D13*
%TO.P,C171,2,2*%
X129400000Y-127500000D03*
%TD*%
D10*
%TO.C,LD2*%
%TO.CFtp,LED_KINGBRIGHT_KPH-1608CGCK*%
%TO.CVal,LED_KINGBRIGHT_KPH-1608CGCK*%
%TO.CLbN,ICs And Semiconductors SMD*%
%TO.CMnt,SMD*%
%TO.CRot,90*%
X145100000Y-122500000D03*
D14*
X145745000Y-121030000D02*
X145745000Y-123970000D01*
X144455000Y-123970000D01*
X144455000Y-121030000D01*
X145745000Y-121030000D01*
D12*
%TO.P,LD2,1,C*%
X145100000Y-123325000D03*
D13*
%TO.P,LD2,2,A*%
X145100000Y-121675000D03*
%TD*%
D10*
%TO.C,R128*%
%TO.CFtp,RESC1005X40N*%
%TO.CVal,R0402_1K_1\u0025_0.0625W_100PPM*%
%TO.CLbN,Resistors SMD*%
%TO.CMnt,SMD*%
%TO.CRot,180*%
X162800000Y-75400000D03*
D14*
X163705000Y-74945000D02*
X163705000Y-75855000D01*
X161895000Y-75855000D01*
X161895000Y-74945000D01*
X163705000Y-74945000D01*
D12*
%TO.P,R128,1,1*%
X163270000Y-75400000D03*
D13*
%TO.P,R128,2,2*%
X162330000Y-75400000D03*
%TD*%
D10*
%TO.C,C75*%
%TO.CFtp,CAPC1005X55N*%
%TO.CVal,CC0402_100NF_50V_10\u0025_X7R*%
%TO.CLbN,Capacitors SMD*%
%TO.CMnt,SMD*%
%TO.CRot,180*%
X126000000Y-123700000D03*
D14*
X126905000Y-123245000D02*
X126905000Y-124155000D01*
X125095000Y-124155000D01*
X125095000Y-123245000D01*
X126905000Y-123245000D01*
D12*
%TO.P,C75,1,1*%
X126450000Y-123700000D03*
D13*
%TO.P,C75,2,2*%
X125550000Y-123700000D03*
%TD*%
D10*
%TO.C,R22*%
%TO.CFtp,RESC1005X40N*%
%TO.CVal,R0402_4K7_1\u0025_0.0625W_100PPM*%
%TO.CLbN,Resistors SMD*%
%TO.CMnt,SMD*%
%TO.CRot,0*%
X174262500Y-59400000D03*
D14*
X175167500Y-58945000D02*
X175167500Y-59855000D01*
X173357500Y-59855000D01*
X173357500Y-58945000D01*
X175167500Y-58945000D01*
D12*
%TO.P,R22,1,1*%
X173792500Y-59400000D03*
D13*
%TO.P,R22,2,2*%
X174732500Y-59400000D03*
%TD*%
D10*
%TO.C,C24*%
%TO.CFtp,CAPC1005X55N*%
%TO.CVal,CC0402_100NF_50V_10\u0025_X7R*%
%TO.CLbN,Capacitors SMD*%
%TO.CMnt,SMD*%
%TO.CRot,-90*%
X151000000Y-58800000D03*
D14*
X151455000Y-57895000D02*
X151455000Y-59705000D01*
X150545000Y-59705000D01*
X150545000Y-57895000D01*
X151455000Y-57895000D01*
D12*
%TO.P,C24,1,1*%
X151000000Y-58350000D03*
D13*
%TO.P,C24,2,2*%
X151000000Y-59250000D03*
%TD*%
D10*
%TO.C,C27*%
%TO.CFtp,CAPC2012X135N*%
%TO.CVal,CC0805_22UF_16V_10\u0025_X5R*%
%TO.CLbN,Capacitors SMD*%
%TO.CMnt,SMD*%
%TO.CRot,90*%
X148600000Y-94200000D03*
D14*
X149545000Y-92505000D02*
X149545000Y-95895000D01*
X147655000Y-95895000D01*
X147655000Y-92505000D01*
X149545000Y-92505000D01*
D12*
%TO.P,C27,1,1*%
X148600000Y-95100000D03*
D13*
%TO.P,C27,2,2*%
X148600000Y-93300000D03*
%TD*%
D10*
%TO.C,L14*%
%TO.CFtp,IND_WURTH_WE-PMCI_0806LR*%
%TO.CVal,IND_2.2UH_20\u0025_WURTH_WE-PMCI_74479276222C*%
%TO.CLbN,Inductors SMD*%
%TO.CMnt,SMD*%
%TO.CRot,0*%
X119500000Y-111000000D03*
D14*
X120945000Y-109855000D02*
X120945000Y-112145000D01*
X118055000Y-112145000D01*
X118055000Y-109855000D01*
X120945000Y-109855000D01*
D12*
%TO.P,L14,1,1*%
X118700000Y-111000000D03*
D13*
%TO.P,L14,2,2*%
X120300000Y-111000000D03*
%TD*%
D10*
%TO.C,R127*%
%TO.CFtp,RESC1005X40N*%
%TO.CVal,R0402_2K32_1\u0025_0.0625W_100PPM*%
%TO.CLbN,Resistors SMD*%
%TO.CMnt,SMD*%
%TO.CRot,0*%
X162800000Y-76400000D03*
D14*
X163705000Y-75945000D02*
X163705000Y-76855000D01*
X161895000Y-76855000D01*
X161895000Y-75945000D01*
X163705000Y-75945000D01*
D12*
%TO.P,R127,1,1*%
X162330000Y-76400000D03*
D13*
%TO.P,R127,2,2*%
X163270000Y-76400000D03*
%TD*%
D10*
%TO.C,R133*%
%TO.CFtp,RESC1005X40N*%
%TO.CVal,R0402_140R_1\u0025_0.0625W_100PPM*%
%TO.CLbN,Resistors SMD*%
%TO.CMnt,SMD*%
%TO.CRot,0*%
X164700000Y-72500000D03*
D14*
X165605000Y-72045000D02*
X165605000Y-72955000D01*
X163795000Y-72955000D01*
X163795000Y-72045000D01*
X165605000Y-72045000D01*
D12*
%TO.P,R133,1,1*%
X164230000Y-72500000D03*
D13*
%TO.P,R133,2,2*%
X165170000Y-72500000D03*
%TD*%
D10*
%TO.C,LD3*%
%TO.CFtp,LED_KINGBRIGHT_KPH-1608CGCK*%
%TO.CVal,LED_KINGBRIGHT_KPH-1608CGCK*%
%TO.CLbN,ICs And Semiconductors SMD*%
%TO.CMnt,SMD*%
%TO.CRot,90*%
X197600000Y-57300000D03*
D14*
X198245000Y-55830000D02*
X198245000Y-58770000D01*
X196955000Y-58770000D01*
X196955000Y-55830000D01*
X198245000Y-55830000D01*
D12*
%TO.P,LD3,1,C*%
X197600000Y-58125000D03*
D13*
%TO.P,LD3,2,A*%
X197600000Y-56475000D03*
%TD*%
D10*
%TO.C,L20*%
%TO.CFtp,INDC1608X65N*%
%TO.CVal,IND0603_MURATA_BLM18SG121TN1D*%
%TO.CLbN,Inductors SMD*%
%TO.CMnt,SMD*%
%TO.CRot,0*%
X163600000Y-126100000D03*
D14*
X165095000Y-125355000D02*
X165095000Y-126845000D01*
X162105000Y-126845000D01*
X162105000Y-125355000D01*
X165095000Y-125355000D01*
D12*
%TO.P,L20,1,1*%
X162850000Y-126100000D03*
D13*
%TO.P,L20,2,2*%
X164350000Y-126100000D03*
%TD*%
D10*
%TO.C,SW1*%
%TO.CFtp,SW_OMRON_A6SN-1101*%
%TO.CVal,SW_DIP_x01*%
%TO.CLbN,Switches*%
%TO.CMnt,SMD*%
%TO.CRot,0*%
X132875000Y-57400000D03*
D14*
X136870000Y-54665000D02*
X136870000Y-56355000D01*
X138320000Y-56355000D01*
X138320000Y-58445000D01*
X136870000Y-58445000D01*
X136870000Y-60135000D01*
X128880000Y-60135000D01*
X128880000Y-58445000D01*
X127430000Y-58445000D01*
X127430000Y-56355000D01*
X128880000Y-56355000D01*
X128880000Y-54665000D01*
X136870000Y-54665000D01*
D12*
%TO.P,SW1,1*%
X128750000Y-57400000D03*
D13*
%TO.P,SW1,2*%
X137000000Y-57400000D03*
%TD*%
D10*
%TO.C,J3*%
%TO.CFtp,BEL_0826-1G1T-43-F*%
%TO.CVal,BELFUSE_0826-1G1T-43-F*%
%TO.CLbN,Miscellaneous THD*%
%TO.CMnt,TH*%
%TO.CRot,90*%
X130400000Y-101200000D03*
D11*
X109565000Y-110415000D02*
X135110000Y-110415000D01*
X135110000Y-91985000D01*
X109565000Y-91985000D01*
X109565000Y-110415000D01*
D12*
%TO.P,J3,1,TRCT3*%
X129130000Y-106280000D03*
D13*
%TO.P,J3,*%
X113890000Y-107550000D03*
X113890000Y-94850000D03*
%TO.P,J3,2,TRD3-*%
X129130000Y-104248000D03*
%TO.P,J3,3,TRD3+*%
X129130000Y-102216000D03*
%TO.P,J3,4,TRD2+*%
X129130000Y-100184000D03*
%TO.P,J3,5,TRD2-*%
X129130000Y-98152000D03*
%TO.P,J3,6,TRCT2*%
X129130000Y-96120000D03*
%TO.P,J3,7,TRCT4*%
X131670000Y-107296000D03*
%TO.P,J3,8,TRD4+*%
X131670000Y-105264000D03*
%TO.P,J3,9,TRD4-*%
X131670000Y-103232000D03*
%TO.P,J3,10,TRD1-*%
X131670000Y-99168000D03*
%TO.P,J3,11,TRD1+*%
X131670000Y-97136000D03*
%TO.P,J3,12,TRCT1*%
X131670000Y-95104000D03*
%TO.P,J3,13,LED1K*%
X134210000Y-107296000D03*
%TO.P,J3,14,LED1A*%
X134210000Y-104756000D03*
%TO.P,J3,15,LED2K*%
X134210000Y-97644000D03*
%TO.P,J3,16,LED2A*%
X134210000Y-95104000D03*
%TO.P,J3,17,SHIELD*%
X110715000Y-109265000D03*
%TO.P,J3,18,SHIELD*%
X110715000Y-93135000D03*
%TD*%
D10*
%TO.C,C170*%
%TO.CFtp,CAPC2012X135N*%
%TO.CVal,CC0805_22UF_16V_10\u0025_X5R*%
%TO.CLbN,Capacitors SMD*%
%TO.CMnt,SMD*%
%TO.CRot,90*%
X127400000Y-128400000D03*
D14*
X128345000Y-126705000D02*
X128345000Y-130095000D01*
X126455000Y-130095000D01*
X126455000Y-126705000D01*
X128345000Y-126705000D01*
D12*
%TO.P,C170,1,1*%
X127400000Y-129300000D03*
D13*
%TO.P,C170,2,2*%
X127400000Y-127500000D03*
%TD*%
D10*
%TO.C,R126*%
%TO.CFtp,RESC1005X40N*%
%TO.CVal,R0402_1K_1\u0025_0.0625W_100PPM*%
%TO.CLbN,Resistors SMD*%
%TO.CMnt,SMD*%
%TO.CRot,180*%
X162800000Y-77900000D03*
D14*
X163705000Y-77445000D02*
X163705000Y-78355000D01*
X161895000Y-78355000D01*
X161895000Y-77445000D01*
X163705000Y-77445000D01*
D12*
%TO.P,R126,1,1*%
X163270000Y-77900000D03*
D13*
%TO.P,R126,2,2*%
X162330000Y-77900000D03*
%TD*%
D10*
%TO.C,U23*%
%TO.CFtp,SON65P300X300X100-9N-R170X245*%
%TO.CVal,NCV59801CML120TCG*%
%TO.CLbN,ICs And Semiconductors SMD*%
%TO.CMnt,SMD*%
%TO.CRot,180*%
X172800000Y-101100000D03*
D14*
X174745000Y-99355000D02*
X174745000Y-102845000D01*
X170855000Y-102845000D01*
X170855000Y-99355000D01*
X174745000Y-99355000D01*
D12*
%TO.P,U23,1,OUT_1*%
X174200000Y-102075000D03*
D13*
%TO.P,U23,2,OUT_2*%
X174200000Y-101425000D03*
%TO.P,U23,3,FB/SNS*%
X174200000Y-100775000D03*
%TO.P,U23,4,GND*%
X174200000Y-100125000D03*
%TO.P,U23,5,EN*%
X171400000Y-100125000D03*
%TO.P,U23,6,PG*%
X171400000Y-100775000D03*
%TO.P,U23,7,IN_1*%
X171400000Y-101425000D03*
%TO.P,U23,8,IN_2*%
X171400000Y-102075000D03*
%TO.P,U23,9,EP*%
X172800000Y-101100000D03*
%TD*%
D10*
%TO.C,C4*%
%TO.CFtp,CAPC1005X55N*%
%TO.CVal,CC0402_27PF_50V_5\u0025_C0G*%
%TO.CLbN,Capacitors SMD*%
%TO.CMnt,SMD*%
%TO.CRot,-90*%
X147130000Y-98825000D03*
D14*
X147585000Y-97920000D02*
X147585000Y-99730000D01*
X146675000Y-99730000D01*
X146675000Y-97920000D01*
X147585000Y-97920000D01*
D12*
%TO.P,C4,1,1*%
X147130000Y-98375000D03*
D13*
%TO.P,C4,2,2*%
X147130000Y-99275000D03*
%TD*%
D10*
%TO.C,D3*%
%TO.CFtp,D_SOD-323*%
%TO.CVal,BAS316*%
%TO.CLbN,Diode_SMD*%
%TO.CMnt,SMD*%
%TO.CRot,0*%
X137550000Y-126200000D03*
D14*
X139145000Y-125255000D02*
X139145000Y-127145000D01*
X135955000Y-127145000D01*
X135955000Y-125255000D01*
X139145000Y-125255000D01*
D12*
%TO.P,D3,1,K*%
X136500000Y-126200000D03*
D13*
%TO.P,D3,2,A*%
X138600000Y-126200000D03*
%TD*%
D10*
%TO.C,R80*%
%TO.CFtp,RESC1005X40N*%
%TO.CVal,R0402_5K1_1\u0025_0.0625W_100PPM*%
%TO.CLbN,Resistors SMD*%
%TO.CMnt,SMD*%
%TO.CRot,0*%
X113230000Y-119400000D03*
D14*
X114135000Y-118945000D02*
X114135000Y-119855000D01*
X112325000Y-119855000D01*
X112325000Y-118945000D01*
X114135000Y-118945000D01*
D12*
%TO.P,R80,1,1*%
X112760000Y-119400000D03*
D13*
%TO.P,R80,2,2*%
X113700000Y-119400000D03*
%TD*%
D10*
%TO.C,R138*%
%TO.CFtp,RESC1005X40N*%
%TO.CVal,R0402_845R_0.1\u0025_0.063W_25PPM*%
%TO.CLbN,Resistors SMD*%
%TO.CMnt,SMD*%
%TO.CRot,0*%
X164700000Y-70600000D03*
D14*
X165605000Y-70145000D02*
X165605000Y-71055000D01*
X163795000Y-71055000D01*
X163795000Y-70145000D01*
X165605000Y-70145000D01*
D12*
%TO.P,R138,1,1*%
X164230000Y-70600000D03*
D13*
%TO.P,R138,2,2*%
X165170000Y-70600000D03*
%TD*%
D10*
%TO.C,R37*%
%TO.CFtp,RESC1005X40N*%
%TO.CVal,R0402_4K7_1\u0025_0.0625W_100PPM*%
%TO.CLbN,Resistors SMD*%
%TO.CMnt,SMD*%
%TO.CRot,-90*%
X166462500Y-64400000D03*
D14*
X166917500Y-63495000D02*
X166917500Y-65305000D01*
X166007500Y-65305000D01*
X166007500Y-63495000D01*
X166917500Y-63495000D01*
D12*
%TO.P,R37,1,1*%
X166462500Y-63930000D03*
D13*
%TO.P,R37,2,2*%
X166462500Y-64870000D03*
%TD*%
D10*
%TO.C,U1*%
%TO.CFtp,Xilinx_CSG325*%
%TO.CVal,XC7A35T-CSG325*%
%TO.CLbN,Package_BGA*%
%TO.CMnt,SMD*%
%TO.CRot,90*%
X186500000Y-94700000D03*
D14*
X194995000Y-86205000D02*
X194995000Y-103195000D01*
X178005000Y-103195000D01*
X178005000Y-86205000D01*
X194995000Y-86205000D01*
D12*
%TO.P,U1,A1,GND*%
X179700000Y-101500000D03*
D13*
%TO.P,U1,A2,MGTAVTT*%
X179700000Y-100700000D03*
%TO.P,U1,A3,MGTPRXN1_216*%
X179700000Y-99900000D03*
%TO.P,U1,A4,MGTPRXP1_216*%
X179700000Y-99100000D03*
%TO.P,U1,A5,GND*%
X179700000Y-98300000D03*
%TO.P,U1,A6,MGTRREF_216*%
X179700000Y-97500000D03*
%TO.P,U1,A7,GND*%
X179700000Y-96700000D03*
%TO.P,U1,A8,GND*%
X179700000Y-95900000D03*
%TO.P,U1,A9,IO_L3N_T0_DQS_AD1N_15*%
X179700000Y-95100000D03*
%TO.P,U1,A10,IO_L5N_T0_AD9N_15*%
X179700000Y-94300000D03*
%TO.P,U1,A11,GND*%
X179700000Y-93500000D03*
%TO.P,U1,A12,IO_L7N_T1_AD2N_15*%
X179700000Y-92700000D03*
%TO.P,U1,A13,IO_L8P_T1_AD10P_15*%
X179700000Y-91900000D03*
%TO.P,U1,A14,IO_L8N_T1_AD10N_15*%
X179700000Y-91100000D03*
%TO.P,U1,A15,IO_L10N_T1_AD11N_15*%
X179700000Y-90300000D03*
%TO.P,U1,A16,VCCO_15*%
X179700000Y-89500000D03*
%TO.P,U1,A17,IO_L15N_T2_DQS_ADV_B_15*%
X179700000Y-88700000D03*
%TO.P,U1,A18,GND*%
X179700000Y-87900000D03*
%TO.P,U1,B1,MGTPTXN3_216*%
X180500000Y-101500000D03*
%TO.P,U1,B2,MGTPTXP3_216*%
X180500000Y-100700000D03*
%TO.P,U1,B3,GND*%
X180500000Y-99900000D03*
%TO.P,U1,B4,MGTAVCC*%
X180500000Y-99100000D03*
%TO.P,U1,B5,MGTREFCLK1N_216*%
X180500000Y-98300000D03*
%TO.P,U1,B6,MGTREFCLK1P_216*%
X180500000Y-97500000D03*
%TO.P,U1,B7,GND*%
X180500000Y-96700000D03*
%TO.P,U1,B8,GND*%
X180500000Y-95900000D03*
%TO.P,U1,B9,IO_L3P_T0_DQS_AD1P_15*%
X180500000Y-95100000D03*
%TO.P,U1,B10,IO_L5P_T0_AD9P_15*%
X180500000Y-94300000D03*
%TO.P,U1,B11,IO_L4N_T0_15*%
X180500000Y-93500000D03*
%TO.P,U1,B12,IO_L7P_T1_AD2P_15*%
X180500000Y-92700000D03*
%TO.P,U1,B13,VCCO_15*%
X180500000Y-91900000D03*
%TO.P,U1,B14,IO_L10P_T1_AD11P_15*%
X180500000Y-91100000D03*
%TO.P,U1,B15,IO_L9N_T1_DQS_AD3N_15*%
X180500000Y-90300000D03*
%TO.P,U1,B16,IO_L15P_T2_DQS_15*%
X180500000Y-89500000D03*
%TO.P,U1,B17,IO_L16N_T2_A27_15*%
X180500000Y-88700000D03*
%TO.P,U1,B18,GND*%
X180500000Y-87900000D03*
%TO.P,U1,C1,MGTAVTT*%
X181300000Y-101500000D03*
%TO.P,U1,C2,GND*%
X181300000Y-100700000D03*
%TO.P,U1,C3,MGTPRXN2_216*%
X181300000Y-99900000D03*
%TO.P,U1,C4,MGTPRXP2_216*%
X181300000Y-99100000D03*
%TO.P,U1,C5,MGTAVCC*%
X181300000Y-98300000D03*
%TO.P,U1,C6,GND*%
X181300000Y-97500000D03*
%TO.P,U1,C7,GND*%
X181300000Y-96700000D03*
%TO.P,U1,C8,IO_L1N_T0_AD0N_15*%
X181300000Y-95900000D03*
%TO.P,U1,C9,IO_L2N_T0_AD8N_15*%
X181300000Y-95100000D03*
%TO.P,U1,C10,VCCO_15*%
X181300000Y-94300000D03*
%TO.P,U1,C11,IO_L4P_T0_15*%
X181300000Y-93500000D03*
%TO.P,U1,C12,IO_L6N_T0_VREF_15*%
X181300000Y-92700000D03*
%TO.P,U1,C13,IO_L11N_T1_SRCC_15*%
X181300000Y-91900000D03*
%TO.P,U1,C14,IO_L9P_T1_DQS_AD3P_15*%
X181300000Y-91100000D03*
%TO.P,U1,C15,GND*%
X181300000Y-90300000D03*
%TO.P,U1,C16,IO_L16P_T2_A28_15*%
X181300000Y-89500000D03*
%TO.P,U1,C17,IO_L18P_T2_A24_15*%
X181300000Y-88700000D03*
%TO.P,U1,C18,IO_L18N_T2_A23_15*%
X181300000Y-87900000D03*
%TO.P,U1,D1,MGTPTXN2_216*%
X182100000Y-101500000D03*
%TO.P,U1,D2,MGTPTXP2_216*%
X182100000Y-100700000D03*
%TO.P,U1,D3,GND*%
X182100000Y-99900000D03*
%TO.P,U1,D4,GND*%
X182100000Y-99100000D03*
%TO.P,U1,D5,MGTREFCLK0N_216*%
X182100000Y-98300000D03*
%TO.P,U1,D6,MGTREFCLK0P_216*%
X182100000Y-97500000D03*
%TO.P,U1,D7,GND*%
X182100000Y-96700000D03*
%TO.P,U1,D8,IO_L1P_T0_AD0P_15*%
X182100000Y-95900000D03*
%TO.P,U1,D9,IO_L2P_T0_AD8P_15*%
X182100000Y-95100000D03*
%TO.P,U1,D10,IO_0_15*%
X182100000Y-94300000D03*
%TO.P,U1,D11,IO_L6P_T0_15*%
X182100000Y-93500000D03*
%TO.P,U1,D12,GND*%
X182100000Y-92700000D03*
%TO.P,U1,D13,IO_L11P_T1_SRCC_15*%
X182100000Y-91900000D03*
%TO.P,U1,D14,IO_L12N_T1_MRCC_15*%
X182100000Y-91100000D03*
%TO.P,U1,D15,IO_L13N_T2_MRCC_15*%
X182100000Y-90300000D03*
%TO.P,U1,D16,IO_L14N_T2_SRCC_15*%
X182100000Y-89500000D03*
%TO.P,U1,D17,VCCO_15*%
X182100000Y-88700000D03*
%TO.P,U1,D18,IO_L17N_T2_A25_15*%
X182100000Y-87900000D03*
%TO.P,U1,E1,MGTAVTT*%
X182900000Y-101500000D03*
%TO.P,U1,E2,GND*%
X182900000Y-100700000D03*
%TO.P,U1,E3,MGTPRXN0_216*%
X182900000Y-99900000D03*
%TO.P,U1,E4,MGTPRXP0_216*%
X182900000Y-99100000D03*
%TO.P,U1,E5,MGTAVCC*%
X182900000Y-98300000D03*
%TO.P,U1,E6,GND*%
X182900000Y-97500000D03*
%TO.P,U1,E7,GND*%
X182900000Y-96700000D03*
%TO.P,U1,E8,CCLK_0*%
X182900000Y-95900000D03*
%TO.P,U1,E9,GND*%
X182900000Y-95100000D03*
%TO.P,U1,E10,VCCO_0*%
X182900000Y-94300000D03*
%TO.P,U1,E11,VCCBATT_0*%
X182900000Y-93500000D03*
%TO.P,U1,E12,CFGBVS_0*%
X182900000Y-92700000D03*
%TO.P,U1,E13,IO_L12P_T1_MRCC_15*%
X182900000Y-91900000D03*
%TO.P,U1,E14,VCCO_15*%
X182900000Y-91100000D03*
%TO.P,U1,E15,IO_L13P_T2_MRCC_15*%
X182900000Y-90300000D03*
%TO.P,U1,E16,IO_L14P_T2_SRCC_15*%
X182900000Y-89500000D03*
%TO.P,U1,E17,IO_L17P_T2_A26_15*%
X182900000Y-88700000D03*
%TO.P,U1,E18,IO_L24N_T3_RS0_15*%
X182900000Y-87900000D03*
%TO.P,U1,F1,MGTPTXN1_216*%
X183700000Y-101500000D03*
%TO.P,U1,F2,MGTPTXP1_216*%
X183700000Y-100700000D03*
%TO.P,U1,F3,MGTAVTT*%
X183700000Y-99900000D03*
%TO.P,U1,F4,GND*%
X183700000Y-99100000D03*
%TO.P,U1,F5,MGTAVCC*%
X183700000Y-98300000D03*
%TO.P,U1,F6,GND*%
X183700000Y-97500000D03*
%TO.P,U1,F7,VCCINT*%
X183700000Y-96700000D03*
%TO.P,U1,F8,TCK_0*%
X183700000Y-95900000D03*
%TO.P,U1,F9,VCCINT*%
X183700000Y-95100000D03*
%TO.P,U1,F10,GND*%
X183700000Y-94300000D03*
%TO.P,U1,F11,VCCBRAM*%
X183700000Y-93500000D03*
%TO.P,U1,F12,DONE_0*%
X183700000Y-92700000D03*
%TO.P,U1,F13,M2_0*%
X183700000Y-91900000D03*
%TO.P,U1,F14,IO_L22N_T3_A16_15*%
X183700000Y-91100000D03*
%TO.P,U1,F15,IO_L21N_T3_DQS_A18_15*%
X183700000Y-90300000D03*
%TO.P,U1,F16,GND*%
X183700000Y-89500000D03*
%TO.P,U1,F17,IO_L24P_T3_RS1_15*%
X183700000Y-88700000D03*
%TO.P,U1,F18,IO_L19N_T3_A21_VREF_15*%
X183700000Y-87900000D03*
%TO.P,U1,G1,GND*%
X184500000Y-101500000D03*
%TO.P,U1,G2,MGTAVTT*%
X184500000Y-100700000D03*
%TO.P,U1,G3,MGTPRXN3_216*%
X184500000Y-99900000D03*
%TO.P,U1,G4,MGTPRXP3_216*%
X184500000Y-99100000D03*
%TO.P,U1,G5,GND*%
X184500000Y-98300000D03*
%TO.P,U1,G6,GND*%
X184500000Y-97500000D03*
%TO.P,U1,G7,GND*%
X184500000Y-96700000D03*
%TO.P,U1,G8,VCCINT*%
X184500000Y-95900000D03*
%TO.P,U1,G9,GND*%
X184500000Y-95100000D03*
%TO.P,U1,G10,VCCBRAM*%
X184500000Y-94300000D03*
%TO.P,U1,G11,GND*%
X184500000Y-93500000D03*
%TO.P,U1,G12,VCCAUX*%
X184500000Y-92700000D03*
%TO.P,U1,G13,GND*%
X184500000Y-91900000D03*
%TO.P,U1,G14,IO_L22P_T3_A17_15*%
X184500000Y-91100000D03*
%TO.P,U1,G15,IO_L21P_T3_DQS_15*%
X184500000Y-90300000D03*
%TO.P,U1,G16,IO_L20N_T3_A19_15*%
X184500000Y-89500000D03*
%TO.P,U1,G17,IO_L19P_T3_A22_15*%
X184500000Y-88700000D03*
%TO.P,U1,G18,VCCO_15*%
X184500000Y-87900000D03*
%TO.P,U1,H1,MGTPTXN0_216*%
X185300000Y-101500000D03*
%TO.P,U1,H2,MGTPTXP0_216*%
X185300000Y-100700000D03*
%TO.P,U1,H3,GND*%
X185300000Y-99900000D03*
%TO.P,U1,H4,GND*%
X185300000Y-99100000D03*
%TO.P,U1,H5,GND*%
X185300000Y-98300000D03*
%TO.P,U1,H6,GND*%
X185300000Y-97500000D03*
%TO.P,U1,H7,VCCINT*%
X185300000Y-96700000D03*
%TO.P,U1,H8,GND*%
X185300000Y-95900000D03*
%TO.P,U1,H9,VCCINT*%
X185300000Y-95100000D03*
%TO.P,U1,H10,GND*%
X185300000Y-94300000D03*
%TO.P,U1,H11,VCCBRAM*%
X185300000Y-93500000D03*
%TO.P,U1,H12,GND*%
X185300000Y-92700000D03*
%TO.P,U1,H13,VCCAUX*%
X185300000Y-91900000D03*
%TO.P,U1,H14,IO_25_15*%
X185300000Y-91100000D03*
%TO.P,U1,H15,VCCO_15*%
X185300000Y-90300000D03*
%TO.P,U1,H16,IO_L20P_T3_A20_15*%
X185300000Y-89500000D03*
%TO.P,U1,H17,IO_L23P_T3_FOE_B_15*%
X185300000Y-88700000D03*
%TO.P,U1,H18,IO_L23N_T3_FWE_B_15*%
X185300000Y-87900000D03*
%TO.P,U1,J1,GND*%
X186100000Y-101500000D03*
%TO.P,U1,J2,GND*%
X186100000Y-100700000D03*
%TO.P,U1,J3,GND*%
X186100000Y-99900000D03*
%TO.P,U1,J4,IO_L2N_T0_34*%
X186100000Y-99100000D03*
%TO.P,U1,J5,IO_L2P_T0_34*%
X186100000Y-98300000D03*
%TO.P,U1,J6,IO_0_34*%
X186100000Y-97500000D03*
%TO.P,U1,J7,GND*%
X186100000Y-96700000D03*
%TO.P,U1,J8,VCCINT*%
X186100000Y-95900000D03*
%TO.P,U1,J9,GNDADC_0*%
X186100000Y-95100000D03*
%TO.P,U1,J10,VCCADC_0*%
X186100000Y-94300000D03*
%TO.P,U1,J11,GND*%
X186100000Y-93500000D03*
%TO.P,U1,J12,VCCINT*%
X186100000Y-92700000D03*
%TO.P,U1,J13,GND*%
X186100000Y-91900000D03*
%TO.P,U1,J14,IO_L5P_T0_D06_14*%
X186100000Y-91100000D03*
%TO.P,U1,J15,IO_L2P_T0_D02_14*%
X186100000Y-90300000D03*
%TO.P,U1,J16,IO_L2N_T0_D03_14*%
X186100000Y-89500000D03*
%TO.P,U1,J17,GND*%
X186100000Y-88700000D03*
%TO.P,U1,J18,IO_L3P_T0_DQS_PUDC_B_14*%
X186100000Y-87900000D03*
%TO.P,U1,K1,IO_L3N_T0_DQS_34*%
X186900000Y-101500000D03*
%TO.P,U1,K2,IO_L3P_T0_DQS_34*%
X186900000Y-100700000D03*
%TO.P,U1,K3,IO_L4P_T0_34*%
X186900000Y-99900000D03*
%TO.P,U1,K4,GND*%
X186900000Y-99100000D03*
%TO.P,U1,K5,IO_L1N_T0_34*%
X186900000Y-98300000D03*
%TO.P,U1,K6,IO_L1P_T0_34*%
X186900000Y-97500000D03*
%TO.P,U1,K7,VCCINT*%
X186900000Y-96700000D03*
%TO.P,U1,K8,GND*%
X186900000Y-95900000D03*
%TO.P,U1,K9,VREFN_0*%
X186900000Y-95100000D03*
%TO.P,U1,K10,VP_0*%
X186900000Y-94300000D03*
%TO.P,U1,K11,VCCINT*%
X186900000Y-93500000D03*
%TO.P,U1,K12,GND*%
X186900000Y-92700000D03*
%TO.P,U1,K13,VCCAUX*%
X186900000Y-91900000D03*
%TO.P,U1,K14,GND*%
X186900000Y-91100000D03*
%TO.P,U1,K15,IO_L5N_T0_D07_14*%
X186900000Y-90300000D03*
%TO.P,U1,K16,IO_L1P_T0_D00_MOSI_14*%
X186900000Y-89500000D03*
%TO.P,U1,K17,IO_L4P_T0_D04_14*%
X186900000Y-88700000D03*
%TO.P,U1,K18,IO_L3N_T0_DQS_EMCCLK_14*%
X186900000Y-87900000D03*
%TO.P,U1,L1,GND*%
X187700000Y-101500000D03*
%TO.P,U1,L2,IO_L4N_T0_34*%
X187700000Y-100700000D03*
%TO.P,U1,L3,IO_L5N_T0_34*%
X187700000Y-99900000D03*
%TO.P,U1,L4,IO_L5P_T0_34*%
X187700000Y-99100000D03*
%TO.P,U1,L5,IO_L6P_T0_34*%
X187700000Y-98300000D03*
%TO.P,U1,L6,VCCO_34*%
X187700000Y-97500000D03*
%TO.P,U1,L7,GND*%
X187700000Y-96700000D03*
%TO.P,U1,L8,VCCINT*%
X187700000Y-95900000D03*
%TO.P,U1,L9,VN_0*%
X187700000Y-95100000D03*
%TO.P,U1,L10,VREFP_0*%
X187700000Y-94300000D03*
%TO.P,U1,L11,GND*%
X187700000Y-93500000D03*
%TO.P,U1,L12,VCCINT*%
X187700000Y-92700000D03*
%TO.P,U1,L13,GND*%
X187700000Y-91900000D03*
%TO.P,U1,L14,IO_0_14*%
X187700000Y-91100000D03*
%TO.P,U1,L15,IO_L6P_T0_FCS_B_14*%
X187700000Y-90300000D03*
%TO.P,U1,L16,VCCO_14*%
X187700000Y-89500000D03*
%TO.P,U1,L17,IO_L1N_T0_D01_DIN_14*%
X187700000Y-88700000D03*
%TO.P,U1,L18,IO_L4N_T0_D05_14*%
X187700000Y-87900000D03*
%TO.P,U1,M1,IO_L7N_T1_34*%
X188500000Y-101500000D03*
%TO.P,U1,M2,IO_L7P_T1_34*%
X188500000Y-100700000D03*
%TO.P,U1,M3,VCCO_34*%
X188500000Y-99900000D03*
%TO.P,U1,M4,IO_L10P_T1_34*%
X188500000Y-99100000D03*
%TO.P,U1,M5,IO_L6N_T0_VREF_34*%
X188500000Y-98300000D03*
%TO.P,U1,M6,IO_L8P_T1_34*%
X188500000Y-97500000D03*
%TO.P,U1,M7,VCCINT*%
X188500000Y-96700000D03*
%TO.P,U1,M8,GND*%
X188500000Y-95900000D03*
%TO.P,U1,M9,DXN_0*%
X188500000Y-95100000D03*
%TO.P,U1,M10,DXP_0*%
X188500000Y-94300000D03*
%TO.P,U1,M11,VCCINT*%
X188500000Y-93500000D03*
%TO.P,U1,M12,GND*%
X188500000Y-92700000D03*
%TO.P,U1,M13,VCCAUX*%
X188500000Y-91900000D03*
%TO.P,U1,M14,IO_L8P_T1_D11_14*%
X188500000Y-91100000D03*
%TO.P,U1,M15,IO_L6N_T0_D08_VREF_14*%
X188500000Y-90300000D03*
%TO.P,U1,M16,IO_L7P_T1_D09_14*%
X188500000Y-89500000D03*
%TO.P,U1,M17,IO_L7N_T1_D10_14*%
X188500000Y-88700000D03*
%TO.P,U1,M18,GND*%
X188500000Y-87900000D03*
%TO.P,U1,N1,IO_L9P_T1_DQS_34*%
X189300000Y-101500000D03*
%TO.P,U1,N2,IO_L11N_T1_SRCC_34*%
X189300000Y-100700000D03*
%TO.P,U1,N3,IO_L11P_T1_SRCC_34*%
X189300000Y-99900000D03*
%TO.P,U1,N4,IO_L10N_T1_34*%
X189300000Y-99100000D03*
%TO.P,U1,N5,GND*%
X189300000Y-98300000D03*
%TO.P,U1,N6,IO_L8N_T1_34*%
X189300000Y-97500000D03*
%TO.P,U1,N7,GND*%
X189300000Y-96700000D03*
%TO.P,U1,N8,VCCINT*%
X189300000Y-95900000D03*
%TO.P,U1,N9,GND*%
X189300000Y-95100000D03*
%TO.P,U1,N10,VCCINT*%
X189300000Y-94300000D03*
%TO.P,U1,N11,GND*%
X189300000Y-93500000D03*
%TO.P,U1,N12,VCCINT*%
X189300000Y-92700000D03*
%TO.P,U1,N13,GND*%
X189300000Y-91900000D03*
%TO.P,U1,N14,IO_L8N_T1_D12_14*%
X189300000Y-91100000D03*
%TO.P,U1,N15,GND*%
X189300000Y-90300000D03*
%TO.P,U1,N16,IO_L9P_T1_DQS_14*%
X189300000Y-89500000D03*
%TO.P,U1,N17,IO_L9N_T1_DQS_D13_14*%
X189300000Y-88700000D03*
%TO.P,U1,N18,IO_L10P_T1_D14_14*%
X189300000Y-87900000D03*
%TO.P,U1,P1,IO_L9N_T1_DQS_34*%
X190100000Y-101500000D03*
%TO.P,U1,P2,GND*%
X190100000Y-100700000D03*
%TO.P,U1,P3,IO_L12N_T1_MRCC_34*%
X190100000Y-99900000D03*
%TO.P,U1,P4,IO_L12P_T1_MRCC_34*%
X190100000Y-99100000D03*
%TO.P,U1,P5,IO_L19N_T3_VREF_34*%
X190100000Y-98300000D03*
%TO.P,U1,P6,IO_L19P_T3_34*%
X190100000Y-97500000D03*
%TO.P,U1,P7,VCCO_34*%
X190100000Y-96700000D03*
%TO.P,U1,P8,GND*%
X190100000Y-95900000D03*
%TO.P,U1,P9,VCCINT*%
X190100000Y-95100000D03*
%TO.P,U1,P10,PROGRAM_B_0*%
X190100000Y-94300000D03*
%TO.P,U1,P11,VCCINT*%
X190100000Y-93500000D03*
%TO.P,U1,P12,GND*%
X190100000Y-92700000D03*
%TO.P,U1,P13,VCCAUX*%
X190100000Y-91900000D03*
%TO.P,U1,P14,IO_L12P_T1_MRCC_14*%
X190100000Y-91100000D03*
%TO.P,U1,P15,IO_L11P_T1_SRCC_14*%
X190100000Y-90300000D03*
%TO.P,U1,P16,IO_L11N_T1_SRCC_14*%
X190100000Y-89500000D03*
%TO.P,U1,P17,VCCO_14*%
X190100000Y-88700000D03*
%TO.P,U1,P18,IO_L10N_T1_D15_14*%
X190100000Y-87900000D03*
%TO.P,U1,R1,IO_L13N_T2_MRCC_34*%
X190900000Y-101500000D03*
%TO.P,U1,R2,IO_L13P_T2_MRCC_34*%
X190900000Y-100700000D03*
%TO.P,U1,R3,IO_L14P_T2_SRCC_34*%
X190900000Y-99900000D03*
%TO.P,U1,R4,VCCO_34*%
X190900000Y-99100000D03*
%TO.P,U1,R5,IO_L21P_T3_DQS_34*%
X190900000Y-98300000D03*
%TO.P,U1,R6,IO_25_34*%
X190900000Y-97500000D03*
%TO.P,U1,R7,IO_L22P_T3_34*%
X190900000Y-96700000D03*
%TO.P,U1,R8,TMS_0*%
X190900000Y-95900000D03*
%TO.P,U1,R9,GND*%
X190900000Y-95100000D03*
%TO.P,U1,R10,VCCO_0*%
X190900000Y-94300000D03*
%TO.P,U1,R11,M1_0*%
X190900000Y-93500000D03*
%TO.P,U1,R12,M0_0*%
X190900000Y-92700000D03*
%TO.P,U1,R13,IO_L19P_T3_A10_D26_14*%
X190900000Y-91900000D03*
%TO.P,U1,R14,VCCO_14*%
X190900000Y-91100000D03*
%TO.P,U1,R15,IO_L12N_T1_MRCC_14*%
X190900000Y-90300000D03*
%TO.P,U1,R16,IO_L14P_T2_SRCC_14*%
X190900000Y-89500000D03*
%TO.P,U1,R17,IO_L14N_T2_SRCC_14*%
X190900000Y-88700000D03*
%TO.P,U1,R18,IO_L15P_T2_DQS_RDWR_B_14*%
X190900000Y-87900000D03*
%TO.P,U1,T1,VCCO_34*%
X191700000Y-101500000D03*
%TO.P,U1,T2,IO_L14N_T2_SRCC_34*%
X191700000Y-100700000D03*
%TO.P,U1,T3,IO_L17N_T2_34*%
X191700000Y-99900000D03*
%TO.P,U1,T4,IO_L17P_T2_34*%
X191700000Y-99100000D03*
%TO.P,U1,T5,IO_L21N_T3_DQS_34*%
X191700000Y-98300000D03*
%TO.P,U1,T6,GND*%
X191700000Y-97500000D03*
%TO.P,U1,T7,IO_L22N_T3_34*%
X191700000Y-96700000D03*
%TO.P,U1,T8,TDO_0*%
X191700000Y-95900000D03*
%TO.P,U1,T9,TDI_0*%
X191700000Y-95100000D03*
%TO.P,U1,T10,INIT_B_0*%
X191700000Y-94300000D03*
%TO.P,U1,T11,VCCO_14*%
X191700000Y-93500000D03*
%TO.P,U1,T12,IO_L22P_T3_A05_D21_14*%
X191700000Y-92700000D03*
%TO.P,U1,T13,IO_L19N_T3_A09_D25_VREF_14*%
X191700000Y-91900000D03*
%TO.P,U1,T14,IO_L13P_T2_MRCC_14*%
X191700000Y-91100000D03*
%TO.P,U1,T15,IO_L13N_T2_MRCC_14*%
X191700000Y-90300000D03*
%TO.P,U1,T16,GND*%
X191700000Y-89500000D03*
%TO.P,U1,T17,IO_L16P_T2_CSI_B_14*%
X191700000Y-88700000D03*
%TO.P,U1,T18,IO_L15N_T2_DQS_DOUT_CSO_B_14*%
X191700000Y-87900000D03*
%TO.P,U1,U1,IO_L15N_T2_DQS_34*%
X192500000Y-101500000D03*
%TO.P,U1,U2,IO_L15P_T2_DQS_34*%
X192500000Y-100700000D03*
%TO.P,U1,U3,GND*%
X192500000Y-99900000D03*
%TO.P,U1,U4,IO_L18P_T2_34*%
X192500000Y-99100000D03*
%TO.P,U1,U5,IO_L20N_T3_34*%
X192500000Y-98300000D03*
%TO.P,U1,U6,IO_L20P_T3_34*%
X192500000Y-97500000D03*
%TO.P,U1,U7,IO_L23P_T3_34*%
X192500000Y-96700000D03*
%TO.P,U1,U8,VCCO_14*%
X192500000Y-95900000D03*
%TO.P,U1,U9,IO_L24P_T3_A01_D17_14*%
X192500000Y-95100000D03*
%TO.P,U1,U10,IO_25_14*%
X192500000Y-94300000D03*
%TO.P,U1,U11,IO_L23P_T3_A03_D19_14*%
X192500000Y-93500000D03*
%TO.P,U1,U12,IO_L22N_T3_A04_D20_14*%
X192500000Y-92700000D03*
%TO.P,U1,U13,GND*%
X192500000Y-91900000D03*
%TO.P,U1,U14,IO_L20P_T3_A08_D24_14*%
X192500000Y-91100000D03*
%TO.P,U1,U15,IO_L17P_T2_A14_D30_14*%
X192500000Y-90300000D03*
%TO.P,U1,U16,IO_L17N_T2_A13_D29_14*%
X192500000Y-89500000D03*
%TO.P,U1,U17,IO_L16N_T2_A15_D31_14*%
X192500000Y-88700000D03*
%TO.P,U1,U18,VCCO_14*%
X192500000Y-87900000D03*
%TO.P,U1,V1,GND*%
X193300000Y-101500000D03*
%TO.P,U1,V2,IO_L16N_T2_34*%
X193300000Y-100700000D03*
%TO.P,U1,V3,IO_L16P_T2_34*%
X193300000Y-99900000D03*
%TO.P,U1,V4,IO_L18N_T2_34*%
X193300000Y-99100000D03*
%TO.P,U1,V5,VCCO_34*%
X193300000Y-98300000D03*
%TO.P,U1,V6,IO_L23N_T3_34*%
X193300000Y-97500000D03*
%TO.P,U1,V7,IO_L24N_T3_34*%
X193300000Y-96700000D03*
%TO.P,U1,V8,IO_L24P_T3_34*%
X193300000Y-95900000D03*
%TO.P,U1,V9,IO_L24N_T3_A00_D16_14*%
X193300000Y-95100000D03*
%TO.P,U1,V10,GND*%
X193300000Y-94300000D03*
%TO.P,U1,V11,IO_L23N_T3_A02_D18_14*%
X193300000Y-93500000D03*
%TO.P,U1,V12,IO_L21P_T3_DQS_14*%
X193300000Y-92700000D03*
%TO.P,U1,V13,IO_L21N_T3_DQS_A06_D22_14*%
X193300000Y-91900000D03*
%TO.P,U1,V14,IO_L20N_T3_A07_D23_14*%
X193300000Y-91100000D03*
%TO.P,U1,V15,VCCO_14*%
X193300000Y-90300000D03*
%TO.P,U1,V16,IO_L18P_T2_A12_D28_14*%
X193300000Y-89500000D03*
%TO.P,U1,V17,IO_L18N_T2_A11_D27_14*%
X193300000Y-88700000D03*
%TO.P,U1,V18,GND*%
X193300000Y-87900000D03*
%TD*%
D10*
%TO.C,A1*%
%TO.CFtp,Arduino_UNO_R3*%
%TO.CVal,Arduino_UNO_R3*%
%TO.CLbN,Module*%
%TO.CMnt,TH*%
%TO.CRot,90*%
X158870000Y-103175000D03*
D11*
X158070000Y-113115000D02*
X207930000Y-113115000D01*
X207930000Y-66815000D01*
X158070000Y-66815000D01*
X158070000Y-113115000D01*
D12*
%TO.P,A1,1,NC*%
X158870000Y-103175000D03*
D13*
%TO.P,A1,2,IOREF*%
X158870000Y-100635000D03*
%TO.P,A1,3,~{RESET}*%
X158870000Y-98095000D03*
%TO.P,A1,4,3V3*%
X158870000Y-95555000D03*
%TO.P,A1,5,+5V*%
X158870000Y-93015000D03*
%TO.P,A1,6,GND*%
X158870000Y-90475000D03*
%TO.P,A1,7,GND*%
X158870000Y-87935000D03*
%TO.P,A1,8,VIN*%
X158870000Y-85395000D03*
%TO.P,A1,9,A0*%
X158870000Y-80315000D03*
%TO.P,A1,10,A1*%
X158870000Y-77775000D03*
%TO.P,A1,11,A2*%
X158870000Y-75235000D03*
%TO.P,A1,12,A3*%
X158870000Y-72695000D03*
%TO.P,A1,13,SDA/A4*%
X158870000Y-70155000D03*
%TO.P,A1,14,SCL/A5*%
X158870000Y-67615000D03*
%TO.P,A1,15,D0/RX*%
X207130000Y-67615000D03*
%TO.P,A1,16,D1/TX*%
X207130000Y-70155000D03*
%TO.P,A1,17,D2*%
X207130000Y-72695000D03*
%TO.P,A1,18,D3*%
X207130000Y-75235000D03*
%TO.P,A1,19,D4*%
X207130000Y-77775000D03*
%TO.P,A1,20,D5*%
X207130000Y-80315000D03*
%TO.P,A1,21,D6*%
X207130000Y-82855000D03*
%TO.P,A1,22,D7*%
X207130000Y-85395000D03*
%TO.P,A1,23,D8*%
X207130000Y-89455000D03*
%TO.P,A1,24,D9*%
X207130000Y-91995000D03*
%TO.P,A1,25,D10*%
X207130000Y-94535000D03*
%TO.P,A1,26,D11*%
X207130000Y-97075000D03*
%TO.P,A1,27,D12*%
X207130000Y-99615000D03*
%TO.P,A1,28,D13*%
X207130000Y-102155000D03*
%TO.P,A1,29,GND*%
X207130000Y-104695000D03*
%TO.P,A1,30,AREF*%
X207130000Y-107235000D03*
%TO.P,A1,31,SDA/A4*%
X207130000Y-109775000D03*
%TO.P,A1,32,SCL/A5*%
X207130000Y-112315000D03*
%TD*%
D10*
%TO.C,C183*%
%TO.CFtp,CAPC0603X33N*%
%TO.CVal,CC0201_100NF_6.3V_10\u0025_X5R*%
%TO.CLbN,Capacitors SMD*%
%TO.CMnt,SMD*%
%TO.CRot,-90*%
X156600000Y-113315000D03*
D14*
X156845000Y-112670000D02*
X156845000Y-113960000D01*
X156355000Y-113960000D01*
X156355000Y-112670000D01*
X156845000Y-112670000D01*
D12*
%TO.P,C183,1,1*%
X156600000Y-112965000D03*
D13*
%TO.P,C183,2,2*%
X156600000Y-113665000D03*
%TD*%
D10*
%TO.C,C214*%
%TO.CFtp,CAPC1005X55N*%
%TO.CVal,CC0402_100NF_50V_10\u0025_X7R*%
%TO.CLbN,Capacitors SMD*%
%TO.CMnt,SMD*%
%TO.CRot,90*%
X170000000Y-86600000D03*
D14*
X170455000Y-85695000D02*
X170455000Y-87505000D01*
X169545000Y-87505000D01*
X169545000Y-85695000D01*
X170455000Y-85695000D01*
D12*
%TO.P,C214,1,1*%
X170000000Y-87050000D03*
D13*
%TO.P,C214,2,2*%
X170000000Y-86150000D03*
%TD*%
D10*
%TO.C,R5*%
%TO.CFtp,RESC1005X40N*%
%TO.CVal,R0402_22R_1\u0025_0.0625W_100PPM*%
%TO.CLbN,Resistors SMD*%
%TO.CMnt,SMD*%
%TO.CRot,180*%
X152800000Y-109000000D03*
D14*
X153705000Y-108545000D02*
X153705000Y-109455000D01*
X151895000Y-109455000D01*
X151895000Y-108545000D01*
X153705000Y-108545000D01*
D12*
%TO.P,R5,1,1*%
X153270000Y-109000000D03*
D13*
%TO.P,R5,2,2*%
X152330000Y-109000000D03*
%TD*%
D10*
%TO.C,R149*%
%TO.CFtp,RESC1005X40N*%
%TO.CVal,R0402_1K_1\u0025_0.0625W_100PPM*%
%TO.CLbN,Resistors SMD*%
%TO.CMnt,SMD*%
%TO.CRot,-90*%
X189900000Y-134000000D03*
D14*
X190355000Y-133095000D02*
X190355000Y-134905000D01*
X189445000Y-134905000D01*
X189445000Y-133095000D01*
X190355000Y-133095000D01*
D12*
%TO.P,R149,1,1*%
X189900000Y-133530000D03*
D13*
%TO.P,R149,2,2*%
X189900000Y-134470000D03*
%TD*%
D10*
%TO.C,C25*%
%TO.CFtp,CAPC1005X55N*%
%TO.CVal,CC0402_100NF_50V_10\u0025_X7R*%
%TO.CLbN,Capacitors SMD*%
%TO.CMnt,SMD*%
%TO.CRot,0*%
X141900000Y-96800000D03*
D14*
X142805000Y-96345000D02*
X142805000Y-97255000D01*
X140995000Y-97255000D01*
X140995000Y-96345000D01*
X142805000Y-96345000D01*
D12*
%TO.P,C25,1,1*%
X141450000Y-96800000D03*
D13*
%TO.P,C25,2,2*%
X142350000Y-96800000D03*
%TD*%
D10*
%TO.C,C210*%
%TO.CFtp,CAPC0603X33N*%
%TO.CVal,CC0201_100NF_6.3V_10\u0025_X5R*%
%TO.CLbN,Capacitors SMD*%
%TO.CMnt,SMD*%
%TO.CRot,-90*%
X161400000Y-126000000D03*
D14*
X161645000Y-125355000D02*
X161645000Y-126645000D01*
X161155000Y-126645000D01*
X161155000Y-125355000D01*
X161645000Y-125355000D01*
D12*
%TO.P,C210,1,1*%
X161400000Y-125650000D03*
D13*
%TO.P,C210,2,2*%
X161400000Y-126350000D03*
%TD*%
D10*
%TO.C,R159*%
%TO.CFtp,RESC1005X40N*%
%TO.CVal,R0402_40R2_1\u0025_0.0625W_100PPM*%
%TO.CLbN,Resistors SMD*%
%TO.CMnt,SMD*%
%TO.CRot,90*%
X163000000Y-119300000D03*
D14*
X163455000Y-118395000D02*
X163455000Y-120205000D01*
X162545000Y-120205000D01*
X162545000Y-118395000D01*
X163455000Y-118395000D01*
D12*
%TO.P,R159,1,1*%
X163000000Y-119770000D03*
D13*
%TO.P,R159,2,2*%
X163000000Y-118830000D03*
%TD*%
D10*
%TO.C,R120*%
%TO.CFtp,RESC1005X40N*%
%TO.CVal,R0402_240R_1\u0025_0.0625W_100PPM*%
%TO.CLbN,Resistors SMD*%
%TO.CMnt,SMD*%
%TO.CRot,90*%
X169000000Y-86600000D03*
D14*
X169455000Y-85695000D02*
X169455000Y-87505000D01*
X168545000Y-87505000D01*
X168545000Y-85695000D01*
X169455000Y-85695000D01*
D12*
%TO.P,R120,1,1*%
X169000000Y-87070000D03*
D13*
%TO.P,R120,2,2*%
X169000000Y-86130000D03*
%TD*%
D10*
%TO.C,C200*%
%TO.CFtp,CAPC1709X100N*%
%TO.CVal,CC0603_22UF_6.3V_20\u0025_X5R*%
%TO.CLbN,Capacitors SMD*%
%TO.CMnt,SMD*%
%TO.CRot,-90*%
X167400000Y-129700000D03*
D14*
X168195000Y-128155000D02*
X168195000Y-131245000D01*
X166605000Y-131245000D01*
X166605000Y-128155000D01*
X168195000Y-128155000D01*
D12*
%TO.P,C200,1,1*%
X167400000Y-128900000D03*
D13*
%TO.P,C200,2,2*%
X167400000Y-130500000D03*
%TD*%
D10*
%TO.C,C21*%
%TO.CFtp,CAPC1005X55N*%
%TO.CVal,CC0402_100NF_50V_10\u0025_X7R*%
%TO.CLbN,Capacitors SMD*%
%TO.CMnt,SMD*%
%TO.CRot,180*%
X148400000Y-55400000D03*
D14*
X149305000Y-54945000D02*
X149305000Y-55855000D01*
X147495000Y-55855000D01*
X147495000Y-54945000D01*
X149305000Y-54945000D01*
D12*
%TO.P,C21,1,1*%
X148850000Y-55400000D03*
D13*
%TO.P,C21,2,2*%
X147950000Y-55400000D03*
%TD*%
D10*
%TO.C,C215*%
%TO.CFtp,CAPC0603X33N*%
%TO.CVal,CC0201_100NF_6.3V_10\u0025_X5R*%
%TO.CLbN,Capacitors SMD*%
%TO.CMnt,SMD*%
%TO.CRot,-90*%
X168800000Y-84700000D03*
D14*
X169045000Y-84055000D02*
X169045000Y-85345000D01*
X168555000Y-85345000D01*
X168555000Y-84055000D01*
X169045000Y-84055000D01*
D12*
%TO.P,C215,1,1*%
X168800000Y-84350000D03*
D13*
%TO.P,C215,2,2*%
X168800000Y-85050000D03*
%TD*%
D10*
%TO.C,Y4*%
%TO.CFtp,XTAL_EPSON_TSX-3225*%
%TO.CVal,XTAL_25MHZ_EPSON_TSX-3225_25.0000MF10Z-AC*%
%TO.CLbN,ICs And Semiconductors SMD*%
%TO.CMnt,SMD*%
%TO.CRot,-90*%
X144500000Y-99200000D03*
D14*
X146545000Y-97580000D02*
X146545000Y-100820000D01*
X142455000Y-100820000D01*
X142455000Y-97580000D01*
X146545000Y-97580000D01*
D12*
%TO.P,Y4,1,X*%
X145600000Y-98400000D03*
D13*
%TO.P,Y4,2,GND*%
X143400000Y-98400000D03*
%TO.P,Y4,3,X*%
X143400000Y-100000000D03*
%TO.P,Y4,4,GND*%
X145600000Y-100000000D03*
%TD*%
D10*
%TO.C,C18*%
%TO.CFtp,CAPC1005X55N*%
%TO.CVal,CC0402_100NF_50V_10\u0025_X7R*%
%TO.CLbN,Capacitors SMD*%
%TO.CMnt,SMD*%
%TO.CRot,180*%
X150700000Y-98900000D03*
D14*
X151605000Y-98445000D02*
X151605000Y-99355000D01*
X149795000Y-99355000D01*
X149795000Y-98445000D01*
X151605000Y-98445000D01*
D12*
%TO.P,C18,1,1*%
X151150000Y-98900000D03*
D13*
%TO.P,C18,2,2*%
X150250000Y-98900000D03*
%TD*%
D10*
%TO.C,U27*%
%TO.CFtp,SOIC127P1030X265-16N*%
%TO.CVal,S25FL128SAGMFI001*%
%TO.CLbN,ICs And Semiconductors SMD*%
%TO.CMnt,SMD*%
%TO.CRot,0*%
X194300000Y-75000000D03*
D14*
X200195000Y-69505000D02*
X200195000Y-80495000D01*
X188405000Y-80495000D01*
X188405000Y-69505000D01*
X200195000Y-69505000D01*
D12*
%TO.P,U27,1,~{HOLD/}IO3*%
X189650000Y-70555000D03*
D13*
%TO.P,U27,2,VCC*%
X189650000Y-71825000D03*
%TO.P,U27,3,~{RESET/}RFU*%
X189650000Y-73095000D03*
%TO.P,U27,4*%
X189650000Y-74365000D03*
%TO.P,U27,5*%
X189650000Y-75635000D03*
%TO.P,U27,6,RFU*%
X189650000Y-76905000D03*
%TO.P,U27,7,~{CS}*%
X189650000Y-78175000D03*
%TO.P,U27,8,SO/IO1*%
X189650000Y-79445000D03*
%TO.P,U27,9,~{WP/}IO2*%
X198950000Y-79445000D03*
%TO.P,U27,10,VSS*%
X198950000Y-78175000D03*
%TO.P,U27,11*%
X198950000Y-76905000D03*
%TO.P,U27,12*%
X198950000Y-75635000D03*
%TO.P,U27,13,NC*%
X198950000Y-74365000D03*
%TO.P,U27,14,VIO/RFU*%
X198950000Y-73095000D03*
%TO.P,U27,15,SI/IO0*%
X198950000Y-71825000D03*
%TO.P,U27,16,SCK*%
X198950000Y-70555000D03*
%TD*%
D10*
%TO.C,U20*%
%TO.CFtp,SOIC127P600X168-9N-S230*%
%TO.CVal,RT9045AGSP / AP2303*%
%TO.CLbN,ICs And Semiconductors SMD*%
%TO.CMnt,SMD*%
%TO.CRot,180*%
X194300000Y-135200000D03*
D14*
X198045000Y-132455000D02*
X198045000Y-137945000D01*
X190555000Y-137945000D01*
X190555000Y-132455000D01*
X198045000Y-132455000D01*
D12*
%TO.P,U20,1,VIN*%
X197000000Y-137105000D03*
D13*
%TO.P,U20,2,GND*%
X197000000Y-135835000D03*
%TO.P,U20,3,~{VREFEN~{}}*%
X197000000Y-134565000D03*
%TO.P,U20,4,VOUT*%
X197000000Y-133295000D03*
%TO.P,U20,5*%
X191600000Y-133295000D03*
%TO.P,U20,6,VCNTL*%
X191600000Y-134565000D03*
%TO.P,U20,7*%
X191600000Y-135835000D03*
%TO.P,U20,8*%
X191600000Y-137105000D03*
%TO.P,U20,9,EXP*%
X194300000Y-135200000D03*
%TD*%
D10*
%TO.C,C16*%
%TO.CFtp,CAPC1005X55N*%
%TO.CVal,CC0402_100NF_50V_10\u0025_X7R*%
%TO.CLbN,Capacitors SMD*%
%TO.CMnt,SMD*%
%TO.CRot,180*%
X137400000Y-95300000D03*
D14*
X138305000Y-94845000D02*
X138305000Y-95755000D01*
X136495000Y-95755000D01*
X136495000Y-94845000D01*
X138305000Y-94845000D01*
D12*
%TO.P,C16,1,1*%
X137850000Y-95300000D03*
D13*
%TO.P,C16,2,2*%
X136950000Y-95300000D03*
%TD*%
D10*
%TO.C,L1*%
%TO.CFtp,IND_BOURNS_SRP3212*%
%TO.CVal,IND_2.2UH_20\u0025_BOURNS_SRP3212*%
%TO.CLbN,Inductors SMD*%
%TO.CMnt,SMD*%
%TO.CRot,90*%
X150100000Y-102700000D03*
D14*
X151745000Y-100605000D02*
X151745000Y-104795000D01*
X148455000Y-104795000D01*
X148455000Y-100605000D01*
X151745000Y-100605000D01*
D12*
%TO.P,L1,1,1*%
X150100000Y-103925000D03*
D13*
%TO.P,L1,2,2*%
X150100000Y-101475000D03*
%TD*%
D10*
%TO.C,C30*%
%TO.CFtp,CAPC1005X55N*%
%TO.CVal,CC0402_100NF_50V_10\u0025_X7R*%
%TO.CLbN,Capacitors SMD*%
%TO.CMnt,SMD*%
%TO.CRot,90*%
X139400000Y-93350000D03*
D14*
X139855000Y-92445000D02*
X139855000Y-94255000D01*
X138945000Y-94255000D01*
X138945000Y-92445000D01*
X139855000Y-92445000D01*
D12*
%TO.P,C30,1,1*%
X139400000Y-93800000D03*
D13*
%TO.P,C30,2,2*%
X139400000Y-92900000D03*
%TD*%
D10*
%TO.C,R130*%
%TO.CFtp,RESC1005X40N*%
%TO.CVal,R0402_845R_0.1\u0025_0.063W_25PPM*%
%TO.CLbN,Resistors SMD*%
%TO.CMnt,SMD*%
%TO.CRot,0*%
X164700000Y-76400000D03*
D14*
X165605000Y-75945000D02*
X165605000Y-76855000D01*
X163795000Y-76855000D01*
X163795000Y-75945000D01*
X165605000Y-75945000D01*
D12*
%TO.P,R130,1,1*%
X164230000Y-76400000D03*
D13*
%TO.P,R130,2,2*%
X165170000Y-76400000D03*
%TD*%
D10*
%TO.C,LD5*%
%TO.CFtp,LED_KINGBRIGHT_KPH-1608CGCK*%
%TO.CVal,LED_KINGBRIGHT_KPH-1608CGCK*%
%TO.CLbN,ICs And Semiconductors SMD*%
%TO.CMnt,SMD*%
%TO.CRot,90*%
X192500000Y-57250000D03*
D14*
X193145000Y-55780000D02*
X193145000Y-58720000D01*
X191855000Y-58720000D01*
X191855000Y-55780000D01*
X193145000Y-55780000D01*
D12*
%TO.P,LD5,1,C*%
X192500000Y-58075000D03*
D13*
%TO.P,LD5,2,A*%
X192500000Y-56425000D03*
%TD*%
D10*
%TO.C,R141*%
%TO.CFtp,RESC1005X40N*%
%TO.CVal,R0402_4K7_1\u0025_0.0625W_100PPM*%
%TO.CLbN,Resistors SMD*%
%TO.CMnt,SMD*%
%TO.CRot,90*%
X180200000Y-76900000D03*
D14*
X180655000Y-75995000D02*
X180655000Y-77805000D01*
X179745000Y-77805000D01*
X179745000Y-75995000D01*
X180655000Y-75995000D01*
D12*
%TO.P,R141,1,1*%
X180200000Y-77370000D03*
D13*
%TO.P,R141,2,2*%
X180200000Y-76430000D03*
%TD*%
D10*
%TO.C,C173*%
%TO.CFtp,CAPC2012X135N*%
%TO.CVal,CC0805_22UF_16V_10\u0025_X5R*%
%TO.CLbN,Capacitors SMD*%
%TO.CMnt,SMD*%
%TO.CRot,90*%
X145050000Y-128250000D03*
D14*
X145995000Y-126555000D02*
X145995000Y-129945000D01*
X144105000Y-129945000D01*
X144105000Y-126555000D01*
X145995000Y-126555000D01*
D12*
%TO.P,C173,1,1*%
X145050000Y-129150000D03*
D13*
%TO.P,C173,2,2*%
X145050000Y-127350000D03*
%TD*%
D10*
%TO.C,R33*%
%TO.CFtp,RESC1005X40N*%
%TO.CVal,R0402_4K7_1\u0025_0.0625W_100PPM*%
%TO.CLbN,Resistors SMD*%
%TO.CMnt,SMD*%
%TO.CRot,0*%
X181962500Y-61900000D03*
D14*
X182867500Y-61445000D02*
X182867500Y-62355000D01*
X181057500Y-62355000D01*
X181057500Y-61445000D01*
X182867500Y-61445000D01*
D12*
%TO.P,R33,1,1*%
X181492500Y-61900000D03*
D13*
%TO.P,R33,2,2*%
X182432500Y-61900000D03*
%TD*%
D10*
%TO.C,R115*%
%TO.CFtp,RESC1005X40N*%
%TO.CVal,R0402_100R_1\u0025_0.1W_100PPM*%
%TO.CLbN,Resistors SMD*%
%TO.CMnt,SMD*%
%TO.CRot,180*%
X180200000Y-127300000D03*
D14*
X181105000Y-126845000D02*
X181105000Y-127755000D01*
X179295000Y-127755000D01*
X179295000Y-126845000D01*
X181105000Y-126845000D01*
D12*
%TO.P,R115,1,1*%
X180670000Y-127300000D03*
D13*
%TO.P,R115,2,2*%
X179730000Y-127300000D03*
%TD*%
D10*
%TO.C,R77*%
%TO.CFtp,RESC1005X40N*%
%TO.CVal,R0402_10K_1\u0025_0.0625W_100PPM*%
%TO.CLbN,Resistors SMD*%
%TO.CMnt,SMD*%
%TO.CRot,90*%
X125260000Y-111350000D03*
D14*
X125715000Y-110445000D02*
X125715000Y-112255000D01*
X124805000Y-112255000D01*
X124805000Y-110445000D01*
X125715000Y-110445000D01*
D12*
%TO.P,R77,1,1*%
X125260000Y-111820000D03*
D13*
%TO.P,R77,2,2*%
X125260000Y-110880000D03*
%TD*%
D10*
%TO.C,C217*%
%TO.CFtp,CAPC1005X55N*%
%TO.CVal,CC0402_1UF_16V_10\u0025_X5R*%
%TO.CLbN,Capacitors SMD*%
%TO.CMnt,SMD*%
%TO.CRot,0*%
X166600000Y-79600000D03*
D14*
X167505000Y-79145000D02*
X167505000Y-80055000D01*
X165695000Y-80055000D01*
X165695000Y-79145000D01*
X167505000Y-79145000D01*
D12*
%TO.P,C217,1,1*%
X166150000Y-79600000D03*
D13*
%TO.P,C217,2,2*%
X167050000Y-79600000D03*
%TD*%
D10*
%TO.C,C203*%
%TO.CFtp,CAPC1709X100N*%
%TO.CVal,CC0603_22UF_6.3V_20\u0025_X5R*%
%TO.CLbN,Capacitors SMD*%
%TO.CMnt,SMD*%
%TO.CRot,0*%
X164200000Y-124500000D03*
D14*
X165745000Y-123705000D02*
X165745000Y-125295000D01*
X162655000Y-125295000D01*
X162655000Y-123705000D01*
X165745000Y-123705000D01*
D12*
%TO.P,C203,1,1*%
X163400000Y-124500000D03*
D13*
%TO.P,C203,2,2*%
X165000000Y-124500000D03*
%TD*%
D10*
%TO.C,R59*%
%TO.CFtp,RESC1005X40N*%
%TO.CVal,R0402_40R2_1\u0025_0.0625W_100PPM*%
%TO.CLbN,Resistors SMD*%
%TO.CMnt,SMD*%
%TO.CRot,-90*%
X191800000Y-127100000D03*
D14*
X192255000Y-126195000D02*
X192255000Y-128005000D01*
X191345000Y-128005000D01*
X191345000Y-126195000D01*
X192255000Y-126195000D01*
D12*
%TO.P,R59,1,1*%
X191800000Y-126630000D03*
D13*
%TO.P,R59,2,2*%
X191800000Y-127570000D03*
%TD*%
D10*
%TO.C,R123*%
%TO.CFtp,RESC1005X40N*%
%TO.CVal,R0402_140R_1\u0025_0.0625W_100PPM*%
%TO.CLbN,Resistors SMD*%
%TO.CMnt,SMD*%
%TO.CRot,0*%
X164700000Y-77900000D03*
D14*
X165605000Y-77445000D02*
X165605000Y-78355000D01*
X163795000Y-78355000D01*
X163795000Y-77445000D01*
X165605000Y-77445000D01*
D12*
%TO.P,R123,1,1*%
X164230000Y-77900000D03*
D13*
%TO.P,R123,2,2*%
X165170000Y-77900000D03*
%TD*%
D10*
%TO.C,R139*%
%TO.CFtp,RESC1005X40N*%
%TO.CVal,R0402_4K7_1\u0025_0.0625W_100PPM*%
%TO.CLbN,Resistors SMD*%
%TO.CMnt,SMD*%
%TO.CRot,-90*%
X182000000Y-76900000D03*
D14*
X182455000Y-75995000D02*
X182455000Y-77805000D01*
X181545000Y-77805000D01*
X181545000Y-75995000D01*
X182455000Y-75995000D01*
D12*
%TO.P,R139,1,1*%
X182000000Y-76430000D03*
D13*
%TO.P,R139,2,2*%
X182000000Y-77370000D03*
%TD*%
D10*
%TO.C,R163*%
%TO.CFtp,RESC1005X40N*%
%TO.CVal,R0402_10K_1\u0025_0.0625W_100PPM*%
%TO.CLbN,Resistors SMD*%
%TO.CMnt,SMD*%
%TO.CRot,90*%
X173275000Y-77575000D03*
D14*
X173730000Y-76670000D02*
X173730000Y-78480000D01*
X172820000Y-78480000D01*
X172820000Y-76670000D01*
X173730000Y-76670000D01*
D12*
%TO.P,R163,1,1*%
X173275000Y-78045000D03*
D13*
%TO.P,R163,2,2*%
X173275000Y-77105000D03*
%TD*%
D10*
%TO.C,LD4*%
%TO.CFtp,LED_KINGBRIGHT_KPH-1608CGCK*%
%TO.CVal,LED_KINGBRIGHT_KPH-1608CGCK*%
%TO.CLbN,ICs And Semiconductors SMD*%
%TO.CMnt,SMD*%
%TO.CRot,90*%
X202250000Y-57185000D03*
D14*
X202895000Y-55715000D02*
X202895000Y-58655000D01*
X201605000Y-58655000D01*
X201605000Y-55715000D01*
X202895000Y-55715000D01*
D12*
%TO.P,LD4,1,C*%
X202250000Y-58010000D03*
D13*
%TO.P,LD4,2,A*%
X202250000Y-56360000D03*
%TD*%
D10*
%TO.C,R49*%
%TO.CFtp,RESC1005X40N*%
%TO.CVal,R0402_40R2_1\u0025_0.0625W_100PPM*%
%TO.CLbN,Resistors SMD*%
%TO.CMnt,SMD*%
%TO.CRot,-90*%
X193800000Y-127100000D03*
D14*
X194255000Y-126195000D02*
X194255000Y-128005000D01*
X193345000Y-128005000D01*
X193345000Y-126195000D01*
X194255000Y-126195000D01*
D12*
%TO.P,R49,1,1*%
X193800000Y-126630000D03*
D13*
%TO.P,R49,2,2*%
X193800000Y-127570000D03*
%TD*%
D10*
%TO.C,R35*%
%TO.CFtp,RESC1005X40N*%
%TO.CVal,R0402_4K7_1\u0025_0.0625W_100PPM*%
%TO.CLbN,Resistors SMD*%
%TO.CMnt,SMD*%
%TO.CRot,180*%
X162462500Y-58600000D03*
D14*
X163367500Y-58145000D02*
X163367500Y-59055000D01*
X161557500Y-59055000D01*
X161557500Y-58145000D01*
X163367500Y-58145000D01*
D12*
%TO.P,R35,1,1*%
X162932500Y-58600000D03*
D13*
%TO.P,R35,2,2*%
X161992500Y-58600000D03*
%TD*%
D10*
%TO.C,R23*%
%TO.CFtp,RESC1005X40N*%
%TO.CVal,R0402_4K7_1\u0025_0.0625W_100PPM*%
%TO.CLbN,Resistors SMD*%
%TO.CMnt,SMD*%
%TO.CRot,180*%
X184900000Y-60375000D03*
D14*
X185805000Y-59920000D02*
X185805000Y-60830000D01*
X183995000Y-60830000D01*
X183995000Y-59920000D01*
X185805000Y-59920000D01*
D12*
%TO.P,R23,1,1*%
X185370000Y-60375000D03*
D13*
%TO.P,R23,2,2*%
X184430000Y-60375000D03*
%TD*%
D10*
%TO.C,R119*%
%TO.CFtp,RESC1005X40N*%
%TO.CVal,R0402_200R_1\u0025_0.0625W_100PPM*%
%TO.CLbN,Resistors SMD*%
%TO.CMnt,SMD*%
%TO.CRot,180*%
X153900000Y-123700000D03*
D14*
X154805000Y-123245000D02*
X154805000Y-124155000D01*
X152995000Y-124155000D01*
X152995000Y-123245000D01*
X154805000Y-123245000D01*
D12*
%TO.P,R119,1,1*%
X154370000Y-123700000D03*
D13*
%TO.P,R119,2,2*%
X153430000Y-123700000D03*
%TD*%
D10*
%TO.C,B2*%
%TO.CFtp,MTG320_550*%
%TO.CVal,PLATED_HOLE3.2_PAD5.5*%
%TO.CLbN,Pads*%
%TO.CMnt,TH*%
%TO.CRot,0*%
X107000000Y-136000000D03*
D11*
X104250000Y-133250000D02*
X104250000Y-138750000D01*
X109750000Y-138750000D01*
X109750000Y-133250000D01*
X104250000Y-133250000D01*
D12*
%TO.P,B2,1,1*%
X107000000Y-136000000D03*
%TD*%
D10*
%TO.C,R29*%
%TO.CFtp,RESC1005X40N*%
%TO.CVal,R0402_4K7_1\u0025_0.0625W_100PPM*%
%TO.CLbN,Resistors SMD*%
%TO.CMnt,SMD*%
%TO.CRot,90*%
X179162500Y-64400000D03*
D14*
X179617500Y-63495000D02*
X179617500Y-65305000D01*
X178707500Y-65305000D01*
X178707500Y-63495000D01*
X179617500Y-63495000D01*
D12*
%TO.P,R29,1,1*%
X179162500Y-64870000D03*
D13*
%TO.P,R29,2,2*%
X179162500Y-63930000D03*
%TD*%
D10*
%TO.C,R88*%
%TO.CFtp,RESC1005X40N*%
%TO.CVal,R0402_1K_1\u0025_0.0625W_100PPM*%
%TO.CLbN,Resistors SMD*%
%TO.CMnt,SMD*%
%TO.CRot,0*%
X199500000Y-93600000D03*
D14*
X200405000Y-93145000D02*
X200405000Y-94055000D01*
X198595000Y-94055000D01*
X198595000Y-93145000D01*
X200405000Y-93145000D01*
D12*
%TO.P,R88,1,1*%
X199030000Y-93600000D03*
D13*
%TO.P,R88,2,2*%
X199970000Y-93600000D03*
%TD*%
D10*
%TO.C,C195*%
%TO.CFtp,CAPC1709X100N*%
%TO.CVal,CC0603_22UF_6.3V_20\u0025_X5R*%
%TO.CLbN,Capacitors SMD*%
%TO.CMnt,SMD*%
%TO.CRot,180*%
X159950000Y-130525000D03*
D14*
X161495000Y-129730000D02*
X161495000Y-131320000D01*
X158405000Y-131320000D01*
X158405000Y-129730000D01*
X161495000Y-129730000D01*
D12*
%TO.P,C195,1,1*%
X160750000Y-130525000D03*
D13*
%TO.P,C195,2,2*%
X159150000Y-130525000D03*
%TD*%
D10*
%TO.C,R36*%
%TO.CFtp,RESC1005X40N*%
%TO.CVal,R0402_4K7_1\u0025_0.0625W_100PPM*%
%TO.CLbN,Resistors SMD*%
%TO.CMnt,SMD*%
%TO.CRot,0*%
X162462500Y-59600000D03*
D14*
X163367500Y-59145000D02*
X163367500Y-60055000D01*
X161557500Y-60055000D01*
X161557500Y-59145000D01*
X163367500Y-59145000D01*
D12*
%TO.P,R36,1,1*%
X161992500Y-59600000D03*
D13*
%TO.P,R36,2,2*%
X162932500Y-59600000D03*
%TD*%
D10*
%TO.C,R57*%
%TO.CFtp,RESC1005X40N*%
%TO.CVal,R0402_40R2_1\u0025_0.0625W_100PPM*%
%TO.CLbN,Resistors SMD*%
%TO.CMnt,SMD*%
%TO.CRot,-90*%
X197800000Y-127100000D03*
D14*
X198255000Y-126195000D02*
X198255000Y-128005000D01*
X197345000Y-128005000D01*
X197345000Y-126195000D01*
X198255000Y-126195000D01*
D12*
%TO.P,R57,1,1*%
X197800000Y-126630000D03*
D13*
%TO.P,R57,2,2*%
X197800000Y-127570000D03*
%TD*%
D10*
%TO.C,U7*%
%TO.CFtp,QFN40P500X500X80-41N-S360*%
%TO.CVal,RTL8211F-CG*%
%TO.CLbN,ICs And Semiconductors SMD*%
%TO.CMnt,SMD*%
%TO.CRot,0*%
X145000000Y-106500000D03*
D14*
X148195000Y-103305000D02*
X148195000Y-109695000D01*
X141805000Y-109695000D01*
X141805000Y-103305000D01*
X148195000Y-103305000D01*
D12*
%TO.P,U7,1,MDIP0*%
X142500000Y-104700000D03*
D13*
%TO.P,U7,2,MDIN0*%
X142500000Y-105100000D03*
%TO.P,U7,3,AVDD10*%
X142500000Y-105500000D03*
%TO.P,U7,4,MDIP1*%
X142500000Y-105900000D03*
%TO.P,U7,5,MDIN1*%
X142500000Y-106300000D03*
%TO.P,U7,6,MDIP2*%
X142500000Y-106700000D03*
%TO.P,U7,7,MDIN2*%
X142500000Y-107100000D03*
%TO.P,U7,8,AVDD10*%
X142500000Y-107500000D03*
%TO.P,U7,9,MDIP3*%
X142500000Y-107900000D03*
%TO.P,U7,10,MDIN3*%
X142500000Y-108300000D03*
%TO.P,U7,11,AVDD33*%
X143200000Y-109000000D03*
%TO.P,U7,12,PHYRSTB*%
X143600000Y-109000000D03*
%TO.P,U7,13,MDC*%
X144000000Y-109000000D03*
%TO.P,U7,14,MDIO*%
X144400000Y-109000000D03*
%TO.P,U7,15,TXD3*%
X144800000Y-109000000D03*
%TO.P,U7,16,TXD2*%
X145200000Y-109000000D03*
%TO.P,U7,17,TXD1*%
X145600000Y-109000000D03*
%TO.P,U7,18,TXD0*%
X146000000Y-109000000D03*
%TO.P,U7,19,TXCTL*%
X146400000Y-109000000D03*
%TO.P,U7,20,TXC*%
X146800000Y-109000000D03*
%TO.P,U7,21,DVDD10*%
X147500000Y-108300000D03*
%TO.P,U7,22,RXD3/PHYAD0*%
X147500000Y-107900000D03*
%TO.P,U7,23,RXD2/PLLOFF*%
X147500000Y-107500000D03*
%TO.P,U7,24,RXD1/TXDLY*%
X147500000Y-107100000D03*
%TO.P,U7,25,RXD0/RXDLY*%
X147500000Y-106700000D03*
%TO.P,U7,26,RXCTL/PHYAD2*%
X147500000Y-106300000D03*
%TO.P,U7,27,RXC/PHYAD1*%
X147500000Y-105900000D03*
%TO.P,U7,28,DVDD_RG*%
X147500000Y-105500000D03*
%TO.P,U7,29,DVDD33*%
X147500000Y-105100000D03*
%TO.P,U7,30,REG_OUT*%
X147500000Y-104700000D03*
%TO.P,U7,31,INTB/PMEB*%
X146800000Y-104000000D03*
%TO.P,U7,32,LED0/CFG_EXT*%
X146400000Y-104000000D03*
%TO.P,U7,33,LED1/CFG_LDO0*%
X146000000Y-104000000D03*
%TO.P,U7,34,LED2/CFG_LDO1*%
X145600000Y-104000000D03*
%TO.P,U7,35,CLKOUT*%
X145200000Y-104000000D03*
%TO.P,U7,36,XTAL_IN*%
X144800000Y-104000000D03*
%TO.P,U7,37,XTAL_OUT/EXT_CLK*%
X144400000Y-104000000D03*
%TO.P,U7,38,AVDD10*%
X144000000Y-104000000D03*
%TO.P,U7,39,RSET*%
X143600000Y-104000000D03*
%TO.P,U7,40,AVDD33*%
X143200000Y-104000000D03*
%TO.P,U7,41,GND*%
X145000000Y-106500000D03*
%TD*%
D10*
%TO.C,L12*%
%TO.CFtp,INDC1005X55N*%
%TO.CVal,IND0402_MURATA_BLM15PX121SN1D*%
%TO.CLbN,Inductors SMD*%
%TO.CMnt,SMD*%
%TO.CRot,0*%
X112600000Y-111900000D03*
D14*
X113505000Y-111445000D02*
X113505000Y-112355000D01*
X111695000Y-112355000D01*
X111695000Y-111445000D01*
X113505000Y-111445000D01*
D12*
%TO.P,L12,1,1*%
X112140000Y-111900000D03*
D13*
%TO.P,L12,2,2*%
X113060000Y-111900000D03*
%TD*%
D10*
%TO.C,R3*%
%TO.CFtp,RESC1005X40N*%
%TO.CVal,R0402_2K49_1\u0025_0.063W_100PPM*%
%TO.CLbN,Resistors SMD*%
%TO.CMnt,SMD*%
%TO.CRot,90*%
X143000000Y-102100000D03*
D14*
X143455000Y-101195000D02*
X143455000Y-103005000D01*
X142545000Y-103005000D01*
X142545000Y-101195000D01*
X143455000Y-101195000D01*
D12*
%TO.P,R3,1,1*%
X143000000Y-102570000D03*
D13*
%TO.P,R3,2,2*%
X143000000Y-101630000D03*
%TD*%
D10*
%TO.C,C190*%
%TO.CFtp,CAPC0603X33N*%
%TO.CVal,CC0201_100NF_6.3V_10\u0025_X5R*%
%TO.CLbN,Capacitors SMD*%
%TO.CMnt,SMD*%
%TO.CRot,90*%
X177330000Y-114335000D03*
D14*
X177575000Y-113690000D02*
X177575000Y-114980000D01*
X177085000Y-114980000D01*
X177085000Y-113690000D01*
X177575000Y-113690000D01*
D12*
%TO.P,C190,1,1*%
X177330000Y-114685000D03*
D13*
%TO.P,C190,2,2*%
X177330000Y-113985000D03*
%TD*%
D10*
%TO.C,R40*%
%TO.CFtp,RESC1005X40N*%
%TO.CVal,R0402_4K7_1\u0025_0.0625W_100PPM*%
%TO.CLbN,Resistors SMD*%
%TO.CMnt,SMD*%
%TO.CRot,0*%
X192500000Y-61675000D03*
D14*
X193405000Y-61220000D02*
X193405000Y-62130000D01*
X191595000Y-62130000D01*
X191595000Y-61220000D01*
X193405000Y-61220000D01*
D12*
%TO.P,R40,1,1*%
X192030000Y-61675000D03*
D13*
%TO.P,R40,2,2*%
X192970000Y-61675000D03*
%TD*%
D10*
%TO.C,C79*%
%TO.CFtp,CAPC1005X55N*%
%TO.CVal,CC0402_100NF_50V_10\u0025_X7R*%
%TO.CLbN,Capacitors SMD*%
%TO.CMnt,SMD*%
%TO.CRot,180*%
X134300000Y-119600000D03*
D14*
X135205000Y-119145000D02*
X135205000Y-120055000D01*
X133395000Y-120055000D01*
X133395000Y-119145000D01*
X135205000Y-119145000D01*
D12*
%TO.P,C79,1,1*%
X134750000Y-119600000D03*
D13*
%TO.P,C79,2,2*%
X133850000Y-119600000D03*
%TD*%
D10*
%TO.C,R173*%
%TO.CFtp,RESC1005X40N*%
%TO.CVal,R0402_100K_1\u0025_0.0625W_100PPM*%
%TO.CLbN,Resistors SMD*%
%TO.CMnt,SMD*%
%TO.CRot,180*%
X170200000Y-60000000D03*
D14*
X171105000Y-59545000D02*
X171105000Y-60455000D01*
X169295000Y-60455000D01*
X169295000Y-59545000D01*
X171105000Y-59545000D01*
D12*
%TO.P,R173,1,1*%
X170670000Y-60000000D03*
D13*
%TO.P,R173,2,2*%
X169730000Y-60000000D03*
%TD*%
D10*
%TO.C,R42*%
%TO.CFtp,RESC1005X40N*%
%TO.CVal,R0402_4K7_1\u0025_0.0625W_100PPM*%
%TO.CLbN,Resistors SMD*%
%TO.CMnt,SMD*%
%TO.CRot,0*%
X192500000Y-60675000D03*
D14*
X193405000Y-60220000D02*
X193405000Y-61130000D01*
X191595000Y-61130000D01*
X191595000Y-60220000D01*
X193405000Y-60220000D01*
D12*
%TO.P,R42,1,1*%
X192030000Y-60675000D03*
D13*
%TO.P,R42,2,2*%
X192970000Y-60675000D03*
%TD*%
D10*
%TO.C,R27*%
%TO.CFtp,RESC1005X40N*%
%TO.CVal,R0402_4K7_1\u0025_0.0625W_100PPM*%
%TO.CLbN,Resistors SMD*%
%TO.CMnt,SMD*%
%TO.CRot,180*%
X174262500Y-62400000D03*
D14*
X175167500Y-61945000D02*
X175167500Y-62855000D01*
X173357500Y-62855000D01*
X173357500Y-61945000D01*
X175167500Y-61945000D01*
D12*
%TO.P,R27,1,1*%
X174732500Y-62400000D03*
D13*
%TO.P,R27,2,2*%
X173792500Y-62400000D03*
%TD*%
D10*
%TO.C,U15*%
%TO.CFtp,SOP65P490X110-8N*%
%TO.CVal,DAC8550IDGK*%
%TO.CLbN,ICs And Semiconductors SMD*%
%TO.CMnt,SMD*%
%TO.CRot,90*%
X174930000Y-115085000D03*
D14*
X176725000Y-111890000D02*
X176725000Y-118280000D01*
X173135000Y-118280000D01*
X173135000Y-111890000D01*
X176725000Y-111890000D01*
D12*
%TO.P,U15,1,VDD*%
X173955000Y-117285000D03*
D13*
%TO.P,U15,2,VREF*%
X174605000Y-117285000D03*
%TO.P,U15,3,VFB*%
X175255000Y-117285000D03*
%TO.P,U15,4,VOUT*%
X175905000Y-117285000D03*
%TO.P,U15,5,~{SYNC}*%
X175905000Y-112885000D03*
%TO.P,U15,6,SCLK*%
X175255000Y-112885000D03*
%TO.P,U15,7,DIN*%
X174605000Y-112885000D03*
%TO.P,U15,8,GND*%
X173955000Y-112885000D03*
%TD*%
D10*
%TO.C,C20*%
%TO.CFtp,CAPC1005X55N*%
%TO.CVal,CC0402_100NF_50V_10\u0025_X7R*%
%TO.CLbN,Capacitors SMD*%
%TO.CMnt,SMD*%
%TO.CRot,-90*%
X140300000Y-58600000D03*
D14*
X140755000Y-57695000D02*
X140755000Y-59505000D01*
X139845000Y-59505000D01*
X139845000Y-57695000D01*
X140755000Y-57695000D01*
D12*
%TO.P,C20,1,1*%
X140300000Y-58150000D03*
D13*
%TO.P,C20,2,2*%
X140300000Y-59050000D03*
%TD*%
D10*
%TO.C,J7*%
%TO.CFtp,PinSocket_2x06_P2.54mm_Horizontal_PMOD*%
%TO.CVal,Conn_02x06_Top_Bottom*%
%TO.CLbN,Miscellaneous THD*%
%TO.CMnt,TH*%
%TO.CRot,180*%
X212875000Y-69745000D03*
D14*
X225920000Y-55300000D02*
X225920000Y-71540000D01*
X211080000Y-71540000D01*
X211080000Y-55300000D01*
X225920000Y-55300000D01*
D12*
%TO.P,J7,1,Pin_1*%
X212875000Y-57045000D03*
D13*
%TO.P,J7,2,Pin_2*%
X212875000Y-59585000D03*
%TO.P,J7,3,Pin_3*%
X212875000Y-62125000D03*
%TO.P,J7,4,Pin_4*%
X212875000Y-64665000D03*
%TO.P,J7,5,Pin_5*%
X212875000Y-67205000D03*
%TO.P,J7,6,Pin_6*%
X212875000Y-69745000D03*
%TO.P,J7,7,Pin_7*%
X215415000Y-57045000D03*
%TO.P,J7,8,Pin_8*%
X215415000Y-59585000D03*
%TO.P,J7,9,Pin_9*%
X215415000Y-62125000D03*
%TO.P,J7,10,Pin_10*%
X215415000Y-64665000D03*
%TO.P,J7,11,Pin_11*%
X215415000Y-67205000D03*
%TO.P,J7,12,Pin_12*%
X215415000Y-69745000D03*
%TD*%
D10*
%TO.C,C206*%
%TO.CFtp,CAPC0603X33N*%
%TO.CVal,CC0201_100NF_6.3V_10\u0025_X5R*%
%TO.CLbN,Capacitors SMD*%
%TO.CMnt,SMD*%
%TO.CRot,90*%
X159900000Y-117200000D03*
D14*
X160145000Y-116555000D02*
X160145000Y-117845000D01*
X159655000Y-117845000D01*
X159655000Y-116555000D01*
X160145000Y-116555000D01*
D12*
%TO.P,C206,1,1*%
X159900000Y-117550000D03*
D13*
%TO.P,C206,2,2*%
X159900000Y-116850000D03*
%TD*%
D10*
%TO.C,C64*%
%TO.CFtp,CAPC1005X55N*%
%TO.CVal,CC0402_100NF_50V_10\u0025_X7R*%
%TO.CLbN,Capacitors SMD*%
%TO.CMnt,SMD*%
%TO.CRot,90*%
X199800000Y-127100000D03*
D14*
X200255000Y-126195000D02*
X200255000Y-128005000D01*
X199345000Y-128005000D01*
X199345000Y-126195000D01*
X200255000Y-126195000D01*
D12*
%TO.P,C64,1,1*%
X199800000Y-127550000D03*
D13*
%TO.P,C64,2,2*%
X199800000Y-126650000D03*
%TD*%
D10*
%TO.C,J10*%
%TO.CFtp,BarrelJack_GCT_DCJ200-10-A_Horizontal*%
%TO.CVal,Barrel_Jack_Switch*%
%TO.CLbN,Connector_BarrelJack*%
%TO.CMnt,TH*%
%TO.CRot,-90*%
X116750000Y-128000000D03*
D14*
X118245000Y-123005000D02*
X118245000Y-132995000D01*
X116445000Y-132995000D01*
X116445000Y-134295000D01*
X111255000Y-134295000D01*
X111255000Y-132995000D01*
X102555000Y-132995000D01*
X102555000Y-123005000D01*
X118245000Y-123005000D01*
D12*
%TO.P,J10,1*%
X116750000Y-128000000D03*
D13*
%TO.P,J10,2*%
X110450000Y-128000000D03*
%TO.P,J10,3*%
X113850000Y-132800000D03*
%TD*%
D10*
%TO.C,C65*%
%TO.CFtp,CAPC1005X55N*%
%TO.CVal,CC0402_100NF_50V_10\u0025_X7R*%
%TO.CLbN,Capacitors SMD*%
%TO.CMnt,SMD*%
%TO.CRot,-90*%
X191800000Y-129500000D03*
D14*
X192255000Y-128595000D02*
X192255000Y-130405000D01*
X191345000Y-130405000D01*
X191345000Y-128595000D01*
X192255000Y-128595000D01*
D12*
%TO.P,C65,1,1*%
X191800000Y-129050000D03*
D13*
%TO.P,C65,2,2*%
X191800000Y-129950000D03*
%TD*%
D10*
%TO.C,C6*%
%TO.CFtp,CAPC1005X55N*%
%TO.CVal,CC0402_100NF_50V_10\u0025_X7R*%
%TO.CLbN,Capacitors SMD*%
%TO.CMnt,SMD*%
%TO.CRot,180*%
X150000000Y-105500000D03*
D14*
X150905000Y-105045000D02*
X150905000Y-105955000D01*
X149095000Y-105955000D01*
X149095000Y-105045000D01*
X150905000Y-105045000D01*
D12*
%TO.P,C6,1,1*%
X150450000Y-105500000D03*
D13*
%TO.P,C6,2,2*%
X149550000Y-105500000D03*
%TD*%
D10*
%TO.C,C197*%
%TO.CFtp,CAPC0603X33N*%
%TO.CVal,CC0201_100NF_6.3V_10\u0025_X5R*%
%TO.CLbN,Capacitors SMD*%
%TO.CMnt,SMD*%
%TO.CRot,0*%
X181450000Y-118300000D03*
D14*
X182095000Y-118055000D02*
X182095000Y-118545000D01*
X180805000Y-118545000D01*
X180805000Y-118055000D01*
X182095000Y-118055000D01*
D12*
%TO.P,C197,1,1*%
X181100000Y-118300000D03*
D13*
%TO.P,C197,2,2*%
X181800000Y-118300000D03*
%TD*%
D10*
%TO.C,J12*%
%TO.CFtp,TYCO_1888247-1*%
%TO.CVal,TYCO_1888247-1*%
%TO.CLbN,TYCO SMD*%
%TO.CMnt,SMD*%
%TO.CRot,0*%
X145400000Y-69070000D03*
D14*
X150770000Y-63330000D02*
X150770000Y-74820000D01*
X140080000Y-74820000D01*
X140080000Y-63330000D01*
X150770000Y-63330000D01*
D12*
%TO.P,J12,1,VEET*%
X141300000Y-65675000D03*
D13*
%TO.P,J12,*%
X145400000Y-64275000D03*
X145400000Y-73875000D03*
%TO.P,J12,2,TX_FAULT*%
X141300000Y-66475000D03*
%TO.P,J12,3,TX_DISABLE*%
X141300000Y-67275000D03*
%TO.P,J12,4,SDA*%
X141300000Y-68075000D03*
%TO.P,J12,5,SCL*%
X141300000Y-68875000D03*
%TO.P,J12,6,MOD_ABS*%
X141300000Y-69675000D03*
%TO.P,J12,7,RS0*%
X141300000Y-70475000D03*
%TO.P,J12,8,LOS*%
X141300000Y-71275000D03*
%TO.P,J12,9,RS1*%
X141300000Y-72075000D03*
%TO.P,J12,10,VEER*%
X141300000Y-72875000D03*
%TO.P,J12,11,VEER*%
X149500000Y-72475000D03*
%TO.P,J12,12,RD-*%
X149500000Y-71675000D03*
%TO.P,J12,13,RD+*%
X149500000Y-70875000D03*
%TO.P,J12,14,VEER*%
X149500000Y-70075000D03*
%TO.P,J12,15,VCCR*%
X149500000Y-69275000D03*
%TO.P,J12,16,VCCT*%
X149500000Y-68475000D03*
%TO.P,J12,17,VEET*%
X149500000Y-67675000D03*
%TO.P,J12,18,TD+*%
X149500000Y-66875000D03*
%TO.P,J12,19,TD-*%
X149500000Y-66075000D03*
%TO.P,J12,20,VEET*%
X149500000Y-65275000D03*
%TD*%
D10*
%TO.C,C187*%
%TO.CFtp,CAPC1709X100N*%
%TO.CVal,CC0603_22UF_6.3V_20\u0025_X5R*%
%TO.CLbN,Capacitors SMD*%
%TO.CMnt,SMD*%
%TO.CRot,0*%
X171830000Y-120185000D03*
D14*
X173375000Y-119390000D02*
X173375000Y-120980000D01*
X170285000Y-120980000D01*
X170285000Y-119390000D01*
X173375000Y-119390000D01*
D12*
%TO.P,C187,1,1*%
X171030000Y-120185000D03*
D13*
%TO.P,C187,2,2*%
X172630000Y-120185000D03*
%TD*%
D10*
%TO.C,R107*%
%TO.CFtp,RESC1005X40N*%
%TO.CVal,R0402_0R_JUMPER*%
%TO.CLbN,Resistors SMD*%
%TO.CMnt,SMD*%
%TO.CRot,-90*%
X160900000Y-117200000D03*
D14*
X161355000Y-116295000D02*
X161355000Y-118105000D01*
X160445000Y-118105000D01*
X160445000Y-116295000D01*
X161355000Y-116295000D01*
D12*
%TO.P,R107,1,1*%
X160900000Y-116730000D03*
D13*
%TO.P,R107,2,2*%
X160900000Y-117670000D03*
%TD*%
D10*
%TO.C,C211*%
%TO.CFtp,CAPC0603X33N*%
%TO.CVal,CC0201_100NF_6.3V_10\u0025_X5R*%
%TO.CLbN,Capacitors SMD*%
%TO.CMnt,SMD*%
%TO.CRot,90*%
X155400000Y-120800000D03*
D14*
X155645000Y-120155000D02*
X155645000Y-121445000D01*
X155155000Y-121445000D01*
X155155000Y-120155000D01*
X155645000Y-120155000D01*
D12*
%TO.P,C211,1,1*%
X155400000Y-121150000D03*
D13*
%TO.P,C211,2,2*%
X155400000Y-120450000D03*
%TD*%
D10*
%TO.C,C213*%
%TO.CFtp,CAPC1005X55N*%
%TO.CVal,CC0402_100NF_50V_10\u0025_X7R*%
%TO.CLbN,Capacitors SMD*%
%TO.CMnt,SMD*%
%TO.CRot,0*%
X153900000Y-121700000D03*
D14*
X154805000Y-121245000D02*
X154805000Y-122155000D01*
X152995000Y-122155000D01*
X152995000Y-121245000D01*
X154805000Y-121245000D01*
D12*
%TO.P,C213,1,1*%
X153450000Y-121700000D03*
D13*
%TO.P,C213,2,2*%
X154350000Y-121700000D03*
%TD*%
D10*
%TO.C,C83*%
%TO.CFtp,CAPC2012X135N*%
%TO.CVal,CC0805_22UF_16V_10\u0025_X5R*%
%TO.CLbN,Capacitors SMD*%
%TO.CMnt,SMD*%
%TO.CRot,0*%
X119700000Y-113200000D03*
D14*
X121395000Y-112255000D02*
X121395000Y-114145000D01*
X118005000Y-114145000D01*
X118005000Y-112255000D01*
X121395000Y-112255000D01*
D12*
%TO.P,C83,1,1*%
X118800000Y-113200000D03*
D13*
%TO.P,C83,2,2*%
X120600000Y-113200000D03*
%TD*%
M02*
