%TF.GenerationSoftware,KiCad,Pcbnew,9.0.1*%
%TF.CreationDate,2025-05-15T18:24:47+02:00*%
%TF.ProjectId,Marble_Tiny,4d617262-6c65-45f5-9469-6e792e6b6963,rev?*%
%TF.SameCoordinates,Original*%
%TF.FileFunction,Other,User*%
%FSLAX46Y46*%
G04 Gerber Fmt 4.6, Leading zero omitted, Abs format (unit mm)*
G04 Created by KiCad (PCBNEW 9.0.1) date 2025-05-15 18:24:47*
%MOMM*%
%LPD*%
G01*
G04 APERTURE LIST*
%ADD10C,0.150000*%
%ADD11C,0.100000*%
G04 APERTURE END LIST*
D10*
X232333390Y-101428570D02*
X232285771Y-101523808D01*
X232285771Y-101523808D02*
X232238152Y-101571427D01*
X232238152Y-101571427D02*
X232142914Y-101619046D01*
X232142914Y-101619046D02*
X232095295Y-101619046D01*
X232095295Y-101619046D02*
X232000057Y-101571427D01*
X232000057Y-101571427D02*
X231952438Y-101523808D01*
X231952438Y-101523808D02*
X231904819Y-101428570D01*
X231904819Y-101428570D02*
X231904819Y-101238094D01*
X231904819Y-101238094D02*
X231952438Y-101142856D01*
X231952438Y-101142856D02*
X232000057Y-101095237D01*
X232000057Y-101095237D02*
X232095295Y-101047618D01*
X232095295Y-101047618D02*
X232142914Y-101047618D01*
X232142914Y-101047618D02*
X232238152Y-101095237D01*
X232238152Y-101095237D02*
X232285771Y-101142856D01*
X232285771Y-101142856D02*
X232333390Y-101238094D01*
X232333390Y-101238094D02*
X232333390Y-101428570D01*
X232333390Y-101428570D02*
X232381009Y-101523808D01*
X232381009Y-101523808D02*
X232428628Y-101571427D01*
X232428628Y-101571427D02*
X232523866Y-101619046D01*
X232523866Y-101619046D02*
X232714342Y-101619046D01*
X232714342Y-101619046D02*
X232809580Y-101571427D01*
X232809580Y-101571427D02*
X232857200Y-101523808D01*
X232857200Y-101523808D02*
X232904819Y-101428570D01*
X232904819Y-101428570D02*
X232904819Y-101238094D01*
X232904819Y-101238094D02*
X232857200Y-101142856D01*
X232857200Y-101142856D02*
X232809580Y-101095237D01*
X232809580Y-101095237D02*
X232714342Y-101047618D01*
X232714342Y-101047618D02*
X232523866Y-101047618D01*
X232523866Y-101047618D02*
X232428628Y-101095237D01*
X232428628Y-101095237D02*
X232381009Y-101142856D01*
X232381009Y-101142856D02*
X232333390Y-101238094D01*
X231904819Y-100190475D02*
X231904819Y-100380951D01*
X231904819Y-100380951D02*
X231952438Y-100476189D01*
X231952438Y-100476189D02*
X232000057Y-100523808D01*
X232000057Y-100523808D02*
X232142914Y-100619046D01*
X232142914Y-100619046D02*
X232333390Y-100666665D01*
X232333390Y-100666665D02*
X232714342Y-100666665D01*
X232714342Y-100666665D02*
X232809580Y-100619046D01*
X232809580Y-100619046D02*
X232857200Y-100571427D01*
X232857200Y-100571427D02*
X232904819Y-100476189D01*
X232904819Y-100476189D02*
X232904819Y-100285713D01*
X232904819Y-100285713D02*
X232857200Y-100190475D01*
X232857200Y-100190475D02*
X232809580Y-100142856D01*
X232809580Y-100142856D02*
X232714342Y-100095237D01*
X232714342Y-100095237D02*
X232476247Y-100095237D01*
X232476247Y-100095237D02*
X232381009Y-100142856D01*
X232381009Y-100142856D02*
X232333390Y-100190475D01*
X232333390Y-100190475D02*
X232285771Y-100285713D01*
X232285771Y-100285713D02*
X232285771Y-100476189D01*
X232285771Y-100476189D02*
X232333390Y-100571427D01*
X232333390Y-100571427D02*
X232381009Y-100619046D01*
X232381009Y-100619046D02*
X232476247Y-100666665D01*
X232809580Y-99666665D02*
X232857200Y-99619046D01*
X232857200Y-99619046D02*
X232904819Y-99666665D01*
X232904819Y-99666665D02*
X232857200Y-99714284D01*
X232857200Y-99714284D02*
X232809580Y-99666665D01*
X232809580Y-99666665D02*
X232904819Y-99666665D01*
X231904819Y-98999999D02*
X231904819Y-98904761D01*
X231904819Y-98904761D02*
X231952438Y-98809523D01*
X231952438Y-98809523D02*
X232000057Y-98761904D01*
X232000057Y-98761904D02*
X232095295Y-98714285D01*
X232095295Y-98714285D02*
X232285771Y-98666666D01*
X232285771Y-98666666D02*
X232523866Y-98666666D01*
X232523866Y-98666666D02*
X232714342Y-98714285D01*
X232714342Y-98714285D02*
X232809580Y-98761904D01*
X232809580Y-98761904D02*
X232857200Y-98809523D01*
X232857200Y-98809523D02*
X232904819Y-98904761D01*
X232904819Y-98904761D02*
X232904819Y-98999999D01*
X232904819Y-98999999D02*
X232857200Y-99095237D01*
X232857200Y-99095237D02*
X232809580Y-99142856D01*
X232809580Y-99142856D02*
X232714342Y-99190475D01*
X232714342Y-99190475D02*
X232523866Y-99238094D01*
X232523866Y-99238094D02*
X232285771Y-99238094D01*
X232285771Y-99238094D02*
X232095295Y-99190475D01*
X232095295Y-99190475D02*
X232000057Y-99142856D01*
X232000057Y-99142856D02*
X231952438Y-99095237D01*
X231952438Y-99095237D02*
X231904819Y-98999999D01*
X231904819Y-98047618D02*
X231904819Y-97952380D01*
X231904819Y-97952380D02*
X231952438Y-97857142D01*
X231952438Y-97857142D02*
X232000057Y-97809523D01*
X232000057Y-97809523D02*
X232095295Y-97761904D01*
X232095295Y-97761904D02*
X232285771Y-97714285D01*
X232285771Y-97714285D02*
X232523866Y-97714285D01*
X232523866Y-97714285D02*
X232714342Y-97761904D01*
X232714342Y-97761904D02*
X232809580Y-97809523D01*
X232809580Y-97809523D02*
X232857200Y-97857142D01*
X232857200Y-97857142D02*
X232904819Y-97952380D01*
X232904819Y-97952380D02*
X232904819Y-98047618D01*
X232904819Y-98047618D02*
X232857200Y-98142856D01*
X232857200Y-98142856D02*
X232809580Y-98190475D01*
X232809580Y-98190475D02*
X232714342Y-98238094D01*
X232714342Y-98238094D02*
X232523866Y-98285713D01*
X232523866Y-98285713D02*
X232285771Y-98285713D01*
X232285771Y-98285713D02*
X232095295Y-98238094D01*
X232095295Y-98238094D02*
X232000057Y-98190475D01*
X232000057Y-98190475D02*
X231952438Y-98142856D01*
X231952438Y-98142856D02*
X231904819Y-98047618D01*
X231904819Y-97095237D02*
X231904819Y-96999999D01*
X231904819Y-96999999D02*
X231952438Y-96904761D01*
X231952438Y-96904761D02*
X232000057Y-96857142D01*
X232000057Y-96857142D02*
X232095295Y-96809523D01*
X232095295Y-96809523D02*
X232285771Y-96761904D01*
X232285771Y-96761904D02*
X232523866Y-96761904D01*
X232523866Y-96761904D02*
X232714342Y-96809523D01*
X232714342Y-96809523D02*
X232809580Y-96857142D01*
X232809580Y-96857142D02*
X232857200Y-96904761D01*
X232857200Y-96904761D02*
X232904819Y-96999999D01*
X232904819Y-96999999D02*
X232904819Y-97095237D01*
X232904819Y-97095237D02*
X232857200Y-97190475D01*
X232857200Y-97190475D02*
X232809580Y-97238094D01*
X232809580Y-97238094D02*
X232714342Y-97285713D01*
X232714342Y-97285713D02*
X232523866Y-97333332D01*
X232523866Y-97333332D02*
X232285771Y-97333332D01*
X232285771Y-97333332D02*
X232095295Y-97285713D01*
X232095295Y-97285713D02*
X232000057Y-97238094D01*
X232000057Y-97238094D02*
X231952438Y-97190475D01*
X231952438Y-97190475D02*
X231904819Y-97095237D01*
X231904819Y-96142856D02*
X231904819Y-96047618D01*
X231904819Y-96047618D02*
X231952438Y-95952380D01*
X231952438Y-95952380D02*
X232000057Y-95904761D01*
X232000057Y-95904761D02*
X232095295Y-95857142D01*
X232095295Y-95857142D02*
X232285771Y-95809523D01*
X232285771Y-95809523D02*
X232523866Y-95809523D01*
X232523866Y-95809523D02*
X232714342Y-95857142D01*
X232714342Y-95857142D02*
X232809580Y-95904761D01*
X232809580Y-95904761D02*
X232857200Y-95952380D01*
X232857200Y-95952380D02*
X232904819Y-96047618D01*
X232904819Y-96047618D02*
X232904819Y-96142856D01*
X232904819Y-96142856D02*
X232857200Y-96238094D01*
X232857200Y-96238094D02*
X232809580Y-96285713D01*
X232809580Y-96285713D02*
X232714342Y-96333332D01*
X232714342Y-96333332D02*
X232523866Y-96380951D01*
X232523866Y-96380951D02*
X232285771Y-96380951D01*
X232285771Y-96380951D02*
X232095295Y-96333332D01*
X232095295Y-96333332D02*
X232000057Y-96285713D01*
X232000057Y-96285713D02*
X231952438Y-96238094D01*
X231952438Y-96238094D02*
X231904819Y-96142856D01*
X232904819Y-94619046D02*
X232238152Y-94619046D01*
X232333390Y-94619046D02*
X232285771Y-94571427D01*
X232285771Y-94571427D02*
X232238152Y-94476189D01*
X232238152Y-94476189D02*
X232238152Y-94333332D01*
X232238152Y-94333332D02*
X232285771Y-94238094D01*
X232285771Y-94238094D02*
X232381009Y-94190475D01*
X232381009Y-94190475D02*
X232904819Y-94190475D01*
X232381009Y-94190475D02*
X232285771Y-94142856D01*
X232285771Y-94142856D02*
X232238152Y-94047618D01*
X232238152Y-94047618D02*
X232238152Y-93904761D01*
X232238152Y-93904761D02*
X232285771Y-93809522D01*
X232285771Y-93809522D02*
X232381009Y-93761903D01*
X232381009Y-93761903D02*
X232904819Y-93761903D01*
X232904819Y-93285713D02*
X232238152Y-93285713D01*
X232333390Y-93285713D02*
X232285771Y-93238094D01*
X232285771Y-93238094D02*
X232238152Y-93142856D01*
X232238152Y-93142856D02*
X232238152Y-92999999D01*
X232238152Y-92999999D02*
X232285771Y-92904761D01*
X232285771Y-92904761D02*
X232381009Y-92857142D01*
X232381009Y-92857142D02*
X232904819Y-92857142D01*
X232381009Y-92857142D02*
X232285771Y-92809523D01*
X232285771Y-92809523D02*
X232238152Y-92714285D01*
X232238152Y-92714285D02*
X232238152Y-92571428D01*
X232238152Y-92571428D02*
X232285771Y-92476189D01*
X232285771Y-92476189D02*
X232381009Y-92428570D01*
X232381009Y-92428570D02*
X232904819Y-92428570D01*
D11*
X220500000Y-140000000D02*
X234186420Y-140000000D01*
X234186420Y-54000000D02*
X220500000Y-54000000D01*
X233600000Y-140000000D02*
X233600000Y-54000000D01*
X233600000Y-140000000D02*
X233013579Y-138873496D01*
X233600000Y-140000000D02*
X234186421Y-138873496D01*
X233600000Y-54000000D02*
X234186421Y-55126504D01*
X233600000Y-54000000D02*
X233013579Y-55126504D01*
D10*
X156976190Y-151304819D02*
X156404762Y-151304819D01*
X156690476Y-151304819D02*
X156690476Y-150304819D01*
X156690476Y-150304819D02*
X156595238Y-150447676D01*
X156595238Y-150447676D02*
X156500000Y-150542914D01*
X156500000Y-150542914D02*
X156404762Y-150590533D01*
X157928571Y-151304819D02*
X157357143Y-151304819D01*
X157642857Y-151304819D02*
X157642857Y-150304819D01*
X157642857Y-150304819D02*
X157547619Y-150447676D01*
X157547619Y-150447676D02*
X157452381Y-150542914D01*
X157452381Y-150542914D02*
X157357143Y-150590533D01*
X158261905Y-150304819D02*
X158928571Y-150304819D01*
X158928571Y-150304819D02*
X158500000Y-151304819D01*
X159309524Y-151209580D02*
X159357143Y-151257200D01*
X159357143Y-151257200D02*
X159309524Y-151304819D01*
X159309524Y-151304819D02*
X159261905Y-151257200D01*
X159261905Y-151257200D02*
X159309524Y-151209580D01*
X159309524Y-151209580D02*
X159309524Y-151304819D01*
X159976190Y-150304819D02*
X160071428Y-150304819D01*
X160071428Y-150304819D02*
X160166666Y-150352438D01*
X160166666Y-150352438D02*
X160214285Y-150400057D01*
X160214285Y-150400057D02*
X160261904Y-150495295D01*
X160261904Y-150495295D02*
X160309523Y-150685771D01*
X160309523Y-150685771D02*
X160309523Y-150923866D01*
X160309523Y-150923866D02*
X160261904Y-151114342D01*
X160261904Y-151114342D02*
X160214285Y-151209580D01*
X160214285Y-151209580D02*
X160166666Y-151257200D01*
X160166666Y-151257200D02*
X160071428Y-151304819D01*
X160071428Y-151304819D02*
X159976190Y-151304819D01*
X159976190Y-151304819D02*
X159880952Y-151257200D01*
X159880952Y-151257200D02*
X159833333Y-151209580D01*
X159833333Y-151209580D02*
X159785714Y-151114342D01*
X159785714Y-151114342D02*
X159738095Y-150923866D01*
X159738095Y-150923866D02*
X159738095Y-150685771D01*
X159738095Y-150685771D02*
X159785714Y-150495295D01*
X159785714Y-150495295D02*
X159833333Y-150400057D01*
X159833333Y-150400057D02*
X159880952Y-150352438D01*
X159880952Y-150352438D02*
X159976190Y-150304819D01*
X160928571Y-150304819D02*
X161023809Y-150304819D01*
X161023809Y-150304819D02*
X161119047Y-150352438D01*
X161119047Y-150352438D02*
X161166666Y-150400057D01*
X161166666Y-150400057D02*
X161214285Y-150495295D01*
X161214285Y-150495295D02*
X161261904Y-150685771D01*
X161261904Y-150685771D02*
X161261904Y-150923866D01*
X161261904Y-150923866D02*
X161214285Y-151114342D01*
X161214285Y-151114342D02*
X161166666Y-151209580D01*
X161166666Y-151209580D02*
X161119047Y-151257200D01*
X161119047Y-151257200D02*
X161023809Y-151304819D01*
X161023809Y-151304819D02*
X160928571Y-151304819D01*
X160928571Y-151304819D02*
X160833333Y-151257200D01*
X160833333Y-151257200D02*
X160785714Y-151209580D01*
X160785714Y-151209580D02*
X160738095Y-151114342D01*
X160738095Y-151114342D02*
X160690476Y-150923866D01*
X160690476Y-150923866D02*
X160690476Y-150685771D01*
X160690476Y-150685771D02*
X160738095Y-150495295D01*
X160738095Y-150495295D02*
X160785714Y-150400057D01*
X160785714Y-150400057D02*
X160833333Y-150352438D01*
X160833333Y-150352438D02*
X160928571Y-150304819D01*
X161880952Y-150304819D02*
X161976190Y-150304819D01*
X161976190Y-150304819D02*
X162071428Y-150352438D01*
X162071428Y-150352438D02*
X162119047Y-150400057D01*
X162119047Y-150400057D02*
X162166666Y-150495295D01*
X162166666Y-150495295D02*
X162214285Y-150685771D01*
X162214285Y-150685771D02*
X162214285Y-150923866D01*
X162214285Y-150923866D02*
X162166666Y-151114342D01*
X162166666Y-151114342D02*
X162119047Y-151209580D01*
X162119047Y-151209580D02*
X162071428Y-151257200D01*
X162071428Y-151257200D02*
X161976190Y-151304819D01*
X161976190Y-151304819D02*
X161880952Y-151304819D01*
X161880952Y-151304819D02*
X161785714Y-151257200D01*
X161785714Y-151257200D02*
X161738095Y-151209580D01*
X161738095Y-151209580D02*
X161690476Y-151114342D01*
X161690476Y-151114342D02*
X161642857Y-150923866D01*
X161642857Y-150923866D02*
X161642857Y-150685771D01*
X161642857Y-150685771D02*
X161690476Y-150495295D01*
X161690476Y-150495295D02*
X161738095Y-150400057D01*
X161738095Y-150400057D02*
X161785714Y-150352438D01*
X161785714Y-150352438D02*
X161880952Y-150304819D01*
X162833333Y-150304819D02*
X162928571Y-150304819D01*
X162928571Y-150304819D02*
X163023809Y-150352438D01*
X163023809Y-150352438D02*
X163071428Y-150400057D01*
X163071428Y-150400057D02*
X163119047Y-150495295D01*
X163119047Y-150495295D02*
X163166666Y-150685771D01*
X163166666Y-150685771D02*
X163166666Y-150923866D01*
X163166666Y-150923866D02*
X163119047Y-151114342D01*
X163119047Y-151114342D02*
X163071428Y-151209580D01*
X163071428Y-151209580D02*
X163023809Y-151257200D01*
X163023809Y-151257200D02*
X162928571Y-151304819D01*
X162928571Y-151304819D02*
X162833333Y-151304819D01*
X162833333Y-151304819D02*
X162738095Y-151257200D01*
X162738095Y-151257200D02*
X162690476Y-151209580D01*
X162690476Y-151209580D02*
X162642857Y-151114342D01*
X162642857Y-151114342D02*
X162595238Y-150923866D01*
X162595238Y-150923866D02*
X162595238Y-150685771D01*
X162595238Y-150685771D02*
X162642857Y-150495295D01*
X162642857Y-150495295D02*
X162690476Y-150400057D01*
X162690476Y-150400057D02*
X162738095Y-150352438D01*
X162738095Y-150352438D02*
X162833333Y-150304819D01*
X164357143Y-151304819D02*
X164357143Y-150638152D01*
X164357143Y-150733390D02*
X164404762Y-150685771D01*
X164404762Y-150685771D02*
X164500000Y-150638152D01*
X164500000Y-150638152D02*
X164642857Y-150638152D01*
X164642857Y-150638152D02*
X164738095Y-150685771D01*
X164738095Y-150685771D02*
X164785714Y-150781009D01*
X164785714Y-150781009D02*
X164785714Y-151304819D01*
X164785714Y-150781009D02*
X164833333Y-150685771D01*
X164833333Y-150685771D02*
X164928571Y-150638152D01*
X164928571Y-150638152D02*
X165071428Y-150638152D01*
X165071428Y-150638152D02*
X165166667Y-150685771D01*
X165166667Y-150685771D02*
X165214286Y-150781009D01*
X165214286Y-150781009D02*
X165214286Y-151304819D01*
X165690476Y-151304819D02*
X165690476Y-150638152D01*
X165690476Y-150733390D02*
X165738095Y-150685771D01*
X165738095Y-150685771D02*
X165833333Y-150638152D01*
X165833333Y-150638152D02*
X165976190Y-150638152D01*
X165976190Y-150638152D02*
X166071428Y-150685771D01*
X166071428Y-150685771D02*
X166119047Y-150781009D01*
X166119047Y-150781009D02*
X166119047Y-151304819D01*
X166119047Y-150781009D02*
X166166666Y-150685771D01*
X166166666Y-150685771D02*
X166261904Y-150638152D01*
X166261904Y-150638152D02*
X166404761Y-150638152D01*
X166404761Y-150638152D02*
X166500000Y-150685771D01*
X166500000Y-150685771D02*
X166547619Y-150781009D01*
X166547619Y-150781009D02*
X166547619Y-151304819D01*
D11*
X103000000Y-140500000D02*
X103000000Y-152586420D01*
X220000000Y-152586420D02*
X220000000Y-140500000D01*
X103000000Y-152000000D02*
X220000000Y-152000000D01*
X103000000Y-152000000D02*
X104126504Y-151413579D01*
X103000000Y-152000000D02*
X104126504Y-152586421D01*
X220000000Y-152000000D02*
X218873496Y-152586421D01*
X220000000Y-152000000D02*
X218873496Y-151413579D01*
M02*
